<svg width="77" height="77" viewBox="0 0 77 77" fill="none" xmlns="http://www.w3.org/2000/svg">
<path d="M4.41157 40.3096L2.67139 54.6683L5.02294 52.5343L6.74723 60.8092L13.1226 54.5197L8.85865 40.3096H4.41157Z" fill="#16A085"/>
<path d="M72.4879 40.3096L74.2283 54.6683L71.8767 52.5343L70.1522 60.8092L63.7769 54.5197L68.041 40.3096H72.4879Z" fill="#16A085"/>
<path d="M25.9265 23.3506H51.1308C55.5483 23.3506 59.7848 24.9332 62.9084 27.7503C66.032 30.5673 67.7869 34.388 67.7869 38.3718V49.737C67.7869 53.2021 67.0302 56.6332 65.5599 59.8345C64.0896 63.0358 61.9345 65.9446 59.2177 68.3948C56.5009 70.845 53.2755 72.7886 49.7257 74.1147C46.176 75.4407 42.3714 76.1232 38.5292 76.1232C30.7695 76.1232 23.3277 73.3433 17.8409 68.395C12.354 63.4468 9.27148 56.7355 9.27148 49.7376V38.3718C9.27148 34.3881 11.0262 30.5676 14.1495 27.7506C17.2729 24.9336 21.5092 23.3509 25.9265 23.3506Z" fill="#F4DCC6"/>
<path d="M38.5292 74.2036C30.7695 74.2036 23.3277 71.4237 17.8409 66.4754C12.354 61.5272 9.27148 54.8159 9.27148 47.8179V49.737C9.2714 53.2021 10.0281 56.6332 11.4984 59.8345C12.9687 63.0359 15.1238 65.9447 17.8406 68.3948C20.5575 70.845 23.7828 72.7886 27.3326 74.1147C30.8823 75.4407 34.6869 76.1232 38.5292 76.1232C46.2888 76.1232 53.7306 73.3433 59.2175 68.395C64.7043 63.4468 67.7869 56.7355 67.7869 49.7376V47.8174C67.7869 51.2824 67.0302 54.7136 65.5599 57.9149C64.0896 61.1162 61.9345 64.025 59.2177 66.4752C56.5009 68.9254 53.2755 70.869 49.7257 72.1951C46.176 73.5211 42.3714 74.2036 38.5292 74.2036Z" fill="#C99673"/>
<path d="M67.7864 38.3716C67.7864 34.3878 66.0316 30.5671 62.9079 27.7501C59.7843 24.9332 55.5478 23.3506 51.1304 23.3506H25.9262C21.5087 23.3506 17.272 24.9332 14.1483 27.7503C11.0246 30.5673 9.26978 34.3881 9.26978 38.372V38.7613H38.5826L42.1959 49.7368V40.5324C42.1959 40.0627 42.4028 39.6123 42.771 39.2801C43.1393 38.948 43.6387 38.7614 44.1595 38.7613H67.7864V38.3716Z" fill="#C99673"/>
<path d="M23.0243 53.8952C28.2661 53.8952 32.5154 50.063 32.5154 45.3358C32.5154 40.6086 28.2661 36.7764 23.0243 36.7764C17.7825 36.7764 13.5332 40.6086 13.5332 45.3358C13.5332 50.063 17.7825 53.8952 23.0243 53.8952Z" fill="#ECF0F1"/>
<path d="M23.0243 36.7764C20.5071 36.7764 18.093 37.6782 16.3131 39.2834C14.5332 40.8886 13.5332 43.0657 13.5332 45.3358H32.5154C32.5154 43.0657 31.5154 40.8886 29.7355 39.2834C27.9556 37.6782 25.5415 36.7764 23.0243 36.7764Z" fill="#BDC3C7"/>
<path d="M24.6715 51.8386C28.2429 51.8386 31.1381 48.8953 31.1381 45.2645C31.1381 41.6337 28.2429 38.6904 24.6715 38.6904C21.1 38.6904 18.2048 41.6337 18.2048 45.2645C18.2048 48.8953 21.1 51.8386 24.6715 51.8386Z" fill="#414141"/>
<path d="M24.6711 48.5779C26.4711 48.5779 27.9303 47.0945 27.9303 45.2646C27.9303 43.4346 26.4711 41.9512 24.6711 41.9512C22.8711 41.9512 21.4119 43.4346 21.4119 45.2646C21.4119 47.0945 22.8711 48.5779 24.6711 48.5779Z" fill="#ECF0F1"/>
<path d="M54.0311 53.8952C59.2729 53.8952 63.5222 50.063 63.5222 45.3358C63.5222 40.6086 59.2729 36.7764 54.0311 36.7764C48.7893 36.7764 44.54 40.6086 44.54 45.3358C44.54 50.063 48.7893 53.8952 54.0311 53.8952Z" fill="#ECF0F1"/>
<path d="M54.0311 36.7764C51.5139 36.7764 49.0998 37.6782 47.3199 39.2834C45.54 40.8886 44.54 43.0657 44.54 45.3358H63.5222C63.5222 43.0657 62.5223 40.8886 60.7424 39.2834C58.9624 37.6782 56.5483 36.7764 54.0311 36.7764Z" fill="#BDC3C7"/>
<path d="M52.3846 51.8386C55.956 51.8386 58.8512 48.8953 58.8512 45.2645C58.8512 41.6337 55.956 38.6904 52.3846 38.6904C48.8132 38.6904 45.918 41.6337 45.918 45.2645C45.918 48.8953 48.8132 51.8386 52.3846 51.8386Z" fill="#414141"/>
<path d="M52.3862 48.5779C54.1862 48.5779 55.6454 47.0945 55.6454 45.2646C55.6454 43.4346 54.1862 41.9512 52.3862 41.9512C50.5862 41.9512 49.127 43.4346 49.127 45.2646C49.127 47.0945 50.5862 48.5779 52.3862 48.5779Z" fill="#ECF0F1"/>
<path d="M20.4604 47.1737C21.6292 47.1737 22.5768 46.3192 22.5768 45.2651C22.5768 44.211 21.6292 43.3564 20.4604 43.3564C19.2915 43.3564 18.344 44.211 18.344 45.2651C18.344 46.3192 19.2915 47.1737 20.4604 47.1737Z" fill="#ECF0F1"/>
<path d="M48.1755 47.1737C49.3443 47.1737 50.2918 46.3192 50.2918 45.2651C50.2918 44.211 49.3443 43.3564 48.1755 43.3564C47.0066 43.3564 46.0591 44.211 46.0591 45.2651C46.0591 46.3192 47.0066 47.1737 48.1755 47.1737Z" fill="#ECF0F1"/>
<path d="M39.5398 57.2742L42.8054 53.9273C42.9765 53.7519 43.0879 53.5356 43.1262 53.3045C43.1645 53.0734 43.1281 52.8372 43.0213 52.6243C42.9145 52.4114 42.7419 52.2308 42.5242 52.1041C42.3064 51.9774 42.0528 51.9101 41.7937 51.9102H35.2624C35.0033 51.9101 34.7496 51.9774 34.5319 52.1041C34.3142 52.2308 34.1415 52.4114 34.0348 52.6243C33.928 52.8372 33.8915 53.0734 33.9298 53.3045C33.9681 53.5356 34.0795 53.7519 34.2507 53.9273L37.5163 57.2742C37.6427 57.4039 37.7983 57.5079 37.9728 57.579C38.1473 57.6502 38.3366 57.687 38.528 57.687C38.7195 57.687 38.9088 57.6502 39.0833 57.579C39.2577 57.5079 39.4133 57.4039 39.5398 57.2742Z" fill="#C99673"/>
<path d="M51.0826 31.6011C54.6162 30.9754 57.2915 29.5987 57.058 28.5261C56.8245 27.4535 53.7707 27.0912 50.2371 27.7168C46.7034 28.3424 44.0281 29.7191 44.2616 30.7917C44.4951 31.8644 47.549 32.2267 51.0826 31.6011Z" fill="#16A085"/>
<path d="M32.6815 30.7912C32.915 29.7186 30.2397 28.3419 26.7061 27.7163C23.1725 27.0907 20.1187 27.453 19.8852 28.5256C19.6517 29.5982 22.327 30.9749 25.8606 31.6006C29.3942 32.2262 32.448 31.8639 32.6815 30.7912Z" fill="#16A085"/>
<path d="M38.0316 0.990285C17.4418 1.23124 1.06201 16.7103 1.06201 35.2807V49.7367L5.55225 42.3001L7.21707 49.7367L8.01386 48.4374C8.62717 49.325 9.34974 50.1473 10.1678 50.8886C12.4351 52.9077 15.184 53.5827 16.8558 53.8322C14.8228 52.1145 13.2537 49.9991 12.2693 47.6488C11.7121 46.2292 11.3502 44.7534 11.1919 43.2543L16.3896 34.7772L22.4823 26.0312C26.387 35.4794 33.2321 43.7107 42.196 49.7373C42.196 49.7373 40.1174 39.5841 39.5312 34.1007C39.4598 33.4314 39.4001 32.7737 39.3454 32.1213C42.4412 34.3126 46.0094 35.898 49.8224 36.7765C48.2182 34.1739 46.9002 31.436 45.8874 28.6019C45.6481 27.9316 45.4373 27.2799 45.243 26.638C53.3282 30.8146 60.3538 36.472 65.8675 43.2459C65.7098 44.7477 65.3477 46.2264 64.7893 47.6484C63.8049 49.9987 62.2358 52.1141 60.2028 53.8318C61.8753 53.5823 64.6235 52.9073 66.8908 50.8882C67.8541 50.0189 68.6817 49.0354 69.3509 47.9648C69.7387 48.5489 70.1159 49.1394 70.4824 49.7365C70.9036 47.4344 71.325 45.1322 71.7465 42.8301L75.9966 49.7365V34.7766C75.9966 30.3016 75.0108 25.8711 73.0967 21.7424C71.1825 17.6137 68.378 13.8691 64.846 10.7258C61.314 7.58257 57.1249 5.10336 52.5218 3.43211C47.9187 1.76085 42.9933 0.930852 38.0316 0.990285Z" fill="#1ABC9C"/>
<path d="M73.3187 22.2376C72.3413 20.0303 71.1077 17.9225 69.6385 15.9492C62.3109 21.3396 51.0988 24.7893 38.5267 24.7893C26.0301 24.7893 14.8787 21.3798 7.54883 16.0451C6.07609 18.0256 4.83461 20.1382 3.84424 22.3492C7.41834 26.0473 12.6162 29.118 18.865 31.2198L22.4804 26.0298C23.492 28.4698 24.7026 30.8389 26.1024 33.1176C30.1864 33.9044 34.3513 34.2987 38.5275 34.2939C38.8709 34.2939 39.2089 34.2834 39.5504 34.2784C39.5438 34.2194 39.5363 34.1579 39.5297 34.0998C39.4583 33.4306 39.3986 32.7729 39.3439 32.1204C40.4116 32.8728 41.5373 33.5557 42.7126 34.1639C44.531 34.0522 46.311 33.8626 48.0485 33.6103C47.2188 31.9805 46.4967 30.3079 45.8859 28.6013C45.6466 27.931 45.4358 27.2792 45.2415 26.6374C48.4672 28.3052 51.5326 30.2136 54.4055 32.3424C62.4079 30.2822 69.0476 26.712 73.3187 22.2376Z" fill="#25E5C0"/>
<path d="M33.4883 62.6582H43.6781V65.5565C43.6781 66.1599 43.5463 66.7574 43.2903 67.3148C43.0342 67.8723 42.659 68.3788 42.1859 68.8055C41.7128 69.2321 41.1511 69.5706 40.533 69.8015C39.9149 70.0324 39.2523 70.1512 38.5833 70.1512C37.9142 70.1512 37.2517 70.0324 36.6336 69.8015C36.0155 69.5706 35.4538 69.2321 34.9807 68.8055C34.5076 68.3788 34.1323 67.8723 33.8763 67.3148C33.6203 66.7574 33.4885 66.1599 33.4885 65.5565V62.6582H33.4883Z" fill="#FF6D55"/>
<path d="M39.0391 64.3018C39.0391 64.0968 38.8548 63.9307 38.6276 63.9307C38.4003 63.9307 38.2161 64.0968 38.2161 64.3018V69.0203C38.2161 69.2252 38.4003 69.3914 38.6276 69.3914C38.8548 69.3914 39.0391 69.2252 39.0391 69.0203V64.3018Z" fill="#D85B4A"/>
<path d="M46.5486 61.8369H30.5081C30.2664 61.8369 30.0347 61.9235 29.8638 62.0776C29.6929 62.2317 29.5969 62.4407 29.5969 62.6586C29.5969 62.8766 29.6929 63.0856 29.8638 63.2397C30.0347 63.3938 30.2664 63.4804 30.5081 63.4804H32.4331V65.5153C32.4425 66.9752 33.0922 68.3725 34.2402 69.4019C35.3883 70.4313 36.9414 71.0091 38.5604 71.0091C40.1793 71.0091 41.7324 70.4313 42.8805 69.4019C44.0286 68.3725 44.6783 66.9752 44.6877 65.5153V63.4804H46.5486C46.7903 63.4804 47.022 63.3938 47.1929 63.2397C47.3638 63.0856 47.4598 62.8766 47.4598 62.6586C47.4598 62.4407 47.3638 62.2317 47.1929 62.0776C47.022 61.9235 46.7903 61.8369 46.5486 61.8369ZM42.6229 65.5153C42.6152 66.4824 42.1839 67.4076 41.4228 68.0891C40.6618 68.7705 39.6328 69.153 38.5604 69.153C37.4879 69.153 36.459 68.7705 35.6979 68.0891C34.9369 67.4076 34.5055 66.4824 34.4978 65.5153V63.548H42.6229V65.5153Z" fill="black"/>
<path d="M65.5449 10.0108C61.9232 6.7706 57.6197 4.2162 52.8875 2.49777C48.1552 0.779341 43.0897 -0.0684284 37.9888 0.00431442C27.7889 0.12386 18.2224 3.8726 11.054 10.5601C3.94459 17.1678 -0.0218678 26.0185 9.0688e-05 35.2256V49.6818C0.000112161 49.8887 0.076573 50.0898 0.217399 50.2531C0.358224 50.4165 0.555387 50.5329 0.777748 50.584C1.00011 50.635 1.23499 50.6178 1.4453 50.5351C1.65561 50.4523 1.82936 50.3088 1.93911 50.127L2.2003 49.6941L1.61659 54.5133C1.59337 54.7052 1.63685 54.8989 1.74102 55.0675C1.84518 55.2361 2.00488 55.3714 2.19802 55.4545C2.39116 55.5377 2.60818 55.5647 2.81907 55.5317C3.02996 55.4988 3.22428 55.4076 3.37515 55.2706L4.34249 54.3929L5.7042 60.9273C5.73975 61.0971 5.82702 61.2547 5.95623 61.3823C6.08544 61.5099 6.2515 61.6026 6.43581 61.65C6.62012 61.6973 6.81541 61.6975 6.99981 61.6504C7.18421 61.6034 7.35044 61.5109 7.4799 61.3835L9.98776 58.9095C14.1931 69.4457 25.3853 77 38.4986 77C51.5663 77 62.7272 69.4988 66.9661 59.0203L69.3612 61.3835C69.4907 61.5112 69.657 61.6039 69.8415 61.6511C70.026 61.6983 70.2215 61.6982 70.406 61.6509C70.5905 61.6035 70.7567 61.5107 70.886 61.3829C71.0153 61.2551 71.1026 61.0973 71.138 60.9273L72.4997 54.3929L73.467 55.2706C73.6178 55.4079 73.8122 55.4995 74.0233 55.5326C74.2344 55.5658 74.4517 55.5389 74.6451 55.4557C74.8385 55.3724 74.9983 55.237 75.1025 55.0682C75.2067 54.8993 75.2501 54.7054 75.2266 54.5133L74.6055 49.3882L75.0647 50.1343C75.1757 50.3147 75.35 50.4567 75.5602 50.5381C75.7705 50.6195 76.0047 50.6356 76.2262 50.5839C76.4476 50.5322 76.6438 50.4156 76.7838 50.2525C76.9238 50.0893 76.9998 49.8889 76.9998 49.6826V34.7217C77.0151 30.1219 76.0095 25.5658 74.0422 21.322C72.0749 17.0781 69.1858 13.2321 65.5449 10.0108V10.0108ZM7.35168 58.7503L6.00958 52.3075C5.97479 52.1408 5.89014 51.9858 5.76478 51.8593C5.63942 51.7328 5.47811 51.6396 5.29829 51.5898C5.11847 51.5399 4.92696 51.5353 4.74446 51.5765C4.56197 51.6177 4.39541 51.703 4.26279 51.8234L3.99024 52.0707L4.79984 45.3903L5.07301 44.938L6.17641 49.8661C6.21813 50.0523 6.32198 50.2225 6.47403 50.3539C6.62608 50.4853 6.81906 50.5717 7.02707 50.6013C7.23508 50.631 7.44818 50.6026 7.63777 50.5199C7.82736 50.4372 7.98438 50.3042 8.08776 50.1388C8.13051 50.1881 8.17448 50.2361 8.21784 50.2849C8.27011 52.5062 8.62375 54.7133 9.27087 56.857L7.35168 58.7503ZM38.4994 75.1366C23.9152 75.1366 11.883 65.1086 10.4257 52.2975C12.2491 53.5525 14.3913 54.3768 16.6578 54.6953C16.7137 54.7037 16.7702 54.7078 16.8269 54.7077C17.0328 54.7076 17.2341 54.652 17.4047 54.5479C17.5753 54.4439 17.7075 54.2962 17.7843 54.1238C17.8611 53.9515 17.879 53.7624 17.8356 53.5808C17.7923 53.3992 17.6897 53.2335 17.5411 53.1049C15.62 51.4867 14.1378 49.4913 13.2094 47.2734C12.7134 46.0181 12.383 44.7145 12.2249 43.3895L17.2497 35.1943L20.3865 30.6914C20.5517 30.7931 20.7282 30.8953 20.9269 30.9973C22.022 31.5335 23.1885 31.9416 24.3981 32.2118C25.305 33.7904 26.2961 35.325 27.3714 36.8154C25.787 36.1566 24.0442 35.868 22.3036 35.9762C20.563 36.0845 18.8806 36.586 17.4115 37.4347C15.9423 38.2834 14.7336 39.4519 13.8967 40.8325C13.0599 42.2131 12.6218 43.7615 12.6228 45.335C12.6228 45.4429 12.6464 45.5497 12.6922 45.6494C12.738 45.7491 12.8051 45.8397 12.8897 45.916C12.9743 45.9923 13.0747 46.0529 13.1853 46.0942C13.2958 46.1354 13.4143 46.1567 13.534 46.1567C13.6536 46.1567 13.7721 46.1354 13.8827 46.0942C13.9932 46.0529 14.0937 45.9923 14.1783 45.916C14.2629 45.8397 14.33 45.7491 14.3758 45.6494C14.4216 45.5497 14.4452 45.4429 14.4452 45.335C14.4439 44.203 14.7184 43.0847 15.2491 42.0589C15.7798 41.0331 16.5538 40.125 17.5165 39.3987C18.4792 38.6723 19.607 38.1455 20.8202 37.8555C22.0334 37.5655 23.3025 37.5193 24.5377 37.7202C20.454 37.7803 17.15 41.1216 17.15 45.2225C17.15 49.3608 20.5141 52.7276 24.649 52.7276C28.5002 52.7276 31.6812 49.8064 32.0999 46.0614C32.2281 46.1229 32.371 46.1555 32.5162 46.1563C32.7579 46.1563 32.9896 46.0697 33.1605 45.9155C33.3314 45.7614 33.4274 45.5524 33.4274 45.3344C33.4265 44.7723 33.3697 44.2115 33.2576 43.6585C35.7798 46.1443 38.5558 48.4105 41.5489 50.427C41.7152 50.5391 41.9151 50.6033 42.1225 50.6114C42.3299 50.6194 42.5352 50.5709 42.7116 50.4721C42.888 50.3733 43.0272 50.2289 43.1111 50.0576C43.1951 49.8864 43.2198 49.6963 43.1821 49.5122C43.1615 49.4114 41.1174 39.4011 40.5355 34.0085C41.3174 34.4783 42.1233 34.9137 42.9463 35.3108C44.7275 36.1693 46.6019 36.8603 48.5398 37.3731C47.0384 38.2147 45.7997 39.3874 44.9404 40.7805C44.0811 42.1737 43.6296 43.7413 43.6285 45.3355C43.6285 45.5535 43.7245 45.7625 43.8954 45.9166C44.0663 46.0708 44.298 46.1574 44.5397 46.1575C44.669 46.1572 44.7968 46.1317 44.9142 46.083C45.3423 49.8176 48.5189 52.7282 52.3625 52.7282C56.4974 52.7282 59.8615 49.3613 59.8615 45.2231C59.8615 41.135 56.5785 37.8021 52.512 37.7219C53.7475 37.52 55.0172 37.5654 56.2311 37.8549C57.4451 38.1444 58.5736 38.671 59.537 39.3973C60.5004 40.1236 61.275 41.032 61.8061 42.0581C62.3372 43.0843 62.6118 44.2031 62.6105 45.3355C62.6097 45.5158 62.6748 45.6914 62.7959 45.8349C62.9169 45.9784 63.0871 46.0819 63.28 46.1293C63.4729 46.1768 63.6777 46.1655 63.8628 46.0972C64.0479 46.029 64.2028 45.9076 64.3036 45.7519C64.1624 46.2671 63.991 46.7751 63.7901 47.274C62.8616 49.4918 61.3795 51.4872 59.4584 53.1054C59.2993 53.2431 59.1933 53.423 59.1558 53.6189C59.1183 53.8149 59.1513 54.0165 59.2501 54.1942C59.3488 54.372 59.508 54.5166 59.7045 54.6069C59.9009 54.6971 60.1242 54.7283 60.3417 54.6958C62.6086 54.3774 64.7512 53.553 66.5746 52.2975C65.1175 65.1086 53.0839 75.1372 38.4994 75.1372V75.1366ZM21.4839 29.1166L21.9906 28.3895C22.1145 28.372 22.2465 28.3563 22.3881 28.3433C22.6309 28.8636 22.883 29.3799 23.1444 29.8924C22.5609 29.6897 22.0041 29.4296 21.4839 29.1166V29.1166ZM30.0829 45.2236C30.0829 48.3351 27.645 50.8666 24.6486 50.8666C21.6522 50.8666 19.2144 48.3342 19.2144 45.2236C19.2144 42.113 21.652 39.5795 24.6486 39.5795C27.6452 39.5795 30.0837 42.1119 30.0837 45.2231L30.0829 45.2236ZM50.7718 36.4296C50.7522 36.3742 50.7269 36.3205 50.6962 36.2694C49.9942 35.1291 49.3479 33.9584 48.7578 32.7663C49.5983 32.7183 50.4344 32.6204 51.2607 32.4732C51.7207 32.3918 52.1692 32.2954 52.6045 32.1891C54.6466 33.6317 56.591 35.1835 58.4271 36.8361C56.0268 35.8235 53.2877 35.678 50.7722 36.4296H50.7718ZM52.3625 39.5795C55.3588 39.5795 57.7967 42.1119 57.7967 45.2225C57.7967 48.3331 55.3597 50.8661 52.3625 50.8661C49.3653 50.8661 46.9282 48.3337 46.9282 45.2231C46.9282 42.1125 49.3669 39.5795 52.3625 39.5795ZM47.904 30.9338C47.6861 30.4359 47.4781 29.935 47.2801 29.4311C47.4898 29.3501 47.7161 29.2699 47.9589 29.1907C48.7966 29.6828 49.6198 30.1911 50.4288 30.7156C49.5954 30.85 48.7514 30.9232 47.9049 30.9344L47.904 30.9338ZM63.9317 42.4618C64.213 42.7885 64.4911 43.1179 64.7661 43.45C64.6817 44.0846 64.5691 44.6844 64.4306 45.2582C64.4232 44.3089 64.2553 43.366 63.9326 42.4623L63.9317 42.4618ZM72.5804 51.8228C72.4478 51.7024 72.2812 51.617 72.0987 51.5758C71.9162 51.5346 71.7246 51.5392 71.5448 51.589C71.3649 51.6389 71.2036 51.7321 71.0782 51.8586C70.9528 51.9852 70.8682 52.1402 70.8334 52.307L69.4913 58.7498L67.6919 56.9748C68.3618 54.7952 68.7278 52.5487 68.7815 50.2874C68.9481 50.0991 69.1155 49.9025 69.2801 49.6973C69.3715 49.8431 69.461 49.9879 69.5485 50.1317C69.6522 50.3009 69.8118 50.4369 70.005 50.5206C70.1983 50.6044 70.4157 50.6318 70.627 50.599C70.8383 50.5662 71.0331 50.475 71.1843 50.3378C71.3354 50.2007 71.4355 50.0245 71.4706 49.8337L72.1388 46.1824L72.8525 52.0709L72.5804 51.8228ZM74.9342 46.0852L72.619 42.3238C72.515 42.1548 72.3553 42.0192 72.1619 41.9358C71.9686 41.8523 71.7513 41.8253 71.5401 41.8582C71.329 41.8912 71.1344 41.9827 70.9835 42.1199C70.8325 42.2571 70.7327 42.4333 70.6978 42.624L69.8741 47.1242C69.7548 47.056 69.6213 47.0105 69.4817 46.9906C69.3421 46.9708 69.1995 46.977 69.0627 47.0088C68.9259 47.0407 68.7978 47.0975 68.6864 47.1758C68.5749 47.2541 68.4825 47.3522 68.4148 47.4641C67.7941 48.4552 67.0272 49.366 66.1353 50.1713C65.319 50.8931 64.3745 51.4864 63.3408 51.9265C64.3402 50.6958 65.144 49.3451 65.7289 47.9138C66.3188 46.4204 66.7003 44.8666 66.8645 43.2882C66.8913 43.058 66.822 42.8271 66.67 42.6405C61.0803 35.7543 53.9439 30.0078 45.7263 25.7757C45.549 25.6841 45.3456 25.642 45.1418 25.6548C44.9379 25.6676 44.7429 25.7346 44.5813 25.8474C44.4197 25.9602 44.2989 26.1137 44.2341 26.2884C44.1693 26.4632 44.1635 26.6513 44.2174 26.8291C44.4365 27.5515 44.651 28.207 44.8752 28.833C45.6542 31.0107 46.6097 33.1337 47.7341 35.185C44.9244 34.2932 42.2959 32.992 39.9532 31.3331C39.7957 31.2216 39.6056 31.1538 39.4061 31.1381C39.2066 31.1223 39.0063 31.1592 38.8297 31.2443C38.653 31.3294 38.5076 31.459 38.4112 31.6173C38.3148 31.7756 38.2715 31.9557 38.2866 32.1358C38.3504 32.898 38.4105 33.5324 38.4743 34.1346C38.8829 37.9572 40.021 44.0801 40.6743 47.4441C32.8901 41.6811 26.937 34.1619 23.4201 25.6511C23.3528 25.4884 23.2363 25.346 23.084 25.2399C22.9316 25.1337 22.7494 25.0681 22.5579 25.0504C22.3664 25.0328 22.1732 25.0638 22.0001 25.1399C21.8271 25.216 21.6811 25.3343 21.5787 25.4813L15.4858 34.2264C15.4755 34.2411 15.4652 34.256 15.4565 34.2712L10.2589 42.7482C10.1564 42.915 10.1131 43.1063 10.135 43.296C10.2996 44.8717 10.6807 46.4229 11.2696 47.9139C11.8543 49.3453 12.6581 50.696 13.6575 51.9267C12.6238 51.4866 11.6792 50.8933 10.863 50.1715C10.1033 49.4826 9.43212 48.7186 8.86226 47.894C8.7698 47.7588 8.64054 47.6473 8.48676 47.5698C8.33299 47.4924 8.15981 47.4518 7.9837 47.4518H7.95892C7.88727 47.4533 7.81599 47.4616 7.74625 47.4765L6.53382 42.0612C6.49183 41.874 6.38696 41.7029 6.23346 41.5712C6.07995 41.4395 5.88524 41.3536 5.67574 41.3251C5.46624 41.2967 5.2521 41.327 5.06239 41.4121C4.87267 41.4971 4.71656 41.6328 4.61525 41.8006L2.06485 46.0252V35.2252C2.06485 17.0628 18.1921 2.09878 38.0153 1.86602C42.8403 1.80814 47.6301 2.61522 52.1065 4.2404C56.5829 5.86558 60.6567 8.27649 64.0915 11.3332C67.5263 14.3898 70.2536 18.0314 72.115 22.0464C73.9765 26.0614 74.9351 30.3698 74.9351 34.7217L74.9342 46.0852Z" fill="black"/>
</svg>

