<svg width="77" height="77" viewBox="0 0 77 77" fill="none" xmlns="http://www.w3.org/2000/svg">
<path d="M8.21561 34.7217L0.937988 60.7544C0.937988 60.7544 6.85001 52.5237 7.04074 53.9881C7.23148 55.4525 9.51993 66.0598 9.51993 66.0598L19.0555 57.2193L19.8183 70.8668L31.2723 53.9887L13.2075 34.7217H8.21561ZM68.988 34.7217L76.2656 60.7544C76.2656 60.7544 70.3536 52.5237 70.1628 53.9881C69.9721 55.4525 67.6837 66.0598 67.6837 66.0598L58.1482 57.2193L57.3853 70.8668L45.9313 53.9885L63.9961 34.7217H68.988Z" fill="#FA6369"/>
<path d="M28.3788 23.2949H48.82C52.4025 23.2951 55.8383 24.8778 58.3715 27.6949C60.9047 30.512 62.3278 34.3328 62.3278 38.3166V49.6822C62.3279 53.1474 61.7141 56.5786 60.5217 59.7801C59.3293 62.9815 57.5815 65.8904 55.3781 68.3407C53.1747 70.791 50.5588 72.7346 47.6799 74.0607C44.801 75.3868 41.7154 76.0693 38.5993 76.0693C32.3061 76.0693 26.2707 73.2893 21.8208 68.3409C17.3708 63.3924 14.8708 56.6809 14.8708 49.6828V38.3166C14.8708 34.3327 16.294 30.512 18.8272 27.6949C21.3604 24.8778 24.7962 23.2951 28.3788 23.2949Z" fill="#F4DCC6"/>
<path d="M48.82 23.2949H28.3788C24.7963 23.295 21.3605 24.8777 18.8272 27.6948C16.294 30.5118 14.8708 34.3326 14.8708 38.3164V38.7062H62.3278V38.3164C62.3278 34.3326 60.9047 30.5119 58.3715 27.6948C55.8383 24.8778 52.4025 23.2951 48.82 23.2949ZM38.5993 74.1496C32.3061 74.1496 26.2707 71.3696 21.8208 66.4212C17.3708 61.4728 14.8708 54.7612 14.8708 47.7631V49.6826C14.8708 53.1477 15.4846 56.579 16.677 59.7803C17.8695 62.9817 19.6173 65.8906 21.8207 68.3408C24.0241 70.791 26.6399 72.7347 29.5188 74.0607C32.3977 75.3868 35.4832 76.0693 38.5993 76.0693C44.8925 76.0693 50.9279 73.2893 55.3779 68.3409C59.8278 63.3924 62.3278 56.6809 62.3278 49.6828V47.7625C62.3279 51.2277 61.7142 54.659 60.5217 57.8604C59.3293 61.0618 57.5815 63.9707 55.3781 66.421C53.1747 68.8713 50.5588 70.8149 47.6799 72.141C44.801 73.4671 41.7154 74.1496 38.5993 74.1496Z" fill="#C99673"/>
<path d="M21.3868 52.0997C21.9532 51.3431 22.6623 50.7343 23.464 50.3165C24.2656 49.8987 25.14 49.6821 26.0253 49.6821C26.9106 49.6821 27.7851 49.8987 28.5867 50.3165C29.3883 50.7343 30.0974 51.3431 30.6638 52.0997C31.9514 51.0185 32.9009 49.5148 33.3782 47.8009C33.8555 46.0871 33.8365 44.2498 33.3238 42.5486C32.8111 40.8475 31.8306 39.3685 30.521 38.3206C29.2114 37.2727 27.6387 36.709 26.0253 36.709C24.4119 36.709 22.8393 37.2727 21.5296 38.3206C20.22 39.3685 19.2396 40.8475 18.7269 42.5486C18.2142 44.2498 18.1951 46.0871 18.6724 47.8009C19.1497 49.5148 20.0992 51.0185 21.3868 52.0997Z" fill="#ECF0F1"/>
<path d="M26.0273 36.7207C23.9858 36.7207 22.0279 37.6225 20.5844 39.2278C19.1408 40.833 18.3298 43.0102 18.3298 45.2804H33.7247C33.7247 43.0102 32.9137 40.833 31.4702 39.2278C30.0266 37.6225 28.0688 36.7207 26.0273 36.7207Z" fill="#BDC3C7"/>
<path d="M22.9702 50.6147C23.8959 50.0047 24.9521 49.6829 26.0282 49.6829C27.1042 49.6829 28.1604 50.0047 29.0861 50.6147C30.409 49.4214 31.2726 47.4798 31.2726 45.2814C31.2726 41.6502 28.9245 38.708 26.0282 38.708C23.1319 38.708 20.7837 41.6515 20.7837 45.2814C20.7844 47.4798 21.6479 49.4214 22.9702 50.6147Z" fill="#414141"/>
<path d="M26.0271 48.5938C27.4869 48.5938 28.6703 47.1103 28.6703 45.2803C28.6703 43.4503 27.4869 41.9668 26.0271 41.9668C24.5672 41.9668 23.3838 43.4503 23.3838 45.2803C23.3838 47.1103 24.5672 48.5938 26.0271 48.5938Z" fill="#313131"/>
<path d="M51.1742 36.7207C49.1328 36.7207 47.1749 37.6225 45.7313 39.2278C44.2878 40.833 43.4768 43.0102 43.4768 45.2804H58.8717C58.8717 43.0102 58.0607 40.833 56.6172 39.2278C55.1736 37.6225 53.2157 36.7207 51.1742 36.7207Z" fill="#BDC3C7"/>
<path d="M46.5361 52.0995C47.1024 51.3429 47.8116 50.7341 48.6132 50.3163C49.4148 49.8985 50.2893 49.6819 51.1746 49.6819C52.0599 49.6819 52.9344 49.8985 53.736 50.3163C54.5376 50.7341 55.2467 51.3429 55.8131 52.0995C57.1008 51.0183 58.0504 49.5146 58.5278 47.8006C59.0051 46.0867 58.9861 44.2493 58.4734 42.548C57.9607 40.8468 56.9802 39.3677 55.6705 38.3198C54.3608 37.2718 52.7881 36.708 51.1746 36.708C49.5611 36.708 47.9884 37.2718 46.6787 38.3198C45.369 39.3677 44.3885 40.8468 43.8758 42.548C43.3631 44.2493 43.344 46.0867 43.8214 47.8006C44.2988 49.5146 45.2484 51.0183 46.5361 52.0995Z" fill="#ECF0F1"/>
<path d="M51.1425 36.7207C49.101 36.7207 47.1431 37.6225 45.6996 39.2278C44.256 40.833 43.4451 43.0102 43.4451 45.2804H58.8399C58.8399 43.0102 58.0289 40.833 56.5854 39.2278C55.1418 37.6225 53.184 36.7207 51.1425 36.7207Z" fill="#BDC3C7"/>
<path d="M48.1149 50.6147C49.0407 50.0047 50.0969 49.6829 51.173 49.6829C52.2491 49.6829 53.3053 50.0047 54.2311 50.6147C55.554 49.4214 56.4174 47.4798 56.4174 45.2814C56.4174 41.6502 54.0695 38.708 51.1728 38.708C48.2762 38.708 45.9285 41.6515 45.9285 45.2814C45.9285 47.4798 46.7925 49.4214 48.1149 50.6147Z" fill="#414141"/>
<path d="M51.176 48.5938C52.6359 48.5938 53.8193 47.1103 53.8193 45.2803C53.8193 43.4503 52.6359 41.9668 51.176 41.9668C49.7162 41.9668 48.5327 43.4503 48.5327 45.2803C48.5327 47.1103 49.7162 48.5938 51.176 48.5938Z" fill="#313131"/>
<path d="M22.6129 47.1895C23.5609 47.1895 24.3293 46.3349 24.3293 45.2808C24.3293 44.2266 23.5609 43.3721 22.6129 43.3721C21.665 43.3721 20.8965 44.2266 20.8965 45.2808C20.8965 46.3349 21.665 47.1895 22.6129 47.1895Z" fill="#ECF0F1"/>
<path d="M47.7596 47.1895C48.7076 47.1895 49.4761 46.3349 49.4761 45.2808C49.4761 44.2266 48.7076 43.3721 47.7596 43.3721C46.8117 43.3721 46.0432 44.2266 46.0432 45.2808C46.0432 46.3349 46.8117 47.1895 47.7596 47.1895Z" fill="#ECF0F1"/>
<path d="M39.4184 57.2197L42.067 53.8727C42.2058 53.6973 42.2962 53.481 42.3272 53.2499C42.3583 53.0188 42.3288 52.7826 42.2421 52.5697C42.1555 52.3567 42.0155 52.1761 41.8389 52.0494C41.6624 51.9228 41.4566 51.8554 41.2465 51.8555H35.9499C35.7397 51.8553 35.5339 51.9226 35.3573 52.0493C35.1807 52.176 35.0406 52.3566 34.954 52.5695C34.8674 52.7825 34.8379 53.0187 34.869 53.2499C34.9001 53.481 34.9905 53.6973 35.1293 53.8727L37.7778 57.2197C37.8803 57.3494 38.0065 57.4532 38.148 57.5244C38.2894 57.5955 38.4429 57.6323 38.5981 57.6323C38.7533 57.6323 38.9068 57.5955 39.0482 57.5244C39.1897 57.4532 39.3159 57.3494 39.4184 57.2197Z" fill="#C99673"/>
<path d="M48.7796 33.3649C51.6454 32.7392 53.8151 31.3625 53.6257 30.2898C53.4364 29.2172 50.9596 28.8548 48.0938 29.4805C45.228 30.1061 43.0583 31.4828 43.2477 32.5555C43.437 33.6281 45.9138 33.9905 48.7796 33.3649Z" fill="#FA6369"/>
<path d="M33.8574 32.5539C34.0468 31.4813 31.8771 30.1045 29.0113 29.4789C26.1454 28.8533 23.6687 29.2156 23.4794 30.2883C23.29 31.3609 25.4597 32.7377 28.3255 33.3633C31.1913 33.9889 33.6681 33.6266 33.8574 32.5539Z" fill="#FA6369"/>
<path d="M38.6003 0.930664C30.5413 0.930812 22.8125 4.49095 17.114 10.8279C11.4155 17.1648 8.21411 25.7595 8.21411 34.7213V49.6817L13.206 34.7213V49.6817L20.645 34.7213L25.5865 25.9748L27.6576 29.0749H27.6013L31.4297 34.7196L41.574 49.68L41.7121 48.5776C42.8528 39.4726 45.9467 30.8065 50.7328 23.3108L57.0757 34.7196L64.5149 49.68V34.7196L68.9859 49.68V34.7196C68.9855 25.7582 65.7841 17.1641 60.0857 10.8275C54.3874 4.49093 46.6589 0.93096 38.6003 0.930664Z" fill="#FB258B"/>
<path d="M56.1731 33.0944L60.2177 28.5971L64.5409 33.4044L68.5401 28.9574C67.9076 24.8548 66.5944 20.9187 64.6677 17.3499L64.5409 17.209L60.2179 22.0161L55.8948 17.209L51.572 22.0161L47.2487 17.209L42.9257 22.0161L38.602 17.209L34.279 22.0161L29.9561 17.209L25.6329 22.0161L21.3105 17.209L16.9877 22.0161L12.6645 17.209L12.5375 17.3501C10.6108 20.9188 9.29778 24.8548 8.66528 28.9574L12.6645 33.4044L16.9877 28.5971L21.3105 33.4044L21.5271 33.1636L25.5882 25.9758L27.6593 29.0759H27.603L30.2885 33.0361L34.2796 28.5977L38.602 33.4044L42.925 28.5971L46.1067 32.1352C47.4101 29.0472 48.9588 26.0949 50.7345 23.3133L56.1731 33.0944Z" fill="#FF6D55"/>
<path d="M26.0282 37.5431C27.8731 37.5454 29.6418 38.3613 30.9463 39.812C32.2508 41.2626 32.9846 43.2294 32.9867 45.2809C32.9867 45.4988 33.0645 45.7078 33.2031 45.862C33.3417 46.0161 33.5297 46.1026 33.7257 46.1026C33.9216 46.1026 34.1096 46.0161 34.2482 45.862C34.3868 45.7078 34.4646 45.4988 34.4646 45.2809C34.4646 42.7928 33.5758 40.4065 31.9937 38.6472C30.4115 36.8878 28.2657 35.8994 26.0282 35.8994C23.7907 35.8994 21.6449 36.8878 20.0628 38.6472C18.4806 40.4065 17.5918 42.7928 17.5918 45.2809C17.5918 45.4988 17.6697 45.7078 17.8082 45.862C17.9468 46.0161 18.1348 46.1026 18.3308 46.1026C18.5268 46.1026 18.7147 46.0161 18.8533 45.862C18.9919 45.7078 19.0698 45.4988 19.0698 45.2809C19.0718 43.2294 19.8056 41.2626 21.1102 39.812C22.4147 38.3613 24.1834 37.5454 26.0282 37.5431ZM48.6436 55.5113C48.4476 55.5113 48.2597 55.5979 48.1211 55.752C47.9825 55.9061 47.9046 56.1151 47.9046 56.3331C47.9046 59.0768 46.9245 61.7081 45.1798 63.6482C43.4352 65.5883 41.0689 66.6782 38.6016 66.6782C36.1343 66.6782 33.7681 65.5883 32.0234 63.6482C30.2788 61.7081 29.2986 59.0768 29.2986 56.3331C29.2986 56.1151 29.2208 55.9061 29.0822 55.752C28.9436 55.5979 28.7556 55.5113 28.5596 55.5113C28.3637 55.5113 28.1757 55.5979 28.0371 55.752C27.8985 55.9061 27.8207 56.1151 27.8207 56.3331C27.8207 59.5127 28.9565 62.562 30.9783 64.8103C33.0002 67.0586 35.7423 68.3217 38.6016 68.3217C41.4609 68.3217 44.2031 67.0586 46.2249 64.8103C48.2467 62.562 49.3826 59.5127 49.3826 56.3331C49.3826 56.1151 49.3047 55.9061 49.1661 55.752C49.0276 55.5979 48.8396 55.5113 48.6436 55.5113Z" fill="black"/>
<path d="M76.9644 60.4786L69.7233 34.5775C69.6532 15.4982 55.6748 0 38.5012 0C21.3276 0 7.3506 15.4964 7.27876 34.5742L0.0373024 60.4788C-0.0202415 60.686 -0.0109782 60.9089 0.0634945 61.1093C0.137967 61.3096 0.27298 61.4748 0.445248 61.5763C0.617516 61.6778 0.81624 61.7093 1.00714 61.6653C1.19805 61.6213 1.36917 61.5047 1.49099 61.3354C3.16805 59.0023 5.20967 56.3953 6.30969 55.2658C6.90031 58.3733 8.52429 65.9055 8.60383 66.2771C8.63703 66.4312 8.70502 66.5732 8.80137 66.6899C8.89772 66.8066 9.01924 66.894 9.15443 66.9438C9.28963 66.9937 9.43403 67.0044 9.57398 66.9749C9.71392 66.9454 9.84479 66.8767 9.9542 66.7753L16.1544 61.0268C16.8265 62.6563 17.6411 64.2083 18.5865 65.6604L18.8808 70.9247C18.8914 71.1145 18.9541 71.2962 19.0604 71.4452C19.1667 71.5942 19.3115 71.7034 19.4753 71.7582C19.6391 71.8129 19.8141 71.8106 19.9767 71.7515C20.1392 71.6923 20.2816 71.5793 20.3847 71.4275L21.6583 69.5506C26.2106 74.3346 32.2365 77 38.4999 77C44.7634 77 50.7893 74.3346 55.3416 69.5506L56.6151 71.4273C56.7181 71.5791 56.8605 71.6922 57.0231 71.7513C57.1856 71.8104 57.3606 71.8128 57.5244 71.758C57.6882 71.7032 57.833 71.594 57.9393 71.445C58.0456 71.296 58.1083 71.1143 58.119 70.9245L58.4134 65.6604C59.3587 64.2082 60.1734 62.6562 60.8455 61.0267L67.0455 66.7749C67.1549 66.8763 67.2858 66.945 67.4257 66.9746C67.5657 67.0041 67.7101 66.9934 67.8452 66.9435C67.9804 66.8937 68.102 66.8063 68.1983 66.6897C68.2947 66.573 68.3627 66.431 68.3959 66.277C68.4761 65.9045 70.1003 58.3731 70.69 55.2654C71.7897 56.3951 73.8318 59.0012 75.5087 61.336C75.6305 61.5054 75.8017 61.6222 75.9926 61.6662C76.1836 61.7103 76.3824 61.6788 76.5547 61.5773C76.7271 61.4758 76.8621 61.3105 76.9366 61.1101C77.011 60.9096 77.0202 60.6866 76.9626 60.4794L76.9644 60.4786ZM8.95164 34.7215C8.95164 16.6029 22.2076 1.86214 38.5012 1.86214C54.7948 1.86214 68.0504 16.6029 68.0504 34.7215V43.9294L65.2102 34.4278C65.1475 34.2179 65.0197 34.0397 64.8496 33.9251C64.6795 33.8105 64.4782 33.7669 64.2819 33.8023C64.0855 33.8376 63.9069 33.9495 63.778 34.1179C63.6491 34.2864 63.5783 34.5003 63.5784 34.7215V46.0742L57.7092 34.2708C57.7027 34.2578 57.6958 34.2448 57.6886 34.2319L51.3457 22.8233C51.2731 22.6927 51.1725 22.584 51.0529 22.5071C50.9333 22.4301 50.7984 22.3873 50.6603 22.3824C50.5222 22.3775 50.3852 22.4107 50.2614 22.479C50.1376 22.5473 50.031 22.6485 49.951 22.7738C45.2929 30.0854 42.2076 38.4892 40.9332 47.3369L28.3534 28.785C28.3253 28.6899 28.2837 28.6005 28.23 28.5202L26.1584 25.4199C26.0772 25.2984 25.9706 25.2007 25.8478 25.1353C25.725 25.07 25.5897 25.0389 25.4537 25.0448C25.3177 25.0507 25.185 25.0933 25.0671 25.1691C24.9493 25.2449 24.8498 25.3515 24.7774 25.4797L19.8361 34.2262C19.8277 34.2409 19.8193 34.2558 19.8123 34.2708L13.9432 46.0742V34.7215C13.9431 34.5032 13.874 34.2918 13.748 34.1244C13.622 33.9569 13.4471 33.8441 13.2538 33.8055C13.0606 33.7669 12.8613 33.8051 12.6908 33.9133C12.5203 34.0216 12.3894 34.193 12.321 34.3977L8.95164 44.4962V34.7215ZM52.6608 30.479C52.3863 30.9138 51.0423 31.9007 48.5219 32.4508C47.9174 32.5852 47.3054 32.6746 46.6901 32.7182C47.0005 31.975 47.3251 31.2395 47.664 30.5119C47.8236 30.4708 47.9876 30.4309 48.1587 30.3935C50.6789 29.8434 52.2585 30.1918 52.6608 30.479V30.479ZM48.6979 28.4049C49.2936 27.2504 49.9258 26.1198 50.5945 25.0132L52.5045 28.4483C51.4588 28.169 50.0901 28.1839 48.6979 28.4049ZM27.181 30.149L28.7973 32.5325C28.6633 32.5076 28.5284 32.4813 28.3887 32.4508C25.8683 31.9007 24.5245 30.9138 24.2499 30.479C24.5602 30.2574 25.576 30.0019 27.181 30.149V30.149ZM25.1605 28.3027L25.5445 27.623L25.9581 28.2422C25.6823 28.25 25.4154 28.2699 25.1605 28.3027V28.3027ZM9.9192 64.3839C9.09582 60.5397 7.897 54.8449 7.76806 53.8555C7.74492 53.6385 7.6644 53.434 7.5367 53.2679C7.409 53.1018 7.23986 52.9816 7.05068 52.9224C6.4321 52.7362 5.80783 52.8895 2.89259 56.5793C2.88656 56.5869 2.88053 56.5944 2.87467 56.602L7.27708 40.8533V49.6823C7.27707 49.9007 7.3461 50.1122 7.47212 50.2797C7.59813 50.4473 7.77311 50.5602 7.96643 50.5988C8.15976 50.6374 8.35913 50.5992 8.52968 50.4908C8.70023 50.3825 8.8311 50.2109 8.89939 50.0061L12.2689 39.9076V49.6823C12.2689 49.8888 12.3306 50.0894 12.4442 50.2526C12.5579 50.4159 12.7172 50.5325 12.897 50.5841C13.0767 50.6357 13.2668 50.6193 13.4374 50.5377C13.6079 50.456 13.7492 50.3136 13.839 50.1329L13.9371 49.9354C13.9604 53.1089 14.4834 56.2534 15.4824 59.2263L9.9192 64.3839ZM20.4123 68.297L20.4033 68.1359C20.4249 68.1622 20.447 68.1879 20.4686 68.214L20.4123 68.297ZM56.5888 68.297L56.5325 68.2141C56.5543 68.1881 56.5762 68.1624 56.5978 68.1361L56.5888 68.297ZM61.3924 49.6823C61.3924 63.7189 51.1232 75.1378 38.5012 75.1378C25.8787 75.1378 15.61 63.7182 15.61 49.6823V46.5733L21.268 35.1956L23.139 31.8838C23.466 32.2476 23.8382 32.5576 24.2442 32.8042C25.2364 33.4336 26.5939 33.9575 28.0667 34.279C28.766 34.4331 29.4739 34.5337 30.1855 34.5801L40.8067 50.2437C40.9065 50.3909 41.0432 50.5018 41.1997 50.5624C41.3561 50.6231 41.5252 50.6308 41.6856 50.5845C41.846 50.5382 41.9904 50.4401 42.1006 50.3025C42.2108 50.1649 42.2818 49.994 42.3046 49.8115L42.4426 48.7093C42.566 47.7246 42.7134 46.7445 42.8849 45.7688C42.9768 45.9084 43.1062 46.012 43.2543 46.0648C43.4025 46.1176 43.5619 46.1169 43.7097 46.0627C43.8574 46.0086 43.986 45.9039 44.077 45.7635C44.1679 45.6231 44.2166 45.4543 44.216 45.2813C44.216 43.2291 44.9491 41.2609 46.254 39.8098C47.559 38.3586 49.3289 37.5434 51.1744 37.5434C53.0199 37.5434 54.7898 38.3586 56.0948 39.8098C57.3998 41.2609 58.1329 43.2291 58.1329 45.2813C58.1329 45.4993 58.2107 45.7083 58.3493 45.8624C58.4879 46.0165 58.6759 46.1031 58.8719 46.1031C59.0678 46.1031 59.2558 46.0165 59.3944 45.8624C59.533 45.7083 59.6108 45.4993 59.6108 45.2813C59.6113 43.2686 59.0295 41.3091 57.9514 39.6925C56.8733 38.0758 55.3561 36.8876 53.6241 36.3036C51.892 35.7197 50.0369 35.7708 48.333 36.4495C46.629 37.1282 45.1666 38.3984 44.1619 40.0725C44.671 38.2163 45.2651 36.3903 45.9421 34.6016C45.9706 34.6016 45.998 34.6032 46.0267 34.6032C46.9732 34.5953 47.917 34.4867 48.8449 34.279C50.3186 33.9575 51.6749 33.4336 52.6675 32.8042C53.4438 32.3115 53.8885 31.8218 54.1297 31.3713L56.2542 35.1926L61.3929 45.5275L61.3924 49.6823ZM74.1085 56.5791C71.1929 52.8887 70.569 52.7347 69.9506 52.9222C69.7614 52.9814 69.5922 53.1016 69.4645 53.2677C69.3367 53.4338 69.2562 53.6383 69.233 53.8554C69.1041 54.8449 67.9053 60.5405 67.0819 64.3837L61.5188 59.2256C62.5452 56.1732 63.0696 52.9404 63.067 49.6816V48.8933L63.683 50.1322C63.7729 50.3128 63.9142 50.4551 64.0847 50.5367C64.2551 50.6183 64.4452 50.6346 64.6249 50.583C64.8046 50.5314 64.9638 50.4148 65.0775 50.2517C65.1912 50.0885 65.2529 49.888 65.2529 49.6816V40.474L68.0931 49.9754C68.1558 50.1853 68.2837 50.3635 68.4538 50.4781C68.6239 50.5928 68.8251 50.6363 69.0215 50.601C69.2178 50.5656 69.3964 50.4537 69.5253 50.2853C69.6542 50.1169 69.725 49.9029 69.725 49.6817V40.8552L74.1266 56.6007L74.1085 56.5791Z" fill="black"/>
<path d="M29.0702 51.545C29.2624 51.545 29.4487 51.4716 29.5979 51.337C31.1609 49.9266 32.0941 47.6624 32.0941 45.2806C32.0941 41.1423 29.3658 37.7761 26.0123 37.7761C22.6589 37.7761 19.9307 41.1431 19.9307 45.2806C19.9307 47.6624 20.8639 49.9266 22.4269 51.337C22.5595 51.4566 22.7218 51.5283 22.8921 51.5425C23.0624 51.5566 23.2325 51.5125 23.3796 51.4161C24.1765 50.8905 25.0859 50.6132 26.0124 50.6132C26.9389 50.6132 27.8483 50.8905 28.6452 51.4161C28.774 51.5005 28.9208 51.545 29.0702 51.545ZM23.0832 49.4855C22.1211 48.3484 21.5916 46.8417 21.6052 45.2806C21.6052 42.1689 23.5822 39.6383 26.0123 39.6383C28.4424 39.6383 30.4196 42.1697 30.4196 45.2806C30.4332 46.8417 29.9037 48.3484 28.9416 49.4855C28.0263 49.0019 27.0257 48.751 26.0124 48.751C24.9991 48.751 23.9985 49.0019 23.0832 49.4855ZM51.1586 37.7754C47.8052 37.7754 45.077 41.1423 45.077 45.2798C45.077 47.6615 46.0101 49.9257 47.5731 51.3362C47.7057 51.4559 47.868 51.5276 48.0383 51.5417C48.2085 51.5559 48.3786 51.5118 48.5257 51.4154C49.3227 50.8898 50.2322 50.6124 51.1587 50.6124C52.0853 50.6124 52.9948 50.8898 53.7917 51.4154C53.9389 51.5118 54.109 51.5559 54.2793 51.5417C54.4496 51.5275 54.612 51.4558 54.7445 51.3361C56.3074 49.9257 57.2396 47.6615 57.2396 45.2798C57.2411 41.1423 54.5128 37.7754 51.1586 37.7754ZM54.0891 49.4855C53.1738 49.0019 52.1732 48.751 51.1599 48.751C50.1466 48.751 49.146 49.0019 48.2307 49.4855C47.2686 48.3484 46.7391 46.8417 46.7527 45.2806C46.7527 42.1689 48.7297 39.6383 51.1598 39.6383C53.5899 39.6383 55.5671 42.1697 55.5671 45.2806C55.5806 46.8417 55.0511 48.3483 54.0891 49.4855Z" fill="black"/>
</svg>

