<svg width="78" height="78" viewBox="0 0 78 78" fill="none" xmlns="http://www.w3.org/2000/svg">
<path d="M4.84584 40.7178L3.10425 55.0881L5.45771 52.9524L7.1834 61.234L13.5639 54.9394L9.29654 40.7178H4.84584Z" fill="#198C76"/>
<path d="M72.9791 40.7178L74.7209 55.0881L72.3674 52.9524L70.6415 61.234L64.261 54.9394L68.5286 40.7178H72.9791Z" fill="#198C76"/>
<path d="M26.3799 23.7441H51.6047C56.0258 23.7442 60.2658 25.3281 63.3919 28.1474C66.518 30.9667 68.2743 34.7905 68.2743 38.7775V50.152C68.2744 53.6198 67.517 57.0538 66.0455 60.2577C64.5741 63.4616 62.4172 66.3728 59.6982 68.825C56.9791 71.2771 53.7511 73.2223 50.1985 74.5494C46.6459 75.8766 42.8382 76.5596 38.9929 76.5596C31.2269 76.5596 23.7791 73.7774 18.2878 68.8252C12.7964 63.8729 9.71143 57.1561 9.71143 50.1525V38.7775C9.71143 34.7906 11.4675 30.967 14.5934 28.1477C17.7194 25.3284 21.9591 23.7444 26.3799 23.7441Z" fill="#F4DCC6"/>
<path d="M38.9929 74.6391C31.2269 74.6391 23.7791 71.8569 18.2878 66.9046C12.7964 61.9523 9.71143 55.2356 9.71143 48.232V50.1526C9.71134 53.6205 10.4687 57.0544 11.9402 60.2583C13.4117 63.4623 15.5685 66.3734 18.2875 68.8256C21.0066 71.2778 24.2346 73.223 27.7872 74.5501C31.3398 75.8772 35.1475 76.5603 38.9929 76.5603C46.7588 76.5603 54.2066 73.7781 59.698 68.8258C65.1893 63.8735 68.2743 57.1568 68.2743 50.1532V48.2314C68.2744 51.6993 67.517 55.1333 66.0456 58.3372C64.5741 61.5411 62.4172 64.4522 59.6982 66.9044C56.9791 69.3566 53.7511 71.3018 50.1985 72.6289C46.6459 73.956 42.8382 74.6391 38.9929 74.6391Z" fill="#C99673"/>
<path d="M68.2729 38.7774C68.2729 34.7903 66.5166 30.9665 63.3904 28.1473C60.2643 25.328 56.0243 23.7441 51.6033 23.7441H26.3787C21.9576 23.7441 17.7175 25.328 14.5913 28.1474C11.465 30.9667 9.70874 34.7906 9.70874 38.7777V39.1674H39.0453L42.6616 50.1518V40.9399C42.6616 40.4698 42.8687 40.019 43.2372 39.6866C43.6057 39.3542 44.1056 39.1675 44.6268 39.1674H68.2729V38.7774Z" fill="#C99673"/>
<path d="M23.4754 54.3134C28.7214 54.3134 32.9742 50.4781 32.9742 45.747C32.9742 41.016 28.7214 37.1807 23.4754 37.1807C18.2293 37.1807 13.9766 41.016 13.9766 45.747C13.9766 50.4781 18.2293 54.3134 23.4754 54.3134Z" fill="#ECF0F1"/>
<path d="M23.4754 37.1807C20.9561 37.1807 18.5401 38.0832 16.7587 39.6897C14.9773 41.2962 13.9766 43.4751 13.9766 45.747H32.9742C32.9742 43.4751 31.9734 41.2962 30.192 39.6897C28.4107 38.0832 25.9946 37.1807 23.4754 37.1807Z" fill="#BDC3C7"/>
<path d="M25.1228 52.2555C28.6971 52.2555 31.5946 49.3098 31.5946 45.6761C31.5946 42.0424 28.6971 39.0967 25.1228 39.0967C21.5484 39.0967 18.6509 42.0424 18.6509 45.6761C18.6509 49.3098 21.5484 52.2555 25.1228 52.2555Z" fill="#414141"/>
<path d="M25.1232 48.9925C26.9247 48.9925 28.3851 47.5078 28.3851 45.6764C28.3851 43.845 26.9247 42.3604 25.1232 42.3604C23.3217 42.3604 21.8613 43.845 21.8613 45.6764C21.8613 47.5078 23.3217 48.9925 25.1232 48.9925Z" fill="#ECF0F1"/>
<path d="M54.5076 54.3134C59.7536 54.3134 64.0064 50.4781 64.0064 45.747C64.0064 41.016 59.7536 37.1807 54.5076 37.1807C49.2615 37.1807 45.0088 41.016 45.0088 45.747C45.0088 50.4781 49.2615 54.3134 54.5076 54.3134Z" fill="#ECF0F1"/>
<path d="M54.5076 37.1807C51.9884 37.1807 49.5723 38.0832 47.7909 39.6897C46.0096 41.2962 45.0088 43.4751 45.0088 45.747H64.0064C64.0064 43.4751 63.0056 41.2962 61.2243 39.6897C59.4429 38.0832 57.0268 37.1807 54.5076 37.1807Z" fill="#BDC3C7"/>
<path d="M52.8598 52.2555C56.4341 52.2555 59.3317 49.3098 59.3317 45.6761C59.3317 42.0424 56.4341 39.0967 52.8598 39.0967C49.2855 39.0967 46.3879 42.0424 46.3879 45.6761C46.3879 49.3098 49.2855 52.2555 52.8598 52.2555Z" fill="#414141"/>
<path d="M52.8603 48.9925C54.6617 48.9925 56.1221 47.5078 56.1221 45.6764C56.1221 43.845 54.6617 42.3604 52.8603 42.3604C51.0588 42.3604 49.5984 43.845 49.5984 45.6764C49.5984 47.5078 51.0588 48.9925 52.8603 48.9925Z" fill="#ECF0F1"/>
<path d="M20.9091 47.587C22.0789 47.587 23.0272 46.7317 23.0272 45.6768C23.0272 44.6218 22.0789 43.7666 20.9091 43.7666C19.7393 43.7666 18.791 44.6218 18.791 45.6768C18.791 46.7317 19.7393 47.587 20.9091 47.587Z" fill="#ECF0F1"/>
<path d="M48.6464 47.587C49.8162 47.587 50.7645 46.7317 50.7645 45.6768C50.7645 44.6218 49.8162 43.7666 48.6464 43.7666C47.4766 43.7666 46.5283 44.6218 46.5283 45.6768C46.5283 46.7317 47.4766 47.587 48.6464 47.587Z" fill="#ECF0F1"/>
<path d="M40.0033 57.6956L43.2716 54.346C43.4429 54.1704 43.5544 53.954 43.5927 53.7226C43.631 53.4913 43.5946 53.255 43.4877 53.0419C43.3808 52.8288 43.2081 52.648 42.9901 52.5213C42.7722 52.3945 42.5184 52.3271 42.259 52.3271H35.7225C35.4632 52.3271 35.2093 52.3945 34.9914 52.5213C34.7735 52.648 34.6007 52.8288 34.4938 53.0419C34.387 53.255 34.3505 53.4913 34.3888 53.7226C34.4272 53.954 34.5386 54.1704 34.7099 54.346L37.9782 57.6956C38.1047 57.8254 38.2605 57.9294 38.4351 58.0006C38.6097 58.0719 38.7991 58.1087 38.9908 58.1087C39.1824 58.1087 39.3718 58.0719 39.5464 58.0006C39.721 57.9294 39.8768 57.8254 40.0033 57.6956Z" fill="#C99673"/>
<path d="M51.556 32.0018C55.0925 31.3756 57.77 29.9978 57.5363 28.9243C57.3026 27.8509 54.2463 27.4882 50.7098 28.1143C47.1733 28.7405 44.4958 30.1183 44.7295 31.1918C44.9632 32.2652 48.0195 32.6279 51.556 32.0018Z" fill="#198C76"/>
<path d="M33.1408 31.1909C33.3744 30.1174 30.697 28.7396 27.1605 28.1135C23.624 27.4873 20.5677 27.85 20.334 28.9235C20.1003 29.997 22.7778 31.3748 26.3143 32.0009C29.8508 32.627 32.9071 32.2644 33.1408 31.1909Z" fill="#198C76"/>
<path d="M38.4947 1.36626C17.8882 1.60741 1.49512 17.0991 1.49512 35.6845V50.1523L5.989 42.7097L7.65517 50.1523L8.45261 48.8519C9.06642 49.7402 9.78957 50.5632 10.6083 51.3051C12.8775 53.3258 15.6285 54.0013 17.3017 54.2511C15.267 52.532 13.6967 50.4149 12.7115 48.0626C12.1538 46.6419 11.7917 45.1649 11.6333 43.6646L16.8351 35.1806L22.9328 26.4275C26.8407 35.8834 33.6913 44.1214 42.6625 50.1528C42.6625 50.1528 40.5822 39.9914 39.9956 34.5035C39.9241 33.8337 39.8643 33.1755 39.8096 32.5225C42.9079 34.7156 46.479 36.3024 50.2951 37.1815C48.6895 34.5768 47.3705 31.8367 46.3569 29.0003C46.1174 28.3294 45.9064 27.6772 45.7119 27.0348C53.8037 31.2148 60.8351 36.8768 66.3532 43.6562C66.1954 45.1592 65.833 46.6391 65.2741 48.0623C64.2889 50.4145 62.7186 52.5316 60.6839 54.2507C62.3577 54.001 65.1082 53.3254 67.3773 51.3047C68.3414 50.4347 69.1697 49.4504 69.8395 48.3789C70.2275 48.9634 70.605 49.5545 70.9719 50.1521C71.3934 47.8481 71.8151 45.5441 72.237 43.24L76.4905 50.1521V35.18C76.4905 30.7013 75.504 26.2673 73.5883 22.1352C71.6725 18.0032 68.8658 14.2555 65.3309 11.1097C61.7961 7.9639 57.6035 5.48268 52.9967 3.81007C48.3898 2.13746 43.4604 1.30678 38.4947 1.36626Z" fill="#FF6D55"/>
<path d="M73.8107 22.6314C72.8325 20.4223 71.5978 18.3127 70.1275 16.3379C62.7939 21.7326 51.5727 25.1851 38.9904 25.1851C26.4837 25.1851 15.3232 21.7729 7.98739 16.4339C6.51345 18.4159 5.27096 20.5303 4.27979 22.7431C7.85679 26.4441 13.0588 29.5174 19.3127 31.6208L22.931 26.4266C23.9434 28.8686 25.1551 31.2397 26.556 33.5202C30.6433 34.3077 34.8116 34.7023 38.9912 34.6974C39.3348 34.6974 39.6731 34.687 40.0149 34.682C40.0083 34.6229 40.0009 34.5614 39.9942 34.5032C39.9227 33.8335 39.863 33.1752 39.8083 32.5222C40.8768 33.2752 42.0035 33.9587 43.1797 34.5673C44.9996 34.4555 46.781 34.2658 48.52 34.0133C47.6896 32.3822 46.9668 30.7083 46.3556 29.0002C46.1161 28.3294 45.9051 27.6771 45.7106 27.0347C48.939 28.7039 52.0069 30.6138 54.8821 32.7444C62.891 30.6825 69.536 27.1094 73.8107 22.6314Z" fill="#FFB0A5"/>
<path d="M33.948 63.084H44.1461V65.9847C44.1461 66.5885 44.0142 67.1865 43.7579 67.7444C43.5017 68.3023 43.1261 68.8092 42.6526 69.2362C42.1792 69.6632 41.617 70.0019 40.9984 70.233C40.3798 70.4641 39.7167 70.5831 39.0471 70.5831C38.3775 70.5831 37.7145 70.4641 37.0959 70.233C36.4772 70.0019 35.9151 69.6632 35.4416 69.2362C34.9682 68.8092 34.5926 68.3023 34.3363 67.7444C34.0801 67.1865 33.9482 66.5885 33.9482 65.9847V63.084H33.948Z" fill="#FF6D55"/>
<path d="M39.5026 64.7298C39.5026 64.5247 39.3183 64.3584 39.0908 64.3584C38.8633 64.3584 38.679 64.5247 38.679 64.7298V69.4522C38.679 69.6573 38.8633 69.8236 39.0908 69.8236C39.3183 69.8236 39.5026 69.6573 39.5026 69.4522V64.7298Z" fill="#D85B4A"/>
<path d="M47.0184 62.2617H30.9649C30.723 62.2617 30.4911 62.3484 30.3201 62.5026C30.1491 62.6568 30.053 62.866 30.053 63.0841C30.053 63.3022 30.1491 63.5114 30.3201 63.6656C30.4911 63.8199 30.723 63.9065 30.9649 63.9065H32.8914V65.9431C32.9008 67.4042 33.5511 68.8026 34.7001 69.8329C35.8491 70.8631 37.4035 71.4413 39.0237 71.4413C40.6439 71.4413 42.1983 70.8631 43.3473 69.8329C44.4963 68.8026 45.1466 67.4042 45.156 65.9431V63.9065H47.0184C47.2603 63.9065 47.4922 63.8199 47.6633 63.6656C47.8343 63.5114 47.9304 63.3022 47.9304 63.0841C47.9304 62.866 47.8343 62.6568 47.6633 62.5026C47.4922 62.3484 47.2603 62.2617 47.0184 62.2617ZM43.0895 65.9431C43.0819 66.911 42.6501 67.8369 41.8885 68.519C41.1268 69.201 40.097 69.5837 39.0237 69.5837C37.9504 69.5837 36.9206 69.201 36.1589 68.519C35.3973 67.8369 34.9655 66.911 34.9579 65.9431V63.9742H43.0895V65.9431Z" fill="black"/>
<path d="M66.0303 10.3939C62.4056 7.15109 58.0986 4.59462 53.3625 2.8748C48.6264 1.15497 43.5568 0.306516 38.4518 0.379318C28.2436 0.49896 18.6694 4.25074 11.4951 10.9436C4.37992 17.5568 0.410243 26.4146 0.43222 35.6291V50.0971C0.432241 50.3042 0.508764 50.5054 0.649704 50.6689C0.790644 50.8324 0.987967 50.9489 1.21051 51C1.43305 51.0511 1.66812 51.0339 1.87861 50.9511C2.08909 50.8683 2.26298 50.7246 2.37281 50.5427L2.63422 50.1094L2.05003 54.9326C2.02679 55.1246 2.07031 55.3184 2.17456 55.4872C2.27881 55.6559 2.43864 55.7913 2.63193 55.8745C2.82523 55.9578 3.04243 55.9848 3.25349 55.9518C3.46455 55.9188 3.65903 55.8275 3.81002 55.6905L4.77815 54.812L6.14096 61.3517C6.17654 61.5217 6.26388 61.6794 6.3932 61.8071C6.52251 61.9349 6.6887 62.0276 6.87316 62.075C7.05762 62.1224 7.25307 62.1226 7.43762 62.0755C7.62217 62.0284 7.78854 61.9358 7.9181 61.8083L10.428 59.3323C14.6367 69.8771 25.838 77.4375 38.962 77.4375C52.0403 77.4375 63.2102 69.9302 67.4526 59.4432L69.8497 61.8083C69.9792 61.9361 70.1456 62.0289 70.3303 62.0761C70.515 62.1234 70.7107 62.1233 70.8953 62.0759C71.08 62.0285 71.2463 61.9356 71.3757 61.8077C71.5051 61.6798 71.5924 61.5219 71.6278 61.3517L72.9907 54.812L73.9588 55.6905C74.1097 55.8279 74.3043 55.9195 74.5155 55.9527C74.7268 55.9859 74.9443 55.959 75.1378 55.8757C75.3314 55.7924 75.4914 55.6568 75.5956 55.4879C75.6999 55.3189 75.7433 55.1248 75.7198 54.9326L75.0982 49.8032L75.5578 50.55C75.6689 50.7305 75.8433 50.8727 76.0537 50.9541C76.2641 51.0356 76.4985 51.0517 76.7202 50.9999C76.9418 50.9482 77.1381 50.8315 77.2783 50.6682C77.4184 50.505 77.4945 50.3044 77.4945 50.0979V35.1249C77.5097 30.5213 76.5033 25.9616 74.5344 21.7143C72.5656 17.4669 69.6741 13.6179 66.0303 10.3939V10.3939ZM7.78977 59.173L6.44659 52.725C6.41177 52.5581 6.32705 52.403 6.20159 52.2764C6.07613 52.1498 5.91469 52.0565 5.73472 52.0066C5.55475 51.9568 5.36309 51.9522 5.18044 51.9934C4.9978 52.0346 4.83111 52.12 4.69838 52.2404L4.42561 52.4879L5.23586 45.8021L5.50925 45.3494L6.61356 50.2816C6.65531 50.4679 6.75924 50.6383 6.91142 50.7698C7.06359 50.9013 7.25672 50.9877 7.4649 51.0174C7.67308 51.0471 7.88635 51.0187 8.0761 50.9359C8.26585 50.8532 8.42299 50.7201 8.52646 50.5545C8.56923 50.6038 8.61325 50.6519 8.65664 50.7007C8.70895 52.9238 9.06288 55.1327 9.71053 57.2781L7.78977 59.173ZM38.9628 75.5726C24.3667 75.5726 12.3248 65.5364 10.8663 52.7149C12.6911 53.971 14.8351 54.7959 17.1034 55.1147C17.1593 55.1231 17.216 55.1272 17.2727 55.1271C17.4788 55.1271 17.6802 55.0714 17.8509 54.9672C18.0217 54.8631 18.154 54.7153 18.2308 54.5428C18.3077 54.3703 18.3256 54.181 18.2822 53.9993C18.2388 53.8175 18.1362 53.6517 17.9874 53.523C16.0648 51.9035 14.5814 49.9065 13.6523 47.6868C13.1559 46.4304 12.8252 45.1258 12.667 43.7997L17.6959 35.5978L20.8352 31.0913C21.0005 31.1931 21.1772 31.2954 21.376 31.3975C22.472 31.9341 23.6395 32.3426 24.8501 32.6129C25.7577 34.1929 26.7496 35.7287 27.8258 37.2203C26.24 36.5609 24.4958 36.2721 22.7538 36.3804C21.0118 36.4888 19.3281 36.9907 17.8577 37.8401C16.3874 38.6894 15.1777 39.8589 14.3401 41.2406C13.5026 42.6224 13.0641 44.172 13.0652 45.7468C13.0652 45.8548 13.0888 45.9617 13.1346 46.0615C13.1804 46.1613 13.2476 46.2519 13.3323 46.3283C13.417 46.4047 13.5175 46.4652 13.6281 46.5066C13.7388 46.5479 13.8573 46.5692 13.9771 46.5692C14.0969 46.5692 14.2154 46.5479 14.3261 46.5066C14.4367 46.4652 14.5372 46.4047 14.6219 46.3283C14.7066 46.2519 14.7738 46.1613 14.8196 46.0615C14.8654 45.9617 14.889 45.8548 14.889 45.7468C14.8878 44.6139 15.1624 43.4946 15.6936 42.468C16.2247 41.4414 16.9994 40.5326 17.9628 39.8056C18.9263 39.0787 20.055 38.5515 21.2692 38.2612C22.4835 37.971 23.7536 37.9247 24.9898 38.1258C20.9028 38.186 17.5961 41.53 17.5961 45.6342C17.5961 49.7759 20.9629 53.1454 25.1012 53.1454C28.9555 53.1454 32.139 50.2218 32.5581 46.4738C32.6864 46.5353 32.8294 46.5679 32.9747 46.5688C33.2166 46.5687 33.4485 46.4821 33.6195 46.3278C33.7905 46.1735 33.8866 45.9643 33.8866 45.7462C33.8858 45.1837 33.8289 44.6223 33.7168 44.069C36.2409 46.5568 39.0192 48.8248 42.0147 50.8429C42.1812 50.9551 42.3813 51.0194 42.5888 51.0275C42.7964 51.0355 43.0019 50.987 43.1784 50.8881C43.3549 50.7892 43.4943 50.6446 43.5783 50.4733C43.6623 50.3019 43.687 50.1116 43.6493 49.9274C43.6286 49.8265 41.5829 39.8081 41.0005 34.4111C41.7831 34.8813 42.5896 35.317 43.4133 35.7145C45.196 36.5736 47.0718 37.2653 49.0113 37.7784C47.5087 38.6207 46.269 39.7943 45.409 41.1886C44.549 42.5829 44.0971 44.1518 44.0961 45.7473C44.0961 45.9655 44.1921 46.1747 44.3631 46.3289C44.5342 46.4832 44.7661 46.5699 45.008 46.5699C45.1374 46.5696 45.2653 46.5442 45.3828 46.4954C45.8112 50.233 48.9904 53.146 52.8371 53.146C56.9753 53.146 60.3422 49.7764 60.3422 45.6348C60.3422 41.5434 57.0566 38.2078 52.9867 38.1275C54.2233 37.9254 55.494 37.9709 56.7089 38.2606C57.9238 38.5504 59.0533 39.0774 60.0175 39.8043C60.9816 40.5312 61.7569 41.4403 62.2884 42.4673C62.82 43.4942 63.0948 44.614 63.0934 45.7473C63.0926 45.9278 63.1578 46.1034 63.279 46.2471C63.4001 46.3907 63.5704 46.4943 63.7635 46.5418C63.9565 46.5892 64.1616 46.578 64.3468 46.5097C64.532 46.4414 64.6871 46.3199 64.7879 46.164C64.6466 46.6796 64.475 47.1881 64.274 47.6873C63.3448 49.907 61.8614 51.904 59.9388 53.5235C59.7796 53.6613 59.6735 53.8414 59.6359 54.0375C59.5984 54.2336 59.6315 54.4353 59.7303 54.6132C59.8291 54.7911 59.9885 54.9359 60.1851 55.0262C60.3817 55.1165 60.6052 55.1477 60.8228 55.1152C63.0915 54.7966 65.2358 53.9714 67.0608 52.7149C65.6025 65.5364 53.5591 75.5732 38.9628 75.5732V75.5726ZM21.9335 29.5153L22.4406 28.7875C22.5646 28.77 22.6966 28.7544 22.8384 28.7413C23.0814 29.262 23.3337 29.7788 23.5953 30.2916C23.0114 30.0888 22.4541 29.8285 21.9335 29.5153V29.5153ZM30.5394 45.6353C30.5394 48.7494 28.0996 51.2829 25.1007 51.2829C22.1019 51.2829 19.6621 48.7485 19.6621 45.6353C19.6621 42.5222 22.1017 39.9866 25.1007 39.9866C28.0998 39.9866 30.5402 42.5211 30.5402 45.6348L30.5394 45.6353ZM51.2451 36.8341C51.2256 36.7787 51.2003 36.725 51.1695 36.6739C50.4669 35.5326 49.8201 34.361 49.2295 33.1679C50.0707 33.1198 50.9075 33.0219 51.7344 32.8746C52.1948 32.7931 52.6437 32.6966 53.0793 32.5902C55.1231 34.034 57.069 35.5871 58.9066 37.241C56.5044 36.2276 53.7631 36.082 51.2455 36.8341H51.2451ZM52.8371 39.9866C55.8359 39.9866 58.2758 42.5211 58.2758 45.6342C58.2758 48.7473 55.8367 51.2824 52.8371 51.2824C49.8375 51.2824 47.3984 48.7479 47.3984 45.6348C47.3984 42.5216 49.8391 39.9866 52.8371 39.9866ZM48.375 31.3339C48.157 30.8356 47.9488 30.3343 47.7506 29.83C47.9605 29.7489 48.187 29.6687 48.43 29.5894C49.2683 30.0819 50.0922 30.5906 50.9019 31.1155C50.0678 31.25 49.2231 31.3233 48.3759 31.3345L48.375 31.3339ZM64.4158 42.8712C64.6972 43.1982 64.9756 43.5279 65.2508 43.8603C65.1663 44.4954 65.0537 45.0956 64.915 45.67C64.9077 44.7198 64.7396 43.7762 64.4166 42.8718L64.4158 42.8712ZM73.0715 52.2399C72.9387 52.1194 72.772 52.0339 72.5894 51.9927C72.4067 51.9515 72.215 51.956 72.035 52.0059C71.855 52.0558 71.6935 52.1491 71.568 52.2757C71.4426 52.4024 71.3578 52.5575 71.323 52.7244L69.9799 59.1724L68.179 57.3961C68.8494 55.2146 69.2157 52.9663 69.2694 50.7032C69.4362 50.5148 69.6038 50.318 69.7685 50.1126C69.8599 50.2586 69.9495 50.4035 70.0371 50.5474C70.1409 50.7168 70.3006 50.8528 70.494 50.9366C70.6874 51.0204 70.905 51.0478 71.1165 51.0151C71.328 50.9823 71.5229 50.8909 71.6742 50.7537C71.8255 50.6164 71.9256 50.4401 71.9607 50.2492L72.6294 46.5949L73.3438 52.4881L73.0715 52.2399ZM75.4272 46.4976L73.1101 42.7332C73.006 42.564 72.8461 42.4283 72.6526 42.3448C72.4592 42.2613 72.2417 42.2342 72.0303 42.2672C71.819 42.3002 71.6243 42.3918 71.4732 42.5291C71.3221 42.6664 71.2222 42.8427 71.1873 43.0336L70.363 47.5375C70.2436 47.4691 70.1099 47.4236 69.9702 47.4038C69.8306 47.3839 69.6878 47.3901 69.5509 47.422C69.414 47.4538 69.2858 47.5107 69.1743 47.5891C69.0627 47.6675 68.9702 47.7657 68.9024 47.8776C68.2812 48.8696 67.5138 49.781 66.6211 50.5871C65.8042 51.3094 64.8589 51.9032 63.8244 52.3437C64.8246 51.1119 65.629 49.7602 66.2144 48.3277C66.8048 46.833 67.1866 45.278 67.3509 43.6983C67.3778 43.4679 67.3084 43.2368 67.1563 43.0502C61.562 36.1583 54.4198 30.4071 46.1956 26.1716C46.0181 26.08 45.8145 26.0379 45.6105 26.0506C45.4065 26.0634 45.2113 26.1305 45.0496 26.2434C44.8879 26.3562 44.767 26.5098 44.7022 26.6847C44.6373 26.8596 44.6315 27.048 44.6854 27.2258C44.9047 27.9489 45.1194 28.6049 45.3438 29.2314C46.1234 31.4109 47.0797 33.5356 48.205 35.5885C45.393 34.6961 42.7624 33.3938 40.4178 31.7335C40.2601 31.6219 40.0698 31.5541 39.8702 31.5384C39.6705 31.5226 39.4701 31.5595 39.2933 31.6447C39.1165 31.7298 38.971 31.8595 38.8745 32.0179C38.778 32.1763 38.7347 32.3567 38.7498 32.5369C38.8136 33.2997 38.8738 33.9346 38.9376 34.5373C39.3466 38.363 40.4856 44.4909 41.1394 47.8577C33.349 42.0899 27.391 34.5646 23.8712 26.0469C23.8038 25.8841 23.6873 25.7416 23.5349 25.6353C23.3824 25.5291 23.2 25.4634 23.0083 25.4458C22.8166 25.4281 22.6233 25.4591 22.4501 25.5353C22.277 25.6115 22.1309 25.7298 22.0284 25.877L15.9305 34.6291C15.9202 34.6439 15.9098 34.6588 15.9012 34.6741L10.6993 43.1579C10.5968 43.3249 10.5535 43.5162 10.5753 43.7061C10.7401 45.2832 11.1215 46.8356 11.7108 48.3278C12.2961 49.7604 13.1005 51.1122 14.1007 52.3439C13.0661 51.9034 12.1208 51.3096 11.304 50.5873C10.5436 49.8978 9.8719 49.1332 9.30158 48.3079C9.20905 48.1726 9.07968 48.0609 8.92578 47.9835C8.77188 47.906 8.59856 47.8653 8.42231 47.8653H8.39751C8.3258 47.8668 8.25446 47.8751 8.18467 47.8901L6.97126 42.4704C6.92923 42.283 6.82428 42.1117 6.67064 41.9799C6.51701 41.8481 6.32214 41.7622 6.11247 41.7337C5.90281 41.7052 5.6885 41.7356 5.49863 41.8207C5.30876 41.9058 5.15252 42.0415 5.05112 42.2095L2.49866 46.4376V35.6288C2.49866 17.4517 18.639 2.47548 38.4782 2.24254C43.3072 2.18461 48.1009 2.99234 52.5809 4.61884C57.061 6.24534 61.1381 8.6582 64.5757 11.7174C68.0132 14.7765 70.7427 18.421 72.6057 22.4393C74.4687 26.4575 75.428 30.7695 75.428 35.1249L75.4272 46.4976Z" fill="black"/>
</svg>
