<svg width="78" height="78" viewBox="0 0 78 78" fill="none" xmlns="http://www.w3.org/2000/svg">
<path d="M5.23036 40.7178L3.48877 55.0881L5.84224 52.9524L7.56792 61.234L13.9485 54.9394L9.68106 40.7178H5.23036Z" fill="#198C76"/>
<path d="M73.3634 40.7178L75.1052 55.0881L72.7517 52.9524L71.0258 61.234L64.6453 54.9394L68.9129 40.7178H73.3634Z" fill="#198C76"/>
<path d="M26.7642 23.7441H51.989C56.4101 23.7442 60.65 25.3281 63.7762 28.1474C66.9023 30.9667 68.6586 34.7905 68.6586 38.7775V50.152C68.6587 53.6198 67.9013 57.0538 66.4298 60.2577C64.9583 63.4616 62.8015 66.3728 60.0825 68.825C57.3634 71.2771 54.1354 73.2223 50.5828 74.5494C47.0302 75.8766 43.2225 76.5596 39.3771 76.5596C31.6112 76.5596 24.1634 73.7774 18.672 68.8252C13.1807 63.8729 10.0957 57.1561 10.0957 50.1525V38.7775C10.0957 34.7906 11.8518 30.967 14.9777 28.1477C18.1036 25.3284 22.3433 23.7444 26.7642 23.7441Z" fill="#F4DCC6"/>
<path d="M39.3771 74.6391C31.6112 74.6391 24.1634 71.8569 18.672 66.9046C13.1807 61.9523 10.0957 55.2356 10.0957 48.232V50.1526C10.0956 53.6205 10.8529 57.0544 12.3244 60.2583C13.7959 63.4623 15.9528 66.3734 18.6718 68.8256C21.3909 71.2778 24.6188 73.223 28.1715 74.5501C31.7241 75.8772 35.5318 76.5603 39.3771 76.5603C47.1431 76.5603 54.5909 73.7781 60.0822 68.8258C65.5736 63.8735 68.6586 57.1568 68.6586 50.1532V48.2314C68.6587 51.6993 67.9013 55.1333 66.4298 58.3372C64.9583 61.5411 62.8015 64.4522 60.0825 66.9044C57.3634 69.3566 54.1354 71.3018 50.5828 72.6289C47.0302 73.956 43.2225 74.6391 39.3771 74.6391Z" fill="#C99673"/>
<path d="M68.6574 38.7774C68.6574 34.7903 66.9011 30.9665 63.775 28.1473C60.6488 25.328 56.4089 23.7441 51.9878 23.7441H26.7632C22.3421 23.7441 18.102 25.328 14.9758 28.1474C11.8496 30.9667 10.0933 34.7906 10.0933 38.7777V39.1674H39.4299L43.0461 50.1518V40.9399C43.0461 40.4698 43.2532 40.019 43.6217 39.6866C43.9902 39.3542 44.4901 39.1675 45.0113 39.1674H68.6574V38.7774Z" fill="#C99673"/>
<path d="M23.8596 54.3134C29.1057 54.3134 33.3584 50.4781 33.3584 45.747C33.3584 41.016 29.1057 37.1807 23.8596 37.1807C18.6136 37.1807 14.3608 41.016 14.3608 45.747C14.3608 50.4781 18.6136 54.3134 23.8596 54.3134Z" fill="#ECF0F1"/>
<path d="M23.8596 37.1807C21.3404 37.1807 18.9243 38.0832 17.143 39.6897C15.3616 41.2962 14.3608 43.4751 14.3608 45.747H33.3584C33.3584 43.4751 32.3577 41.2962 30.5763 39.6897C28.7949 38.0832 26.3789 37.1807 23.8596 37.1807Z" fill="#BDC3C7"/>
<path d="M25.507 52.2555C29.0814 52.2555 31.9789 49.3098 31.9789 45.6761C31.9789 42.0424 29.0814 39.0967 25.507 39.0967C21.9327 39.0967 19.0352 42.0424 19.0352 45.6761C19.0352 49.3098 21.9327 52.2555 25.507 52.2555Z" fill="#414141"/>
<path d="M25.5075 48.9925C27.309 48.9925 28.7694 47.5078 28.7694 45.6764C28.7694 43.845 27.309 42.3604 25.5075 42.3604C23.706 42.3604 22.2456 43.845 22.2456 45.6764C22.2456 47.5078 23.706 48.9925 25.5075 48.9925Z" fill="#ECF0F1"/>
<path d="M54.8919 54.3134C60.1379 54.3134 64.3907 50.4781 64.3907 45.747C64.3907 41.016 60.1379 37.1807 54.8919 37.1807C49.6458 37.1807 45.3931 41.016 45.3931 45.747C45.3931 50.4781 49.6458 54.3134 54.8919 54.3134Z" fill="#ECF0F1"/>
<path d="M54.8919 37.1807C52.3726 37.1807 49.9566 38.0832 48.1752 39.6897C46.3938 41.2962 45.3931 43.4751 45.3931 45.747H64.3907C64.3907 43.4751 63.3899 41.2962 61.6085 39.6897C59.8272 38.0832 57.4111 37.1807 54.8919 37.1807Z" fill="#BDC3C7"/>
<path d="M53.2441 52.2555C56.8184 52.2555 59.716 49.3098 59.716 45.6761C59.716 42.0424 56.8184 39.0967 53.2441 39.0967C49.6698 39.0967 46.7722 42.0424 46.7722 45.6761C46.7722 49.3098 49.6698 52.2555 53.2441 52.2555Z" fill="#414141"/>
<path d="M53.2448 48.9925C55.0463 48.9925 56.5067 47.5078 56.5067 45.6764C56.5067 43.845 55.0463 42.3604 53.2448 42.3604C51.4433 42.3604 49.9829 43.845 49.9829 45.6764C49.9829 47.5078 51.4433 48.9925 53.2448 48.9925Z" fill="#ECF0F1"/>
<path d="M21.2936 47.587C22.4634 47.587 23.4117 46.7317 23.4117 45.6768C23.4117 44.6218 22.4634 43.7666 21.2936 43.7666C20.1238 43.7666 19.1755 44.6218 19.1755 45.6768C19.1755 46.7317 20.1238 47.587 21.2936 47.587Z" fill="#ECF0F1"/>
<path d="M49.0307 47.587C50.2005 47.587 51.1488 46.7317 51.1488 45.6768C51.1488 44.6218 50.2005 43.7666 49.0307 43.7666C47.8609 43.7666 46.9126 44.6218 46.9126 45.6768C46.9126 46.7317 47.8609 47.587 49.0307 47.587Z" fill="#ECF0F1"/>
<path d="M40.3876 57.6956L43.6559 54.346C43.8272 54.1704 43.9386 53.954 43.977 53.7226C44.0153 53.4913 43.9788 53.255 43.872 53.0419C43.7651 52.8288 43.5923 52.648 43.3744 52.5213C43.1565 52.3945 42.9026 52.3271 42.6433 52.3271H36.1068C35.8474 52.3271 35.5936 52.3945 35.3757 52.5213C35.1577 52.648 34.985 52.8288 34.8781 53.0419C34.7712 53.255 34.7348 53.4913 34.7731 53.7226C34.8114 53.954 34.9229 54.1704 35.0942 54.346L38.3625 57.6956C38.489 57.8254 38.6448 57.9294 38.8194 58.0006C38.994 58.0719 39.1834 58.1087 39.375 58.1087C39.5667 58.1087 39.7561 58.0719 39.9307 58.0006C40.1053 57.9294 40.2611 57.8254 40.3876 57.6956Z" fill="#C99673"/>
<path d="M51.9405 32.0018C55.477 31.3756 58.1545 29.9978 57.9208 28.9243C57.6871 27.8509 54.6308 27.4882 51.0943 28.1143C47.5578 28.7405 44.8804 30.1183 45.114 31.1918C45.3477 32.2652 48.4041 32.6279 51.9405 32.0018Z" fill="#198C76"/>
<path d="M33.525 31.1909C33.7587 30.1174 31.0813 28.7396 27.5448 28.1135C24.0083 27.4873 20.952 27.85 20.7183 28.9235C20.4846 29.997 23.1621 31.3748 26.6985 32.0009C30.235 32.627 33.2914 32.2644 33.525 31.1909Z" fill="#198C76"/>
<path d="M38.8792 1.36626C18.2727 1.60741 1.87964 17.0991 1.87964 35.6845V50.1523L6.37352 42.7097L8.03969 50.1523L8.83713 48.8519C9.45094 49.7402 10.1741 50.5632 10.9928 51.3051C13.262 53.3258 16.013 54.0013 17.6862 54.2511C15.6516 52.532 14.0812 50.4149 13.0961 48.0626C12.5383 46.6419 12.1762 45.1649 12.0178 43.6646L17.2196 35.1806L23.3173 26.4275C27.2252 35.8834 34.0758 44.1214 43.047 50.1528C43.047 50.1528 40.9667 39.9914 40.3801 34.5035C40.3086 33.8337 40.2489 33.1755 40.1941 32.5225C43.2924 34.7156 46.8635 36.3024 50.6796 37.1815C49.0741 34.5768 47.755 31.8367 46.7414 29.0003C46.5019 28.3294 46.2909 27.6772 46.0965 27.0348C54.1882 31.2148 61.2196 36.8768 66.7377 43.6562C66.5799 45.1592 66.2175 46.6391 65.6586 48.0623C64.6734 50.4145 63.1031 52.5316 61.0684 54.2507C62.7422 54.001 65.4927 53.3254 67.7618 51.3047C68.7259 50.4347 69.5542 49.4504 70.224 48.3789C70.6121 48.9634 70.9895 49.5545 71.3564 50.1521C71.778 47.8481 72.1996 45.5441 72.6215 43.24L76.875 50.1521V35.18C76.875 30.7013 75.8885 26.2673 73.9728 22.1352C72.0571 18.0032 69.2503 14.2555 65.7154 11.1097C62.1806 7.9639 57.988 5.48268 53.3812 3.81007C48.7743 2.13746 43.845 1.30678 38.8792 1.36626Z" fill="#6CFF77"/>
<path d="M74.1952 22.6314C73.217 20.4223 71.9824 18.3127 70.512 16.3379C63.1784 21.7326 51.9572 25.1851 39.3749 25.1851C26.8682 25.1851 15.7078 21.7729 8.37191 16.4339C6.89797 18.4159 5.65549 20.5303 4.66431 22.7431C8.24131 26.4441 13.4434 29.5174 19.6972 31.6208L23.3156 26.4266C24.328 28.8686 25.5396 31.2397 26.9405 33.5202C31.0278 34.3077 35.1962 34.7023 39.3757 34.6974C39.7194 34.6974 40.0576 34.687 40.3994 34.682C40.3928 34.6229 40.3854 34.5614 40.3788 34.5032C40.3073 33.8335 40.2475 33.1752 40.1928 32.5222C41.2613 33.2752 42.388 33.9587 43.5642 34.5673C45.3841 34.4555 47.1656 34.2658 48.9045 34.0133C48.0741 32.3822 47.3514 30.7083 46.7401 29.0002C46.5006 28.3294 46.2896 27.6771 46.0951 27.0347C49.3235 28.7039 52.3914 30.6138 55.2666 32.7444C63.2755 30.6825 69.9206 27.1094 74.1952 22.6314Z" fill="#8CFFE9"/>
<path d="M34.3323 63.084H44.5304V65.9847C44.5304 66.5885 44.3985 67.1865 44.1422 67.7444C43.886 68.3023 43.5104 68.8092 43.0369 69.2362C42.5634 69.6632 42.0013 70.0019 41.3827 70.233C40.7641 70.4641 40.101 70.5831 39.4314 70.5831C38.7618 70.5831 38.0988 70.4641 37.4801 70.233C36.8615 70.0019 36.2994 69.6632 35.8259 69.2362C35.3524 68.8092 34.9769 68.3023 34.7206 67.7444C34.4644 67.1865 34.3325 66.5885 34.3325 65.9847V63.084H34.3323Z" fill="#FF6D55"/>
<path d="M39.8869 64.7298C39.8869 64.5247 39.7025 64.3584 39.4751 64.3584C39.2476 64.3584 39.0632 64.5247 39.0632 64.7298V69.4522C39.0632 69.6573 39.2476 69.8236 39.4751 69.8236C39.7025 69.8236 39.8869 69.6573 39.8869 69.4522V64.7298Z" fill="#D85B4A"/>
<path d="M47.4027 62.2617H31.3492C31.1073 62.2617 30.8754 62.3484 30.7044 62.5026C30.5333 62.6568 30.4373 62.866 30.4373 63.0841C30.4373 63.3022 30.5333 63.5114 30.7044 63.6656C30.8754 63.8199 31.1073 63.9065 31.3492 63.9065H33.2757V65.9431C33.2851 67.4042 33.9353 68.8026 35.0843 69.8329C36.2333 70.8631 37.7877 71.4413 39.408 71.4413C41.0282 71.4413 42.5826 70.8631 43.7316 69.8329C44.8806 68.8026 45.5308 67.4042 45.5402 65.9431V63.9065H47.4027C47.6446 63.9065 47.8765 63.8199 48.0475 63.6656C48.2186 63.5114 48.3146 63.3022 48.3146 63.0841C48.3146 62.866 48.2186 62.6568 48.0475 62.5026C47.8765 62.3484 47.6446 62.2617 47.4027 62.2617ZM43.4738 65.9431C43.4661 66.911 43.0344 67.8369 42.2728 68.519C41.5111 69.201 40.4813 69.5837 39.408 69.5837C38.3346 69.5837 37.3049 69.201 36.5432 68.519C35.7815 67.8369 35.3498 66.911 35.3422 65.9431V63.9742H43.4738V65.9431Z" fill="black"/>
<path d="M66.4145 10.3939C62.7899 7.15109 58.4829 4.59462 53.7468 2.8748C49.0107 1.15497 43.9411 0.306516 38.8361 0.379318C28.6279 0.49896 19.0536 4.25074 11.8794 10.9436C4.7642 17.5568 0.794521 26.4146 0.816497 35.6291V50.0971C0.816519 50.3042 0.893041 50.5054 1.03398 50.6689C1.17492 50.8324 1.37224 50.9489 1.59479 51C1.81733 51.0511 2.0524 51.0339 2.26288 50.9511C2.47336 50.8683 2.64725 50.7246 2.75709 50.5427L3.01849 50.1094L2.43431 54.9326C2.41107 55.1246 2.45459 55.3184 2.55884 55.4872C2.66308 55.6559 2.82291 55.7913 3.01621 55.8745C3.2095 55.9578 3.42671 55.9848 3.63777 55.9518C3.84883 55.9188 4.04331 55.8275 4.1943 55.6905L5.16242 54.812L6.52524 61.3517C6.56082 61.5217 6.64816 61.6794 6.77747 61.8071C6.90679 61.9349 7.07298 62.0276 7.25744 62.075C7.4419 62.1224 7.63735 62.1226 7.8219 62.0755C8.00645 62.0284 8.17282 61.9358 8.30238 61.8083L10.8123 59.3323C15.021 69.8771 26.2223 77.4375 39.3463 77.4375C52.4246 77.4375 63.5945 69.9302 67.8369 59.4432L70.2339 61.8083C70.3635 61.9361 70.5299 62.0289 70.7146 62.0761C70.8993 62.1234 71.0949 62.1233 71.2796 62.0759C71.4642 62.0285 71.6306 61.9356 71.76 61.8077C71.8894 61.6798 71.9767 61.5219 72.0121 61.3517L73.3749 54.812L74.3431 55.6905C74.494 55.8279 74.6886 55.9195 74.8998 55.9527C75.1111 55.9859 75.3286 55.959 75.5221 55.8757C75.7156 55.7924 75.8756 55.6568 75.9799 55.4879C76.0842 55.3189 76.1276 55.1248 76.1041 54.9326L75.4825 49.8032L75.9421 50.55C76.0532 50.7305 76.2276 50.8727 76.438 50.9541C76.6484 51.0356 76.8828 51.0517 77.1044 50.9999C77.3261 50.9482 77.5224 50.8315 77.6625 50.6682C77.8027 50.505 77.8787 50.3044 77.8787 50.0979V35.1249C77.894 30.5213 76.8876 25.9616 74.9187 21.7143C72.9498 17.4669 70.0583 13.6179 66.4145 10.3939V10.3939ZM8.17405 59.173L6.83086 52.725C6.79604 52.5581 6.71133 52.403 6.58586 52.2764C6.4604 52.1498 6.29897 52.0565 6.119 52.0066C5.93903 51.9568 5.74737 51.9522 5.56472 51.9934C5.38207 52.0346 5.21538 52.12 5.08266 52.2404L4.80989 52.4879L5.62014 45.8021L5.89353 45.3494L6.99783 50.2816C7.03959 50.4679 7.14352 50.6383 7.29569 50.7698C7.44787 50.9013 7.641 50.9877 7.84918 51.0174C8.05736 51.0471 8.27063 51.0187 8.46038 50.9359C8.65012 50.8532 8.80727 50.7201 8.91074 50.5545C8.95351 50.6038 8.99753 50.6519 9.04092 50.7007C9.09323 52.9238 9.44716 55.1327 10.0948 57.2781L8.17405 59.173ZM39.3471 75.5726C24.751 75.5726 12.7091 65.5364 11.2506 52.7149C13.0754 53.971 15.2194 54.7959 17.4877 55.1147C17.5436 55.1231 17.6002 55.1272 17.6569 55.1271C17.8631 55.1271 18.0645 55.0714 18.2352 54.9672C18.406 54.8631 18.5383 54.7153 18.6151 54.5428C18.692 54.3703 18.7099 54.181 18.6665 53.9993C18.6231 53.8175 18.5205 53.6517 18.3717 53.523C16.4491 51.9035 14.9657 49.9065 14.0365 47.6868C13.5401 46.4304 13.2094 45.1258 13.0513 43.7997L18.0801 35.5978L21.2195 31.0913C21.3848 31.1931 21.5615 31.2954 21.7603 31.3975C22.8563 31.9341 24.0238 32.3426 25.2344 32.6129C26.1419 34.1929 27.1338 35.7287 28.21 37.2203C26.6243 36.5609 24.8801 36.2721 23.1381 36.3804C21.3961 36.4888 19.7124 36.9907 18.242 37.8401C16.7716 38.6894 15.562 39.8589 14.7244 41.2406C13.8869 42.6224 13.4484 44.172 13.4495 45.7468C13.4495 45.8548 13.473 45.9617 13.5189 46.0615C13.5647 46.1613 13.6319 46.2519 13.7166 46.3283C13.8012 46.4047 13.9018 46.4652 14.0124 46.5066C14.123 46.5479 14.2416 46.5692 14.3614 46.5692C14.4811 46.5692 14.5997 46.5479 14.7104 46.5066C14.821 46.4652 14.9215 46.4047 15.0062 46.3283C15.0909 46.2519 15.1581 46.1613 15.2039 46.0615C15.2497 45.9617 15.2733 45.8548 15.2733 45.7468C15.2721 44.6139 15.5467 43.4946 16.0779 42.468C16.609 41.4414 17.3837 40.5326 18.3471 39.8056C19.3106 39.0787 20.4393 38.5515 21.6535 38.2612C22.8677 37.971 24.1378 37.9247 25.3741 38.1258C21.2871 38.186 17.9803 41.53 17.9803 45.6342C17.9803 49.7759 21.3472 53.1454 25.4854 53.1454C29.3398 53.1454 32.5233 50.2218 32.9424 46.4738C33.0707 46.5353 33.2136 46.5679 33.359 46.5688C33.6008 46.5687 33.8328 46.4821 34.0038 46.3278C34.1748 46.1735 34.2709 45.9643 34.2709 45.7462C34.2701 45.1837 34.2132 44.6223 34.101 44.069C36.6252 46.5568 39.4035 48.8248 42.399 50.8429C42.5655 50.9551 42.7655 51.0194 42.9731 51.0275C43.1807 51.0355 43.3862 50.987 43.5627 50.8881C43.7392 50.7892 43.8785 50.6446 43.9625 50.4733C44.0465 50.3019 44.0713 50.1116 44.0336 49.9274C44.0129 49.8265 41.9671 39.8081 41.3848 34.4111C42.1674 34.8813 42.9739 35.317 43.7976 35.7145C45.5802 36.5736 47.4561 37.2653 49.3956 37.7784C47.893 38.6207 46.6533 39.7943 45.7933 41.1886C44.9333 42.5829 44.4814 44.1518 44.4803 45.7473C44.4803 45.9655 44.5764 46.1747 44.7474 46.3289C44.9184 46.4832 45.1504 46.5699 45.3923 46.5699C45.5217 46.5696 45.6495 46.5442 45.7671 46.4954C46.1955 50.233 49.3747 53.146 53.2214 53.146C57.3596 53.146 60.7265 49.7764 60.7265 45.6348C60.7265 41.5434 57.4408 38.2078 53.371 38.1275C54.6075 37.9254 55.8782 37.9709 57.0932 38.2606C58.3081 38.5504 59.4376 39.0774 60.4017 39.8043C61.3659 40.5312 62.1412 41.4403 62.6727 42.4673C63.2042 43.4942 63.4791 44.614 63.4777 45.7473C63.4769 45.9278 63.5421 46.1034 63.6633 46.2471C63.7844 46.3907 63.9547 46.4943 64.1478 46.5418C64.3408 46.5892 64.5458 46.578 64.7311 46.5097C64.9163 46.4414 65.0713 46.3199 65.1722 46.164C65.0309 46.6796 64.8593 47.1881 64.6583 47.6873C63.7291 49.907 62.2457 51.904 60.3231 53.5235C60.1639 53.6613 60.0577 53.8414 60.0202 54.0375C59.9827 54.2336 60.0158 54.4353 60.1146 54.6132C60.2134 54.7911 60.3728 54.9359 60.5693 55.0262C60.7659 55.1165 60.9894 55.1477 61.2071 55.1152C63.4758 54.7966 65.6201 53.9714 67.4451 52.7149C65.9868 65.5364 53.9434 75.5732 39.3471 75.5732V75.5726ZM22.3178 29.5153L22.8249 28.7875C22.9489 28.77 23.0809 28.7544 23.2227 28.7413C23.4657 29.262 23.718 29.7788 23.9796 30.2916C23.3957 30.0888 22.8383 29.8285 22.3178 29.5153V29.5153ZM30.9237 45.6353C30.9237 48.7494 28.4838 51.2829 25.485 51.2829C22.4862 51.2829 20.0464 48.7485 20.0464 45.6353C20.0464 42.5222 22.486 39.9866 25.485 39.9866C28.484 39.9866 30.9245 42.5211 30.9245 45.6348L30.9237 45.6353ZM51.6294 36.8341C51.6099 36.7787 51.5845 36.725 51.5538 36.6739C50.8512 35.5326 50.2044 34.361 49.6138 33.1679C50.455 33.1198 51.2918 33.0219 52.1187 32.8746C52.5791 32.7931 53.028 32.6966 53.4636 32.5902C55.5073 34.034 57.4533 35.5871 59.2909 37.241C56.8886 36.2276 54.1473 36.082 51.6298 36.8341H51.6294ZM53.2214 39.9866C56.2202 39.9866 58.66 42.5211 58.66 45.6342C58.66 48.7473 56.221 51.2824 53.2214 51.2824C50.2217 51.2824 47.7827 48.7479 47.7827 45.6348C47.7827 42.5216 50.2234 39.9866 53.2214 39.9866ZM48.7593 31.3339C48.5412 30.8356 48.3331 30.3343 48.1348 29.83C48.3448 29.7489 48.5713 29.6687 48.8143 29.5894C49.6526 30.0819 50.4765 30.5906 51.2862 31.1155C50.4521 31.25 49.6073 31.3233 48.7601 31.3345L48.7593 31.3339ZM64.8 42.8712C65.0815 43.1982 65.3598 43.5279 65.6351 43.8603C65.5506 44.4954 65.4379 45.0956 65.2993 45.67C65.2919 44.7198 65.1239 43.7762 64.8009 42.8718L64.8 42.8712ZM73.4557 52.2399C73.323 52.1194 73.1563 52.0339 72.9736 51.9927C72.791 51.9515 72.5993 51.956 72.4192 52.0059C72.2392 52.0558 72.0778 52.1491 71.9523 52.2757C71.8268 52.4024 71.7421 52.5575 71.7073 52.7244L70.3641 59.1724L68.5632 57.3961C69.2337 55.2146 69.6 52.9663 69.6537 50.7032C69.8204 50.5148 69.988 50.318 70.1527 50.1126C70.2442 50.2586 70.3338 50.4035 70.4214 50.5474C70.5252 50.7168 70.6848 50.8528 70.8783 50.9366C71.0717 51.0204 71.2893 51.0478 71.5007 51.0151C71.7122 50.9823 71.9072 50.8909 72.0585 50.7537C72.2098 50.6164 72.3099 50.4401 72.345 50.2492L73.0137 46.5949L73.7281 52.4881L73.4557 52.2399ZM75.8115 46.4976L73.4944 42.7332C73.3903 42.564 73.2304 42.4283 73.0369 42.3448C72.8434 42.2613 72.6259 42.2342 72.4146 42.2672C72.2033 42.3002 72.0086 42.3918 71.8575 42.5291C71.7064 42.6664 71.6065 42.8427 71.5716 43.0336L70.7473 47.5375C70.6279 47.4691 70.4942 47.4236 70.3545 47.4038C70.2148 47.3839 70.0721 47.3901 69.9352 47.422C69.7983 47.4538 69.6701 47.5107 69.5585 47.5891C69.447 47.6675 69.3545 47.7657 69.2867 47.8776C68.6655 48.8696 67.8981 49.781 67.0053 50.5871C66.1885 51.3094 65.2431 51.9032 64.2086 52.3437C65.2088 51.1119 66.0133 49.7602 66.5987 48.3277C67.1891 46.833 67.5708 45.278 67.7352 43.6983C67.762 43.4679 67.6926 43.2368 67.5406 43.0502C61.9462 36.1583 54.8041 30.4071 46.5798 26.1716C46.4024 26.08 46.1988 26.0379 45.9948 26.0506C45.7908 26.0634 45.5956 26.1305 45.4339 26.2434C45.2722 26.3562 45.1513 26.5098 45.0864 26.6847C45.0216 26.8596 45.0158 27.048 45.0697 27.2258C45.2889 27.9489 45.5036 28.6049 45.7281 29.2314C46.5076 31.4109 47.464 33.5356 48.5892 35.5885C45.7773 34.6961 43.1467 33.3938 40.8021 31.7335C40.6444 31.6219 40.4541 31.5541 40.2545 31.5384C40.0548 31.5226 39.8544 31.5595 39.6776 31.6447C39.5008 31.7298 39.3553 31.8595 39.2588 32.0179C39.1623 32.1763 39.1189 32.3567 39.134 32.5369C39.1979 33.2997 39.258 33.9346 39.3219 34.5373C39.7308 38.363 40.8699 44.4909 41.5237 47.8577C33.7332 42.0899 27.7753 34.5646 24.2555 26.0469C24.1881 25.8841 24.0716 25.7416 23.9191 25.6353C23.7667 25.5291 23.5843 25.4634 23.3926 25.4458C23.2009 25.4281 23.0076 25.4591 22.8344 25.5353C22.6612 25.6115 22.5152 25.7298 22.4126 25.877L16.3148 34.6291C16.3045 34.6439 16.2941 34.6588 16.2854 34.6741L11.0836 43.1579C10.981 43.3249 10.9378 43.5162 10.9596 43.7061C11.1244 45.2832 11.5058 46.8356 12.0951 48.3278C12.6803 49.7604 13.4847 51.1122 14.485 52.3439C13.4504 51.9034 12.5051 51.3096 11.6882 50.5873C10.9279 49.8978 10.2562 49.1332 9.68586 48.3079C9.59332 48.1726 9.46396 48.0609 9.31006 47.9835C9.15616 47.906 8.98284 47.8653 8.80659 47.8653H8.78179C8.71008 47.8668 8.63874 47.8751 8.56895 47.8901L7.35553 42.4704C7.31351 42.283 7.20855 42.1117 7.05492 41.9799C6.90129 41.8481 6.70642 41.7622 6.49675 41.7337C6.28708 41.7052 6.07277 41.7356 5.8829 41.8207C5.69303 41.9058 5.5368 42.0415 5.4354 42.2095L2.88294 46.4376V35.6288C2.88294 17.4517 19.0233 2.47548 38.8625 2.24254C43.6915 2.18461 48.4852 2.99234 52.9652 4.61884C57.4452 6.24534 61.5224 8.6582 64.9599 11.7174C68.3975 14.7765 71.127 18.421 72.99 22.4393C74.8529 26.4575 75.8123 30.7695 75.8123 35.1249L75.8115 46.4976Z" fill="black"/>
</svg>

