<svg width="28" height="28" viewBox="0 0 28 28" fill="none" xmlns="http://www.w3.org/2000/svg">
<rect opacity="0.2" width="28" height="28" fill="#D6FED8"/>
<path d="M14.4372 2.84373C14.4372 2.61996 14.3484 2.40535 14.1901 2.24712C14.0319 2.08889 13.8173 2 13.5935 2C10.7976 2 8.82628 4.28213 8.53113 7.06238C8.17346 10.4316 6.13538 15.0238 8.53113 17.4195C9.56289 18.4513 12.0057 19.0238 14.4372 19.0624V2.84373Z" fill="#996699"/>
<path d="M18.656 19.2547H16.9685V17.9727H11.9061V19.2547H10.2187C9.66578 19.2523 9.11786 19.3591 8.60634 19.5689C8.09482 19.7788 7.62976 20.0875 7.23782 20.4774C6.84588 20.8674 6.53479 21.3309 6.32237 21.8413C6.10996 22.3518 6.00041 22.8992 6 23.452C6 24.3839 6.18807 24.8204 7.68746 25.1395C14.1433 26.2752 14.7165 26.2778 21.1872 25.1395C22.6865 24.8204 22.8746 24.3839 22.8746 23.452C22.8742 22.8992 22.7647 22.3518 22.5522 21.8413C22.3398 21.3309 22.0287 20.8674 21.6368 20.4774C21.2449 20.0875 20.7798 19.7788 20.2683 19.5689C19.7567 19.3591 19.2088 19.2523 18.656 19.2547Z" fill="#FFD5B3"/>
<path d="M11.9062 18.9585C13.6249 19.7501 15.699 19.5433 16.9686 18.9585V17.7881H11.9062V18.9585Z" fill="#F2C1A5"/>
<path d="M20.6166 8.88077C20.5071 8.86178 20.4092 8.80117 20.3434 8.71165V8.46324C20.3434 5.20139 18.2344 2.58337 13.91 2.55713V3.37108C13.91 4.76903 13.3041 5.90227 11.9061 5.90227C11.1372 5.90319 10.3914 6.16579 9.79156 6.64688C9.19169 7.12798 8.77343 7.79891 8.60557 8.54933C8.58721 8.63288 8.54433 8.70906 8.48243 8.76811C8.42053 8.82715 8.34242 8.86639 8.2581 8.8808C7.46251 9.01978 6.84375 9.71104 6.84375 10.5428V11.8084C6.84746 12.2055 6.98988 12.5888 7.24635 12.892C7.50283 13.1952 7.85722 13.3992 8.24821 13.4686C8.33551 13.4833 8.41607 13.5248 8.47867 13.5873C8.54128 13.6499 8.58281 13.7305 8.59748 13.8177C8.8929 15.6612 10.0505 18.9801 14.4373 18.9801C18.8242 18.9801 19.9817 15.6613 20.2772 13.8178C20.2918 13.7305 20.3334 13.6499 20.396 13.5874C20.4586 13.5248 20.5392 13.4833 20.6264 13.4687C21.0174 13.3992 21.3718 13.1952 21.6283 12.892C21.8848 12.5888 22.0272 12.2055 22.0309 11.8084V10.5428C22.0309 9.71104 21.4121 9.01978 20.6166 8.88077Z" fill="#FFD5B3"/>
<path d="M19.6873 5.5839C19.4825 5.98999 19.2449 6.37875 18.9771 6.74635C19.5483 7.19311 19.8532 7.67771 20.3436 8.51572C20.4145 7.49542 20.1864 6.47658 19.6873 5.5839ZM16.67 5.73477C16.6859 5.71596 17.5266 4.6004 17.9447 3.61019C16.9956 2.89425 15.8803 2.56908 13.9102 2.55713C13.9102 4.23836 14.056 5.29208 14.0156 5.56266C15.215 5.56266 15.9062 5.57628 16.67 5.73477Z" fill="#996699"/>
<path d="M12.5714 15.281C12.3024 15.0584 12.6391 14.6526 12.9076 14.8747C13.3381 15.2302 13.8789 15.4246 14.4371 15.4246C14.9954 15.4246 15.5362 15.2302 15.9667 14.8747C16.2358 14.6522 16.5713 15.0588 16.3028 15.281C15.7778 15.7146 15.1181 15.9517 14.4371 15.9517C13.7562 15.9517 13.0965 15.7146 12.5714 15.281ZM12.9265 9.58634C12.2088 9.17317 11.0761 8.69571 9.96511 10.1098L9.96287 10.1126C9.94049 10.1407 9.9081 10.159 9.87249 10.1638C9.83688 10.1686 9.80081 10.1594 9.77182 10.1382C9.74283 10.117 9.72317 10.0853 9.71695 10.05C9.71073 10.0146 9.71843 9.97816 9.73844 9.94833C10.8418 8.32774 12.1916 8.64152 13.1739 9.12065C13.4974 9.27841 13.241 9.76614 12.9265 9.58634ZM15.7004 9.12065C16.6824 8.64164 18.0324 8.32765 19.1358 9.94833C19.1556 9.97814 19.1632 10.0144 19.157 10.0497C19.1507 10.0849 19.1311 10.1164 19.1023 10.1376C19.0735 10.1587 19.0376 10.168 19.0021 10.1634C18.9666 10.1589 18.9342 10.1408 18.9117 10.113L18.9092 10.1098C17.7964 8.69348 16.6646 9.17366 15.9477 9.58634C15.6361 9.76598 15.3753 9.28115 15.7004 9.12065Z" fill="#4F4E4C"/>
<path d="M12.6624 10.6776C12.6624 10.2079 12.2816 9.82715 11.8119 9.82715C11.3422 9.82715 10.9614 10.2079 10.9614 10.6776C10.9614 11.1473 11.3422 11.5281 11.8119 11.5281C12.2816 11.5281 12.6624 11.1473 12.6624 10.6776Z" fill="#414344"/>
<path d="M16.2121 10.6778C16.2121 11.1475 16.5929 11.5283 17.0626 11.5283C17.5323 11.5283 17.9131 11.1475 17.9131 10.6778C17.9131 10.2081 17.5323 9.82736 17.0626 9.82736C16.5929 9.82736 16.2121 10.2081 16.2121 10.6778Z" fill="#414344"/>
<path d="M11.5505 10.7544C11.7195 10.7544 11.8564 10.6174 11.8564 10.4485C11.8564 10.2795 11.7195 10.1426 11.5505 10.1426C11.3816 10.1426 11.2446 10.2795 11.2446 10.4485C11.2446 10.6174 11.3816 10.7544 11.5505 10.7544Z" fill="#EBEEF2"/>
<path d="M16.7571 10.7544C16.926 10.7544 17.063 10.6174 17.063 10.4485C17.063 10.2795 16.926 10.1426 16.7571 10.1426C16.5881 10.1426 16.4512 10.2795 16.4512 10.4485C16.4512 10.6174 16.5881 10.7544 16.7571 10.7544Z" fill="#EBEEF2"/>
<path d="M18.2342 19.2335C18.2342 20.1297 16.674 21.4809 15.5538 22.3354C15.233 22.58 14.8408 22.7125 14.4374 22.7125C14.034 22.7125 13.6417 22.58 13.3209 22.3354C13.1374 22.1954 12.942 22.0418 12.7437 21.8793L11.9062 22.4376L12.2362 21.4474C12.1836 21.4006 12.1314 21.3535 12.0795 21.3061L10.6406 21.5939L11.226 20.423C10.8747 19.9952 10.6406 19.5802 10.6406 19.2335C10.1279 19.2335 9.42743 19.1941 8.53125 19.5854V25.2831C14.2776 26.2389 14.5926 26.2397 20.3435 25.2831V19.5854C19.4491 19.1949 18.7512 19.2335 18.2342 19.2335Z" fill="#CC99CC"/>
<path d="M19.2437 4.86568C19.0581 4.60757 18.8483 4.36773 18.6172 4.14941C18.3952 4.63034 18.0126 5.26075 17.4785 5.92761C17.7925 6.02303 18.0946 6.15389 18.379 6.31768C18.4324 6.2451 18.9457 5.5627 19.2437 4.86568Z" fill="#996699"/>
<path d="M20.7651 13.1562C20.9981 13.1562 21.187 12.9674 21.187 12.7344C21.187 12.5014 20.9981 12.3125 20.7651 12.3125C20.5321 12.3125 20.3433 12.5014 20.3433 12.7344C20.3433 12.9674 20.5321 13.1562 20.7651 13.1562Z" fill="#F4BA51"/>
<path d="M8.10937 13.1562C8.34236 13.1562 8.53123 12.9674 8.53123 12.7344C8.53123 12.5014 8.34236 12.3125 8.10937 12.3125C7.87638 12.3125 7.6875 12.5014 7.6875 12.7344C7.6875 12.9674 7.87638 13.1562 8.10937 13.1562Z" fill="#F4BA51"/>
<path d="M8.95312 8.09378C9.16019 5.57147 10.9675 2.30547 13.1718 2.18977C15.0208 2.09274 15.7862 5.13391 13.1718 5.56469C10.6459 5.9809 8.95312 8.09378 8.95312 8.09378Z" fill="#C475A6"/>
<path d="M8.51904 8.73078C8.72611 6.20847 10.546 3.14727 12.7502 3.03157C14.5992 2.93454 15.3646 5.97571 12.7502 6.40649C10.2243 6.82269 8.51904 8.73078 8.51904 8.73078Z" fill="#CC99CC"/>
</svg>
