<svg width="28" height="28" viewBox="0 0 28 28" fill="none" xmlns="http://www.w3.org/2000/svg">
<rect opacity="0.2" width="28" height="28" fill="#D6FED8"/>
<path fill-rule="evenodd" clip-rule="evenodd" d="M23.0804 22.3486C20.6659 24.7285 17.4054 26.0526 14.0153 26.03C10.6251 26.0074 7.38256 24.64 5 22.2281C5.3047 21.3855 5.89652 20.6772 6.67153 20.2274C7.19387 19.8413 7.76026 19.5185 8.35879 19.266C7.4487 16.1387 9.92266 14.6013 10.8692 14.1587C10.8692 15.6025 12.2211 14.6444 13.8988 14.6626C15.2801 14.6779 18.0116 16.0683 18.0116 14.2341C19.5311 14.6837 21.1874 17.5796 20.0475 19.3588C20.5148 19.5873 20.9564 19.8652 21.3646 20.1877C22.1626 20.6955 22.7668 21.4567 23.0804 22.349V22.3486Z" fill="#677079"/>
<path fill-rule="evenodd" clip-rule="evenodd" d="M11.259 16.457L17.4366 16.4943V17.9174L17.4337 17.9393C17.4295 18.0038 17.4198 18.0678 17.4048 18.1306L17.384 18.2718L17.3716 18.3012C16.9717 20.4021 15.2215 21.2141 14.1408 21.7797C13.0021 21.1594 11.3923 20.0419 11.2644 18.0648L11.259 18.0404V17.9576C11.2581 17.929 11.2575 17.9004 11.2573 17.8718C11.2573 17.8868 11.2586 17.9008 11.259 17.9157V16.457Z" fill="#F9DCA4"/>
<path opacity="0.11" fill-rule="evenodd" clip-rule="evenodd" d="M17.4353 16.4307V18.0889C17.4341 18.2427 17.4209 18.396 17.396 18.5477C17.3646 18.7354 17.3118 18.919 17.2386 19.0947C15.0922 20.7157 11.6721 19.3862 11.126 16.6174L17.4353 16.4307Z" fill="black"/>
<path fill-rule="evenodd" clip-rule="evenodd" d="M8.80221 10.8887C6.75679 11.4145 8.49581 13.9071 9.78227 13.8963C9.26347 12.9669 8.93059 11.9453 8.80221 10.8887ZM19.457 10.8887C21.5024 11.4145 19.7634 13.9071 18.4765 13.8959C18.9955 12.9667 19.3285 11.9452 19.457 10.8887Z" fill="#F9DCA4"/>
<path fill-rule="evenodd" clip-rule="evenodd" d="M14.03 5.14551C22.5276 5.14551 19.216 18.5798 14.03 18.5798C9.13178 18.5798 5.53243 5.14551 14.03 5.14551Z" fill="#FFE8BE"/>
<path fill-rule="evenodd" clip-rule="evenodd" d="M10.0243 9.59377C10.0968 9.67323 10.1506 9.76793 10.1817 9.8709C10.2127 9.97388 10.2203 10.0825 10.2039 10.1888C10.1874 10.2951 10.1474 10.3964 10.0866 10.4851C10.0259 10.5739 9.94603 10.6479 9.85291 10.7018C9.25253 11.1957 9.23059 12.9182 9.23059 12.9182C8.99872 12.688 9.0041 11.4549 8.50144 10.7423C7.99879 10.0298 7.66009 5.04375 10.4711 3.23062C10.2984 3.43379 10.1739 3.67345 10.107 3.9316C10.0401 4.18975 10.0325 4.4597 10.0848 4.7212C10.0848 4.7212 12.0374 1.92097 15.277 2.00171C15.0202 2.14175 14.7957 2.33433 14.6183 2.5669C14.4409 2.79948 14.3144 3.06682 14.2472 3.35152C14.2472 3.35152 17.0794 2.18307 19.4395 3.57304C18.8258 3.74264 18.2455 4.01523 17.7232 4.3792C18.8693 4.41067 19.9769 4.62349 20.812 5.3663C20.6323 5.424 20.4659 5.51714 20.3228 5.64021C20.1797 5.76329 20.0627 5.9138 19.9787 6.08286C19.8947 6.25192 19.8454 6.43609 19.8338 6.62451C19.8222 6.81292 19.8485 7.00175 19.9111 7.17984C20.2655 8.63027 20.2986 9.97966 19.9554 10.7051C19.6121 11.4305 19.4502 10.9622 19.2353 12.4834C19.2248 12.5862 19.1905 12.6851 19.1352 12.7723C19.0798 12.8596 19.005 12.9328 18.9165 12.9861C18.9082 13.0962 19.0747 11.4309 18.6453 10.9875C18.2163 10.5444 18.4859 9.99995 18.6573 9.67782C19.8539 7.43076 16.2703 6.41261 14.3114 6.41509C12.6126 6.41716 8.51469 7.18937 10.0243 9.59377Z" fill="#8A5C42"/>
<path fill-rule="evenodd" clip-rule="evenodd" d="M9.5 20.7972C9.51242 20.8129 13.8136 26.3798 18.87 20.7144C18.2593 22.3921 15.6251 23.7245 14.1183 23.7204C11.2407 23.7121 9.64823 21.4017 9.5 20.7972Z" fill="#434955"/>
<path fill-rule="evenodd" clip-rule="evenodd" d="M16.3565 25.8324C16.1867 25.8622 16.0161 25.8883 15.8443 25.9119V22.2115C15.8506 22.1495 15.8809 22.0925 15.9287 22.0526C15.9765 22.0126 16.0381 21.993 16.1002 21.9979C16.1624 21.9929 16.224 22.0125 16.2719 22.0524C16.3198 22.0923 16.3502 22.1495 16.3565 22.2115V25.8324ZM12.2905 25.9011C12.1188 25.8766 11.9481 25.849 11.7783 25.8183V22.2115C11.7846 22.1495 11.8149 22.0925 11.8627 22.0526C11.9106 22.0126 11.9721 21.993 12.0342 21.9979C12.0964 21.9928 12.1582 22.0123 12.2062 22.0523C12.2542 22.0922 12.2846 22.1494 12.2909 22.2115L12.2905 25.9011Z" fill="#E6E6E6"/>
</svg>
