<svg width="28" height="28" viewBox="0 0 28 28" fill="none" xmlns="http://www.w3.org/2000/svg">
<rect opacity="0.2" width="28" height="28" fill="#D6FED8"/>
<path d="M6.54133 20.0562H21.2773C21.9513 20.0562 22.5977 20.3239 23.0743 20.8005C23.5509 21.2771 23.8187 21.9235 23.8187 22.5975V26.0002H4V22.5948C4.00071 21.9213 4.26877 21.2756 4.74528 20.7995C5.2218 20.3235 5.86779 20.0562 6.54133 20.0562Z" fill="#F9DECF"/>
<path d="M23.816 23.1387H4V26H23.816V23.1387Z" fill="#4DB7E5"/>
<path d="M7.30389 14.9891C8.0329 14.9891 8.62389 14.3981 8.62389 13.6691C8.62389 12.9401 8.0329 12.3491 7.30389 12.3491C6.57487 12.3491 5.98389 12.9401 5.98389 13.6691C5.98389 14.3981 6.57487 14.9891 7.30389 14.9891Z" fill="#FA6369"/>
<path d="M6.64275 17.1922C7.37177 17.1922 7.96275 16.6013 7.96275 15.8722C7.96275 15.1432 7.37177 14.5522 6.64275 14.5522C5.91374 14.5522 5.32275 15.1432 5.32275 15.8722C5.32275 16.6013 5.91374 17.1922 6.64275 17.1922Z" fill="#FA6369"/>
<path d="M6.86395 19.3949C7.59296 19.3949 8.18394 18.8039 8.18394 18.0749C8.18394 17.3459 7.59296 16.7549 6.86395 16.7549C6.13493 16.7549 5.54395 17.3459 5.54395 18.0749C5.54395 18.8039 6.13493 19.3949 6.86395 19.3949Z" fill="#FA6369"/>
<path d="M7.30389 21.8158C8.0329 21.8158 8.62389 21.2248 8.62389 20.4958C8.62389 19.7668 8.0329 19.1758 7.30389 19.1758C6.57487 19.1758 5.98389 19.7668 5.98389 20.4958C5.98389 21.2248 6.57487 21.8158 7.30389 21.8158Z" fill="#FA6369"/>
<path d="M9.81854 21.9093C10.1305 22.568 9.50654 24.2373 9.50654 24.2373C9.50654 24.2373 7.74654 23.704 7.43187 23.0453C7.33283 22.7378 7.34882 22.4048 7.47685 22.1082C7.60489 21.8116 7.83626 21.5715 8.12797 21.4327C8.41969 21.2938 8.75189 21.2656 9.06284 21.3533C9.37378 21.441 9.64232 21.6386 9.81854 21.9093ZM15.5092 2H17.8719C18.2571 2 18.6385 2.07587 18.9944 2.22329C19.3503 2.3707 19.6737 2.58677 19.9461 2.85915C20.2184 3.13154 20.4345 3.45491 20.5819 3.8108C20.7293 4.16668 20.8052 4.54812 20.8052 4.93333V11.4773H13.9092V3.6C13.9092 3.17565 14.0778 2.76869 14.3778 2.46863C14.6779 2.16857 15.0849 2 15.5092 2Z" fill="#FA6369"/>
<path d="M17.8716 2H17.0103C17.7882 2 18.5343 2.30905 19.0844 2.85915C19.6345 3.40926 19.9436 4.15536 19.9436 4.93333V11.4773H20.8049V4.93333C20.8049 4.54812 20.729 4.16668 20.5816 3.81079C20.4342 3.45491 20.2182 3.13154 19.9458 2.85915C19.6734 2.58677 19.35 2.3707 18.9941 2.22329C18.6382 2.07587 18.2568 2 17.8716 2Z" fill="#FF8A93"/>
<path d="M14.427 2.42383C14.2642 2.57346 14.1342 2.75521 14.0451 2.95762C13.9561 3.16003 13.91 3.3787 13.9097 3.59983V11.4772H15.6323V4.63716C15.6326 4.19686 15.5224 3.76353 15.3118 3.37685C15.1012 2.99017 14.797 2.66249 14.427 2.42383Z" fill="#ED3B51"/>
<path d="M10.1468 2H12.3094C13.0089 2 13.6797 2.27786 14.1743 2.77246C14.6689 3.26705 14.9468 3.93787 14.9468 4.63733V11.4773H7.01611V5.13067C7.01611 4.30036 7.34595 3.50406 7.93306 2.91695C8.52018 2.32984 9.31647 2 10.1468 2Z" fill="#FA6369"/>
<path d="M8.39478 12.856C9.1562 12.856 9.77345 12.2387 9.77345 11.4773C9.77345 10.7159 9.1562 10.0986 8.39478 10.0986C7.63336 10.0986 7.01611 10.7159 7.01611 11.4773C7.01611 12.2387 7.63336 12.856 8.39478 12.856Z" fill="#F9DECF"/>
<path d="M8.39454 12.3389C8.87024 12.3389 9.25587 11.9532 9.25587 11.4775C9.25587 11.0018 8.87024 10.6162 8.39454 10.6162C7.91884 10.6162 7.5332 11.0018 7.5332 11.4775C7.5332 11.9532 7.91884 12.3389 8.39454 12.3389Z" fill="#FDC8A2"/>
<path d="M13.9088 21.816C13.6151 21.816 13.3247 21.7535 13.057 21.6328C12.7893 21.512 12.5503 21.3357 12.3559 21.1156C12.1615 20.8954 12.0161 20.6365 11.9293 20.3559C11.8426 20.0753 11.8165 19.7794 11.8528 19.488L12.0635 17.792H15.7541L15.9648 19.488C16.0011 19.7794 15.975 20.0753 15.8883 20.3559C15.8015 20.6365 15.6561 20.8954 15.4617 21.1156C15.2673 21.3357 15.0283 21.512 14.7606 21.6328C14.4928 21.7535 14.2025 21.816 13.9088 21.816Z" fill="#F9DECF"/>
<path d="M11.9038 19.08C13.1872 19.5961 14.6204 19.5961 15.9038 19.08L15.7438 17.792H12.0638L11.9038 19.08Z" fill="#FDC8A2"/>
<path d="M19.4246 12.856C20.186 12.856 20.8032 12.2387 20.8032 11.4773C20.8032 10.7159 20.186 10.0986 19.4246 10.0986C18.6631 10.0986 18.0459 10.7159 18.0459 11.4773C18.0459 12.2387 18.6631 12.856 19.4246 12.856Z" fill="#F9DECF"/>
<path d="M19.4243 12.3389C19.9 12.3389 20.2857 11.9532 20.2857 11.4775C20.2857 11.0018 19.9 10.6162 19.4243 10.6162C18.9486 10.6162 18.563 11.0018 18.563 11.4775C18.563 11.9532 18.9486 12.3389 19.4243 12.3389Z" fill="#FDC8A2"/>
<path d="M19.4239 9.13601V13.0293C19.4239 14.4919 18.8429 15.8946 17.8087 16.9288C16.7745 17.963 15.3718 18.544 13.9092 18.544C12.4466 18.544 11.0439 17.963 10.0097 16.9288C8.97554 15.8946 8.39453 14.4919 8.39453 13.0293V9.29601L15.0025 5.17334L15.1145 5.27467L19.4239 9.13601Z" fill="#F9DECF"/>
<path d="M15.1151 5.27467L15.0031 5.17334L14.7097 5.36267L18.9071 9.13601V13.0293C18.9058 14.4477 18.3581 15.811 17.3778 16.836C16.3975 17.861 15.0599 18.4689 13.6431 18.5333H13.9097C15.3705 18.5333 16.7715 17.9538 17.8054 16.9219C18.8393 15.89 19.4216 14.4901 19.4244 13.0293V9.13601L15.1151 5.27467Z" fill="#F4D3C3"/>
<path d="M11.6689 11.1335C11.6689 10.8478 11.4373 10.6162 11.1516 10.6162C10.8659 10.6162 10.6343 10.8478 10.6343 11.1335V11.9949C10.6343 12.2806 10.8659 12.5122 11.1516 12.5122C11.4373 12.5122 11.6689 12.2806 11.6689 11.9949V11.1335Z" fill="#36383F"/>
<path d="M17.1841 11.1335C17.1841 10.8478 16.9525 10.6162 16.6667 10.6162C16.381 10.6162 16.1494 10.8478 16.1494 11.1335V11.9949C16.1494 12.2806 16.381 12.5122 16.6667 12.5122C16.9525 12.5122 17.1841 12.2806 17.1841 11.9949V11.1335Z" fill="#36383F"/>
<path d="M14.4672 16.3175C14.1727 16.3807 13.868 16.3809 13.5734 16.3179C13.2788 16.2549 13.0009 16.1303 12.7579 15.9521C12.5766 15.8241 12.4032 16.1228 12.5819 16.2508C12.8655 16.4509 13.1876 16.5898 13.5278 16.6587C13.868 16.7276 14.2188 16.7249 14.5579 16.6508C14.7766 16.6055 14.6832 16.2721 14.4672 16.3175Z" fill="#FC818A"/>
</svg>
