<svg width="171" height="31" viewBox="0 0 171 31" fill="none" xmlns="http://www.w3.org/2000/svg">
<path d="M16.7553 2.0365H11.2763L8.93467 2.30803L7.50239 3.7562L7.16138 5.65693V17.1518L7.50239 19.0526L8.98014 20.4781L11.2763 20.7496H16.7553L19.4153 20.4328L18.8469 17.9891L16.7099 18.3511H11.4127L9.91225 18.1248L9.59397 16.7672V5.88321L9.82131 4.63869L11.4127 4.38978H16.6189L18.9606 4.77445L19.4153 2.35328L16.7553 2.0365ZM17.0509 0C18.5817 0 19.9685 0.226277 21.2113 0.678832C22.4541 1.13139 23.5075 1.74988 24.3714 2.53431C25.2505 3.31873 25.9249 4.23893 26.3948 5.29489C26.8646 6.33577 27.0996 7.44453 27.0996 8.62117V22.3788C27.0996 23.5555 26.8646 24.6718 26.3948 25.7277C25.9249 26.7686 25.2505 27.6813 24.3714 28.4657C23.5075 29.2501 22.4541 29.8686 21.2113 30.3212C19.9685 30.7737 18.5817 31 17.0509 31H10.0487C8.51787 31 7.13106 30.7737 5.88824 30.3212C4.64542 29.8686 3.58448 29.2501 2.70541 28.4657C1.8415 27.6813 1.17462 26.7686 0.70477 25.7277C0.234923 24.6718 0 23.5555 0 22.3788V8.62117C0 7.44453 0.234923 6.33577 0.70477 5.29489C1.17462 4.23893 1.8415 3.31873 2.70541 2.53431C3.58448 1.74988 4.64542 1.13139 5.88824 0.678832C7.13106 0.226277 8.51787 0 10.0487 0H17.0509Z" fill="#90FF99"/>
<path d="M50.5598 2.0365H48.1954V9.9562H38.7378V2.0365H36.3279V20.7496H38.7378V12.3321H48.1954V20.7496H50.5598V2.0365ZM45.831 0C47.3618 0 48.7486 0.226277 49.9914 0.678832C51.2342 1.13139 52.2876 1.74988 53.1515 2.53431C54.0306 3.31873 54.705 4.23893 55.1749 5.29489C55.6447 6.33577 55.8796 7.44453 55.8796 8.62117V22.3788C55.8796 23.5555 55.6447 24.6718 55.1749 25.7277C54.705 26.7686 54.0306 27.6813 53.1515 28.4657C52.2876 29.2501 51.2342 29.8686 49.9914 30.3212C48.7486 30.7737 47.3618 31 45.831 31H38.8287C37.298 31 35.9112 30.7737 34.6683 30.3212C33.4255 29.8686 32.3646 29.2501 31.4855 28.4657C30.6216 27.6813 29.9547 26.7686 29.4849 25.7277C29.015 24.6718 28.7801 23.5555 28.7801 22.3788V8.62117C28.7801 7.44453 29.015 6.33577 29.4849 5.29489C29.9547 4.23893 30.6216 3.31873 31.4855 2.53431C32.3646 1.74988 33.4255 1.13139 34.6683 0.678832C35.9112 0.226277 37.298 0 38.8287 0H45.831Z" fill="#90FF99"/>
<path d="M74.6111 0C76.1419 0 77.5287 0.226277 78.7715 0.678832C80.0143 1.13139 81.0677 1.74988 81.9316 2.53431C82.8107 3.31873 83.4851 4.23893 83.955 5.29489C84.4248 6.33577 84.6597 7.44453 84.6597 8.62117V22.3788C84.6597 23.5555 84.4248 24.6718 83.955 25.7277C83.4851 26.7686 82.8107 27.6813 81.9316 28.4657C81.0677 29.2501 80.0143 29.8686 78.7715 30.3212C77.5287 30.7737 76.1419 31 74.6111 31H67.6088C66.078 31 64.6912 30.7737 63.4484 30.3212C62.2056 29.8686 61.1447 29.2501 60.2656 28.4657C59.4017 27.6813 58.7348 26.7686 58.2649 25.7277C57.7951 24.6718 57.5602 23.5555 57.5602 22.3788V8.62117C57.5602 7.44453 57.7951 6.33577 58.2649 5.29489C58.7348 4.23893 59.4017 3.31873 60.2656 2.53431C61.1447 1.74988 62.2056 1.13139 63.4484 0.678832C64.6912 0.226277 66.078 0 67.6088 0H74.6111ZM76.7026 20.7496H79.2944L77.4984 3.89197L76.0888 2.48905L73.0651 2.0365H70.6325L67.6088 2.48905L66.222 3.89197L64.3578 20.7496H67.0632L67.427 15.9299L67.6543 13.8482H76.0433L76.2707 15.9299L76.7026 20.7496ZM75.1112 4.77445C75.2173 5.99635 75.3386 7.15037 75.475 8.2365C75.6114 9.32263 75.7402 10.4691 75.8615 11.6759H67.8589L68.541 4.77445C68.9653 4.7292 69.3291 4.6764 69.6322 4.61606C69.9505 4.55572 70.3218 4.49538 70.7462 4.43504H72.9742L75.1112 4.77445Z" fill="#90FF99"/>
<path d="M103.391 0C104.922 0 106.309 0.226277 107.552 0.678832C108.794 1.13139 109.848 1.74988 110.712 2.53431C111.591 3.31873 112.265 4.23893 112.735 5.29489C113.205 6.33577 113.44 7.44453 113.44 8.62117V22.3788C113.44 23.5555 113.205 24.6718 112.735 25.7277C112.265 26.7686 111.591 27.6813 110.712 28.4657C109.848 29.2501 108.794 29.8686 107.552 30.3212C106.309 30.7737 104.922 31 103.391 31H96.3889C94.8581 31 93.4713 30.7737 92.2285 30.3212C90.9857 29.8686 89.9247 29.2501 89.0457 28.4657C88.1818 27.6813 87.5149 26.7686 87.045 25.7277C86.5752 24.6718 86.3403 23.5555 86.3403 22.3788V8.62117C86.3403 7.44453 86.5752 6.33577 87.045 5.29489C87.5149 4.23893 88.1818 3.31873 89.0457 2.53431C89.9247 1.74988 90.9857 1.13139 92.2285 0.678832C93.4713 0.226277 94.8581 0 96.3889 0H103.391ZM104.551 15.1606V20.7496H106.96V14.9117L106.165 12.8299L103.573 11.9022L106.074 10.7029L106.779 8.66642V6.15474L106.506 4.25401L105.005 2.35328L102.732 2.0365H94.2519V20.7496H96.6845V13.2146H102.595L104.21 13.9387L104.551 15.1606ZM102.595 4.43504L104.21 5.1365L104.369 6.44891V8.84745L104.028 10.092L102.595 10.7934H96.6845V4.43504H102.595Z" fill="#90FF99"/>
<path d="M132.171 0C133.702 0 135.089 0.226277 136.332 0.678832C137.574 1.13139 138.628 1.74988 139.492 2.53431C140.371 3.31873 141.045 4.23893 141.515 5.29489C141.985 6.33577 142.22 7.44453 142.22 8.62117V22.3788C142.22 23.5555 141.985 24.6718 141.515 25.7277C141.045 26.7686 140.371 27.6813 139.492 28.4657C138.628 29.2501 137.574 29.8686 136.332 30.3212C135.089 30.7737 133.702 31 132.171 31H125.169C123.638 31 122.251 30.7737 121.009 30.3212C119.766 29.8686 118.705 29.2501 117.826 28.4657C116.962 27.6813 116.295 26.7686 115.825 25.7277C115.355 24.6718 115.12 23.5555 115.12 22.3788V8.62117C115.12 7.44453 115.355 6.33577 115.825 5.29489C116.295 4.23893 116.962 3.31873 117.826 2.53431C118.705 1.74988 119.766 1.13139 121.009 0.678832C122.251 0.226277 123.638 0 125.169 0H132.171ZM128.625 2.39854L127.374 2.0365H124.396L122.486 2.35328L121.031 3.80146V20.7496H123.464V4.63869C123.676 4.59343 123.866 4.56326 124.032 4.54818C124.199 4.53309 124.381 4.49538 124.578 4.43504H127.17C127.336 4.49538 127.496 4.53309 127.647 4.54818C127.814 4.56326 127.981 4.59343 128.147 4.63869V14.2328H130.58V4.63869L131.557 4.43504H134.172C134.354 4.49538 134.536 4.53309 134.718 4.54818C134.899 4.56326 135.089 4.59343 135.286 4.63869V20.7496H137.696V3.80146L136.263 2.35328L134.354 2.0365H131.376L130.148 2.39854L129.375 3.95985L128.625 2.39854Z" fill="#90FF99"/>
<path d="M160.951 0C162.482 0 163.869 0.226277 165.112 0.678832C166.355 1.13139 167.408 1.74988 168.272 2.53431C169.151 3.31873 169.825 4.23893 170.295 5.29489C170.765 6.33577 171 7.44453 171 8.62117V22.3788C171 23.5555 170.765 24.6718 170.295 25.7277C169.825 26.7686 169.151 27.6813 168.272 28.4657C167.408 29.2501 166.355 29.8686 165.112 30.3212C163.869 30.7737 162.482 31 160.951 31H153.949C152.418 31 151.032 30.7737 149.789 30.3212C148.546 29.8686 147.485 29.2501 146.606 28.4657C145.742 27.6813 145.075 26.7686 144.605 25.7277C144.135 24.6718 143.9 23.5555 143.9 22.3788V8.62117C143.9 7.44453 144.135 6.33577 144.605 5.29489C145.075 4.23893 145.742 3.31873 146.606 2.53431C147.485 1.74988 148.546 1.13139 149.789 0.678832C151.032 0.226277 152.418 0 153.949 0H160.951ZM165.225 13.6672L164.907 11.7212L163.452 10.2956L161.088 10.0467H155.995L154.608 9.77518C154.533 9.51874 154.48 9.29246 154.449 9.09635C154.419 8.88516 154.366 8.66642 154.29 8.44015V6.06423L154.608 4.7292L156.109 4.43504H161.883L164.02 4.86496L164.566 2.39854L161.929 2.0365H155.95L153.676 2.35328L152.199 3.80146L151.903 5.70219V8.80219L152.199 10.7029L153.676 12.1285L155.95 12.4226H161.088L162.475 12.6489C162.52 12.8752 162.573 13.0864 162.634 13.2825C162.694 13.4786 162.747 13.6822 162.793 13.8934V16.8577C162.763 17.0538 162.709 17.265 162.634 17.4912C162.573 17.7175 162.52 17.9287 162.475 18.1248L160.997 18.3511H155.359L153.131 17.9891L152.562 20.4328L155.222 20.7496H161.133L163.452 20.4781L164.907 19.0526L165.225 17.1066V13.6672Z" fill="#90FF99"/>
</svg>
