<svg width="40" height="40" viewBox="0 0 40 40" fill="none" xmlns="http://www.w3.org/2000/svg">
<path d="M10.7585 31.6667L3.3335 37.5V6.66667C3.3335 6.22464 3.50909 5.80072 3.82165 5.48816C4.13421 5.17559 4.55814 5 5.00016 5H35.0002C35.4422 5 35.8661 5.17559 36.1787 5.48816C36.4912 5.80072 36.6668 6.22464 36.6668 6.66667V30C36.6668 30.442 36.4912 30.866 36.1787 31.1785C35.8661 31.4911 35.4422 31.6667 35.0002 31.6667H10.7585ZM11.6668 16.6667C11.6668 18.8768 12.5448 20.9964 14.1076 22.5592C15.6704 24.122 17.79 25 20.0002 25C22.2103 25 24.3299 24.122 25.8927 22.5592C27.4555 20.9964 28.3335 18.8768 28.3335 16.6667H25.0002C25.0002 17.9927 24.4734 19.2645 23.5357 20.2022C22.598 21.1399 21.3262 21.6667 20.0002 21.6667C18.6741 21.6667 17.4023 21.1399 16.4646 20.2022C15.5269 19.2645 15.0002 17.9927 15.0002 16.6667H11.6668Z" fill="#6CFF77"/>
</svg>
