<svg width="40" height="40" viewBox="0 0 40 40" fill="none" xmlns="http://www.w3.org/2000/svg">
<path d="M20 3.33333C29.19 3.33333 36.6667 10.81 36.6667 20C36.6667 29.19 29.19 36.6667 20 36.6667C10.81 36.6667 3.33333 29.19 3.33333 20C3.33333 10.81 10.81 3.33333 20 3.33333ZM20 0C8.955 0 0 8.955 0 20C0 31.045 8.955 40 20 40C31.045 40 40 31.045 40 20C40 8.955 31.045 0 20 0ZM20 5C11.715 5 5 11.715 5 20C5 28.285 11.715 35 20 35C28.285 35 35 28.285 35 20C35 11.715 28.285 5 20 5ZM21.6667 28.245V30H20V28.3367C18.275 28.3067 16.49 27.895 15 27.125L15.7583 24.385C17.3517 25.0033 19.4733 25.66 21.1333 25.285C23.0483 24.8517 23.4417 22.8817 21.3233 21.9333C19.7717 21.21 15.0267 20.5917 15.0267 16.5283C15.0267 14.2567 16.7583 12.2233 20 11.7783V10H21.6667V11.6967C22.875 11.7283 24.225 11.9383 25.7367 12.3967L25.1333 15.1433C23.8533 14.6933 22.44 14.285 21.0633 14.3683C18.5817 14.5133 18.3633 16.6617 20.095 17.5617C22.9467 18.9017 26.6667 19.8967 26.6667 23.4717C26.67 26.335 24.4267 27.8583 21.6667 28.245Z" fill="#6CFF77"/>
</svg>
