<svg width="40" height="40" viewBox="0 0 40 40" fill="none" xmlns="http://www.w3.org/2000/svg">
<path d="M25.8332 20.8333V24.1667C25.8351 24.8291 26.0992 25.4639 26.5676 25.9323C27.036 26.4007 27.6707 26.6647 28.3332 26.6667H34.1665V34.1667C34.1665 34.3877 34.0787 34.5997 33.9224 34.7559C33.7661 34.9122 33.5542 35 33.3332 35H17.0582C18.5155 33.2448 19.2647 31.0085 19.1589 28.7295C19.0531 26.4506 18.0999 24.2934 16.4862 22.6807C14.8725 21.0681 12.7146 20.1163 10.4356 20.0119C8.15661 19.9076 5.92082 20.6582 4.1665 22.1167V10.8083C4.88235 11.3624 5.76131 11.6642 6.6665 11.6667H34.1665V18.3333H28.3332C27.6707 18.3353 27.036 18.5994 26.5676 19.0678C26.0992 19.5362 25.8351 20.1709 25.8332 20.8333Z" fill="#6CFF77"/>
<path d="M10 21.6667C8.51664 21.6667 7.0666 22.1065 5.83323 22.9306C4.59986 23.7548 3.63856 24.9261 3.07091 26.2965C2.50325 27.667 2.35472 29.175 2.64411 30.6298C2.9335 32.0847 3.64781 33.4211 4.6967 34.47C5.7456 35.5189 7.08197 36.2332 8.53683 36.5226C9.99168 36.8119 11.4997 36.6634 12.8701 36.0958C14.2406 35.5281 15.4119 34.5668 16.236 33.3334C17.0601 32.1001 17.5 30.65 17.5 29.1667C17.4969 27.1785 16.7058 25.2726 15.2999 23.8668C13.894 22.4609 11.9882 21.6698 10 21.6667ZM5.83334 30H4.16667V28.3333H5.83334V30ZM13.3333 27.5H11.6667V26.6667H8.33334V28.3333H11.6667C12.1083 28.3347 12.5314 28.5107 12.8437 28.8229C13.156 29.1352 13.332 29.5584 13.3333 30V31.6667C13.332 32.1083 13.156 32.5314 12.8437 32.8437C12.5314 33.156 12.1083 33.332 11.6667 33.3333H10.8333V35H9.16667V33.3333H8.33334C7.89172 33.332 7.46856 33.156 7.15628 32.8437C6.84401 32.5314 6.66799 32.1083 6.66667 31.6667V30.8333H8.33334V31.6667H11.6667V30H8.33334C7.89172 29.9987 7.46856 29.8227 7.15628 29.5104C6.84401 29.1981 6.66799 28.775 6.66667 28.3333V26.6667C6.66799 26.225 6.84401 25.8019 7.15628 25.4896C7.46856 25.1773 7.89172 25.0013 8.33334 25H9.16667V23.3333H10.8333V25H11.6667C12.1083 25.0013 12.5314 25.1773 12.8437 25.4896C13.156 25.8019 13.332 26.225 13.3333 26.6667V27.5ZM14.1667 30V28.3333H15.8333V30H14.1667ZM36.6667 20H28.3333C28.1123 20 27.9004 20.0878 27.7441 20.2441C27.5878 20.4004 27.5 20.6123 27.5 20.8333V24.1667C27.5 24.3877 27.5878 24.5996 27.7441 24.7559C27.9004 24.9122 28.1123 25 28.3333 25H36.6667C36.8877 25 37.0996 24.9122 37.2559 24.7559C37.4122 24.5996 37.5 24.3877 37.5 24.1667V20.8333C37.5 20.6123 37.4122 20.4004 37.2559 20.2441C37.0996 20.0878 36.8877 20 36.6667 20ZM30.8333 23.3333H29.1667V21.6667H30.8333V23.3333ZM6.66667 5C6.00363 5 5.36774 5.26339 4.8989 5.73223C4.43006 6.20107 4.16667 6.83696 4.16667 7.5C4.16667 8.16304 4.43006 8.79893 4.8989 9.26777C5.36774 9.73661 6.00363 10 6.66667 10H34.1667V5H6.66667ZM33.3333 8.33333H5.83334V6.66667H33.3333V8.33333Z" fill="#6CFF77"/>
</svg>

