<svg width="50" height="50" viewBox="0 0 50 50" fill="none" xmlns="http://www.w3.org/2000/svg">
<circle cx="25" cy="25" r="25" fill="#263227"/>
<path d="M36.5486 16.7725H33.9373V14.2451C33.9373 12.8242 32.7859 11.6729 31.365 11.6729H13.9187C12.4978 11.6729 11.3464 12.8242 11.3464 14.2451V31.6914C11.3464 33.1123 12.4978 34.2637 13.9187 34.2637H16.53V36.791C16.53 38.2119 17.6814 39.3633 19.1023 39.3633H36.5486C37.9695 39.3633 39.1208 38.2119 39.1208 36.791V19.3447C39.1208 17.9238 37.9695 16.7725 36.5486 16.7725ZM14.1023 28.9355V17.001C14.1023 15.5801 15.2537 14.4287 16.6746 14.4287H28.6101C29.9539 14.4287 31.0564 15.459 31.1716 16.7734H19.1023C17.6814 16.7734 16.53 17.9248 16.53 19.3457V31.5039C15.1765 31.4287 14.1023 30.3076 14.1023 28.9355Z" fill="#6CFF77"/>
</svg>
