<svg width="7" height="119" viewBox="0 0 7 119" fill="none" xmlns="http://www.w3.org/2000/svg">
<path d="M0 2.03226C0 0.909873 1.04467 0 2.33333 0H4.66667C5.95533 0 7 0.909873 7 2.03226V4.96774C7 6.09013 5.95533 7 4.66667 7H2.33333C1.04467 7 0 6.09013 0 4.96774V2.03226Z" fill="#90FF99"/>
<path d="M0.5 30.0323C0.5 29.2486 1.25371 28.5 2.33333 28.5H4.66667C5.74629 28.5 6.5 29.2486 6.5 30.0323V32.9677C6.5 33.7514 5.74629 34.5 4.66667 34.5H2.33333C1.25371 34.5 0.5 33.7514 0.5 32.9677V30.0323Z" stroke="#90FF99"/>
<path d="M0.5 58.0323C0.5 57.2486 1.25371 56.5 2.33333 56.5H4.66667C5.74629 56.5 6.5 57.2486 6.5 58.0323V60.9677C6.5 61.7514 5.74629 62.5 4.66667 62.5H2.33333C1.25371 62.5 0.5 61.7514 0.5 60.9677V58.0323Z" stroke="#90FF99"/>
<path d="M0.5 86.0323C0.5 85.2486 1.25371 84.5 2.33333 84.5H4.66667C5.74629 84.5 6.5 85.2486 6.5 86.0323V88.9677C6.5 89.7514 5.74629 90.5 4.66667 90.5H2.33333C1.25371 90.5 0.5 89.7514 0.5 88.9677V86.0323Z" stroke="#90FF99"/>
<path d="M0.5 114.032C0.5 113.249 1.25371 112.5 2.33333 112.5H4.66667C5.74629 112.5 6.5 113.249 6.5 114.032V116.968C6.5 117.751 5.74629 118.5 4.66667 118.5H2.33333C1.25371 118.5 0.5 117.751 0.5 116.968V114.032Z" stroke="#90FF99"/>
</svg>
