<svg width="137" height="137" viewBox="0 0 137 137" fill="none" xmlns="http://www.w3.org/2000/svg">
<path d="M120.605 74.7656H17.7607V128.166H120.605V74.7656Z" fill="#EF644F"/>
<path d="M46.125 41.5444H90.9688C98.8284 41.5444 106.366 44.3603 111.924 49.3725C117.481 54.3847 120.604 61.1827 120.604 68.2711V88.4927C120.604 94.6579 119.257 100.763 116.641 106.459C114.026 112.155 110.191 117.33 105.357 121.69C100.524 126.049 94.7849 129.508 88.4692 131.867C82.1535 134.226 75.3843 135.441 68.5482 135.441V135.441C54.7422 135.441 41.5017 130.494 31.7394 121.69C21.9771 112.886 16.4927 100.945 16.4927 88.4937V68.2711C16.4927 61.1831 19.6146 54.3854 25.1716 49.3733C30.7287 44.3612 38.2658 41.545 46.125 41.5444V41.5444Z" fill="#F4DCC6"/>
<path d="M68.5473 132.025C54.7414 132.025 41.5008 127.079 31.7385 118.274C21.9762 109.47 16.4918 97.5289 16.4918 85.0778V88.4923C16.4917 94.6576 17.838 100.762 20.454 106.458C23.07 112.154 26.9043 117.33 31.7381 121.689C36.572 126.049 42.3106 129.507 48.6263 131.867C54.942 134.226 61.7112 135.44 68.5473 135.44V135.44C82.3533 135.44 95.5938 130.494 105.356 121.69C115.118 112.886 120.603 100.944 120.603 88.4933V85.0768C120.603 91.2421 119.257 97.347 116.641 103.043C114.025 108.739 110.19 113.914 105.357 118.274C100.523 122.633 94.7841 126.092 88.4684 128.451C82.1526 130.81 75.3835 132.025 68.5473 132.025V132.025ZM90.9683 47.3457H46.1245C42.2328 47.3456 38.3792 48.0368 34.7837 49.3799C31.1881 50.723 27.9212 52.6916 25.1693 55.1734C22.4174 57.6552 20.2344 60.6015 18.7451 63.8441C17.2558 67.0867 16.4893 70.5622 16.4893 74.072V74.7654H120.603V74.072C120.603 66.9837 117.481 60.1858 111.923 55.1736C106.366 50.1615 98.8279 47.3457 90.9683 47.3457Z" fill="#C99673"/>
<path d="M40.9618 95.8909C50.288 95.8909 57.8484 89.0725 57.8484 80.6615C57.8484 72.2506 50.288 65.4321 40.9618 65.4321C31.6356 65.4321 24.0752 72.2506 24.0752 80.6615C24.0752 89.0725 31.6356 95.8909 40.9618 95.8909Z" fill="#ECF0F1"/>
<path d="M40.9649 65.4321C38.7473 65.4321 36.5515 65.8261 34.5027 66.5914C32.4539 67.3568 30.5924 68.4786 29.0244 69.8927C27.4563 71.3069 26.2125 72.9858 25.3639 74.8335C24.5153 76.6812 24.0786 78.6616 24.0786 80.6615H57.8515C57.8515 76.6224 56.0724 72.7488 52.9055 69.8927C49.7387 67.0367 45.4435 65.4321 40.9649 65.4321Z" fill="#BDC3C7"/>
<path d="M40.9625 92.3588C47.3168 92.3588 52.468 87.1219 52.468 80.6618C52.468 74.2018 47.3168 68.9648 40.9625 68.9648C34.6082 68.9648 29.457 74.2018 29.457 80.6618C29.457 87.1219 34.6082 92.3588 40.9625 92.3588Z" fill="#A36841"/>
<path d="M40.9653 86.5564C44.1679 86.5564 46.7642 83.9169 46.7642 80.661C46.7642 77.4051 44.1679 74.7656 40.9653 74.7656C37.7627 74.7656 35.1665 77.4051 35.1665 80.661C35.1665 83.9169 37.7627 86.5564 40.9653 86.5564Z" fill="#63433B"/>
<path d="M33.4735 84.0565C35.5531 84.0565 37.239 82.5361 37.239 80.6606C37.239 78.7851 35.5531 77.2646 33.4735 77.2646C31.3939 77.2646 29.708 78.7851 29.708 80.6606C29.708 82.5361 31.3939 84.0565 33.4735 84.0565Z" fill="#ECF0F1"/>
<path d="M70.3502 101.903L76.1605 95.948C76.465 95.6358 76.6632 95.2511 76.7313 94.8398C76.7994 94.4286 76.7346 94.0084 76.5446 93.6296C76.3546 93.2507 76.0475 92.9294 75.6601 92.704C75.2727 92.4786 74.8214 92.3588 74.3604 92.3589H62.7395C62.2785 92.3588 61.8272 92.4786 61.4398 92.704C61.0524 92.9294 60.7453 93.2507 60.5553 93.6296C60.3653 94.0084 60.3005 94.4286 60.3686 94.8398C60.4367 95.2511 60.6349 95.6358 60.9394 95.948L66.7501 101.903C66.975 102.134 67.2519 102.319 67.5623 102.445C67.8727 102.572 68.2094 102.637 68.5501 102.637C68.8908 102.637 69.2276 102.572 69.538 102.445C69.8484 102.319 70.1253 102.134 70.3502 101.903V101.903Z" fill="#C99673"/>
<path d="M68.5503 128.166C70.9426 128.166 72.8819 126.927 72.8819 125.399C72.8819 123.871 70.9426 122.632 68.5503 122.632C66.1581 122.632 64.2188 123.871 64.2188 125.399C64.2188 126.927 66.1581 128.166 68.5503 128.166Z" fill="#C99673"/>
<path d="M68.5485 1.75439C50.8685 1.75439 33.9127 8.08847 21.4111 19.3632C8.90955 30.6379 1.88623 45.9297 1.88623 61.8746V128.921L10.8573 132.882V124.959L16.4904 132.882H21.3165V74.6626L24.8101 68.964H39.5947L43.0721 53.4563L46.1055 68.964H68.2722L71.75 53.4563L74.783 68.964H96.9501L100.427 53.4563L103.461 68.964H113.427L115.78 72.8026V132.882H120.606L126.24 124.959V132.882L135.211 128.921V61.8746C135.211 53.9795 133.486 46.1617 130.136 38.8676C126.786 31.5735 121.876 24.9459 115.686 19.3632C109.496 13.7805 102.147 9.3521 94.059 6.33077C85.9711 3.30945 77.3027 1.75439 68.5485 1.75439V1.75439Z" fill="#FD805D"/>
<path d="M68.5497 118.167C77.0333 118.167 83.9103 115.134 83.9103 111.391H53.188C53.188 115.134 60.0636 118.167 68.5497 118.167Z" fill="#AB2E3C"/>
<path d="M119.391 23.0088C109.074 34.5749 90.174 42.3279 68.5477 42.3279C46.9213 42.3279 28.0267 34.5749 17.7096 23.0088C15.1225 25.7599 12.8146 28.7149 10.8135 31.8383C14.702 43.5256 26.3353 53.2582 41.9395 58.5168L43.0743 53.4557L44.2058 59.2401C52.0586 61.5826 60.2795 62.7653 68.5506 62.7427C68.9283 62.7427 69.3 62.7285 69.6755 62.7235L71.7537 53.4564L73.5405 62.5923C82.5698 62.1343 91.4285 60.1816 99.6741 56.8318L100.431 53.4564L100.982 56.2725C113.635 50.7214 122.901 42.0205 126.288 31.8366C124.286 28.7138 121.978 25.7593 119.391 23.0088V23.0088Z" fill="#FFA48F"/>
<path d="M83.8586 109.636H53.1381C52.6509 109.636 52.1837 109.81 51.8393 110.121C51.4948 110.432 51.3013 110.853 51.3013 111.292C51.3013 116.099 58.6945 119.725 68.4983 119.725C78.3022 119.725 85.6954 116.099 85.6954 111.292C85.6954 110.853 85.5019 110.432 85.1574 110.121C84.8129 109.81 84.3457 109.636 83.8586 109.636ZM68.4983 116.412C62.5169 116.412 57.7041 114.798 55.8243 112.949H81.1695C79.2926 114.798 74.4794 116.412 68.4983 116.412Z" fill="black"/>
<path d="M68.4994 0C30.7289 0 0 27.7136 0 61.7764V128.823C-7.65324e-07 129.133 0.0963921 129.436 0.278225 129.699C0.460058 129.962 0.720037 130.174 1.02862 130.31L9.99965 134.272C10.2797 134.396 10.59 134.453 10.9015 134.439C11.2129 134.425 11.5152 134.339 11.7798 134.19C12.0444 134.041 12.2627 133.834 12.414 133.588C12.5653 133.342 12.6447 133.066 12.6447 132.785V130.513L14.8948 133.678C15.061 133.912 15.2898 134.104 15.56 134.238C15.8302 134.371 16.1331 134.44 16.441 134.44H21.2671C21.7542 134.44 22.2214 134.266 22.5659 133.955C22.9104 133.645 23.1039 133.223 23.1039 132.784V129.725H40.1779C48.6841 134.48 58.4935 137 68.5017 137C78.5098 137 88.3192 134.48 96.8254 129.725H113.896V132.785C113.896 133.224 114.089 133.646 114.434 133.956C114.778 134.267 115.245 134.441 115.733 134.441H120.559C120.867 134.441 121.17 134.372 121.44 134.239C121.71 134.105 121.939 133.913 122.105 133.679L124.355 130.514V132.786C124.355 133.067 124.435 133.343 124.586 133.589C124.737 133.835 124.956 134.042 125.22 134.191C125.485 134.34 125.787 134.426 126.099 134.44C126.41 134.454 126.72 134.397 127 134.273L135.971 130.311C136.28 130.175 136.54 129.963 136.722 129.7C136.904 129.437 137 129.134 137 128.824V61.7764C136.999 27.7136 106.27 0 68.4994 0ZM23.1043 126.411V114.557C26.3111 119.067 30.3161 123.071 34.9598 126.411H23.1043ZM113.894 126.411H102.036C106.681 123.072 110.687 119.068 113.894 114.558V126.411ZM113.894 107.734C109.826 115.49 103.4 122.046 95.3646 126.64C87.3289 131.234 78.0126 133.678 68.4983 133.686V133.686C58.9856 133.678 49.6707 131.236 41.6355 126.643C33.6003 122.051 27.1746 115.497 23.1046 107.743V81.8228C23.3441 81.9884 23.6303 82.0901 23.9307 82.1164C24.231 82.1427 24.5336 82.0925 24.8039 81.9716C25.0743 81.8506 25.3016 81.6637 25.46 81.4321C25.6185 81.2004 25.7018 80.9334 25.7004 80.6612C25.6999 78.7536 26.1403 76.8668 26.9934 75.1213C27.8466 73.3757 29.0938 71.8097 30.6554 70.5231H32.133C30.6696 71.838 29.5123 73.4033 28.7291 75.1273C27.946 76.8512 27.5527 78.6989 27.5725 80.5618C27.5725 87.9246 33.5576 93.9137 40.9148 93.9137C48.272 93.9137 54.2571 87.9232 54.2571 80.5618C54.2769 78.6989 53.8837 76.8512 53.1005 75.1273C52.3174 73.4033 51.1601 71.838 49.6967 70.5231H51.2741C52.8363 71.8094 54.084 73.3753 54.9375 75.1209C55.791 76.8665 56.2315 78.7534 56.231 80.6612C56.231 81.049 56.4018 81.4209 56.7058 81.6951C57.0098 81.9693 57.4222 82.1233 57.8521 82.1233C58.2821 82.1233 58.6945 81.9693 58.9985 81.6951C59.3025 81.4209 59.4733 81.049 59.4733 80.6612C59.4764 76.9935 58.1316 73.4283 55.6494 70.5231H68.2232C68.6471 70.523 69.0579 70.3907 69.386 70.1486C69.7141 69.9065 69.9393 69.5696 70.0233 69.1948L71.5772 62.2651L72.9247 69.1541C72.9997 69.5376 73.222 69.885 73.5528 70.1354C73.8835 70.3857 74.3015 70.523 74.7332 70.5231H96.9007C97.3246 70.523 97.7355 70.3907 98.0636 70.1486C98.3917 69.9065 98.6168 69.5696 98.7008 69.1948L100.254 62.2651L101.473 68.4921L82.0706 79.4211C81.8225 79.561 81.621 79.7589 81.4875 79.9937C81.354 80.2285 81.2935 80.4916 81.3123 80.7549C81.3311 81.0182 81.4286 81.2721 81.5945 81.4895C81.7603 81.7069 81.9883 81.8798 82.2543 81.9898L107.775 92.5676C108.166 92.7295 108.612 92.7448 109.015 92.6101C109.419 92.4754 109.746 92.2018 109.925 91.8495C110.105 91.4971 110.122 91.0949 109.973 90.7312C109.823 90.3676 109.52 90.0724 109.129 89.9105L86.3401 80.4647L103.989 70.5231H112.296L113.895 73.1325L113.894 107.734ZM23.1043 76.2968V74.9918L25.8441 70.5227H26.2849C24.8176 72.2421 23.7371 74.2036 23.1043 76.2968V76.2968ZM43.8545 67.1447L43.9356 67.5595C43.2306 67.3951 42.5104 67.2886 41.784 67.2414L41.8575 66.9194C42.5279 66.9547 43.195 67.0299 43.8545 67.1447ZM42.5029 64.035L42.9 62.2648L43.259 64.1013C43.0092 64.0728 42.756 64.0542 42.504 64.035H42.5029ZM50.5849 80.5635C50.5849 86.0997 46.2475 90.6022 40.9163 90.6022C35.5851 90.6022 31.2476 86.0984 31.2476 80.5635C31.2476 75.0286 35.5851 70.5247 40.9163 70.5247C46.2475 70.5247 50.5831 75.0273 50.5831 80.5635H50.5849ZM133.325 127.789L128.026 130.129V124.861C128.026 124.503 127.898 124.154 127.66 123.868C127.422 123.581 127.087 123.372 126.706 123.271C126.325 123.17 125.918 123.183 125.546 123.309C125.175 123.434 124.858 123.665 124.643 123.966L119.552 131.128H117.568V72.7058C117.568 72.4254 117.49 72.1496 117.339 71.9043L114.985 68.0651C114.826 67.806 114.593 67.59 114.311 67.4397C114.028 67.2893 113.706 67.2099 113.377 67.21H109.698C109.944 66.943 110.076 66.6058 110.071 66.2588C110.066 65.9118 109.924 65.5779 109.67 65.317C109.416 65.0562 109.068 64.8856 108.687 64.8358C108.306 64.786 107.918 64.8604 107.593 65.0455L104.833 66.5993L102.188 53.0705C102.114 52.6905 101.895 52.3457 101.569 52.0958C101.243 51.8459 100.83 51.7066 100.402 51.7018C99.9742 51.697 99.5579 51.8271 99.225 52.0696C98.8921 52.3121 98.6636 52.6518 98.5789 53.0301L95.3993 67.2103H76.2751L73.5096 53.0709C73.4351 52.691 73.216 52.3465 72.89 52.0967C72.5639 51.8469 72.1515 51.7076 71.7238 51.7028C71.2961 51.698 70.8799 51.8279 70.547 52.0702C70.2142 52.3126 69.9856 52.652 69.9006 53.0301L66.7207 67.2103H47.5975L44.8316 53.0709C44.7571 52.691 44.538 52.3465 44.2119 52.0968C43.8859 51.847 43.4734 51.7078 43.0457 51.703C42.618 51.6982 42.2018 51.8282 41.869 52.0705C41.5362 52.3129 41.3076 52.6524 41.2227 53.0305L38.0428 67.2106H24.7603C24.4321 67.2106 24.1099 67.2899 23.8271 67.4403C23.5444 67.5907 23.3116 67.8067 23.1528 68.0657L19.6591 73.7643C19.5087 74.0097 19.4299 74.2854 19.4299 74.5657V131.128H17.4461L12.3545 123.967C12.1401 123.665 11.8233 123.435 11.4513 123.309C11.0794 123.184 10.6725 123.17 10.2914 123.271C9.91041 123.372 9.57585 123.581 9.33787 123.868C9.0999 124.155 8.97131 124.503 8.9714 124.861V130.129L3.67364 127.789V61.7764C3.67364 29.5398 32.7542 3.31312 68.4991 3.31312C104.244 3.31312 133.325 29.5398 133.325 61.7764L133.325 127.789Z" fill="black"/>
</svg>

