<svg width="58" height="58" viewBox="0 0 58 58" fill="none" xmlns="http://www.w3.org/2000/svg">
<circle cx="29" cy="29" r="28" stroke="url(#paint0_linear_450_661)" stroke-width="2"/>
<circle cx="29" cy="29" r="24" fill="#324833"/>
<path d="M29.5383 30.3765H14.4688V35.2179L18.3197 38.9173L18.9706 37.4939L20.8829 38.9173H29.5383H38.1936L40.1059 37.4939L40.7568 38.9173L44.6077 35.2179V30.3765H29.5383Z" fill="#27AE60"/>
<path d="M23.6893 18.6846H35.3165C37.3543 18.6847 39.3086 19.3701 40.7495 20.59C42.1904 21.81 42.9999 23.4645 42.9998 25.1897V30.1116C42.9999 31.6122 42.6508 33.098 41.9725 34.4844C41.2942 35.8708 40.3001 37.1305 39.0468 38.1916C37.7934 39.2526 36.3055 40.0943 34.668 40.6686C33.0304 41.2428 31.2753 41.5384 29.5028 41.5384C25.9232 41.5384 22.4902 40.3345 19.959 38.1916C17.4279 36.0487 16.0059 33.1423 16.0059 30.1118V25.1897C16.0059 23.4645 16.8154 21.8099 18.2564 20.5899C19.6974 19.37 21.6518 18.6847 23.6896 18.6847L23.6893 18.6846Z" fill="#F4DCC6"/>
<path d="M29.5032 40.707C25.9236 40.707 22.4906 39.5031 19.9594 37.3602C17.4282 35.2173 16.0062 32.3109 16.0062 29.2804V30.1117C16.0062 33.1423 17.4282 36.0487 19.9594 38.1916C22.4906 40.3345 25.9236 41.5383 29.5032 41.5383C33.0829 41.5383 36.5159 40.3345 39.047 38.1916C41.5782 36.0487 43.0002 33.1423 43.0002 30.1117V29.2801C43.0003 30.7807 42.6512 32.2666 41.9729 33.653C41.2947 35.0393 40.3005 36.299 39.0472 37.3601C37.7939 38.4212 36.3059 39.2629 34.6684 39.8372C33.0308 40.4114 31.2757 40.707 29.5032 40.707ZM35.3168 18.6846H23.6897C22.6807 18.6846 21.6815 18.8528 20.7493 19.1797C19.817 19.5066 18.97 19.9858 18.2564 20.5898C17.5429 21.1939 16.9769 21.911 16.5908 22.7002C16.2046 23.4894 16.0059 24.3353 16.0059 25.1896V25.3584H23.7577C23.8115 25.3277 24.5388 24.9899 25.448 24.5933C26.7834 24.0111 28.2318 23.4765 28.2318 23.4765C28.4759 23.4451 28.7271 23.4191 28.9835 23.3966L27.2881 26.7915L30.9812 23.3316C31.0163 23.3323 31.0498 23.3316 31.0849 23.3323C36.5794 23.4837 40.6053 26.084 42.4504 27.4797L43.0004 25.3588V25.1901C43.0005 24.3358 42.8018 23.4899 42.4157 22.7006C42.0296 21.9113 41.4636 21.1941 40.7502 20.59C40.0367 19.9859 39.1896 19.5067 38.2574 19.1798C37.3251 18.8529 36.3259 18.6846 35.3168 18.6846Z" fill="#C99673"/>
<path d="M22.352 31.912C24.7701 31.912 26.7304 30.2525 26.7304 28.2053C26.7304 26.1581 24.7701 24.4985 22.352 24.4985C19.9339 24.4985 17.9736 26.1581 17.9736 28.2053C17.9736 30.2525 19.9339 31.912 22.352 31.912Z" fill="#ECF0F1"/>
<path d="M22.352 24.4985C21.1908 24.4985 20.0771 24.8891 19.256 25.5842C18.4349 26.2794 17.9736 27.2222 17.9736 28.2053H26.7303C26.7303 27.7185 26.6171 27.2365 26.397 26.7868C26.177 26.3371 25.8545 25.9284 25.448 25.5842C25.0414 25.24 24.5587 24.967 24.0275 24.7807C23.4963 24.5944 22.927 24.4985 22.352 24.4985Z" fill="#BDC3C7"/>
<path d="M22.3513 31.0523C23.9989 31.0523 25.3345 29.7777 25.3345 28.2054C25.3345 26.633 23.9989 25.3584 22.3513 25.3584C20.7038 25.3584 19.3682 26.633 19.3682 28.2054C19.3682 29.7777 20.7038 31.0523 22.3513 31.0523Z" fill="#414141"/>
<path d="M22.3512 29.6405C23.1816 29.6405 23.8547 28.9981 23.8547 28.2056C23.8547 27.4132 23.1816 26.7708 22.3512 26.7708C21.5208 26.7708 20.8477 27.4132 20.8477 28.2056C20.8477 28.9981 21.5208 29.6405 22.3512 29.6405Z" fill="#ECF0F1"/>
<path d="M36.6557 31.912C39.0738 31.912 41.0341 30.2525 41.0341 28.2053C41.0341 26.1581 39.0738 24.4985 36.6557 24.4985C34.2376 24.4985 32.2773 26.1581 32.2773 28.2053C32.2773 30.2525 34.2376 31.912 36.6557 31.912Z" fill="#ECF0F1"/>
<path d="M36.6556 24.4985C36.0807 24.4985 35.5113 24.5944 34.9801 24.7807C34.4489 24.967 33.9662 25.24 33.5597 25.5842C33.1531 25.9284 32.8306 26.3371 32.6106 26.7868C32.3906 27.2365 32.2773 27.7185 32.2773 28.2053H41.034C41.034 27.7185 40.9208 27.2365 40.7007 26.7868C40.4807 26.337 40.1582 25.9284 39.7516 25.5842C39.3451 25.24 38.8624 24.967 38.3312 24.7807C37.8 24.5944 37.2306 24.4985 36.6556 24.4985Z" fill="#BDC3C7"/>
<path d="M36.657 31.0523C38.3045 31.0523 39.6401 29.7777 39.6401 28.2054C39.6401 26.633 38.3045 25.3584 36.657 25.3584C35.0094 25.3584 33.6738 26.633 33.6738 28.2054C33.6738 29.7777 35.0094 31.0523 36.657 31.0523Z" fill="#414141"/>
<path d="M36.6578 29.6405C37.4882 29.6405 38.1614 28.9981 38.1614 28.2056C38.1614 27.4132 37.4882 26.7708 36.6578 26.7708C35.8274 26.7708 35.1543 27.4132 35.1543 28.2056C35.1543 28.9981 35.8274 29.6405 36.6578 29.6405Z" fill="#ECF0F1"/>
<path d="M29.9714 33.3756L31.4779 31.9263C31.5569 31.8503 31.6083 31.7567 31.626 31.6566C31.6437 31.5565 31.6269 31.4542 31.5776 31.362C31.5284 31.2697 31.4487 31.1915 31.3482 31.1367C31.2478 31.0818 31.1307 31.0527 31.0112 31.0527H27.9985C27.879 31.0527 27.762 31.0819 27.6615 31.1367C27.5611 31.1916 27.4814 31.2698 27.4322 31.362C27.3829 31.4542 27.3661 31.5565 27.3838 31.6566C27.4014 31.7567 27.4528 31.8503 27.5318 31.9263L29.0384 33.3756C29.0967 33.4318 29.1684 33.4767 29.2489 33.5075C29.3293 33.5383 29.4166 33.5542 29.5049 33.5542C29.5932 33.5542 29.6805 33.5383 29.7609 33.5075C29.8414 33.4767 29.9131 33.4318 29.9714 33.3756Z" fill="#C99673"/>
<path d="M26.7317 28.5615C26.6202 28.5615 26.5133 28.524 26.4345 28.4573C26.3556 28.3906 26.3113 28.3001 26.3113 28.2057C26.3139 27.7643 26.2134 27.3268 26.0157 26.9183C25.8179 26.5099 25.5268 26.1385 25.159 25.8256C24.7912 25.5127 24.354 25.2644 23.8725 25.095C23.391 24.9256 22.8748 24.8384 22.3534 24.8384C21.8319 24.8384 21.3157 24.9256 20.8342 25.095C20.3527 25.2644 19.9155 25.5127 19.5477 25.8256C19.18 26.1385 18.8888 26.5099 18.6911 26.9183C18.4933 27.3268 18.3928 27.7643 18.3954 28.2057C18.3954 28.3001 18.3511 28.3906 18.2723 28.4573C18.1934 28.524 18.0865 28.5615 17.975 28.5615C17.8635 28.5615 17.7566 28.524 17.6778 28.4573C17.599 28.3906 17.5547 28.3001 17.5547 28.2057C17.5547 27.1282 18.0603 26.0949 18.9602 25.333C19.8601 24.5711 21.0807 24.1431 22.3534 24.1431C23.6261 24.1431 24.8467 24.5711 25.7466 25.333C26.6465 26.0949 27.1521 27.1282 27.1521 28.2057C27.1521 28.3001 27.1078 28.3906 27.0289 28.4573C26.9501 28.5241 26.8432 28.5615 26.7317 28.5615ZM41.0355 28.5615C40.9241 28.5615 40.8171 28.524 40.7383 28.4573C40.6595 28.3906 40.6152 28.3001 40.6152 28.2057C40.6178 27.7643 40.5173 27.3268 40.3195 26.9183C40.1217 26.5099 39.8306 26.1385 39.4628 25.8256C39.095 25.5127 38.6578 25.2644 38.1764 25.095C37.6949 24.9256 37.1786 24.8384 36.6572 24.8384C36.1358 24.8384 35.6195 24.9256 35.1381 25.095C34.6566 25.2644 34.2194 25.5127 33.8516 25.8256C33.4838 26.1385 33.1927 26.5099 32.9949 26.9183C32.7971 27.3268 32.6967 27.7643 32.6992 28.2057C32.6992 28.2524 32.6883 28.2987 32.6672 28.3419C32.6461 28.385 32.6151 28.4243 32.5761 28.4573C32.5371 28.4904 32.4907 28.5166 32.4397 28.5345C32.3887 28.5523 32.3341 28.5615 32.2789 28.5615C32.2237 28.5615 32.169 28.5523 32.118 28.5345C32.067 28.5166 32.0207 28.4904 31.9817 28.4573C31.9426 28.4243 31.9117 28.385 31.8905 28.3419C31.8694 28.2987 31.8585 28.2524 31.8585 28.2057C31.8585 27.1282 32.3641 26.0949 33.2641 25.333C34.164 24.5711 35.3846 24.1431 36.6573 24.1431C37.93 24.1431 39.1505 24.5711 40.0505 25.333C40.9504 26.0949 41.456 27.1282 41.456 28.2057C41.4559 28.3001 41.4116 28.3906 41.3328 28.4573C41.254 28.5241 41.147 28.5615 41.0355 28.5615Z" fill="#414141"/>
<path d="M26.2359 25.1208C26.5776 24.7461 25.7887 23.7456 24.4738 22.8861C23.1589 22.0267 21.8159 21.6336 21.4742 22.0083C21.1325 22.383 21.9214 23.3835 23.2363 24.243C24.5512 25.1025 25.8942 25.4955 26.2359 25.1208Z" fill="#27AE60"/>
<path d="M35.7726 24.243C37.0875 23.3835 37.8764 22.383 37.5347 22.0083C37.193 21.6336 35.8501 22.0267 34.5352 22.8861C33.2202 23.7456 32.4313 24.7461 32.773 25.1208C33.1147 25.4955 34.4577 25.1025 35.7726 24.243Z" fill="#27AE60"/>
<path d="M29.5048 39.6979C30.2237 39.6979 30.8065 39.3484 30.8065 38.9173C30.8065 38.4862 30.2237 38.1367 29.5048 38.1367C28.7859 38.1367 28.2031 38.4862 28.2031 38.9173C28.2031 39.3484 28.7859 39.6979 29.5048 39.6979Z" fill="#C99673"/>
<path d="M47.0904 40.4231C46.9955 40.3437 46.8945 40.2696 46.7882 40.2013V30.1111H46.7888V23.6328C46.7887 21.6948 46.334 19.7762 45.4509 17.9882C44.5679 16.2002 43.2741 14.5785 41.6447 13.2173C40.0153 11.8561 38.0828 10.7825 35.9593 10.0587C33.8358 9.33498 31.5636 8.97554 29.2747 9.00129C19.7764 9.10564 12.2203 15.8092 12.2203 23.8511V40.2012C11.868 40.4275 11.5773 40.7153 11.3678 41.0451C11.1584 41.3749 11.0352 41.7389 11.0065 42.1125C10.9778 42.4862 11.0444 42.8606 11.2016 43.2106C11.3588 43.5605 11.6031 43.8778 11.9179 44.1408L14.1135 45.9998L16.3092 44.1408C16.624 43.8778 16.8682 43.5605 17.0255 43.2106C17.1827 42.8606 17.2493 42.4862 17.2206 42.1125C17.1919 41.7389 17.0687 41.3749 16.8593 41.0451C16.6498 40.7153 16.3591 40.4275 16.0068 40.2012V32.1154C16.195 32.2385 16.3937 32.3496 16.6013 32.4478C17.5871 32.9056 18.7271 33.0669 19.8351 32.9053C18.2244 31.8595 17.0937 30.3719 16.6368 28.6976C16.8915 28.1917 17.2194 27.7145 17.6131 27.2771L17.6294 27.259C19.4223 25.2683 21.6044 23.5521 24.0812 22.1846C25.2903 21.5996 26.5416 21.0793 27.8278 20.627C27.0414 22.6112 26.8562 24.7309 27.2891 26.7915C28.1777 25.0377 29.4264 23.4312 30.9773 22.0465C31.6295 21.4667 32.3327 20.9297 33.0809 20.4401L36.3671 21.9536C38.7483 23.0503 40.7103 24.6998 42.0221 26.7082C42.1845 26.9573 42.328 27.215 42.4515 27.4796C42.3723 28.5377 42.0267 29.5692 41.438 30.5049C40.8493 31.4407 40.031 32.259 39.0381 32.9051C40.1461 33.0666 41.2861 32.9053 42.2718 32.4475C42.5298 32.3257 42.774 32.1842 43.0014 32.0246V40.2015C42.6491 40.4278 42.3584 40.7156 42.149 41.0453C41.9395 41.3751 41.8163 41.7392 41.7876 42.1128C41.7589 42.4864 41.8255 42.8609 41.9827 43.2108C42.14 43.5608 42.3843 43.878 42.699 44.141L44.8946 46L47.0903 44.141C47.3787 43.8969 47.6075 43.6071 47.7636 43.2881C47.9197 42.9692 48 42.6273 48 42.2821C48 41.9368 47.9197 41.5949 47.7636 41.276C47.6076 40.957 47.3788 40.6672 47.0904 40.4231Z" fill="#2ECC71"/>
<path d="M41.5887 13.1721C40.7522 13.2247 39.97 13.543 39.3991 14.0634C38.8282 14.5837 38.5107 15.2675 38.5104 15.9777C38.5104 15.9894 38.5123 16.0008 38.5126 16.0124C38.0989 15.8186 37.641 15.7019 37.1697 15.6699C36.6984 15.6379 36.2244 15.6914 35.7795 15.8269C35.3345 15.9624 34.9289 16.1767 34.5896 16.4555C34.2503 16.7344 33.9852 17.0713 33.812 17.4437C33.1485 17.0697 32.3482 16.9103 31.5574 16.9948C30.7665 17.0793 30.0381 17.402 29.5052 17.9039C28.9723 17.402 28.2438 17.0793 27.4529 16.9948C26.6621 16.9103 25.8618 17.0697 25.1983 17.4437C25.0251 17.0713 24.7601 16.7344 24.4208 16.4555C24.0815 16.1767 23.6759 15.9624 23.231 15.8269C22.7861 15.6914 22.3121 15.6379 21.8408 15.6699C21.3695 15.7019 20.9116 15.8186 20.4979 16.0124C20.4979 16.0008 20.4999 15.9894 20.4999 15.9777C20.4999 15.2807 20.1946 14.6085 19.6431 14.091C19.0915 13.5735 18.333 13.2475 17.514 13.1761C16.1388 14.3194 14.9937 15.6455 14.124 17.1017C14.3087 17.4613 14.5801 17.7843 14.9208 18.05C15.2615 18.3156 15.6641 18.518 16.1026 18.6443C16.5411 18.7705 17.006 18.8177 17.4674 18.783C17.9288 18.7482 18.3765 18.6322 18.7818 18.4424C18.7818 18.4541 18.7798 18.4654 18.7798 18.4771C18.7796 18.9864 18.9427 19.4863 19.2516 19.9234C19.5605 20.3605 20.0037 20.7185 20.534 20.9591C21.0643 21.1998 21.6617 21.3142 22.2627 21.2901C22.8637 21.2661 23.4457 21.1044 23.9467 20.8224C24.1308 21.2157 24.4168 21.569 24.7836 21.8563C25.7734 21.4031 26.7898 20.9928 27.8288 20.6269C27.5974 21.2104 27.4174 21.8077 27.2901 22.4137C27.2773 22.4755 27.2699 22.5341 27.2581 22.5952C28.1203 22.5478 28.9266 22.2173 29.5052 21.674C29.8193 21.9681 30.2028 22.2033 30.6309 22.3642C30.7439 22.2581 30.8597 22.1521 30.9784 22.0464C31.6306 21.4667 32.3338 20.9297 33.082 20.44L34.8182 21.2397C34.9136 21.1066 34.9958 20.967 35.0639 20.8224C35.5649 21.1044 36.1469 21.2661 36.7479 21.2901C37.3489 21.3142 37.9464 21.1998 38.4766 20.9591C39.0069 20.7185 39.4501 20.3605 39.759 19.9234C40.0679 19.4863 40.231 18.9864 40.2308 18.4771C40.2308 18.4654 40.2289 18.4541 40.2287 18.4424C40.6415 18.6357 41.0981 18.7524 41.5682 18.7848C42.0383 18.8171 42.5112 18.7644 42.9554 18.6301C43.3996 18.4957 43.805 18.2829 44.1445 18.0057C44.484 17.7285 44.7499 17.3933 44.9246 17.0223C44.0684 15.5933 42.9415 14.2927 41.5887 13.1721Z" fill="#38E87F"/>
<path d="M15.8703 38.6812H12.3735C11.8862 38.6812 11.4912 39.0156 11.4912 39.4281C11.4912 39.8406 11.8862 40.175 12.3735 40.175H15.8703C16.3575 40.175 16.7526 39.8406 16.7526 39.4281C16.7526 39.0156 16.3575 38.6812 15.8703 38.6812Z" fill="#34495E"/>
<path d="M46.6525 38.6812H43.1557C42.6685 38.6812 42.2734 39.0156 42.2734 39.4281C42.2734 39.8406 42.6685 40.175 43.1557 40.175H46.6525C47.1398 40.175 47.5348 39.8406 47.5348 39.4281C47.5348 39.0156 47.1398 38.6812 46.6525 38.6812Z" fill="#34495E"/>
<path d="M29.5398 37.3647C31.7394 37.3647 33.5225 35.6832 33.5225 34.7723H25.5573C25.5573 35.6832 27.3403 37.3647 29.5398 37.3647Z" fill="#AB2E3C"/>
<defs>
<linearGradient id="paint0_linear_450_661" x1="29" y1="0" x2="29" y2="58" gradientUnits="userSpaceOnUse">
<stop offset="0.557292" stop-color="#B9FEBD"/>
<stop offset="1" stop-opacity="0"/>
</linearGradient>
</defs>
</svg>
