<svg width="58" height="58" viewBox="0 0 58 58" fill="none" xmlns="http://www.w3.org/2000/svg">
<circle cx="29" cy="29" r="28" stroke="url(#paint0_linear_450_664)" stroke-width="2"/>
<circle cx="29" cy="29" r="24" fill="#324833"/>
<path d="M14.0544 27.1353L10.4629 39.9826C10.4629 39.9826 13.3805 35.9207 13.4746 36.6434C13.5688 37.3661 14.6981 42.6008 14.6981 42.6008L19.404 38.238L19.7804 44.9731L25.433 36.6437L16.518 27.1353H14.0544ZM44.046 27.1353L47.6376 39.9826C47.6376 39.9826 44.7199 35.9207 44.6258 36.6434C44.5317 37.3661 43.4023 42.6008 43.4023 42.6008L38.6965 38.238L38.32 44.9731L32.6674 36.6436L41.5825 27.1353H44.046Z" fill="#AB12F3"/>
<path d="M24.0051 21.4963H34.093C35.861 21.4964 37.5566 22.2775 38.8067 23.6678C40.0569 25.058 40.7592 26.9436 40.7592 28.9096V34.5186C40.7592 36.2287 40.4563 37.9221 39.8679 39.502C39.2794 41.0819 38.4168 42.5175 37.3294 43.7267C36.242 44.9359 34.9511 45.8952 33.5304 46.5496C32.1096 47.204 30.5868 47.5408 29.049 47.5408C25.9433 47.5408 22.9648 46.1689 20.7687 43.7268C18.5726 41.2847 17.3389 37.9725 17.3389 34.5189V28.9096C17.3389 26.9436 18.0412 25.058 19.2914 23.6677C20.5415 22.2775 22.2371 21.4964 24.0051 21.4963Z" fill="#F4DCC6"/>
<path d="M34.093 21.4963H24.0051C22.2371 21.4964 20.5415 22.2774 19.2914 23.6677C18.0412 25.0579 17.3389 26.9435 17.3389 28.9096V29.1019H40.7592V28.9096C40.7592 26.9435 40.0569 25.058 38.8067 23.6677C37.5566 22.2775 35.861 21.4964 34.093 21.4963ZM29.049 46.5935C25.9433 46.5935 22.9648 45.2215 20.7687 42.7794C18.5726 40.3373 17.3389 37.0252 17.3389 33.5715V34.5188C17.3389 36.2289 17.6417 37.9222 18.2302 39.5021C18.8187 41.082 19.6813 42.5176 20.7687 43.7268C21.8561 44.936 23.147 45.8952 24.5677 46.5496C25.9885 47.204 27.5112 47.5408 29.049 47.5408C32.1547 47.5408 35.1333 46.1689 37.3294 43.7268C39.5254 41.2847 40.7592 37.9725 40.7592 34.5189V33.5713C40.7592 35.2813 40.4563 36.9747 39.8679 38.5546C39.2794 40.1345 38.4168 41.5701 37.3294 42.7793C36.242 43.9886 34.9511 44.9478 33.5304 45.6022C32.1096 46.2566 30.5868 46.5935 29.049 46.5935Z" fill="#C99673"/>
<path d="M20.5545 35.7116C20.834 35.3382 21.184 35.0378 21.5796 34.8316C21.9752 34.6254 22.4068 34.5185 22.8437 34.5185C23.2806 34.5185 23.7121 34.6254 24.1077 34.8316C24.5033 35.0378 24.8533 35.3382 25.1328 35.7116C25.7682 35.1781 26.2368 34.4359 26.4724 33.5902C26.7079 32.7444 26.6985 31.8376 26.4455 30.9981C26.1925 30.1586 25.7086 29.4287 25.0623 28.9116C24.416 28.3944 23.6399 28.1162 22.8437 28.1162C22.0474 28.1162 21.2713 28.3944 20.625 28.9116C19.9787 29.4287 19.4948 30.1586 19.2418 30.9981C18.9888 31.8376 18.9794 32.7444 19.215 33.5902C19.4505 34.4359 19.9191 35.1781 20.5545 35.7116Z" fill="#ECF0F1"/>
<path d="M22.8446 28.1221C21.8371 28.1221 20.8709 28.5671 20.1585 29.3593C19.4461 30.1515 19.0459 31.226 19.0459 32.3463H26.6434C26.6434 31.226 26.2432 30.1515 25.5307 29.3593C24.8183 28.5671 23.8521 28.1221 22.8446 28.1221Z" fill="#BDC3C7"/>
<path d="M21.3359 34.9786C21.7927 34.6775 22.314 34.5187 22.845 34.5187C23.376 34.5187 23.8973 34.6775 24.3541 34.9786C25.007 34.3897 25.4332 33.4315 25.4332 32.3465C25.4332 30.5545 24.2744 29.1025 22.8451 29.1025C21.4157 29.1025 20.2568 30.5552 20.2568 32.3465C20.2572 33.4315 20.6833 34.3897 21.3359 34.9786Z" fill="#414141"/>
<path d="M22.8445 33.9816C23.565 33.9816 24.149 33.2495 24.149 32.3464C24.149 31.4433 23.565 30.7112 22.8445 30.7112C22.1241 30.7112 21.54 31.4433 21.54 32.3464C21.54 33.2495 22.1241 33.9816 22.8445 33.9816Z" fill="#313131"/>
<path d="M35.2548 28.1221C34.2473 28.1221 33.2811 28.5671 32.5687 29.3593C31.8563 30.1515 31.4561 31.226 31.4561 32.3463H39.0535C39.0535 31.226 38.6533 30.1515 37.9409 29.3593C37.2285 28.5671 36.2623 28.1221 35.2548 28.1221Z" fill="#BDC3C7"/>
<path d="M32.9658 35.7115C33.2453 35.3381 33.5953 35.0377 33.9909 34.8315C34.3865 34.6253 34.8181 34.5184 35.255 34.5184C35.6919 34.5184 36.1234 34.6253 36.519 34.8315C36.9146 35.0377 37.2646 35.3381 37.5441 35.7115C38.1796 35.178 38.6482 34.4358 38.8838 33.59C39.1194 32.7442 39.11 31.8374 38.857 30.9978C38.604 30.1582 38.1201 29.4283 37.4737 28.9111C36.8274 28.394 36.0512 28.1157 35.255 28.1157C34.4587 28.1157 33.6825 28.394 33.0362 28.9111C32.3898 29.4283 31.906 30.1582 31.6529 30.9978C31.3999 31.8374 31.3905 32.7442 31.6261 33.59C31.8617 34.4358 32.3303 35.178 32.9658 35.7115Z" fill="#ECF0F1"/>
<path d="M35.2392 28.1221C34.2317 28.1221 33.2654 28.5671 32.5531 29.3593C31.8407 30.1515 31.4404 31.226 31.4404 32.3463H39.0379C39.0379 31.226 38.6377 30.1515 37.9253 29.3593C37.2129 28.5671 36.2466 28.1221 35.2392 28.1221Z" fill="#BDC3C7"/>
<path d="M33.7451 34.9786C34.2019 34.6775 34.7232 34.5187 35.2542 34.5187C35.7853 34.5187 36.3065 34.6775 36.7634 34.9786C37.4163 34.3897 37.8424 33.4315 37.8424 32.3465C37.8424 30.5545 36.6837 29.1025 35.2541 29.1025C33.8246 29.1025 32.666 30.5552 32.666 32.3465C32.666 33.4315 33.0924 34.3897 33.7451 34.9786Z" fill="#414141"/>
<path d="M35.2557 33.9816C35.9761 33.9816 36.5601 33.2495 36.5601 32.3464C36.5601 31.4433 35.9761 30.7112 35.2557 30.7112C34.5352 30.7112 33.9512 31.4433 33.9512 32.3464C33.9512 33.2495 34.5352 33.9816 35.2557 33.9816Z" fill="#313131"/>
<path d="M21.1596 33.2882C21.6274 33.2882 22.0066 32.8665 22.0066 32.3463C22.0066 31.826 21.6274 31.4043 21.1596 31.4043C20.6917 31.4043 20.3125 31.826 20.3125 32.3463C20.3125 32.8665 20.6917 33.2882 21.1596 33.2882Z" fill="#ECF0F1"/>
<path d="M33.5697 33.2882C34.0375 33.2882 34.4168 32.8665 34.4168 32.3463C34.4168 31.826 34.0375 31.4043 33.5697 31.4043C33.1019 31.4043 32.7227 31.826 32.7227 32.3463C32.7227 32.8665 33.1019 33.2882 33.5697 33.2882Z" fill="#ECF0F1"/>
<path d="M29.4533 38.2386L30.7604 36.5868C30.8289 36.5002 30.8735 36.3935 30.8888 36.2795C30.9041 36.1654 30.8895 36.0488 30.8468 35.9438C30.8041 35.8387 30.735 35.7495 30.6478 35.687C30.5607 35.6245 30.4591 35.5913 30.3554 35.5913H27.7415C27.6378 35.5912 27.5363 35.6245 27.4491 35.687C27.3619 35.7495 27.2928 35.8386 27.2501 35.9437C27.2073 36.0488 27.1927 36.1654 27.2081 36.2795C27.2234 36.3935 27.268 36.5003 27.3366 36.5868L28.6436 38.2386C28.6942 38.3026 28.7565 38.3538 28.8263 38.3889C28.8961 38.4241 28.9718 38.4422 29.0484 38.4422C29.1251 38.4422 29.2008 38.4241 29.2706 38.3889C29.3404 38.3538 29.4027 38.3026 29.4533 38.2386Z" fill="#C99673"/>
<path d="M34.0731 26.4658C35.4874 26.1571 36.5581 25.4776 36.4647 24.9483C36.3712 24.4189 35.149 24.2401 33.7346 24.5489C32.3203 24.8576 31.2496 25.537 31.343 26.0664C31.4365 26.5958 32.6588 26.7746 34.0731 26.4658Z" fill="#AB12F3"/>
<path d="M26.7088 26.0656C26.8023 25.5363 25.7315 24.8568 24.3172 24.5481C22.9029 24.2393 21.6806 24.4182 21.5872 24.9475C21.4937 25.4769 22.5645 26.1563 23.9788 26.4651C25.3931 26.7738 26.6154 26.595 26.7088 26.0656Z" fill="#AB12F3"/>
<path d="M29.0495 10.4592C25.0723 10.4593 21.2581 12.2163 18.4459 15.3436C15.6336 18.4709 14.0537 22.7124 14.0537 27.1351V34.5182L16.5172 27.1351V34.5182L20.1884 27.1351L22.6271 22.8187L23.6492 24.3486H23.6214L25.5107 27.1343L30.517 34.5174L30.5852 33.9733C31.1481 29.4799 32.675 25.2031 35.0369 21.504L38.1672 27.1343L41.8385 34.5174V27.1343L44.045 34.5174V27.1343C44.0448 22.7118 42.4649 18.4705 39.6527 15.3434C36.8405 12.2162 33.0265 10.4594 29.0495 10.4592Z" fill="#F10F97"/>
<path d="M37.7218 26.3325L39.7178 24.113L41.8513 26.4855L43.825 24.2909C43.5128 22.2662 42.8648 20.3237 41.9139 18.5625L41.8513 18.4929L39.7179 20.8653L37.5845 18.4929L35.4511 20.8653L33.3176 18.4929L31.1841 20.8653L29.0503 18.4929L26.9169 20.8653L24.7835 18.4929L22.65 20.8653L20.5169 18.4929L18.3835 20.8653L16.25 18.4929L16.1873 18.5626C15.2365 20.3238 14.5885 22.2662 14.2764 24.2909L16.25 26.4855L18.3835 24.113L20.5169 26.4855L20.6237 26.3666L22.6279 22.8194L23.65 24.3493H23.6223L24.9476 26.3037L26.9172 24.1133L29.0503 26.4855L31.1838 24.113L32.754 25.8591C33.3972 24.3352 34.1615 22.8782 35.0378 21.5054L37.7218 26.3325Z" fill="#FF6FB4"/>
<path d="M22.8451 28.5275C23.7555 28.5286 24.6284 28.9313 25.2722 29.6472C25.9159 30.3631 26.2781 31.3337 26.2791 32.3461C26.2791 32.4537 26.3175 32.5568 26.3859 32.6329C26.4543 32.7089 26.5471 32.7517 26.6438 32.7517C26.7405 32.7517 26.8333 32.7089 26.9017 32.6329C26.9701 32.5568 27.0085 32.4537 27.0085 32.3461C27.0085 31.1182 26.5698 29.9406 25.7891 29.0724C25.0083 28.2041 23.9493 27.7163 22.8451 27.7163C21.7409 27.7163 20.6819 28.2041 19.9011 29.0724C19.1203 29.9406 18.6816 31.1182 18.6816 32.3461C18.6816 32.4537 18.7201 32.5568 18.7885 32.6329C18.8568 32.7089 18.9496 32.7517 19.0463 32.7517C19.1431 32.7517 19.2358 32.7089 19.3042 32.6329C19.3726 32.5568 19.411 32.4537 19.411 32.3461C19.4121 31.3337 19.7742 30.3631 20.418 29.6472C21.0618 28.9313 21.9346 28.5286 22.8451 28.5275ZM34.0059 37.3949C33.9092 37.3949 33.8164 37.4376 33.748 37.5137C33.6796 37.5897 33.6412 37.6929 33.6412 37.8004C33.6412 39.1545 33.1575 40.4531 32.2965 41.4105C31.4355 42.3679 30.2678 42.9058 29.0501 42.9058C27.8325 42.9058 26.6647 42.3679 25.8037 41.4105C24.9427 40.4531 24.459 39.1545 24.459 37.8004C24.459 37.6929 24.4206 37.5897 24.3522 37.5137C24.2838 37.4376 24.1911 37.3949 24.0943 37.3949C23.9976 37.3949 23.9049 37.4376 23.8365 37.5137C23.7681 37.5897 23.7297 37.6929 23.7297 37.8004C23.7297 39.3696 24.2902 40.8745 25.288 41.984C26.2858 43.0936 27.639 43.7169 29.0501 43.7169C30.4612 43.7169 31.8145 43.0936 32.8123 41.984C33.8101 40.8745 34.3706 39.3696 34.3706 37.8004C34.3706 37.6929 34.3322 37.5897 34.2638 37.5137C34.1954 37.4376 34.1026 37.3949 34.0059 37.3949Z" fill="black"/>
<path d="M47.9824 39.8466L44.4089 27.0642C44.3743 17.6485 37.4759 10 29.0006 10C20.5253 10 13.6276 17.6476 13.5921 27.0626L10.0184 39.8467C9.99001 39.9489 9.99458 40.059 10.0313 40.1578C10.0681 40.2567 10.1347 40.3382 10.2197 40.3883C10.3047 40.4384 10.4028 40.4539 10.497 40.4322C10.5912 40.4105 10.6757 40.3529 10.7358 40.2694C11.5635 39.118 12.571 37.8315 13.1139 37.274C13.4053 38.8076 14.2068 42.5248 14.246 42.7082C14.2624 42.7842 14.296 42.8543 14.3435 42.9119C14.3911 42.9695 14.4511 43.0126 14.5178 43.0372C14.5845 43.0618 14.6558 43.0671 14.7248 43.0526C14.7939 43.038 14.8585 43.0041 14.9125 42.954L17.9723 40.1171C18.304 40.9213 18.706 41.6872 19.1726 42.4038L19.3178 45.0018C19.323 45.0955 19.354 45.1851 19.4065 45.2587C19.4589 45.3322 19.5304 45.3861 19.6112 45.4131C19.692 45.4402 19.7784 45.439 19.8586 45.4098C19.9388 45.3806 20.0091 45.3248 20.06 45.2499L20.6885 44.3237C22.9351 46.6846 25.9089 48 29 48C32.091 48 35.0649 46.6846 37.3114 44.3237L37.9399 45.2498C37.9908 45.3247 38.061 45.3805 38.1413 45.4097C38.2215 45.4389 38.3078 45.4401 38.3887 45.413C38.4695 45.386 38.541 45.3321 38.5934 45.2586C38.6459 45.185 38.6768 45.0954 38.6821 45.0017L38.8274 42.4038C39.2939 41.6872 39.6959 40.9212 40.0276 40.117L43.0874 42.9538C43.1414 43.0039 43.206 43.0378 43.275 43.0524C43.3441 43.0669 43.4153 43.0617 43.4821 43.0371C43.5488 43.0125 43.6088 42.9693 43.6563 42.9118C43.7039 42.8542 43.7374 42.7841 43.7538 42.7081C43.7934 42.5243 44.5949 38.8075 44.886 37.2738C45.4287 37.8314 46.4365 39.1175 47.2641 40.2697C47.3242 40.3533 47.4086 40.4109 47.5029 40.4327C47.5971 40.4544 47.6952 40.4389 47.7803 40.3888C47.8653 40.3387 47.9319 40.2571 47.9687 40.1582C48.0054 40.0593 48.01 39.9492 47.9815 39.847L47.9824 39.8466ZM14.4177 27.1353C14.4177 18.1936 20.9596 10.919 29.0006 10.919C37.0416 10.919 43.5833 18.1936 43.5833 27.1353V31.6794L42.1817 26.9904C42.1507 26.8868 42.0876 26.7988 42.0037 26.7423C41.9197 26.6857 41.8204 26.6642 41.7235 26.6816C41.6266 26.6991 41.5385 26.7543 41.4749 26.8374C41.4113 26.9205 41.3763 27.0261 41.3763 27.1353V32.7379L38.4799 26.9129C38.4766 26.9065 38.4733 26.9 38.4697 26.8937L35.3394 21.2635C35.3036 21.199 35.2539 21.1454 35.1949 21.1074C35.1359 21.0694 35.0693 21.0483 35.0012 21.0459C34.933 21.0434 34.8654 21.0598 34.8043 21.0935C34.7433 21.1272 34.6906 21.1772 34.6511 21.239C32.3523 24.8473 30.8297 28.9947 30.2008 33.3611L23.9926 24.2056C23.9787 24.1587 23.9582 24.1145 23.9317 24.0749L22.9093 22.5449C22.8693 22.4849 22.8167 22.4367 22.7561 22.4045C22.6955 22.3722 22.6287 22.3568 22.5616 22.3598C22.4944 22.3627 22.4289 22.3837 22.3708 22.4211C22.3126 22.4585 22.2635 22.5111 22.2278 22.5744L19.7892 26.8908C19.7851 26.8981 19.781 26.9054 19.7775 26.9129L16.881 32.7379V27.1353C16.881 27.0275 16.8469 26.9232 16.7847 26.8406C16.7225 26.758 16.6362 26.7023 16.5408 26.6832C16.4455 26.6642 16.3471 26.683 16.263 26.7364C16.1788 26.7899 16.1142 26.8745 16.0805 26.9755L14.4177 31.9592V27.1353ZM35.9884 25.0416C35.853 25.2562 35.1897 25.7432 33.9459 26.0147C33.6475 26.081 33.3455 26.1251 33.0419 26.1466C33.195 25.7798 33.3553 25.4169 33.5225 25.0578C33.6013 25.0375 33.6822 25.0179 33.7666 24.9994C35.0104 24.7279 35.7899 24.8999 35.9884 25.0416ZM34.0327 24.018C34.3267 23.4482 34.6387 22.8903 34.9687 22.3442L35.9113 24.0394C35.3952 23.9016 34.7198 23.9089 34.0327 24.018ZM23.414 24.8787L24.2117 26.055C24.1455 26.0427 24.0789 26.0297 24.01 26.0147C22.7662 25.7432 22.103 25.2562 21.9675 25.0416C22.1206 24.9322 22.6219 24.8061 23.414 24.8787ZM22.4169 23.9676L22.6064 23.6321L22.8105 23.9377C22.6744 23.9416 22.5427 23.9514 22.4169 23.9676ZM14.8952 41.7739C14.4888 39.8767 13.8972 37.0663 13.8336 36.5781C13.8222 36.471 13.7824 36.37 13.7194 36.2881C13.6564 36.2061 13.5729 36.1468 13.4796 36.1176C13.1743 36.0257 12.8662 36.1013 11.4275 37.9223C11.4245 37.926 11.4216 37.9297 11.4187 37.9335L13.5913 30.1614V34.5185C13.5913 34.6263 13.6253 34.7307 13.6875 34.8134C13.7497 34.8961 13.8361 34.9518 13.9315 34.9708C14.0269 34.9899 14.1253 34.971 14.2095 34.9176C14.2936 34.8641 14.3582 34.7794 14.3919 34.6783L16.0548 29.6946V34.5185C16.0548 34.6204 16.0852 34.7194 16.1413 34.8C16.1974 34.8806 16.276 34.9381 16.3647 34.9636C16.4535 34.989 16.5473 34.981 16.6314 34.9407C16.7156 34.9004 16.7853 34.8301 16.8296 34.7409L16.8781 34.6434C16.8896 36.2096 17.1477 37.7614 17.6407 39.2286L14.8952 41.7739ZM20.0736 43.705L20.0691 43.6255C20.0798 43.6385 20.0907 43.6512 20.1014 43.664L20.0736 43.705ZM37.9269 43.705L37.8992 43.6641C37.9099 43.6513 37.9207 43.6386 37.9314 43.6256L37.9269 43.705ZM40.2975 34.5185C40.2975 41.4457 35.2296 47.081 29.0006 47.081C22.7713 47.081 17.7036 41.4453 17.7036 34.5185V32.9842L20.4959 27.3693L21.4192 25.7348C21.5806 25.9144 21.7643 26.0674 21.9647 26.1891C22.4543 26.4997 23.1243 26.7582 23.8511 26.9169C24.1962 26.9929 24.5456 27.0426 24.8968 27.0655L30.1384 34.7956C30.1876 34.8682 30.2551 34.923 30.3323 34.9529C30.4095 34.9828 30.493 34.9866 30.5721 34.9638C30.6513 34.9409 30.7225 34.8925 30.7769 34.8246C30.8313 34.7567 30.8663 34.6724 30.8776 34.5823L30.9457 34.0384C31.0066 33.5524 31.0793 33.0687 31.164 32.5872C31.2093 32.6561 31.2732 32.7072 31.3463 32.7333C31.4194 32.7593 31.4981 32.759 31.571 32.7323C31.6439 32.7055 31.7074 32.6539 31.7523 32.5846C31.7972 32.5153 31.8212 32.432 31.8209 32.3466C31.8209 31.3338 32.1827 30.3625 32.8267 29.6464C33.4707 28.9302 34.3441 28.5279 35.2549 28.5279C36.1657 28.5279 37.0391 28.9302 37.6831 29.6464C38.3272 30.3625 38.689 31.3338 38.689 32.3466C38.689 32.4542 38.7274 32.5573 38.7958 32.6334C38.8642 32.7094 38.9569 32.7522 39.0536 32.7522C39.1504 32.7522 39.2431 32.7094 39.3115 32.6334C39.3799 32.5573 39.4183 32.4542 39.4183 32.3466C39.4186 31.3533 39.1314 30.3863 38.5994 29.5885C38.0674 28.7906 37.3186 28.2043 36.4638 27.9161C35.609 27.6279 34.6935 27.6531 33.8526 27.9881C33.0117 28.323 32.29 28.9499 31.7942 29.7761C32.0454 28.86 32.3386 27.9588 32.6727 27.0761C32.6868 27.0761 32.7003 27.0769 32.7145 27.0769C33.1816 27.073 33.6473 27.0194 34.1053 26.9169C34.8325 26.7582 35.5019 26.4997 35.9917 26.1891C36.3749 25.9459 36.5943 25.7042 36.7133 25.4819L37.7618 27.3678L40.2978 32.4681L40.2975 34.5185ZM46.573 37.9222C45.1342 36.1009 44.8262 36.0249 44.5211 36.1175C44.4277 36.1467 44.3442 36.206 44.2812 36.288C44.2181 36.3699 44.1784 36.4709 44.1669 36.578C44.1033 37.0663 43.5117 39.8771 43.1053 41.7738L40.3599 39.2282C40.8664 37.7218 41.1252 36.1264 41.124 34.5182V34.1292L41.428 34.7406C41.4723 34.8297 41.5421 34.8999 41.6262 34.9402C41.7103 34.9804 41.8041 34.9885 41.8928 34.963C41.9815 34.9376 42.0601 34.8801 42.1162 34.7995C42.1723 34.719 42.2027 34.62 42.2027 34.5182V29.9742L43.6044 34.6632C43.6353 34.7668 43.6984 34.8547 43.7824 34.9113C43.8663 34.9679 43.9656 34.9893 44.0625 34.9719C44.1594 34.9545 44.2476 34.8992 44.3112 34.8161C44.3748 34.733 44.4098 34.6274 44.4097 34.5183V30.1623L46.5819 37.9328L46.573 37.9222Z" fill="black"/>
<path d="M24.3464 35.438C24.4412 35.438 24.5331 35.4017 24.6068 35.3353C25.3781 34.6393 25.8387 33.5219 25.8387 32.3464C25.8387 30.3042 24.4922 28.6429 22.8373 28.6429C21.1823 28.6429 19.8359 30.3046 19.8359 32.3464C19.8359 33.5219 20.2965 34.6393 21.0679 35.3353C21.1333 35.3944 21.2134 35.4297 21.2974 35.4367C21.3815 35.4437 21.4654 35.4219 21.538 35.3744C21.9313 35.115 22.3801 34.9781 22.8373 34.9781C23.2946 34.9781 23.7434 35.115 24.1366 35.3744C24.2002 35.416 24.2726 35.438 24.3464 35.438ZM21.3917 34.4216C20.9169 33.8604 20.6556 33.1169 20.6623 32.3464C20.6623 30.8108 21.638 29.5619 22.8373 29.5619C24.0366 29.5619 25.0123 30.8112 25.0123 32.3464C25.019 33.1169 24.7577 33.8604 24.2829 34.4216C23.8312 34.1829 23.3374 34.0591 22.8373 34.0591C22.3372 34.0591 21.8434 34.1829 21.3917 34.4216ZM35.2471 28.6426C33.5922 28.6426 32.2458 30.3042 32.2458 32.3461C32.2458 33.5214 32.7063 34.6388 33.4777 35.3349C33.5431 35.394 33.6232 35.4294 33.7072 35.4364C33.7913 35.4433 33.8752 35.4216 33.9478 35.374C34.3411 35.1146 34.7899 34.9777 35.2472 34.9777C35.7045 34.9777 36.1533 35.1146 36.5466 35.374C36.6192 35.4216 36.7032 35.4433 36.7872 35.4363C36.8713 35.4293 36.9514 35.3939 37.0168 35.3349C37.7881 34.6388 38.2482 33.5214 38.2482 32.3461C38.2489 30.3042 36.9024 28.6426 35.2471 28.6426ZM36.6934 34.4216C36.2417 34.1829 35.7479 34.0591 35.2478 34.0591C34.7477 34.0591 34.2539 34.1829 33.8022 34.4216C33.3274 33.8604 33.0661 33.1169 33.0728 32.3464C33.0728 30.8108 34.0484 29.5619 35.2477 29.5619C36.447 29.5619 37.4227 30.8112 37.4227 32.3464C37.4294 33.1169 37.1681 33.8604 36.6934 34.4216Z" fill="black"/>
<defs>
<linearGradient id="paint0_linear_450_664" x1="29" y1="0" x2="29" y2="58" gradientUnits="userSpaceOnUse">
<stop offset="0.557292" stop-color="#B9FEBD"/>
<stop offset="1" stop-opacity="0"/>
</linearGradient>
</defs>
</svg>
