<svg width="34" height="34" viewBox="0 0 34 34" fill="none" xmlns="http://www.w3.org/2000/svg">
<path d="M20.5545 27.3051H13.4717C13.365 27.3051 13.2626 27.3433 13.1872 27.4113C13.1117 27.4794 13.0693 27.5717 13.0693 27.6679C13.0693 27.7641 13.1117 27.8564 13.1872 27.9245C13.2626 27.9925 13.365 28.0307 13.4717 28.0307H14.3218V28.9293C14.3259 29.5739 14.6128 30.1909 15.1197 30.6454C15.6267 31.1 16.3125 31.3551 17.0273 31.3551C17.7421 31.3551 18.4279 31.1 18.9349 30.6454C19.4418 30.1909 19.7287 29.5739 19.7328 28.9293V28.0307H20.5545C20.6612 28.0307 20.7635 27.9925 20.839 27.9245C20.9144 27.8564 20.9568 27.7641 20.9568 27.6679C20.9568 27.5717 20.9144 27.4794 20.839 27.4113C20.7635 27.3433 20.6612 27.3051 20.5545 27.3051ZM18.8211 28.9293C18.8178 29.3563 18.6273 29.7648 18.2912 30.0658C17.9552 30.3667 17.5009 30.5355 17.0273 30.5355C16.5537 30.5355 16.0994 30.3667 15.7634 30.0658C15.4273 29.7648 15.2368 29.3563 15.2335 28.9293V28.0606H18.8211V28.9293Z" fill="#C8FDCB"/>
<path d="M28.942 4.42034C27.3428 2.9896 25.4426 1.86168 23.353 1.1029C21.2634 0.344109 19.0267 -0.0302249 16.7743 0.00190635C12.2705 0.0546927 8.04634 1.70998 4.88116 4.66289C1.74189 7.58058 -0.00959785 11.4887 3.95619e-05 15.5541V21.9374C1.18045e-05 22.0288 0.0337585 22.1176 0.0959462 22.1898C0.158134 22.262 0.245216 22.3134 0.343431 22.3359C0.441646 22.3585 0.545393 22.3509 0.638276 22.3143C0.731159 22.2777 0.807881 22.2143 0.856318 22.134L0.97165 21.9428L0.714 24.0708C0.703747 24.1556 0.722946 24.2411 0.76894 24.3155C0.814935 24.39 0.885451 24.4497 0.970733 24.4864C1.05601 24.5231 1.15184 24.5351 1.24496 24.5205C1.33808 24.506 1.42389 24.4657 1.4905 24.4052L1.91764 24.0176L2.51882 26.903C2.53446 26.978 2.57298 27.0477 2.63007 27.1041C2.68715 27.1606 2.76055 27.2015 2.84201 27.2225C2.92348 27.2434 3.0098 27.2434 3.09129 27.2226C3.17278 27.2017 3.24621 27.1608 3.30335 27.1044L4.41071 26.012C6.2675 30.6644 11.2096 34 16.9999 34C22.7699 34 27.6982 30.6878 29.5699 26.0609L30.6275 27.1044C30.6847 27.1607 30.7581 27.2015 30.8395 27.2223C30.9209 27.243 31.0071 27.243 31.0885 27.2221C31.1699 27.2012 31.2432 27.1602 31.3003 27.1039C31.3573 27.0475 31.3959 26.9779 31.4116 26.903L32.0128 24.0176L32.4399 24.4052C32.5065 24.4659 32.5923 24.5064 32.6856 24.5211C32.7788 24.5357 32.8748 24.5239 32.9603 24.4871C33.0457 24.4504 33.1163 24.3905 33.1623 24.3159C33.2083 24.2413 33.2275 24.1557 33.217 24.0708L32.9428 21.8078L33.1455 22.1372C33.1945 22.2169 33.2714 22.2796 33.3643 22.3155C33.4571 22.3515 33.5605 22.3586 33.6583 22.3357C33.7561 22.3129 33.8427 22.2614 33.9045 22.1894C33.9664 22.1174 33.9999 22.0288 33.9999 21.9377V15.3316C34.0067 13.3006 33.5627 11.2888 32.694 9.4149C31.8254 7.54097 30.5496 5.84277 28.942 4.42034ZM3.24628 25.9417L2.65366 23.0968C2.6383 23.0232 2.60092 22.9548 2.54557 22.8989C2.49022 22.8431 2.41899 22.8019 2.33959 22.7799C2.26019 22.7579 2.17563 22.7559 2.09504 22.774C2.01446 22.7922 1.94092 22.8299 1.88236 22.8831L1.76201 22.9922L2.11949 20.0425L2.24011 19.8427L2.72733 22.0188C2.74575 22.101 2.79161 22.1762 2.85875 22.2342C2.92589 22.2922 3.0111 22.3303 3.10294 22.3434C3.19479 22.3565 3.28889 22.344 3.3726 22.3075C3.45632 22.271 3.52565 22.2123 3.5713 22.1392C3.59017 22.161 3.60959 22.1822 3.62865 22.2037C3.65182 23.1845 3.80797 24.1591 4.09362 25.1057L3.24628 25.9417ZM16.9999 33.1772C10.5601 33.1772 5.24721 28.7492 4.60372 23.0924C5.40885 23.6466 6.35478 24.0105 7.35554 24.1512C7.38022 24.1549 7.40519 24.1567 7.43021 24.1567C7.52115 24.1566 7.61 24.1321 7.68534 24.0861C7.76068 24.0402 7.81905 23.9749 7.85296 23.8988C7.88687 23.8227 7.89476 23.7392 7.87563 23.659C7.85649 23.5789 7.8112 23.5057 7.74557 23.4489C6.8973 22.7344 6.24283 21.8533 5.83289 20.874C5.61388 20.3197 5.46797 19.744 5.39819 19.159L7.61684 15.5403L9.002 13.552C9.07493 13.5969 9.15289 13.6421 9.24059 13.6871C9.72417 13.9239 10.2392 14.1041 10.7734 14.2234C11.1738 14.9205 11.6114 15.598 12.0862 16.2561C11.3866 15.9653 10.6171 15.8378 9.8485 15.8856C9.07993 15.9334 8.33706 16.1549 7.68834 16.5296C7.03961 16.9043 6.50591 17.4203 6.13638 18.0299C5.76686 18.6396 5.57342 19.3233 5.57387 20.018C5.57387 20.0657 5.58428 20.1129 5.6045 20.1569C5.62472 20.2009 5.65436 20.2409 5.69172 20.2746C5.72908 20.3083 5.77343 20.335 5.82225 20.3533C5.87106 20.3715 5.92338 20.3809 5.97621 20.3809C6.02905 20.3809 6.08137 20.3715 6.13018 20.3533C6.179 20.335 6.22335 20.3083 6.26071 20.2746C6.29807 20.2409 6.32771 20.2009 6.34792 20.1569C6.36814 20.1129 6.37855 20.0657 6.37855 20.018C6.378 19.5182 6.49918 19.0244 6.73351 18.5715C6.96785 18.1186 7.30962 17.7176 7.73469 17.3968C8.15975 17.0761 8.65773 16.8435 9.19343 16.7154C9.72913 16.5874 10.2895 16.567 10.8349 16.6557C9.03181 16.6822 7.57289 18.1576 7.57289 19.9684C7.57289 21.7957 9.05834 23.2823 10.884 23.2823C12.5847 23.2823 13.9892 21.9924 14.174 20.3388C14.2307 20.3659 14.2938 20.3803 14.3579 20.3807C14.4647 20.3807 14.567 20.3424 14.6424 20.2744C14.7179 20.2063 14.7603 20.114 14.7603 20.0178C14.7599 19.7696 14.7348 19.5219 14.6853 19.2778C15.799 20.3754 17.0248 21.3761 18.3464 22.2665C18.4198 22.316 18.5081 22.3443 18.5997 22.3479C18.6913 22.3514 18.7819 22.33 18.8598 22.2864C18.9377 22.2428 18.9992 22.179 19.0362 22.1034C19.0733 22.0278 19.0842 21.9438 19.0676 21.8625C19.0584 21.818 18.1558 17.3979 17.8989 15.0167C18.2442 15.2242 18.6 15.4164 18.9634 15.5918C19.7499 15.9709 20.5776 16.276 21.4333 16.5024C20.7705 16.874 20.2236 17.3918 19.8442 18.0069C19.4649 18.622 19.2656 19.3142 19.2651 20.018C19.2651 20.1143 19.3075 20.2066 19.383 20.2746C19.4584 20.3427 19.5608 20.3809 19.6675 20.381C19.7246 20.3808 19.781 20.3696 19.8328 20.3481C20.0218 21.9971 21.4242 23.2823 23.1218 23.2823C24.9475 23.2823 26.4329 21.7957 26.4329 19.9684C26.4329 18.1633 24.9833 16.6916 23.1878 16.6562C23.7333 16.567 24.294 16.5871 24.83 16.7149C25.366 16.8428 25.8643 17.0753 26.2897 17.396C26.7151 17.7167 27.0572 18.1178 27.2917 18.5709C27.5262 19.024 27.6474 19.518 27.6469 20.018C27.6465 20.0977 27.6753 20.1752 27.7287 20.2385C27.7822 20.3019 27.8573 20.3476 27.9425 20.3685C28.0276 20.3895 28.1181 20.3845 28.1998 20.3544C28.2815 20.3242 28.3499 20.2706 28.3945 20.2019C28.3321 20.4294 28.2564 20.6537 28.1677 20.874C27.7577 21.8533 27.1033 22.7344 26.255 23.4489C26.1848 23.5097 26.138 23.5891 26.1214 23.6757C26.1048 23.7622 26.1194 23.8512 26.163 23.9297C26.2066 24.0082 26.2769 24.072 26.3637 24.1119C26.4504 24.1517 26.549 24.1655 26.6451 24.1512C27.6457 24.0105 28.5916 23.6466 29.3966 23.0924C28.7533 28.7492 23.4401 33.1775 16.9999 33.1775V33.1772ZM9.48657 12.8567L9.71022 12.5356C9.76492 12.5279 9.82327 12.521 9.88581 12.5152C9.99297 12.745 10.1043 12.973 10.2197 13.1992C9.96207 13.1097 9.71622 12.9949 9.48657 12.8567ZM13.2834 19.9689C13.2834 21.3428 12.207 22.4606 10.8839 22.4606C9.5607 22.4606 8.48442 21.3424 8.48442 19.9689C8.48442 18.5954 9.56079 17.4766 10.8839 17.4766C12.2069 17.4766 13.2837 18.5949 13.2837 19.9686L13.2834 19.9689ZM22.4187 16.0858C22.4101 16.0613 22.3989 16.0376 22.3854 16.0151C22.0754 15.5115 21.79 14.9946 21.5295 14.4682C21.9006 14.447 22.2698 14.4038 22.6346 14.3388C22.8378 14.3029 23.0358 14.2603 23.228 14.2134C24.1296 14.8504 24.9882 15.5356 25.799 16.2653C24.7391 15.8182 23.5297 15.7539 22.4189 16.0858H22.4187ZM23.1218 17.4771C24.4448 17.4771 25.5212 18.5954 25.5212 19.9689C25.5212 21.3424 24.4448 22.4606 23.1218 22.4606C21.7987 22.4606 20.7222 21.3424 20.7222 19.9689C20.7222 18.5954 21.7984 17.4766 23.1216 17.4766L23.1218 17.4771ZM21.153 13.6596C21.0569 13.4397 20.9651 13.2186 20.8776 12.9961C20.9701 12.9603 21.07 12.9249 21.1773 12.8899C21.5472 13.1072 21.9108 13.3316 22.2679 13.5632C21.8997 13.6224 21.5268 13.6546 21.1528 13.6593L21.153 13.6596ZM28.2303 18.7499C28.3544 18.8941 28.4772 19.0396 28.5987 19.1862C28.5613 19.4664 28.5117 19.7312 28.4505 19.9847C28.4471 19.5653 28.3728 19.1488 28.2301 18.7496L28.2303 18.7499ZM32.049 22.8833C31.9905 22.8302 31.9169 22.7925 31.8364 22.7743C31.7558 22.7561 31.6712 22.7581 31.5918 22.7801C31.5124 22.8022 31.4412 22.8433 31.3858 22.8992C31.3305 22.955 31.2931 23.0235 31.2777 23.0971L30.6851 25.9419L29.8906 25.1582C30.1863 24.1958 30.3479 23.2038 30.3716 22.2053C30.4453 22.1222 30.5192 22.0353 30.5919 21.9447C30.6322 22.0091 30.6717 22.0731 30.7104 22.1366C30.7562 22.2113 30.8266 22.2713 30.912 22.3083C30.9973 22.3453 31.0933 22.3574 31.1866 22.3429C31.2799 22.3284 31.3659 22.2881 31.4327 22.2276C31.4994 22.167 31.5436 22.0892 31.5591 22.005L31.8541 20.3927L32.1692 22.9928L32.049 22.8833ZM33.0884 20.3498L32.0662 18.6889C32.0203 18.6143 31.9497 18.5544 31.8644 18.5176C31.779 18.4808 31.683 18.4688 31.5898 18.4834C31.4965 18.4979 31.4106 18.5383 31.344 18.5989C31.2773 18.6595 31.2333 18.7373 31.2178 18.8215L30.8542 20.8086C30.8015 20.7784 30.7425 20.7584 30.6809 20.7496C30.6193 20.7408 30.5563 20.7436 30.4959 20.7576C30.4355 20.7717 30.3789 20.7968 30.3297 20.8314C30.2805 20.866 30.2397 20.9093 30.2098 20.9587C29.9357 21.3963 29.5971 21.7984 29.2032 22.1541C28.8428 22.4728 28.4257 22.7347 27.9693 22.9291C28.4106 22.3857 28.7655 21.7893 29.0237 21.1572C29.2842 20.4978 29.4527 19.8117 29.5252 19.1147C29.5369 19.0131 29.5063 18.9112 29.4393 18.8288C26.971 15.7881 23.82 13.2507 20.1914 11.382C20.1131 11.3415 20.0233 11.323 19.9333 11.3286C19.8433 11.3342 19.7572 11.3638 19.6858 11.4136C19.6145 11.4634 19.5611 11.5312 19.5325 11.6084C19.5039 11.6855 19.5014 11.7686 19.5251 11.8471C19.6218 12.1661 19.7166 12.4555 19.8155 12.732C20.1594 13.6934 20.5812 14.6306 21.0775 15.5362C19.8368 15.1425 18.6761 14.568 17.6416 13.8354C17.5721 13.7862 17.4881 13.7562 17.4 13.7493C17.3119 13.7423 17.2235 13.7586 17.1455 13.7962C17.0675 13.8338 17.0033 13.891 16.9607 13.9609C16.9182 14.0308 16.899 14.1103 16.9057 14.1898C16.9339 14.5264 16.9604 14.8065 16.9885 15.0724C17.1689 16.7603 17.6715 19.4639 17.96 20.9494C14.5229 18.4046 11.8944 15.0845 10.3415 11.3265C10.3118 11.2546 10.2604 11.1917 10.1931 11.1449C10.1258 11.098 10.0453 11.069 9.96078 11.0612C9.87621 11.0534 9.79091 11.0671 9.71451 11.1007C9.63811 11.1343 9.57365 11.1866 9.52842 11.2515L6.83787 15.1129C6.8334 15.1194 6.82875 15.126 6.82502 15.1328L4.52997 18.8758C4.48468 18.9495 4.46559 19.0339 4.47526 19.1177C4.54794 19.8135 4.71619 20.4984 4.97616 21.1568C5.23443 21.7888 5.58935 22.3852 6.03064 22.9287C5.57421 22.7343 5.15712 22.4724 4.79673 22.1537C4.46126 21.8494 4.16488 21.5121 3.91319 21.148C3.87237 21.0883 3.81529 21.039 3.74739 21.0049C3.67949 20.9707 3.60302 20.9527 3.52526 20.9527H3.51441C3.48277 20.9534 3.4513 20.9571 3.42051 20.9637L2.88515 18.5725C2.86661 18.4898 2.8203 18.4143 2.75252 18.3561C2.68474 18.298 2.59876 18.26 2.50625 18.2475C2.41375 18.2349 2.3192 18.2483 2.23542 18.2859C2.15165 18.3234 2.08272 18.3833 2.03799 18.4574L0.91175 20.3228V15.554C0.91175 7.53424 8.03294 0.926736 16.786 0.823959C18.9166 0.79839 21.0315 1.15475 23.0081 1.87236C24.9847 2.58997 26.7835 3.65453 28.3002 5.00423C29.8168 6.35393 31.0211 7.96188 31.843 9.73475C32.665 11.5076 33.0882 13.4101 33.0882 15.3316L33.0884 20.3498Z" fill="#C8FDCB"/>
</svg>
