<svg width="40" height="40" viewBox="0 0 40 40" fill="none" xmlns="http://www.w3.org/2000/svg">
<path d="M20.0419 23.1094H3.75049V28.3434L7.9137 32.3427L8.61732 30.8039L10.6847 32.3427H20.0419H29.399L31.4663 30.8039L32.17 32.3427L36.3331 28.3434V23.1094H20.0419Z" fill="#27AE60"/>
<path d="M13.7195 10.4697H26.2894C28.4924 10.4698 30.6052 11.2108 32.1629 12.5297C33.7207 13.8485 34.5958 15.6373 34.5958 17.5024V22.8232C34.5958 24.4455 34.2184 26.0519 33.4851 27.5506C32.7519 29.0494 31.6771 30.4112 30.3222 31.5584C28.9672 32.7055 27.3587 33.6154 25.5884 34.2362C23.818 34.8571 21.9206 35.1766 20.0044 35.1766C16.1346 35.1766 12.4232 33.8751 9.68679 31.5584C6.95038 29.2418 5.41309 26.0997 5.41309 22.8235V17.5024C5.41309 15.6372 6.28826 13.8485 7.84608 12.5296C9.4039 11.2107 11.5168 10.4698 13.7198 10.4698L13.7195 10.4697Z" fill="#F4DCC6"/>
<path d="M20.0043 34.2779C16.1345 34.2779 12.4231 32.9764 9.68671 30.6598C6.95031 28.3431 5.41301 25.2011 5.41301 21.9248V22.8235C5.41301 26.0998 6.95031 29.2418 9.68671 31.5585C12.4231 33.8751 16.1345 35.1766 20.0043 35.1766C23.8742 35.1766 27.5856 33.8751 30.322 31.5585C33.0584 29.2418 34.5957 26.0998 34.5957 22.8235V21.9245C34.5957 23.5467 34.2184 25.1531 33.4851 26.6519C32.7518 28.1507 31.6771 29.5125 30.3221 30.6596C28.9672 31.8068 27.3586 32.7167 25.5883 33.3375C23.818 33.9584 21.9205 34.2779 20.0043 34.2779ZM26.2893 10.4698H13.7195C12.6286 10.4698 11.5484 10.6517 10.5406 11.0051C9.53277 11.3585 8.61703 11.8765 7.84566 12.5296C7.0743 13.1826 6.46242 13.9578 6.04495 14.8111C5.62749 15.6643 5.41261 16.5788 5.4126 17.5023V17.6848H13.793C13.8512 17.6516 14.6374 17.2864 15.6204 16.8577C17.064 16.2283 18.6299 15.6503 18.6299 15.6503C18.8937 15.6164 19.1653 15.5882 19.4425 15.5639L17.6096 19.2341L21.6022 15.4936C21.6401 15.4944 21.6763 15.4936 21.7142 15.4944C27.6542 15.6581 32.0066 18.4693 34.0013 19.9781L34.5959 17.6853V17.5028C34.596 16.5793 34.3812 15.6647 33.9638 14.8115C33.5464 13.9582 32.9345 13.1829 32.1632 12.5298C31.3918 11.8767 30.4761 11.3587 29.4683 11.0052C28.4604 10.6518 27.3802 10.4699 26.2893 10.4698Z" fill="#C99673"/>
<path d="M12.2729 24.7698C14.8871 24.7698 17.0063 22.9757 17.0063 20.7625C17.0063 18.5494 14.8871 16.7552 12.2729 16.7552C9.65876 16.7552 7.53955 18.5494 7.53955 20.7625C7.53955 22.9757 9.65876 24.7698 12.2729 24.7698Z" fill="#ECF0F1"/>
<path d="M12.2729 16.7552C11.0176 16.7552 9.81361 17.1774 8.92593 17.929C8.03825 18.6805 7.53955 19.6997 7.53955 20.7625H17.0062C17.0062 20.2363 16.8838 19.7152 16.6459 19.229C16.4081 18.7428 16.0594 18.3011 15.6199 17.929C15.1804 17.5569 14.6586 17.2617 14.0843 17.0603C13.51 16.8589 12.8945 16.7552 12.2729 16.7552Z" fill="#BDC3C7"/>
<path d="M12.2729 23.8404C14.054 23.8404 15.4979 22.4625 15.4979 20.7626C15.4979 19.0628 14.054 17.6848 12.2729 17.6848C10.4917 17.6848 9.04785 19.0628 9.04785 20.7626C9.04785 22.4625 10.4917 23.8404 12.2729 23.8404Z" fill="#414141"/>
<path d="M12.2729 22.3138C13.1706 22.3138 13.8983 21.6193 13.8983 20.7625C13.8983 19.9058 13.1706 19.2113 12.2729 19.2113C11.3752 19.2113 10.6475 19.9058 10.6475 20.7625C10.6475 21.6193 11.3752 22.3138 12.2729 22.3138Z" fill="#ECF0F1"/>
<path d="M27.7363 24.7698C30.3505 24.7698 32.4697 22.9757 32.4697 20.7625C32.4697 18.5494 30.3505 16.7552 27.7363 16.7552C25.1221 16.7552 23.0029 18.5494 23.0029 20.7625C23.0029 22.9757 25.1221 24.7698 27.7363 24.7698Z" fill="#ECF0F1"/>
<path d="M27.7362 16.7552C27.1146 16.7552 26.4991 16.8589 25.9248 17.0603C25.3506 17.2617 24.8288 17.5569 24.3892 17.929C23.9497 18.3011 23.6011 18.7428 23.3632 19.229C23.1253 19.7152 23.0029 20.2363 23.0029 20.7625H32.4696C32.4696 20.2363 32.3472 19.7152 32.1093 19.229C31.8714 18.7428 31.5228 18.301 31.0832 17.9289C30.6437 17.5568 30.1219 17.2616 29.5476 17.0603C28.9733 16.8589 28.3578 16.7552 27.7362 16.7552Z" fill="#BDC3C7"/>
<path d="M27.7363 23.8404C29.5174 23.8404 30.9613 22.4625 30.9613 20.7626C30.9613 19.0628 29.5174 17.6848 27.7363 17.6848C25.9551 17.6848 24.5112 19.0628 24.5112 20.7626C24.5112 22.4625 25.9551 23.8404 27.7363 23.8404Z" fill="#414141"/>
<path d="M27.7363 22.3138C28.634 22.3138 29.3617 21.6193 29.3617 20.7625C29.3617 19.9058 28.634 19.2113 27.7363 19.2113C26.8386 19.2113 26.1108 19.9058 26.1108 20.7625C26.1108 21.6193 26.8386 22.3138 27.7363 22.3138Z" fill="#ECF0F1"/>
<path d="M20.5089 26.3518L22.1376 24.785C22.223 24.7028 22.2786 24.6016 22.2977 24.4934C22.3168 24.3852 22.2987 24.2746 22.2454 24.1749C22.1921 24.0752 22.106 23.9906 21.9974 23.9313C21.8888 23.872 21.7622 23.8405 21.633 23.8406H18.3761C18.2468 23.8406 18.1203 23.8721 18.0117 23.9314C17.9031 23.9907 17.8171 24.0752 17.7638 24.1749C17.7105 24.2746 17.6924 24.3852 17.7115 24.4934C17.7306 24.6016 17.7861 24.7028 17.8715 24.785L19.5002 26.3518C19.5633 26.4125 19.6408 26.4611 19.7278 26.4944C19.8148 26.5277 19.9091 26.5449 20.0046 26.5449C20.1 26.5449 20.1944 26.5277 20.2813 26.4944C20.3683 26.4611 20.4459 26.4125 20.5089 26.3518Z" fill="#C99673"/>
<path d="M17.006 21.1472C16.8855 21.1472 16.7699 21.1067 16.6847 21.0345C16.5995 20.9624 16.5516 20.8645 16.5516 20.7625C16.5544 20.2853 16.4457 19.8123 16.2319 19.3707C16.0182 18.9292 15.7034 18.5277 15.3058 18.1895C14.9082 17.8512 14.4356 17.5828 13.915 17.3996C13.3945 17.2164 12.8364 17.1221 12.2727 17.1221C11.709 17.1221 11.1509 17.2164 10.6304 17.3996C10.1099 17.5828 9.63723 17.8512 9.23962 18.1895C8.84201 18.5277 8.52727 18.9292 8.31347 19.3707C8.09967 19.8123 7.99104 20.2853 7.9938 20.7625C7.9938 20.8645 7.94593 20.9624 7.86071 21.0345C7.77549 21.1067 7.6599 21.1472 7.53938 21.1472C7.41886 21.1472 7.30328 21.1067 7.21806 21.0345C7.13284 20.9624 7.08496 20.8645 7.08496 20.7625C7.08496 19.5977 7.63153 18.4805 8.60443 17.6569C9.57733 16.8332 10.8969 16.3705 12.2728 16.3705C13.6487 16.3705 14.9682 16.8332 15.9411 17.6569C16.914 18.4805 17.4606 19.5977 17.4606 20.7625C17.4605 20.8645 17.4126 20.9624 17.3274 21.0345C17.2422 21.1067 17.1266 21.1472 17.006 21.1472ZM32.4697 21.1472C32.3491 21.1472 32.2336 21.1067 32.1483 21.0345C32.0631 20.9624 32.0152 20.8645 32.0152 20.7625C32.018 20.2853 31.9094 19.8123 31.6956 19.3707C31.4818 18.9292 31.167 18.5277 30.7694 18.1895C30.3718 17.8512 29.8992 17.5828 29.3787 17.3996C28.8582 17.2164 28.3 17.1221 27.7363 17.1221C27.1726 17.1221 26.6145 17.2164 26.094 17.3996C25.5735 17.5828 25.1009 17.8512 24.7032 18.1895C24.3056 18.5277 23.9909 18.9292 23.7771 19.3707C23.5633 19.8123 23.4547 20.2853 23.4574 20.7625C23.4574 20.813 23.4457 20.863 23.4228 20.9097C23.4 20.9564 23.3665 20.9988 23.3243 21.0345C23.2821 21.0703 23.232 21.0986 23.1769 21.1179C23.1218 21.1373 23.0627 21.1472 23.003 21.1472C22.9433 21.1472 22.8842 21.1373 22.8291 21.1179C22.774 21.0986 22.7239 21.0703 22.6817 21.0345C22.6395 20.9988 22.606 20.9564 22.5832 20.9097C22.5603 20.863 22.5486 20.813 22.5486 20.7625C22.5486 19.5977 23.0952 18.4805 24.0681 17.6569C25.041 16.8332 26.3605 16.3705 27.7364 16.3705C29.1123 16.3705 30.4318 16.8332 31.4047 17.6569C32.3776 18.4805 32.9242 19.5977 32.9242 20.7625C32.9242 20.8645 32.8763 20.9624 32.791 21.0345C32.7058 21.1067 32.5902 21.1472 32.4697 21.1472Z" fill="#414141"/>
<path d="M16.472 17.4277C16.8414 17.0226 15.9885 15.941 14.5669 15.0118C13.1454 14.0826 11.6936 13.6578 11.3242 14.0628C10.9547 14.4679 11.8077 15.5495 13.2292 16.4787C14.6507 17.4079 16.1026 17.8327 16.472 17.4277Z" fill="#27AE60"/>
<path d="M26.7798 16.4786C28.2014 15.5494 29.0543 14.4678 28.6849 14.0627C28.3154 13.6576 26.8636 14.0825 25.4421 15.0117C24.0205 15.9408 23.1676 17.0225 23.537 17.4275C23.9065 17.8326 25.3583 17.4077 26.7798 16.4786Z" fill="#27AE60"/>
<path d="M20.0049 33.1867C20.7821 33.1867 21.4121 32.8088 21.4121 32.3428C21.4121 31.8767 20.7821 31.4989 20.0049 31.4989C19.2277 31.4989 18.5977 31.8767 18.5977 32.3428C18.5977 32.8088 19.2277 33.1867 20.0049 33.1867Z" fill="#C99673"/>
<path d="M39.0167 33.9709C38.914 33.8851 38.8049 33.805 38.69 33.7311V22.8228H38.6906V15.8193C38.6905 13.7241 38.1989 11.6499 37.2443 9.71696C36.2896 7.78401 34.8909 6.03086 33.1294 4.55927C31.3679 3.08769 29.2787 1.92699 26.983 1.14456C24.6873 0.362135 22.2309 -0.0264402 19.7564 0.00139648C9.48803 0.114204 1.31925 7.36129 1.31925 16.0553V33.7311C0.938361 33.9757 0.624063 34.2868 0.397657 34.6434C0.17125 34.9999 0.0380282 35.3934 0.00702146 35.7973C-0.0239853 36.2013 0.0479479 36.6061 0.217945 36.9844C0.387943 37.3627 0.652029 37.7057 0.992304 37.99L3.36595 39.9997L5.73969 37.99C6.07996 37.7057 6.34405 37.3627 6.51405 36.9844C6.68405 36.6061 6.75598 36.2013 6.72497 35.7973C6.69396 35.3934 6.56074 34.9999 6.33434 34.6434C6.10793 34.2868 5.79363 33.9757 5.41275 33.7311V24.9897C5.6162 25.1227 5.83104 25.2428 6.05551 25.3489C7.12118 25.8438 8.3536 26.0182 9.55146 25.8436C7.81021 24.713 6.58779 23.1048 6.09382 21.2947C6.36915 20.7478 6.7237 20.2319 7.14929 19.759L7.1669 19.7395C9.10521 17.5874 11.4642 15.732 14.1418 14.2536C15.449 13.6212 16.8018 13.0587 18.1922 12.5697C17.342 14.7148 17.1418 17.0063 17.6098 19.234C18.5704 17.3381 19.9204 15.6013 21.5971 14.1043C22.3022 13.4776 23.0624 12.897 23.8713 12.3676L27.4238 14.0039C29.9982 15.1895 32.1192 16.9727 33.5374 19.144C33.713 19.4133 33.8681 19.6919 34.0016 19.978C33.916 21.1219 33.5424 22.237 32.9059 23.2486C32.2695 24.2602 31.3849 25.1449 30.3114 25.8433C31.5093 26.018 32.7417 25.8436 33.8074 25.3487C34.0863 25.217 34.3503 25.064 34.5961 24.8915V33.7313C34.2153 33.976 33.901 34.2871 33.6746 34.6436C33.4481 35.0001 33.3149 35.3937 33.2839 35.7976C33.2529 36.2015 33.3248 36.6064 33.4948 36.9847C33.6648 37.363 33.9289 37.706 34.2692 37.9903L36.6428 40L39.0166 37.9903C39.3284 37.7264 39.5757 37.4131 39.7444 37.0683C39.9131 36.7234 40 36.3538 40 35.9806C40 35.6074 39.9132 35.2378 39.7445 34.8929C39.5757 34.5481 39.3284 34.2348 39.0167 33.9709Z" fill="#2ECC71"/>
<path d="M33.068 4.5105C32.1636 4.5673 31.318 4.91148 30.7008 5.474C30.0836 6.03653 29.7405 6.77581 29.7401 7.54358C29.7401 7.55623 29.7422 7.56852 29.7425 7.58107C29.2952 7.3716 28.8002 7.24536 28.2907 7.21078C27.7811 7.1762 27.2688 7.23408 26.7877 7.38055C26.3067 7.52702 25.8682 7.75871 25.5014 8.06013C25.1346 8.36156 24.848 8.72578 24.6608 9.12847C23.9435 8.7241 23.0783 8.55182 22.2233 8.64316C21.3684 8.7345 20.5808 9.08335 20.0047 9.62591C19.4286 9.08335 18.6411 8.7345 17.7861 8.64316C16.9311 8.55182 16.0659 8.7241 15.3487 9.12847C15.1615 8.72579 14.8749 8.36157 14.5081 8.06014C14.1413 7.75871 13.7028 7.52703 13.2218 7.38056C12.7408 7.23409 12.2284 7.17621 11.7189 7.21079C11.2094 7.24536 10.7144 7.3716 10.2671 7.58107C10.2671 7.56852 10.2693 7.55623 10.2693 7.54358C10.2693 6.79006 9.93926 6.0633 9.34301 5.50385C8.74676 4.94439 7.92666 4.59198 7.04129 4.51477C5.55464 5.75085 4.3167 7.18439 3.37646 8.75867C3.57609 9.14746 3.86949 9.49665 4.23784 9.78383C4.6062 10.071 5.04138 10.2899 5.51547 10.4263C5.98957 10.5628 6.49213 10.6139 6.99091 10.5763C7.48969 10.5387 7.97369 10.4133 8.41187 10.2081C8.41187 10.2207 8.4097 10.2329 8.4097 10.2456C8.40954 10.7962 8.58584 11.3366 8.91981 11.8092C9.25378 12.2817 9.73291 12.6687 10.3062 12.9289C10.8794 13.1891 11.5253 13.3128 12.175 13.2867C12.8247 13.2607 13.4539 13.0859 13.9956 12.781C14.1946 13.2062 14.5038 13.5882 14.9003 13.8988C15.9704 13.4089 17.0692 12.9653 18.1924 12.5697C17.9423 13.2006 17.7476 13.8462 17.6101 14.5014C17.5962 14.5682 17.5882 14.6316 17.5755 14.6976C18.5076 14.6463 19.3792 14.289 20.0047 13.7017C20.3444 14.0197 20.759 14.2739 21.2218 14.4479C21.3439 14.3332 21.4691 14.2186 21.5974 14.1043C22.3025 13.4776 23.0627 12.897 23.8716 12.3676L25.7486 13.2322C25.8517 13.0883 25.9405 12.9374 26.0141 12.781C26.5558 13.0859 27.185 13.2607 27.8347 13.2867C28.4844 13.3128 29.1303 13.1891 29.7036 12.9289C30.2768 12.6687 30.756 12.2817 31.0899 11.8092C31.4239 11.3366 31.6002 10.7962 31.6 10.2456C31.6 10.2329 31.598 10.2207 31.5978 10.2081C32.044 10.4171 32.5376 10.5433 33.0459 10.5782C33.5541 10.6132 34.0653 10.5562 34.5456 10.411C35.0258 10.2658 35.464 10.0357 35.831 9.73599C36.1981 9.4363 36.4855 9.07391 36.6744 8.67288C35.7488 7.12802 34.5305 5.72194 33.068 4.5105Z" fill="#38E87F"/>
<path d="M5.26633 32.0879H1.48607C0.959277 32.0879 0.532227 32.4494 0.532227 32.8954C0.532227 33.3413 0.959277 33.7029 1.48607 33.7029H5.26633C5.79312 33.7029 6.22017 33.3413 6.22017 32.8954C6.22017 32.4494 5.79312 32.0879 5.26633 32.0879Z" fill="#34495E"/>
<path d="M38.5427 32.0879H34.7624C34.2356 32.0879 33.8086 32.4494 33.8086 32.8954C33.8086 33.3413 34.2356 33.7029 34.7624 33.7029H38.5427C39.0695 33.7029 39.4965 33.3413 39.4965 32.8954C39.4965 32.4494 39.0695 32.0879 38.5427 32.0879Z" fill="#34495E"/>
<path d="M20.0416 30.6646C22.4195 30.6646 24.3472 28.8467 24.3472 27.8619H15.7362C15.7362 28.8467 17.6638 30.6646 20.0416 30.6646Z" fill="#AB2E3C"/>
</svg>
