<svg width="40" height="40" viewBox="0 0 40 40" fill="none" xmlns="http://www.w3.org/2000/svg">
<path d="M4.26642 18.0371L0.48584 31.5606C0.48584 31.5606 3.55702 27.2849 3.6561 28.0457C3.75518 28.8064 4.94399 34.3167 4.94399 34.3167L9.89755 29.7242L10.2938 36.8138L16.2439 28.0459L6.8596 18.0371H4.26642ZM35.8365 18.0371L39.6171 31.5606C39.6171 31.5606 36.5459 27.2849 36.4468 28.0457C36.3477 28.8064 35.1589 34.3167 35.1589 34.3167L30.2054 29.7242L29.8091 36.8138L23.859 28.0459L33.2433 18.0371H35.8365Z" fill="#F39C12"/>
<path d="M14.7422 12.1013H25.361C27.2221 12.1014 29.0069 12.9236 30.3228 14.387C31.6388 15.8505 32.3781 17.8353 32.3781 19.9048V25.809C32.3781 27.6091 32.0593 29.3916 31.4398 31.0546C30.8204 32.7177 29.9124 34.2288 28.7678 35.5017C27.6232 36.7746 26.2643 37.7843 24.7688 38.4732C23.2732 39.162 21.6703 39.5166 20.0516 39.5166C16.7824 39.5166 13.6471 38.0724 11.3354 35.5018C9.02378 32.9312 7.7251 29.4447 7.7251 25.8093V19.9048C7.7251 17.8352 8.46439 15.8504 9.78035 14.387C11.0963 12.9236 12.8811 12.1014 14.7422 12.1013Z" fill="#F4DCC6"/>
<path d="M25.361 12.1013H14.7422C12.8812 12.1014 11.0963 12.9235 9.78036 14.3869C8.4644 15.8504 7.7251 17.8352 7.7251 19.9047V20.1072H32.3781V19.9047C32.3781 17.8352 31.6388 15.8504 30.3228 14.387C29.0069 12.9236 27.2221 12.1014 25.361 12.1013ZM20.0516 38.5193C16.7824 38.5193 13.6471 37.0752 11.3354 34.5046C9.02378 31.934 7.7251 28.4475 7.7251 24.8121V25.8092C7.72509 27.6093 8.04391 29.3917 8.66337 31.0548C9.28283 32.7178 10.1908 34.2289 11.3354 35.5018C12.48 36.7746 13.8389 37.7843 15.3344 38.4732C16.8299 39.162 18.4328 39.5166 20.0516 39.5166C23.3208 39.5166 26.456 38.0724 28.7677 35.5018C31.0794 32.9312 32.3781 29.4447 32.3781 25.8093V24.8118C32.3781 26.6119 32.0593 28.3943 31.4398 30.0574C30.8204 31.7205 29.9124 33.2316 28.7678 34.5045C27.6232 35.7773 26.2643 36.787 24.7688 37.4759C23.2732 38.1648 21.6703 38.5193 20.0516 38.5193Z" fill="#C99673"/>
<path d="M11.11 27.065C11.4043 26.6719 11.7727 26.3557 12.1891 26.1387C12.6055 25.9216 13.0598 25.8091 13.5197 25.8091C13.9796 25.8091 14.4338 25.9216 14.8502 26.1387C15.2667 26.3557 15.6351 26.6719 15.9293 27.065C16.5982 26.5033 17.0914 25.7222 17.3394 24.8319C17.5873 23.9416 17.5774 22.9871 17.3111 22.1034C17.0447 21.2197 16.5354 20.4514 15.8551 19.907C15.1747 19.3627 14.3578 19.0698 13.5197 19.0698C12.6815 19.0698 11.8646 19.3627 11.1842 19.907C10.5039 20.4514 9.9946 21.2197 9.72826 22.1034C9.46192 22.9871 9.45203 23.9416 9.69998 24.8319C9.94792 25.7222 10.4412 26.5033 11.11 27.065Z" fill="#ECF0F1"/>
<path d="M13.5206 19.0757C12.4601 19.0757 11.4431 19.5442 10.6932 20.3781C9.94326 21.212 9.52197 22.343 9.52197 23.5223H17.5193C17.5193 22.343 17.098 21.212 16.3481 20.3781C15.5982 19.5442 14.5812 19.0757 13.5206 19.0757Z" fill="#BDC3C7"/>
<path d="M11.9317 26.2932C12.4126 25.9763 12.9613 25.8091 13.5203 25.8091C14.0793 25.8091 14.628 25.9763 15.1089 26.2932C15.7961 25.6733 16.2447 24.6647 16.2447 23.5226C16.2447 21.6363 15.0249 20.1079 13.5203 20.1079C12.0158 20.1079 10.7959 21.637 10.7959 23.5226C10.7962 24.6647 11.2449 25.6733 11.9317 26.2932Z" fill="#414141"/>
<path d="M13.5201 25.2436C14.2785 25.2436 14.8932 24.473 14.8932 23.5223C14.8932 22.5717 14.2785 21.801 13.5201 21.801C12.7617 21.801 12.147 22.5717 12.147 23.5223C12.147 24.473 12.7617 25.2436 13.5201 25.2436Z" fill="#313131"/>
<path d="M26.5836 19.0757C25.5231 19.0757 24.506 19.5442 23.7561 20.3781C23.0062 21.212 22.585 22.343 22.585 23.5223H30.5823C30.5823 22.343 30.161 21.212 29.4111 20.3781C28.6612 19.5442 27.6441 19.0757 26.5836 19.0757Z" fill="#BDC3C7"/>
<path d="M24.1742 27.0649C24.4684 26.6719 24.8368 26.3556 25.2532 26.1386C25.6696 25.9215 26.1239 25.809 26.5838 25.809C27.0437 25.809 27.498 25.9215 27.9144 26.1386C28.3308 26.3556 28.6992 26.6719 28.9934 27.0649C29.6624 26.5033 30.1557 25.7221 30.4036 24.8317C30.6516 23.9414 30.6417 22.9869 30.3754 22.1031C30.1091 21.2193 29.5997 20.451 28.9194 19.9066C28.239 19.3622 27.422 19.0693 26.5838 19.0693C25.7456 19.0693 24.9286 19.3622 24.2483 19.9066C23.5679 20.451 23.0586 21.2193 22.7922 22.1031C22.5259 22.9869 22.516 23.9414 22.764 24.8317C23.012 25.7221 23.5053 26.5033 24.1742 27.0649Z" fill="#ECF0F1"/>
<path d="M26.568 19.0757C25.5075 19.0757 24.4904 19.5442 23.7405 20.3781C22.9906 21.212 22.5693 22.343 22.5693 23.5223H30.5667C30.5667 22.343 30.1454 21.212 29.3955 20.3781C28.6456 19.5442 27.6285 19.0757 26.568 19.0757Z" fill="#BDC3C7"/>
<path d="M24.9952 26.2932C25.4761 25.9763 26.0248 25.8091 26.5838 25.8091C27.1428 25.8091 27.6915 25.9763 28.1724 26.2932C28.8596 25.6733 29.3082 24.6647 29.3082 23.5226C29.3082 21.6363 28.0885 20.1079 26.5837 20.1079C25.079 20.1079 23.8594 21.637 23.8594 23.5226C23.8594 24.6647 24.3082 25.6733 24.9952 26.2932Z" fill="#414141"/>
<path d="M26.5841 25.2436C27.3424 25.2436 27.9572 24.473 27.9572 23.5223C27.9572 22.5717 27.3424 21.801 26.5841 21.801C25.8257 21.801 25.2109 22.5717 25.2109 23.5223C25.2109 24.473 25.8257 25.2436 26.5841 25.2436Z" fill="#313131"/>
<path d="M11.7471 24.5138C12.2396 24.5138 12.6388 24.0699 12.6388 23.5223C12.6388 22.9747 12.2396 22.5308 11.7471 22.5308C11.2547 22.5308 10.8555 22.9747 10.8555 23.5223C10.8555 24.0699 11.2547 24.5138 11.7471 24.5138Z" fill="#ECF0F1"/>
<path d="M24.8096 24.5138C25.3021 24.5138 25.7013 24.0699 25.7013 23.5223C25.7013 22.9747 25.3021 22.5308 24.8096 22.5308C24.3172 22.5308 23.918 22.9747 23.918 23.5223C23.918 24.0699 24.3172 24.5138 24.8096 24.5138Z" fill="#ECF0F1"/>
<path d="M20.478 29.7246L21.8539 27.9859C21.926 27.8948 21.9729 27.7824 21.9891 27.6624C22.0052 27.5423 21.9899 27.4196 21.9449 27.309C21.8999 27.1984 21.8272 27.1046 21.7354 27.0387C21.6437 26.9729 21.5368 26.938 21.4277 26.938H18.6762C18.567 26.9379 18.4601 26.9729 18.3683 27.0387C18.2766 27.1045 18.2038 27.1983 18.1588 27.3089C18.1138 27.4196 18.0985 27.5423 18.1146 27.6624C18.1308 27.7824 18.1778 27.8948 18.2499 27.9859L19.6257 29.7246C19.679 29.792 19.7445 29.8459 19.818 29.8829C19.8915 29.9198 19.9712 29.9389 20.0519 29.9389C20.1325 29.9389 20.2122 29.9198 20.2857 29.8829C20.3592 29.8459 20.4247 29.792 20.478 29.7246Z" fill="#C99673"/>
<path d="M25.3414 17.3322C26.8301 17.0072 27.9572 16.292 27.8589 15.7348C27.7605 15.1776 26.4739 14.9893 24.9852 15.3144C23.4964 15.6394 22.3693 16.3545 22.4677 16.9118C22.566 17.469 23.8527 17.6572 25.3414 17.3322Z" fill="#F39C12"/>
<path d="M17.5889 16.9114C17.6872 16.3542 16.5601 15.639 15.0714 15.314C13.5826 14.989 12.296 15.1773 12.1977 15.7345C12.0993 16.2917 13.2264 17.0069 14.7151 17.3319C16.2039 17.6569 17.4905 17.4687 17.5889 16.9114Z" fill="#F39C12"/>
<path d="M20.0521 0.483643C15.8656 0.48372 11.8507 2.33314 8.8904 5.62506C5.93014 8.91699 4.26709 13.3818 4.26709 18.0372V25.8089L6.86026 18.0372V25.8089L10.7247 18.0372L13.2917 13.4936L14.3676 15.104H14.3383L16.3271 18.0363L21.5969 25.808L21.6686 25.2353C22.2612 20.5054 23.8685 16.0035 26.3547 12.1097L29.6497 18.0363L33.5142 25.808V18.0363L35.8369 25.808V18.0363C35.8367 13.3811 34.1736 8.91658 31.2134 5.62486C28.2532 2.33313 24.2384 0.483796 20.0521 0.483643Z" fill="#F1C40F"/>
<path d="M29.1799 17.1918L31.281 14.8556L33.5268 17.3529L35.6043 15.0428C35.2757 12.9115 34.5936 10.8668 33.5926 9.01293L33.5268 8.9397L31.2811 11.4369L29.0353 8.9397L26.7897 11.4369L24.5438 8.9397L22.2981 11.4369L20.052 8.9397L17.8063 11.4369L15.5607 8.9397L13.3148 11.4369L11.0695 8.9397L8.8238 11.4369L6.57798 8.9397L6.51204 9.01302C5.51117 10.8669 4.82906 12.9116 4.50049 15.0428L6.57798 17.3529L8.8238 14.8556L11.0695 17.3529L11.1819 17.2278L13.2916 13.4939L14.3675 15.1043H14.3383L15.7333 17.1616L17.8067 14.8559L20.052 17.3529L22.2978 14.8556L23.9506 16.6936C24.6277 15.0894 25.4322 13.5557 26.3546 12.1108L29.1799 17.1918Z" fill="#FFEDA1"/>
<path d="M13.5207 19.5028C14.4791 19.504 15.3979 19.9278 16.0756 20.6814C16.7532 21.435 17.1344 22.4567 17.1355 23.5224C17.1355 23.6356 17.176 23.7442 17.248 23.8243C17.3199 23.9043 17.4176 23.9493 17.5194 23.9493C17.6212 23.9493 17.7189 23.9043 17.7909 23.8243C17.8628 23.7442 17.9033 23.6356 17.9033 23.5224C17.9033 22.2299 17.4416 20.9903 16.6197 20.0763C15.7978 19.1624 14.6831 18.6489 13.5207 18.6489C12.3584 18.6489 11.2437 19.1624 10.4218 20.0763C9.59991 20.9903 9.13818 22.2299 9.13818 23.5224C9.13818 23.6356 9.17863 23.7442 9.25062 23.8243C9.32261 23.9043 9.42026 23.9493 9.52207 23.9493C9.62388 23.9493 9.72153 23.9043 9.79352 23.8243C9.86551 23.7442 9.90596 23.6356 9.90596 23.5224C9.90704 22.4567 10.2882 21.435 10.9659 20.6814C11.6436 19.9278 12.5624 19.504 13.5207 19.5028ZM25.269 28.8369C25.1672 28.8369 25.0695 28.8819 24.9975 28.962C24.9256 29.042 24.8851 29.1506 24.8851 29.2638C24.8851 30.6891 24.3759 32.056 23.4696 33.0639C22.5633 34.0717 21.3341 34.6379 20.0524 34.6379C18.7707 34.6379 17.5414 34.0717 16.6351 33.0639C15.7288 32.056 15.2197 30.6891 15.2197 29.2638C15.2197 29.1506 15.1792 29.042 15.1072 28.962C15.0352 28.8819 14.9376 28.8369 14.8358 28.8369C14.734 28.8369 14.6363 28.8819 14.5643 28.962C14.4923 29.042 14.4519 29.1506 14.4519 29.2638C14.4519 30.9155 15.0419 32.4996 16.0922 33.6676C17.1425 34.8355 18.567 35.4917 20.0524 35.4917C21.5377 35.4917 22.9622 34.8355 24.0125 33.6676C25.0628 32.4996 25.6529 30.9155 25.6529 29.2638C25.6529 29.1506 25.6124 29.042 25.5404 28.962C25.4685 28.8819 25.3708 28.8369 25.269 28.8369Z" fill="black"/>
<path d="M39.9815 31.4175L36.2199 17.9624C36.1835 8.05103 28.922 0 20.0006 0C11.0793 0 3.81849 8.05006 3.78117 17.9606L0.0193779 31.4176C-0.0105151 31.5252 -0.00570295 31.641 0.0329841 31.7451C0.0716712 31.8492 0.141808 31.935 0.231298 31.9877C0.320788 32.0404 0.424021 32.0568 0.523192 32.0339C0.622363 32.0111 0.711256 31.9505 0.774538 31.8625C1.64574 30.6506 2.70632 29.2963 3.27776 28.7095C3.58457 30.3238 4.4282 34.2366 4.46952 34.4297C4.48677 34.5097 4.52209 34.5835 4.57214 34.6441C4.62219 34.7047 4.68532 34.7501 4.75555 34.776C4.82578 34.8019 4.90079 34.8075 4.97349 34.7922C5.04619 34.7768 5.11418 34.7411 5.17101 34.6884L8.3919 31.7023C8.74105 32.5487 9.16423 33.355 9.65534 34.1093L9.80819 36.844C9.81374 36.9426 9.84631 37.037 9.90153 37.1144C9.95675 37.1918 10.032 37.2485 10.1171 37.277C10.2022 37.3054 10.293 37.3042 10.3775 37.2735C10.4619 37.2428 10.5359 37.184 10.5894 37.1052L11.2511 36.1302C13.6159 38.6154 16.7462 40 20 40C23.2537 40 26.3841 38.6154 28.7489 36.1302L29.4104 37.1051C29.464 37.1839 29.5379 37.2427 29.6224 37.2734C29.7068 37.3041 29.7977 37.3053 29.8828 37.2769C29.9679 37.2484 30.0431 37.1917 30.0983 37.1143C30.1535 37.0369 30.1861 36.9425 30.1917 36.8439L30.3446 34.1093C30.8357 33.3549 31.2589 32.5487 31.608 31.7022L34.8288 34.6883C34.8857 34.7409 34.9537 34.7766 35.0263 34.792C35.099 34.8073 35.1741 34.8018 35.2443 34.7759C35.3145 34.75 35.3776 34.7046 35.4277 34.644C35.4777 34.5834 35.5131 34.5096 35.5303 34.4296C35.572 34.2361 36.4157 30.3237 36.7221 28.7093C37.2934 29.2962 38.3542 30.65 39.2253 31.8628C39.2886 31.9508 39.3775 32.0115 39.4767 32.0344C39.5759 32.0573 39.6792 32.0409 39.7687 31.9882C39.8582 31.9355 39.9284 31.8496 39.9671 31.7455C40.0057 31.6414 40.0105 31.5255 39.9806 31.4179L39.9815 31.4175ZM4.6502 18.0371C4.6502 8.62486 11.5364 0.967346 20.0006 0.967346C28.4648 0.967346 35.3509 8.62486 35.3509 18.0371V22.8205L33.8754 17.8846C33.8429 17.7755 33.7765 17.683 33.6881 17.6234C33.5997 17.5639 33.4952 17.5413 33.3932 17.5596C33.2912 17.578 33.1984 17.6361 33.1314 17.7236C33.0645 17.8111 33.0277 17.9222 33.0277 18.0371V23.9347L29.9788 17.803C29.9754 17.7963 29.9719 17.7895 29.9681 17.7828L26.6731 11.8563C26.6354 11.7884 26.5831 11.7319 26.521 11.692C26.4588 11.652 26.3888 11.6298 26.317 11.6272C26.2453 11.6247 26.1741 11.6419 26.1098 11.6774C26.0455 11.7129 25.9901 11.7655 25.9486 11.8305C23.5288 15.6288 21.926 19.9944 21.264 24.5906L14.729 14.9532C14.7145 14.9038 14.6928 14.8574 14.6649 14.8157L13.5888 13.2051C13.5466 13.142 13.4912 13.0913 13.4274 13.0573C13.3636 13.0234 13.2934 13.0072 13.2227 13.0103C13.152 13.0133 13.0831 13.0355 13.0219 13.0749C12.9607 13.1142 12.909 13.1696 12.8714 13.2362L10.3045 17.7798C10.3001 17.7875 10.2958 17.7952 10.2921 17.803L7.2432 23.9347V18.0371C7.24315 17.9237 7.20726 17.8139 7.14181 17.7269C7.07635 17.64 6.98549 17.5813 6.8851 17.5613C6.78471 17.5413 6.68119 17.5611 6.59261 17.6173C6.50403 17.6735 6.43605 17.7626 6.40053 17.8689L4.6502 23.1149V18.0371ZM27.3562 15.8332C27.2137 16.0591 26.5155 16.5718 25.2062 16.8576C24.8921 16.9274 24.5742 16.9738 24.2546 16.9965C24.4158 16.6104 24.5845 16.2283 24.7605 15.8504C24.8434 15.829 24.9286 15.8083 25.0175 15.7888C26.3267 15.5031 27.1473 15.6841 27.3562 15.8332ZM25.2976 14.7558C25.6071 14.156 25.9355 13.5687 26.2829 12.9939L27.2751 14.7783C26.7318 14.6332 26.0209 14.641 25.2976 14.7558ZM14.12 15.6618L14.9596 16.9C14.8901 16.8871 14.8199 16.8734 14.7474 16.8576C13.4381 16.5718 12.74 16.0591 12.5973 15.8332C12.7585 15.7181 13.2862 15.5854 14.12 15.6618ZM13.0704 14.7027L13.2699 14.3496L13.4847 14.6713C13.3415 14.6753 13.2028 14.6857 13.0704 14.7027ZM5.15283 33.4462C4.7251 31.4492 4.10234 28.4909 4.03536 27.9769C4.02333 27.8642 3.98151 27.7579 3.91517 27.6717C3.84883 27.5854 3.76097 27.5229 3.66269 27.4922C3.34135 27.3954 3.01705 27.475 1.50264 29.3918C1.49951 29.3958 1.49638 29.3997 1.49334 29.4036L3.7803 21.2225V25.809C3.78029 25.9225 3.81616 26.0323 3.88162 26.1193C3.94708 26.2064 4.03798 26.265 4.13841 26.2851C4.23884 26.3051 4.34241 26.2853 4.431 26.229C4.5196 26.1727 4.58758 26.0836 4.62306 25.9772L6.37347 20.7312V25.809C6.37345 25.9162 6.40549 26.0205 6.46454 26.1053C6.5236 26.1901 6.60633 26.2506 6.69972 26.2774C6.79311 26.3042 6.89187 26.2958 6.98045 26.2533C7.06904 26.2109 7.14243 26.137 7.18909 26.0431L7.24007 25.9405C7.25216 27.5891 7.52385 29.2226 8.04281 30.7669L5.15283 33.4462ZM10.6038 35.479L10.5991 35.3953C10.6103 35.4089 10.6218 35.4223 10.633 35.4358L10.6038 35.479ZM29.3968 35.479L29.3675 35.4359C29.3788 35.4224 29.3902 35.409 29.4015 35.3954L29.3968 35.479ZM31.8922 25.809C31.8922 33.1007 26.5575 39.0326 20.0006 39.0326C13.4435 39.0326 8.1091 33.1004 8.1091 25.809V24.1939L11.0483 18.2834L12.0203 16.563C12.1901 16.752 12.3835 16.913 12.5944 17.0412C13.1098 17.3681 13.815 17.6402 14.5801 17.8073C14.9434 17.8873 15.3111 17.9396 15.6808 17.9637L21.1983 26.1006C21.2501 26.1771 21.3212 26.2347 21.4024 26.2662C21.4837 26.2977 21.5716 26.3017 21.6549 26.2777C21.7382 26.2536 21.8132 26.2026 21.8704 26.1312C21.9277 26.0597 21.9646 25.9709 21.9764 25.8761L22.0481 25.3035C22.1122 24.792 22.1888 24.2828 22.2779 23.776C22.3256 23.8485 22.3928 23.9023 22.4698 23.9298C22.5467 23.9572 22.6295 23.9568 22.7063 23.9287C22.7831 23.9006 22.8499 23.8462 22.8971 23.7732C22.9444 23.7003 22.9696 23.6126 22.9693 23.5228C22.9693 22.4567 23.3502 21.4342 24.0281 20.6804C24.706 19.9266 25.6254 19.5031 26.5841 19.5031C27.5428 19.5031 28.4622 19.9266 29.1402 20.6804C29.8181 21.4342 30.1989 22.4567 30.1989 23.5228C30.1989 23.636 30.2393 23.7446 30.3113 23.8246C30.3833 23.9047 30.481 23.9497 30.5828 23.9497C30.6846 23.9497 30.7822 23.9047 30.8542 23.8246C30.9262 23.7446 30.9667 23.636 30.9667 23.5228C30.9669 22.4772 30.6647 21.4593 30.1046 20.6195C29.5446 19.7796 28.7564 19.1624 27.8567 18.859C26.9569 18.5557 25.9932 18.5822 25.108 18.9348C24.2229 19.2874 23.4632 19.9472 22.9412 20.8169C23.2057 19.8526 23.5144 18.904 23.866 17.9748C23.8808 17.9748 23.8951 17.9757 23.91 17.9757C24.4017 17.9716 24.8919 17.9152 25.374 17.8073C26.1395 17.6402 26.8441 17.3681 27.3597 17.0412C27.763 16.7852 27.994 16.5308 28.1193 16.2968L29.223 18.2819L31.8924 23.6506L31.8922 25.809ZM38.4979 29.3917C36.9833 27.4747 36.6592 27.3947 36.338 27.4921C36.2397 27.5228 36.1518 27.5853 36.0854 27.6715C36.0191 27.7578 35.9772 27.8641 35.9652 27.9768C35.8982 28.4909 35.2755 31.4496 34.8477 33.4461L31.9578 30.7665C32.491 29.1809 32.7634 27.5015 32.7621 25.8086V25.3991L33.0821 26.0427C33.1288 26.1365 33.2022 26.2104 33.2907 26.2528C33.3793 26.2952 33.478 26.3037 33.5714 26.2769C33.6647 26.2501 33.7475 26.1895 33.8065 26.1048C33.8656 26.02 33.8976 25.9158 33.8976 25.8086V21.0255L35.3731 25.9612C35.4056 26.0703 35.472 26.1629 35.5604 26.2224C35.6488 26.282 35.7533 26.3046 35.8553 26.2862C35.9573 26.2679 36.0501 26.2097 36.1171 26.1222C36.184 26.0347 36.2208 25.9236 36.2208 25.8087V21.2235L38.5073 29.403L38.4979 29.3917Z" fill="black"/>
<path d="M15.1013 26.7766C15.2012 26.7766 15.2979 26.7384 15.3754 26.6685C16.1874 25.9359 16.6722 24.7597 16.6722 23.5223C16.6722 21.3726 15.2549 19.6239 13.5128 19.6239C11.7708 19.6239 10.3535 21.373 10.3535 23.5223C10.3535 24.7597 10.8383 25.9359 11.6503 26.6685C11.7192 26.7307 11.8035 26.7679 11.8919 26.7753C11.9804 26.7826 12.0687 26.7597 12.1452 26.7096C12.5591 26.4366 13.0316 26.2925 13.5129 26.2925C13.9942 26.2925 14.4666 26.4366 14.8806 26.7096C14.9475 26.7535 15.0237 26.7766 15.1013 26.7766ZM11.9912 25.7067C11.4914 25.116 11.2163 24.3333 11.2234 23.5223C11.2234 21.9059 12.2504 20.5913 13.5128 20.5913C14.7752 20.5913 15.8023 21.9063 15.8023 23.5223C15.8094 24.3333 15.5343 25.116 15.0345 25.7067C14.5591 25.4555 14.0393 25.3252 13.5129 25.3252C12.9865 25.3252 12.4667 25.4555 11.9912 25.7067ZM26.5758 19.6235C24.8338 19.6235 23.4165 21.3726 23.4165 23.5219C23.4165 24.7592 23.9012 25.9354 24.7132 26.6681C24.7821 26.7303 24.8664 26.7675 24.9549 26.7749C25.0433 26.7822 25.1317 26.7593 25.2081 26.7092C25.6221 26.4362 26.0946 26.2921 26.5759 26.2921C27.0572 26.2921 27.5297 26.4362 27.9437 26.7092C28.0201 26.7593 28.1085 26.7822 28.197 26.7749C28.2854 26.7675 28.3698 26.7302 28.4386 26.668C29.2505 25.9354 29.7348 24.7592 29.7348 23.5219C29.7356 21.3726 28.3183 19.6235 26.5758 19.6235ZM28.0982 25.7067C27.6227 25.4555 27.1029 25.3252 26.5765 25.3252C26.0501 25.3252 25.5303 25.4555 25.0548 25.7067C24.5551 25.116 24.28 24.3333 24.287 23.5223C24.287 21.9059 25.3141 20.5913 26.5765 20.5913C27.8389 20.5913 28.8659 21.9063 28.8659 23.5223C28.873 24.3333 28.5979 25.116 28.0982 25.7067Z" fill="black"/>
</svg>
