<svg width="40" height="40" viewBox="0 0 40 40" fill="none" xmlns="http://www.w3.org/2000/svg">
<path d="M31.6667 28.3333V31.6666H11.6667V28.3333C11.6667 28.3333 11.6667 21.6666 21.6667 21.6666C31.6667 21.6666 31.6667 28.3333 31.6667 28.3333ZM26.6667 13.3333C26.6667 12.3443 26.3734 11.3776 25.824 10.5554C25.2746 9.73316 24.4937 9.09229 23.5801 8.71386C22.6665 8.33542 21.6611 8.2364 20.6912 8.42933C19.7213 8.62225 18.8304 9.09846 18.1311 9.79772C17.4319 10.497 16.9557 11.3879 16.7627 12.3578C16.5698 13.3277 16.6688 14.333 17.0473 15.2467C17.4257 16.1603 18.0666 16.9412 18.8888 17.4906C19.7111 18.04 20.6778 18.3333 21.6667 18.3333C22.9927 18.3333 24.2645 17.8065 25.2022 16.8688C26.1399 15.9311 26.6667 14.6593 26.6667 13.3333ZM32 21.7666C32.9111 22.6071 33.6455 23.6207 34.1606 24.7481C34.6757 25.8756 34.9611 27.0943 35 28.3333V31.6666H40V28.3333C40 28.3333 40 22.5833 32 21.7666ZM30 8.33325C29.4964 8.33356 28.996 8.41228 28.5167 8.56659C29.4918 9.96487 30.0146 11.6286 30.0146 13.3333C30.0146 15.0379 29.4918 16.7016 28.5167 18.0999C28.996 18.2542 29.4964 18.333 30 18.3333C31.3261 18.3333 32.5979 17.8065 33.5355 16.8688C34.4732 15.9311 35 14.6593 35 13.3333C35 12.0072 34.4732 10.7354 33.5355 9.79772C32.5979 8.86004 31.3261 8.33325 30 8.33325ZM13.3333 16.6666H8.33333V11.6666H5V16.6666H0V19.9999H5V24.9999H8.33333V19.9999H13.3333V16.6666Z" fill="#6CFF77"/>
</svg>
