<svg width="28" height="28" viewBox="0 0 28 28" fill="none" xmlns="http://www.w3.org/2000/svg">
<path d="M26.7799 3.65271H4.86727C4.13685 3.65271 3.6499 4.13966 3.6499 4.87008V26.7827C3.6499 27.5131 4.13685 28.0001 4.86727 28.0001H26.7799C27.5103 28.0001 27.9973 27.5131 27.9973 26.7827V4.87008C27.9973 4.13966 27.5103 3.65271 26.7799 3.65271Z" fill="#6CFF77"/>
<path d="M1.21737 23.13C0.486947 23.13 0 22.643 0 21.9126V1.21737C0 0.486947 0.486947 0 1.21737 0H21.9126C22.643 0 23.13 0.486947 23.13 1.21737C23.13 1.94779 22.643 2.43474 21.9126 2.43474H2.43474V21.9126C2.43474 22.643 1.94779 23.13 1.21737 23.13Z" fill="#6CFF77"/>
</svg>
