<svg width="50" height="50" viewBox="0 0 50 50" fill="none" xmlns="http://www.w3.org/2000/svg">
<path d="M24.9975 49.6189C38.611 49.6189 49.6469 38.583 49.6469 24.9695C49.6469 11.356 38.611 0.320068 24.9975 0.320068C11.3841 0.320068 0.348145 11.356 0.348145 24.9695C0.348145 38.583 11.3841 49.6189 24.9975 49.6189Z" fill="url(#paint0_linear_2_3004)"/>
<path d="M33.723 18.2996C34.7806 18.2996 35.6379 17.4422 35.6379 16.3846C35.6379 15.3271 34.7806 14.4697 33.723 14.4697C32.6654 14.4697 31.8081 15.3271 31.8081 16.3846C31.8081 17.4422 32.6654 18.2996 33.723 18.2996Z" fill="white"/>
<path d="M25.2097 16.9255C20.7742 16.9255 17.1655 20.5341 17.1655 24.9696C17.1655 29.405 20.7742 33.0136 25.2097 33.0136C29.6451 33.0136 33.2536 29.405 33.2536 24.9696C33.2536 20.5341 29.6451 16.9255 25.2097 16.9255ZM25.2097 30.1224C22.3684 30.1224 20.0568 27.8109 20.0568 24.9696C20.0568 22.1283 22.3684 19.8168 25.2097 19.8168C28.051 19.8168 30.3623 22.1283 30.3623 24.9696C30.3623 27.8109 28.051 30.1224 25.2097 30.1224Z" fill="white"/>
<path d="M31.5958 41.3013H18.555C13.1451 41.3013 8.7439 36.9001 8.7439 31.4901V18.4488C8.7439 13.0388 13.145 8.6377 18.555 8.6377H31.5958C37.0058 8.6377 41.4075 13.0388 41.4075 18.4488V31.4901C41.4075 36.9001 37.0058 41.3013 31.5958 41.3013ZM18.555 11.7106C14.8393 11.7106 11.8168 14.7331 11.8168 18.4488V31.4901C11.8168 35.2058 14.8393 38.2284 18.555 38.2284H31.5958C35.3115 38.2284 38.3346 35.2058 38.3346 31.4901V18.4488C38.3346 14.7331 35.3115 11.7106 31.5958 11.7106H18.555Z" fill="white"/>
<defs>
<linearGradient id="paint0_linear_2_3004" x1="3.97828" y1="45.9887" x2="57.2481" y2="-7.28109" gradientUnits="userSpaceOnUse">
<stop offset="0.0011" stop-color="#FBE18A"/>
<stop offset="0.2094" stop-color="#FCBB45"/>
<stop offset="0.3765" stop-color="#F75274"/>
<stop offset="0.5238" stop-color="#D53692"/>
<stop offset="0.7394" stop-color="#8F39CE"/>
<stop offset="1" stop-color="#5B4FE9"/>
</linearGradient>
</defs>
</svg>
