<svg width="31" height="31" viewBox="0 0 31 31" fill="none" xmlns="http://www.w3.org/2000/svg">
<path d="M15.4958 10.3311C12.6497 10.3311 10.3271 12.6538 10.3271 15.5C10.3271 18.3462 12.6497 20.6689 15.4958 20.6689C18.342 20.6689 20.6646 18.3462 20.6646 15.5C20.6646 12.6538 18.342 10.3311 15.4958 10.3311Z" fill="#8238BC"/>
<path fill-rule="evenodd" clip-rule="evenodd" d="M30.9988 14.717C30.9986 14.9778 30.9983 15.2387 30.9983 15.5C30.9983 15.7922 30.9987 16.084 30.9991 16.3755C31.0019 18.2198 31.0046 20.0531 30.8975 21.8981C30.7773 24.3797 30.215 26.5784 28.3964 28.397C26.5817 30.2117 24.3793 30.7778 21.8977 30.898C20.0219 31.0036 18.1581 31.0015 16.2826 30.9994C16.0219 30.9991 15.7609 30.9988 15.4997 30.9988C15.239 30.9988 14.9785 30.9991 14.7182 30.9994C12.8453 31.0015 10.981 31.0036 9.10176 30.898C6.62013 30.7778 4.42156 30.2156 2.60299 28.397C0.788295 26.5822 0.222174 24.3797 0.10197 21.8981C-0.00356809 20.0222 -0.00149962 18.1553 0.000576238 16.2816C0.000864676 16.0212 0.00115341 15.7607 0.00115341 15.5C0.00115341 15.2393 0.000864676 14.9788 0.000576238 14.7184C-0.00149992 12.8455 -0.00356602 10.9812 0.10197 9.10193C0.222174 6.62025 0.784418 4.42164 2.60299 2.60304C4.41768 0.78831 6.62013 0.222178 9.10176 0.101972C10.9775 -0.00356282 12.8413 -0.00149993 14.7168 0.000575968C14.9775 0.000864707 15.2385 0.00115345 15.4997 0.00115345C15.7604 0.00115345 16.0209 0.000864707 16.2812 0.000576264C18.1542 -0.00149993 20.0185 -0.00356607 21.8977 0.101972C24.3793 0.222178 26.5779 0.784432 28.3964 2.60304C30.2111 4.41776 30.7773 6.62025 30.8975 9.10193C31.003 10.9777 31.0009 12.8415 30.9988 14.717ZM7.543 15.5C7.543 19.9011 11.0948 23.453 15.4959 23.453C19.8969 23.453 23.4487 19.9011 23.4487 15.5C23.4487 11.0989 19.8969 7.54698 15.4959 7.54698C11.0948 7.54698 7.543 11.0989 7.543 15.5ZM21.9171 7.22126C21.9171 8.24883 22.7469 9.07864 23.7744 9.07864C24.0184 9.07894 24.2601 9.03111 24.4856 8.93788C24.711 8.84464 24.9159 8.70784 25.0884 8.53531C25.261 8.36277 25.3978 8.15789 25.491 7.93241C25.5842 7.70692 25.6321 7.46526 25.6318 7.22126C25.6318 6.19369 24.802 5.36388 23.7744 5.36388C22.7469 5.36388 21.9171 6.19369 21.9171 7.22126Z" fill="#8238BC"/>
</svg>
