<svg width="30" height="30" viewBox="0 0 30 30" fill="none" xmlns="http://www.w3.org/2000/svg">
<path fill-rule="evenodd" clip-rule="evenodd" d="M8.59668 27.4999L12.4971 28.6607V27.1428L12.8155 26.7856H15.0443V28.5714V29.8214H12.6563L9.71107 28.3928L8.59668 27.4999Z" fill="#CDBDB2"/>
<path fill-rule="evenodd" clip-rule="evenodd" d="M21.333 27.4999L17.5123 28.6607V27.1428L17.1939 26.7856H14.9651V28.5714V29.8214H17.3531L20.2981 28.3928L21.333 27.4999Z" fill="#CDBDB2"/>
<path fill-rule="evenodd" clip-rule="evenodd" d="M12.8155 24.1965L12.4971 27.1429L12.895 26.7857H17.0341L17.5117 27.1429L17.1933 24.1965L16.5565 23.75L13.3726 23.8394L12.8155 24.1965Z" fill="#393939"/>
<path fill-rule="evenodd" clip-rule="evenodd" d="M10.667 4.28564L12.5774 9.28564L13.453 23.8393H16.5573L17.5125 9.28564L19.2637 4.28564H10.667Z" fill="#F89C35"/>
<path fill-rule="evenodd" clip-rule="evenodd" d="M2.30885 15.2679L0.0800781 22.5L5.65201 22.1428H9.2339V19.0179L9.0747 12.5894L8.27871 13.3036L2.30885 15.2679Z" fill="#F89D35"/>
<path fill-rule="evenodd" clip-rule="evenodd" d="M6.52734 16.0714L13.0545 16.25L12.3381 20L9.23371 19.1071L6.52734 16.0714Z" fill="#D87C30"/>
<path fill-rule="evenodd" clip-rule="evenodd" d="M6.52734 16.1608L9.23371 19.0179V21.8751L6.52734 16.1608Z" fill="#EA8D3A"/>
<path fill-rule="evenodd" clip-rule="evenodd" d="M9.23438 19.1071L12.4183 19.9999L13.4532 23.8393L12.7367 24.2856L9.23438 21.9642V19.1071Z" fill="#F89D35"/>
<path fill-rule="evenodd" clip-rule="evenodd" d="M9.23347 21.9642L8.59668 27.4999L12.8155 24.1965L9.23347 21.9642Z" fill="#EB8F35"/>
<path fill-rule="evenodd" clip-rule="evenodd" d="M13.0548 16.25L13.4528 23.8394L12.2588 19.9554L13.0548 16.25Z" fill="#EA8E3A"/>
<path fill-rule="evenodd" clip-rule="evenodd" d="M5.57227 22.0536L9.23382 21.9642L8.59703 27.4999L5.57227 22.0536Z" fill="#D87C30"/>
<path fill-rule="evenodd" clip-rule="evenodd" d="M1.83126 29.9107L8.59711 27.4999L5.57234 22.0536L0.0800781 22.4999L1.83126 29.9107Z" fill="#EB8F35"/>
<path fill-rule="evenodd" clip-rule="evenodd" d="M12.5769 9.28564L9.15418 12.4999L6.52734 16.0714L13.0545 16.3393L12.5769 9.28564Z" fill="#E8821E"/>
<path fill-rule="evenodd" clip-rule="evenodd" d="M8.59668 27.4999L12.8155 24.1964L12.4971 27.0536V28.6607L9.63154 28.0356L8.59668 27.4999Z" fill="#DFCEC3"/>
<path fill-rule="evenodd" clip-rule="evenodd" d="M21.333 27.4999L17.1939 24.1964L17.5123 27.0536V28.6607L20.3778 28.0356L21.333 27.4999Z" fill="#DFCEC3"/>
<path fill-rule="evenodd" clip-rule="evenodd" d="M11.303 17.8571L12.1787 19.9107L9.07428 19.0179L11.303 17.8571Z" fill="#393939"/>
<path fill-rule="evenodd" clip-rule="evenodd" d="M1.75195 0.0893555L12.5774 9.2857L10.7467 4.2857L1.75195 0.0893555Z" fill="#E88F35"/>
<path fill-rule="evenodd" clip-rule="evenodd" d="M1.75114 0.0892334L0.318359 4.99995L1.11435 10.3571L0.557157 10.7142L1.35315 11.5178L0.716355 12.1428L1.59194 13.0357L1.03475 13.5714L2.30834 15.3571L8.27827 13.3035C11.1969 10.6845 12.6297 9.34519 12.5766 9.28566C12.5235 9.22614 8.91506 6.16066 1.75114 0.0892334Z" fill="#8E5A30"/>
<path fill-rule="evenodd" clip-rule="evenodd" d="M27.6208 15.2679L29.8496 22.5L24.2777 22.1428H20.6958V19.0179L20.855 12.5894L21.651 13.3036L27.6208 15.2679Z" fill="#F89D35"/>
<path fill-rule="evenodd" clip-rule="evenodd" d="M23.4023 16.0714L16.8752 16.25L17.5915 20L20.696 19.1071L23.4023 16.0714Z" fill="#D87C30"/>
<path fill-rule="evenodd" clip-rule="evenodd" d="M23.4023 16.1608L20.696 19.0179V21.8751L23.4023 16.1608Z" fill="#EA8D3A"/>
<path fill-rule="evenodd" clip-rule="evenodd" d="M20.6953 19.1071L17.5114 19.9999L16.4765 23.8393L17.193 24.2856L20.6953 21.9642V19.1071Z" fill="#F89D35"/>
<path fill-rule="evenodd" clip-rule="evenodd" d="M20.6962 21.9642L21.333 27.4999L17.1939 24.2857L20.6962 21.9642Z" fill="#EB8F35"/>
<path fill-rule="evenodd" clip-rule="evenodd" d="M16.8749 16.25L16.4768 23.8394L17.6709 19.9554L16.8749 16.25Z" fill="#EA8E3A"/>
<path fill-rule="evenodd" clip-rule="evenodd" d="M24.3574 22.0536L20.6959 21.9642L21.3327 27.4999L24.3574 22.0536Z" fill="#D87C30"/>
<path fill-rule="evenodd" clip-rule="evenodd" d="M28.0984 29.9107L21.3326 27.4999L24.3573 22.0536L29.8496 22.4999L28.0984 29.9107Z" fill="#EB8F35"/>
<path fill-rule="evenodd" clip-rule="evenodd" d="M17.3528 9.28564L20.7755 12.4999L23.4023 16.0714L16.8752 16.3393L17.3528 9.28564Z" fill="#E8821E"/>
<path fill-rule="evenodd" clip-rule="evenodd" d="M18.6266 17.8571L17.751 19.9107L20.8554 19.0179L18.6266 17.8571Z" fill="#393939"/>
<path fill-rule="evenodd" clip-rule="evenodd" d="M28.1777 0.0893555L17.3523 9.2857L19.183 4.2857L28.1777 0.0893555Z" fill="#E88F35"/>
<path fill-rule="evenodd" clip-rule="evenodd" d="M28.1785 0.0892334L29.6113 4.99995L28.8153 10.3571L29.3725 10.7142L28.5765 11.5178L29.2133 12.1428L28.3377 13.0357L28.8949 13.5714L27.6214 15.3571L21.6514 13.3035C18.7328 10.6845 17.3 9.34519 17.3531 9.28566C17.4061 9.22614 21.0146 6.16066 28.1785 0.0892334Z" fill="#8E5A30"/>
</svg>
