<svg width="28" height="28" viewBox="0 0 28 28" fill="none" xmlns="http://www.w3.org/2000/svg">
<path d="M26.4201 1.27204C26.335 1.18738 26.2281 1.12801 26.1112 1.1005C25.9943 1.07301 25.8721 1.07846 25.7581 1.11628L1.52737 9.1903C1.40679 9.23253 1.30135 9.30937 1.22426 9.41127C1.14717 9.51313 1.10185 9.63549 1.094 9.76301C1.08615 9.89052 1.1161 10.0175 1.18011 10.1281C1.24411 10.2386 1.33932 10.3278 1.45382 10.3845L12.2062 15.486L17.3076 26.2384C17.36 26.3492 17.4426 26.443 17.5459 26.5089C17.6493 26.5747 17.7692 26.61 17.8918 26.6105H17.9307C18.0593 26.6035 18.1828 26.5587 18.286 26.4817C18.3892 26.4047 18.4673 26.299 18.5105 26.1778L26.5846 1.94704C26.6239 1.83052 26.6294 1.7052 26.6003 1.58569C26.5712 1.46619 26.5087 1.35741 26.4201 1.27204Z" fill="#6FFF7A"/>
<path d="M26.3034 1.17693C26.1786 1.10099 26.0319 1.0691 25.8868 1.08636C25.7417 1.10362 25.6065 1.16902 25.503 1.27212L12.2409 14.5298C12.1452 14.6263 12.0818 14.7501 12.0593 14.8842C12.0369 15.0182 12.0565 15.1559 12.1155 15.2784L17.3078 26.2385C17.3604 26.35 17.4437 26.4442 17.5479 26.5101C17.6521 26.576 17.773 26.6108 17.8962 26.6106H17.9352C18.0632 26.6039 18.1864 26.5591 18.2889 26.482C18.3914 26.405 18.4686 26.2991 18.5106 26.1779L26.589 1.94712C26.6376 1.8055 26.6356 1.65146 26.5836 1.5111C26.5316 1.37073 26.4326 1.25268 26.3034 1.17693Z" fill="#C8FDCB"/>
</svg>
