<svg width="24" height="24" viewBox="0 0 24 24" fill="none" xmlns="http://www.w3.org/2000/svg">
<path fill-rule="evenodd" clip-rule="evenodd" d="M16.8 2.40001V4.8C16.8 6.126 17.874 7.2 19.2 7.2H21.6C22.926 7.2 24 6.126 24 4.8V2.40001C24 1.07401 22.926 -1.90735e-06 21.6 -1.90735e-06H19.2C17.874 -1.90735e-06 16.8 1.07401 16.8 2.40001ZM16.8 10.8V13.2C16.8 14.526 17.874 15.6 19.2 15.6H21.6C22.926 15.6 24 14.526 24 13.2V10.8C24 9.474 22.926 8.40001 21.6 8.40001H19.2C17.874 8.40001 16.8 9.474 16.8 10.8ZM16.8 19.2V21.6C16.8 22.926 17.874 24 19.2 24H21.6C22.926 24 24 22.926 24 21.6V19.2C24 17.874 22.926 16.8 21.6 16.8H19.2C17.874 16.8 16.8 17.874 16.8 19.2ZM8.4 2.40001V4.8C8.4 6.126 9.474 7.2 10.8 7.2H13.2C14.526 7.2 15.6 6.126 15.6 4.8V2.40001C15.6 1.07401 14.526 -1.90735e-06 13.2 -1.90735e-06H10.8C9.474 -1.90735e-06 8.4 1.07401 8.4 2.40001ZM8.4 10.8V13.2C8.4 14.526 9.474 15.6 10.8 15.6H13.2C14.526 15.6 15.6 14.526 15.6 13.2V10.8C15.6 9.474 14.526 8.40001 13.2 8.40001H10.8C9.474 8.40001 8.4 9.474 8.4 10.8ZM8.4 19.2V21.6C8.4 22.926 9.474 24 10.8 24H13.2C14.526 24 15.6 22.926 15.6 21.6V19.2C15.6 17.874 14.526 16.8 13.2 16.8H10.8C9.474 16.8 8.4 17.874 8.4 19.2ZM0 2.40001L0 4.8C0 6.126 1.074 7.2 2.4 7.2H4.8C6.126 7.2 7.2 6.126 7.2 4.8L7.2 2.40001C7.2 1.07401 6.126 -1.90735e-06 4.8 -1.90735e-06H2.4C1.074 -1.90735e-06 0 1.07401 0 2.40001ZM0 10.8L0 13.2C0 14.526 1.074 15.6 2.4 15.6H4.8C6.126 15.6 7.2 14.526 7.2 13.2V10.8C7.2 9.474 6.126 8.40001 4.8 8.40001H2.4C1.074 8.40001 0 9.474 0 10.8ZM2.4 16.8H4.8C6.126 16.8 7.2 17.874 7.2 19.2V21.6C7.2 22.926 6.126 24 4.8 24H2.4C1.074 24 0 22.926 0 21.6L0 19.2C0 17.874 1.074 16.8 2.4 16.8Z" fill="#6CFF77"/>
</svg>
