<svg width="24" height="24" viewBox="0 0 24 24" fill="none" xmlns="http://www.w3.org/2000/svg">
<path d="M6.70005 8.49999H2.90005C2.60005 8.49999 2.30005 8.59999 2.10005 8.79999C1.90005 8.99999 1.80005 9.29999 1.80005 9.59999V11.9C1.80005 12.2 1.90005 12.5 2.10005 12.7C2.30005 12.9 2.60005 13 2.90005 13H6.70005C7.00005 13 7.30005 12.9 7.50005 12.7C7.70005 12.5 7.80005 12.2 7.80005 11.9V9.59999C7.80005 9.29999 7.70005 8.99999 7.50005 8.79999C7.30005 8.59999 7.10005 8.49999 6.70005 8.49999ZM6.70005 2.29999H2.90005C2.60005 2.29999 2.30005 2.39999 2.10005 2.59999C1.90005 2.89999 1.80005 3.19999 1.80005 3.49999V5.79999C1.80005 6.09999 1.90005 6.39999 2.10005 6.59999C2.30005 6.79999 2.60005 6.89999 2.90005 6.89999H6.70005C7.00005 6.89999 7.30005 6.79999 7.50005 6.59999C7.70005 6.39999 7.80005 6.09999 7.80005 5.79999V3.49999C7.80005 3.19999 7.70005 2.89999 7.50005 2.69999C7.30005 2.49999 7.10005 2.29999 6.70005 2.29999ZM6.70005 14.6H2.90005C2.60005 14.6 2.30005 14.7 2.10005 14.9C1.90005 15.1 1.80005 15.4 1.80005 15.7V18C1.80005 18.3 1.90005 18.6 2.10005 18.8C2.30005 19 2.60005 19.1 2.90005 19.1H6.70005C7.00005 19.1 7.30005 19 7.50005 18.8C7.70005 18.6 7.80005 18.3 7.80005 18V15.7C7.80005 15.4 7.70005 15.1 7.50005 14.9C7.30005 14.7 7.10005 14.6 6.70005 14.6ZM22.1 8.49999H10.6C10.3 8.49999 10 8.59999 9.80005 8.79999C9.50005 8.99999 9.40005 9.29999 9.40005 9.59999V11.9C9.40005 12.2 9.50005 12.5 9.70005 12.7C9.90005 12.9 10.2 13 10.5 13H22C22.3 13 22.6 12.9 22.8 12.7C23 12.5 23.1 12.2 23.1 11.9V9.59999C23.1 9.29999 23 8.99999 22.8 8.79999C22.7 8.59999 22.4 8.49999 22.1 8.49999ZM22.1 14.6H10.6C10.3 14.6 10 14.7 9.80005 14.9C9.60005 15.1 9.50005 15.4 9.50005 15.7V18C9.50005 18.3 9.60005 18.6 9.80005 18.8C10 19 10.3 19.1 10.6 19.1H22.1C22.4 19.1 22.7 19 22.9 18.8C23.1 18.6 23.2001 18.3 23.2001 18V15.7C23.2001 15.4 23.1 15.1 22.9 14.9C22.7 14.7 22.4 14.6 22.1 14.6ZM22.9 2.69999C22.7 2.49999 22.4 2.39999 22.1 2.39999H10.6C10.3 2.39999 10 2.49999 9.80005 2.69999C9.50005 2.89999 9.40005 3.19999 9.40005 3.49999V5.79999C9.40005 6.09999 9.50005 6.39999 9.70005 6.59999C9.90005 6.79999 10.2 6.89999 10.5 6.89999H22C22.3 6.89999 22.6 6.79999 22.8 6.59999C23 6.39999 23.1 6.09999 23.1 5.79999V3.49999C23.2001 3.19999 23.1 2.89999 22.9 2.69999Z" fill="#6CFF77"/>
</svg>
