<!-- <svg width="28" height="28" viewBox="0 0 28 28" fill="none" xmlns="http://www.w3.org/2000/svg">
<path d="M26.5957 15.401H1.3977C0.629951 15.401 0 14.771 0 13.9967C0 13.2289 0.629951 12.599 1.3977 12.599H26.5957C27.37 12.599 27.9934 13.2289 27.9934 13.9967C28 14.771 27.37 15.401 26.5957 15.401Z" fill="#C8FDCB"/>
<path d="M13.9968 28C13.2225 28 12.5991 27.37 12.5991 26.6023V1.40427C12.5991 0.629951 13.2291 0 13.9968 0C14.7711 0 15.3945 0.629951 15.3945 1.3977V26.5957C15.4011 27.37 14.7711 28 13.9968 28Z" fill="#6CFF77"/>
</svg> -->


<svg width="28" height="28" viewBox="0 0 28 28" fill="none" xmlns="http://www.w3.org/2000/svg">
<path d="M26.5957 15.4006H1.3977C0.629951 15.4006 0 14.7707 0 13.9963C0 13.2286 0.629951 12.5986 1.3977 12.5986H26.5957C27.37 12.5986 27.9934 13.2286 27.9934 13.9963C28 14.7707 27.37 15.4006 26.5957 15.4006Z" fill="#0D0333"/>
<path d="M13.9973 28C13.223 28 12.5996 27.37 12.5996 26.6023V1.40427C12.5996 0.629951 13.2296 0 13.9973 0C14.7716 0 15.395 0.629951 15.395 1.3977V26.5957C15.4016 27.37 14.7716 28 13.9973 28Z" fill="#0D0333"/>
</svg>
