<svg width="60" height="60" viewBox="0 0 60 60" fill="none" xmlns="http://www.w3.org/2000/svg">
<path d="M51.5222 43.9819H52.1534C52.1534 44.1015 52.1534 44.2277 52.1534 44.3473V44.4868L52.2464 44.5798C52.7978 45.1512 53.0968 45.8953 53.0968 46.6793C53.0968 48.3469 51.7415 49.7089 50.0739 49.7089C48.4063 49.7089 47.051 48.3469 47.051 46.6793C47.051 45.0117 48.4063 43.6564 50.0739 43.6564C50.3596 43.6564 50.6452 43.7029 50.9841 43.8092L51.5222 43.9819ZM41.5831 23.4659H31.5776C31.3251 23.4659 31.1191 23.2666 31.1191 23.0141C31.1191 22.7616 31.3251 22.5557 31.5776 22.5557H41.5831C41.8356 22.5557 42.0415 22.7616 42.0415 23.0141C42.0415 23.2666 41.8356 23.4659 41.5831 23.4659ZM39.8358 25.3195C39.3176 26.6482 38.0353 27.5452 36.5803 27.5452C35.1253 27.5452 33.8431 26.6482 33.3249 25.3195H39.8358ZM37.4374 33.6907C37.5769 34.2753 37.6433 34.8533 37.6433 35.4247C37.6433 39.597 34.2484 42.992 30.0761 42.992C25.9038 42.992 22.5088 39.597 22.5088 35.4247C22.5088 34.8533 22.5819 34.2753 22.7147 33.6907H37.4374Z" fill="#C7B8A2"/>
<path d="M40.6073 25.0673C40.1489 26.9209 38.4879 28.2098 36.5811 28.2098C34.6744 28.2098 33.0134 26.9209 32.555 25.0673L32.4487 24.6554H40.7136L40.6073 25.0673ZM36.5811 27.5455C38.0361 27.5455 39.3184 26.6486 39.8366 25.3198H33.3257C33.8439 26.6486 35.1262 27.5455 36.5811 27.5455ZM30.4556 23.0144C30.4556 22.3965 30.9605 21.8916 31.5784 21.8916H41.5839C42.2018 21.8916 42.7067 22.3965 42.7067 23.0144C42.7067 23.6323 42.2018 24.1306 41.5839 24.1306H31.5784C30.9605 24.1306 30.4556 23.6323 30.4556 23.0144ZM31.1199 23.0144C31.1199 23.2669 31.3259 23.4662 31.5784 23.4662H41.5839C41.8364 23.4662 42.0423 23.2669 42.0423 23.0144C42.0423 22.7619 41.8364 22.556 41.5839 22.556H31.5784C31.3259 22.556 31.1199 22.7619 31.1199 23.0144Z" fill="black"/>
<path d="M28.5816 22.4893C28.8341 22.4893 29.0334 22.6952 29.0334 22.9477C29.0334 23.2001 28.8341 23.3995 28.5816 23.3995H18.5761C18.3236 23.3995 18.1177 23.2001 18.1177 22.9477C18.1177 22.6952 18.3236 22.4893 18.5761 22.4893H28.5816ZM26.8277 25.2531C26.3161 26.5818 25.0339 27.4787 23.5789 27.4787C22.1172 27.4787 20.835 26.5818 20.3234 25.2531H26.8277Z" fill="#C7B8A2"/>
<path d="M30.0763 43.6562C25.5386 43.6562 21.8447 39.9622 21.8447 35.4245C21.8447 34.7137 21.9443 33.9895 22.137 33.272L22.2034 33.0261H37.9492L38.0156 33.272C38.215 33.9895 38.308 34.7137 38.308 35.4245C38.308 39.9622 34.6207 43.6562 30.0763 43.6562ZM22.509 35.4245C22.509 39.5968 25.904 42.9918 30.0763 42.9918C34.2486 42.9918 37.6436 39.5968 37.6436 35.4245C37.6436 34.8532 37.5772 34.2752 37.4376 33.6905H22.715C22.5821 34.2752 22.509 34.8532 22.509 35.4245ZM27.6048 25.0004C27.1398 26.8541 25.4855 28.1429 23.5787 28.1429C21.6653 28.1429 20.011 26.8541 19.5459 25.0004L19.4463 24.5885H27.7045L27.6048 25.0004ZM23.5787 27.4786C25.0337 27.4786 26.3159 26.5817 26.8275 25.2529H20.3232C20.8348 26.5817 22.1171 27.4786 23.5787 27.4786ZM17.4531 22.9475C17.4531 22.323 17.9514 21.8247 18.5759 21.8247H28.5815C29.1993 21.8247 29.6976 22.323 29.6976 22.9475C29.6976 23.5654 29.1993 24.0637 28.5815 24.0637H18.5759C17.9514 24.0637 17.4531 23.5654 17.4531 22.9475ZM18.1175 22.9475C18.1175 23.2 18.3235 23.3993 18.5759 23.3993H28.5815C28.8339 23.3993 29.0332 23.2 29.0332 22.9475C29.0332 22.695 28.8339 22.4891 28.5815 22.4891H18.5759C18.3235 22.4891 18.1175 22.695 18.1175 22.9475Z" fill="black"/>
<path d="M8.65015 43.9021L9.16837 43.7626C9.45405 43.6895 9.69322 43.6562 9.92576 43.6562C11.5933 43.6562 12.9487 45.0116 12.9487 46.6792C12.9487 48.3468 11.5933 49.7087 9.92576 49.7087C8.25817 49.7087 6.90283 48.3468 6.90283 46.6792C6.90283 45.8288 7.25495 45.0382 7.89276 44.4535L8.0057 44.3538V44.2077C8.0057 44.108 8.0057 44.0017 8.0057 43.9021H8.65015Z" fill="#C7B8A2"/>
<path d="M40.7129 24.6551H32.448L32.5543 25.067C33.0128 26.9207 34.6737 28.2096 36.5805 28.2096C38.4872 28.2096 40.1482 26.9207 40.6066 25.067L40.7129 24.6551ZM30.4549 23.0141C30.4549 23.632 30.9598 24.1303 31.5777 24.1303H41.5832C42.2011 24.1303 42.706 23.632 42.706 23.0141C42.706 22.3962 42.2011 21.8913 41.5832 21.8913H31.5777C30.9598 21.8913 30.4549 22.3962 30.4549 23.0141ZM18.5758 24.0638H28.5813C29.1992 24.0638 29.6975 23.5655 29.6975 22.9477C29.6975 22.3232 29.1992 21.8249 28.5813 21.8249H18.5758C17.9513 21.8249 17.453 22.3232 17.453 22.9477C17.453 23.5655 17.9513 24.0638 18.5758 24.0638ZM27.7044 24.5887H19.4461L19.5458 25.0006C20.0108 26.8542 21.6651 28.1431 23.5786 28.1431C25.4853 28.1431 27.1396 26.8542 27.6047 25.0006L27.7044 24.5887ZM10.6564 37.0724C9.87907 38.9991 9.24126 41.1184 8.76291 43.3773L8.64996 43.9022H8.00552C7.99887 41.2779 8.21812 38.8529 8.66325 36.501L8.93565 35.1191C9.00873 34.8135 9.08846 34.5145 9.16818 34.2089L9.29441 33.7372C9.45386 33.0795 9.67311 32.4417 9.90564 31.7706C9.99201 31.5182 10.085 31.2723 10.1581 31.0332C10.9354 29.04 11.8058 27.3392 12.8223 25.8244L12.8754 25.7181C13.2209 24.4957 13.6793 23.4194 14.2507 22.5291L14.543 22.0574L13.9916 22.0175C12.1512 21.878 11.0085 21.2336 11.0085 20.722C11.0019 20.1506 12.3506 19.4796 14.3503 19.3866L15.3801 19.3401L14.3968 18.7023C14.3171 18.6491 14.2374 18.6026 14.1577 18.5428C13.3006 17.9316 12.603 17.2274 12.1778 16.5563C11.8191 15.9916 11.7061 15.5066 11.8788 15.2675C12.118 14.9419 13.0482 14.9353 14.3703 15.5664L14.4766 15.6129L14.5895 15.593C14.9749 15.5 15.3934 15.4468 15.8186 15.4269L16.8484 15.3738L15.9847 14.8157C15.8917 14.7559 15.792 14.6894 15.699 14.623C14.9616 14.0915 14.357 13.4869 13.9916 12.9089C13.6992 12.4438 13.5996 12.0319 13.7325 11.8459C13.965 11.5137 15.1675 11.6001 16.7155 12.6166L16.7953 12.6697L16.8949 12.6764C17.0079 12.6764 17.1274 12.7096 17.2537 12.7827L17.9313 13.1547L17.7387 12.4106C17.36 10.9091 17.5327 9.74646 17.9446 9.61358C18.31 9.494 19.1737 10.185 19.8381 11.806L20.0839 12.404L20.4294 11.8525C22.489 8.51071 26.1032 6.51758 30.0762 6.51758C34.2219 6.51758 38.0222 8.72996 40.002 12.291L40.3608 12.9421L40.6066 12.2379C41.2444 10.3976 42.241 9.47407 42.6662 9.61359C43.0515 9.73982 43.2508 10.7895 42.9054 12.2645L42.8057 12.6963L43.2442 12.6697C43.284 12.6697 43.3571 12.6631 43.3571 12.6564L43.6162 12.8026L43.7757 12.6963C45.3237 11.6466 46.6259 11.4938 46.8717 11.8459C47.1374 12.2113 46.5063 13.4803 44.9118 14.623C44.8121 14.6894 44.7191 14.7559 44.6195 14.8157L43.7558 15.3738L44.7855 15.4269C45.0779 15.4402 45.3835 15.4734 45.7223 15.5332L45.822 15.5531L45.915 15.5133C47.2305 14.9153 48.0609 14.9685 48.2735 15.2675C48.4463 15.5066 48.3333 15.9916 47.9812 16.5563C47.556 17.2274 46.8518 17.9316 46.0014 18.5428C45.9216 18.596 45.8419 18.6491 45.7622 18.6956L44.7789 19.3401L45.802 19.3866C47.8085 19.4796 49.1505 20.1506 49.1505 20.722C49.1505 21.2336 48.0011 21.878 46.1608 22.0175L45.6094 22.0574L45.9083 22.5291C46.4731 23.4194 46.9381 24.4957 47.2836 25.7181L47.3301 25.8178C48.3466 27.3392 49.2169 29.04 49.9876 31.0199C50.074 31.2723 50.1604 31.5182 50.2467 31.7706C50.4793 32.4417 50.7052 33.0795 50.8646 33.7438L50.9842 34.2089C51.0706 34.5145 51.1503 34.8135 51.2167 35.1058L51.4958 36.501C51.9409 38.8795 52.1602 41.3244 52.1535 43.9819H51.5224L51.4094 43.4238C50.9244 41.1583 50.2866 39.019 49.496 37.0657L48.9977 35.8499C48.8781 35.5975 48.7519 35.345 48.6323 35.0992L47.9746 33.7638L47.855 34.9198C47.2969 40.6069 45.2506 46.0349 42.5267 49.0777L42.241 49.3966L42.6197 49.5959C44.2009 50.4198 45.4233 51.8149 46.0213 53.4825H32.7337C33.0991 52.466 33.7037 51.5359 34.4943 50.7719L34.7534 50.5261L34.4877 50.2869C33.6373 49.5029 32.5809 48.5329 30.0762 48.5263C30.0695 48.5263 30.0695 48.5263 30.0629 48.5263C27.6047 48.5263 26.5018 49.3634 25.5186 50.1009L25.1996 50.3467L25.4986 50.6124C26.3756 51.403 27.0333 52.3863 27.4253 53.4825H14.1377C14.7689 51.7087 16.0977 50.2537 17.8184 49.4564L18.217 49.2704L17.9313 48.9382C15.2273 45.7558 12.9751 40.0887 12.3306 34.8401L12.1977 33.7239L11.5201 35.1058C11.4005 35.3516 11.2743 35.5975 11.1547 35.8632L10.6564 37.0724ZM38.3078 35.4247C38.3078 34.7138 38.2148 33.9897 38.0155 33.2721L37.9491 33.0263H22.2033L22.1369 33.2721C21.9442 33.9897 21.8445 34.7138 21.8445 35.4247C21.8445 39.9624 25.5385 43.6564 30.0762 43.6564C34.6205 43.6564 38.3078 39.9624 38.3078 35.4247Z" fill="#A18964"/>
<path d="M8.76341 43.3772C9.24177 41.1183 9.87957 38.9989 10.6569 37.0722L11.1552 35.863C11.2748 35.5973 11.401 35.3515 11.5206 35.1056L12.1983 33.7237L12.3311 34.8399C12.9756 40.0885 15.2278 45.7556 17.9318 48.938L18.2175 49.2702L17.8189 49.4562C16.0982 50.2535 14.7694 51.7085 14.1382 53.4824H27.4258C27.0338 52.3861 26.3761 51.4029 25.4991 50.6123L25.2002 50.3465L25.5191 50.1007C26.5023 49.3632 27.6052 48.5261 30.0634 48.5261C30.07 48.5261 30.07 48.5261 30.0767 48.5261C32.5814 48.5327 33.6378 49.5027 34.4882 50.2867L34.7539 50.5259L34.4948 50.7717C33.7042 51.5357 33.0996 52.4659 32.7342 53.4824H46.0218C45.4239 51.8148 44.2014 50.4196 42.6202 49.5957L42.2415 49.3964L42.5272 49.0775C45.2511 46.0347 47.2974 40.6067 47.8555 34.9196L47.9751 33.7636L48.6328 35.099C48.7524 35.3448 48.8786 35.5973 48.9982 35.8497L49.4965 37.0656C50.2871 39.0188 50.9249 41.1581 51.4099 43.4237L51.5229 43.9817L50.9847 43.809C50.6459 43.7027 50.3602 43.6562 50.0745 43.6562C48.4069 43.6562 47.0516 45.0115 47.0516 46.6791C47.0516 48.3467 48.4069 49.7087 50.0745 49.7087C51.7421 49.7087 53.0974 48.3467 53.0974 46.6791C53.0974 45.8952 52.7985 45.1511 52.247 44.5797L52.154 44.4867V44.3472C52.154 44.2276 52.154 44.1013 52.154 43.9817C52.1607 41.3242 51.9414 38.8793 51.4963 36.5008L51.2172 35.1056C51.1508 34.8133 51.0711 34.5143 50.9847 34.2087L50.8651 33.7437C50.7057 33.0793 50.4798 32.4415 50.2472 31.7705C50.1609 31.518 50.0745 31.2722 49.9881 31.0197C49.2175 29.0399 48.3471 27.339 47.3306 25.8176L47.2841 25.718C46.9386 24.4955 46.4736 23.4192 45.9088 22.5289L45.6099 22.0572L46.1613 22.0174C48.0016 21.8779 49.151 21.2334 49.151 20.7218C49.151 20.1505 47.809 19.4794 45.8025 19.3864L44.7794 19.3399L45.7627 18.6955C45.8424 18.649 45.9221 18.5958 46.0019 18.5427C46.8523 17.9314 47.5565 17.2272 47.9817 16.5562C48.3338 15.9914 48.4468 15.5065 48.274 15.2673C48.0614 14.9683 47.231 14.9152 45.9155 15.5131L45.8225 15.553L45.7228 15.533C45.384 15.4732 45.0784 15.44 44.7861 15.4267L43.7563 15.3736L44.62 14.8155C44.7196 14.7557 44.8126 14.6893 44.9123 14.6228C46.5068 13.4801 47.138 12.2111 46.8722 11.8457C46.6264 11.4936 45.3242 11.6464 43.7762 12.6961L43.6167 12.8024L43.3576 12.6563C43.3576 12.6629 43.2846 12.6696 43.2447 12.6696L42.8062 12.6961L42.9059 12.2643C43.2513 10.7894 43.052 9.73965 42.6667 9.61341C42.2415 9.47389 41.2449 10.3974 40.6071 12.2377L40.3613 12.942L40.0025 12.2909C38.0227 8.72979 34.2224 6.5174 30.0767 6.5174C26.1037 6.5174 22.4895 8.51054 20.4299 11.8524L20.0844 12.4038L19.8386 11.8059C19.1742 10.1848 18.3105 9.49382 17.9451 9.61341C17.5332 9.74629 17.3605 10.9089 17.7392 12.4104L17.9318 13.1546L17.2542 12.7825C17.1279 12.7094 17.0084 12.6762 16.8954 12.6762L16.7958 12.6696L16.716 12.6164C15.168 11.5999 13.9655 11.5135 13.733 11.8457C13.6001 12.0318 13.6998 12.4437 13.9921 12.9087C14.3575 13.4867 14.9621 14.0913 15.6995 14.6228C15.7925 14.6893 15.8922 14.7557 15.9852 14.8155L16.8489 15.3736L15.8191 15.4267C15.3939 15.4467 14.9754 15.4998 14.59 15.5928L14.4771 15.6128L14.3708 15.5662C13.0487 14.9351 12.1185 14.9417 11.8794 15.2673C11.7066 15.5065 11.8196 15.9914 12.1783 16.5562C12.6035 17.2272 13.3011 17.9314 14.1582 18.5427C14.2379 18.6025 14.3176 18.649 14.3974 18.7021L15.3806 19.3399L14.3508 19.3864C12.3511 19.4794 11.0024 20.1505 11.009 20.7218C11.009 21.2334 12.1517 21.8779 13.9921 22.0174L14.5435 22.0572L14.2512 22.5289C13.6798 23.4192 13.2214 24.4955 12.8759 25.718L12.8228 25.8243C11.8063 27.339 10.9359 29.0399 10.1586 31.033C10.0855 31.2722 9.99252 31.518 9.90615 31.7705C9.67361 32.4415 9.45437 33.0793 9.29492 33.737L9.16869 34.2087C9.08896 34.5143 9.00924 34.8133 8.93615 35.1189L8.66376 36.5008C8.21862 38.8527 7.99938 41.2777 8.00602 43.902C8.00602 44.0017 8.00602 44.108 8.00602 44.2076V44.3538L7.89308 44.4535C7.25527 45.0381 6.90315 45.8287 6.90315 46.6791C6.90315 48.3467 8.25849 49.7087 9.92608 49.7087C11.5937 49.7087 12.949 48.3467 12.949 46.6791C12.949 45.0115 11.5937 43.6562 9.92608 43.6562C9.69355 43.6562 9.45437 43.6894 9.16869 43.7625L8.65047 43.902L8.76341 43.3772ZM9.53409 30.8071C10.3313 28.7675 11.215 27.0334 12.2514 25.4854C12.557 24.4224 12.949 23.4591 13.4207 22.622C11.5604 22.3828 10.3446 21.6453 10.3446 20.7218C10.338 19.7983 11.5604 19.0609 13.4008 18.8084C12.6434 18.2105 12.0189 17.5527 11.6136 16.9083C11.0954 16.0845 10.9957 15.3603 11.3412 14.8819C11.8262 14.2043 13.0487 14.2242 14.5568 14.9152C14.6697 14.8952 14.7893 14.8753 14.9089 14.8554C14.2844 14.3504 13.7728 13.799 13.434 13.2675C12.9689 12.53 12.8826 11.8922 13.1948 11.4604C13.826 10.5701 15.5733 11.1083 16.9685 11.9919C16.7293 10.6233 16.8688 9.27458 17.7325 8.98225C18.6162 8.68328 19.5596 9.70643 20.1974 10.9887C22.4297 7.76644 26.0771 5.85303 30.0767 5.85303C34.2291 5.85303 38.0559 7.95246 40.2284 11.374C40.8861 9.86588 41.9292 8.66335 42.8793 8.98225C43.6433 9.24136 43.929 10.404 43.6433 11.9919C45.0983 11.0684 46.8058 10.6033 47.417 11.4604C48.0282 12.3174 47.0317 13.7791 45.6963 14.8554C45.7095 14.862 45.7228 14.862 45.7361 14.862C47.1977 14.2176 48.3471 14.2242 48.8188 14.8819C49.1577 15.3603 49.0647 16.0845 48.5398 16.9083C48.1345 17.5527 47.51 18.2105 46.7526 18.8084C48.5996 19.0609 49.8154 19.7983 49.8154 20.7218C49.8088 21.6453 48.5929 22.3828 46.7393 22.622C47.211 23.4657 47.603 24.4224 47.9086 25.4921C48.9517 27.0534 49.8353 28.7808 50.6127 30.7938C50.7057 31.0596 50.792 31.3054 50.8784 31.5512C51.1043 32.2089 51.3435 32.8933 51.5029 33.5842L51.6292 34.036C51.7089 34.3482 51.7952 34.6539 51.8683 34.9661L52.1474 36.3746C52.6191 38.866 52.8383 41.4372 52.8184 44.2209C53.4296 44.8986 53.7618 45.7689 53.7618 46.6791C53.7618 48.7188 52.1075 50.3731 50.0745 50.3731C48.0415 50.3731 46.3872 48.7188 46.3872 46.6791C46.3872 46.0413 46.5466 45.4434 46.8323 44.9252C47.4569 43.7758 48.6793 42.9918 50.0745 42.9918C50.2605 42.9918 50.4466 43.0117 50.6459 43.045C50.1874 41.0053 49.5962 39.0853 48.8853 37.318L48.387 36.1155C47.9817 39.1517 47.1712 42.0816 46.0617 44.5863C45.2777 46.3868 44.3343 47.9614 43.2912 49.2104C44.9854 50.207 46.2477 51.8347 46.7925 53.7215L46.9187 54.1467H31.8373L31.9569 53.7215C32.2957 52.5389 32.9269 51.4427 33.7839 50.5458C33.0332 49.8681 32.0898 49.1971 30.0767 49.1905C30.07 49.1905 30.0634 49.1905 30.0634 49.1905C28.0769 49.1905 27.087 49.7685 26.2366 50.3996C27.1601 51.3231 27.8377 52.4659 28.2031 53.7215L28.3227 54.1467H13.2413L13.3609 53.7215C13.9389 51.7085 15.3142 50.021 17.1612 49.0443C14.6764 45.9483 12.6102 40.8724 11.8262 35.9959C11.8063 36.0358 11.7863 36.0823 11.7664 36.1288L11.2748 37.318C10.5705 39.072 9.97922 40.9854 9.5208 43.0184C9.66032 42.9985 9.7932 42.9918 9.92607 42.9918C11.9591 42.9918 13.6134 44.6461 13.6134 46.6791C13.6134 48.7188 11.9591 50.3731 9.92607 50.3731C7.89307 50.3731 6.23877 48.7188 6.23877 46.6791C6.23877 45.6892 6.62411 44.7657 7.34164 44.0681C7.32835 41.3375 7.5476 38.8195 8.01266 36.3746L8.28506 34.9794C8.36478 34.6539 8.44451 34.3482 8.53088 34.036L8.65047 33.5776C8.81656 32.8933 9.05574 32.2089 9.28162 31.5512C9.368 31.3054 9.45437 31.0596 9.53409 30.8071Z" fill="black"/>
</svg>
