<svg width="49" height="58" viewBox="0 0 49 58" fill="none" xmlns="http://www.w3.org/2000/svg">
<path fill-rule="evenodd" clip-rule="evenodd" d="M16.4238 34.8115L32.3308 34.9575V50.5595L16.4238 50.4125V34.8115Z" fill="#302E33"/>
<path fill-rule="evenodd" clip-rule="evenodd" d="M46.6469 48.1246C43.7596 51.2232 40.2645 53.6933 36.3798 55.3806C32.4951 57.068 28.3042 57.9364 24.0689 57.9316C22.7863 57.9314 21.5048 57.8523 20.2319 57.6946C16.3281 57.1351 12.551 55.9021 9.06891 54.0506C6.12991 52.415 3.4763 50.3126 1.21191 47.8256L2.49591 44.7256L16.4209 38.5136C16.4209 43.0486 17.7309 48.5336 23.8599 48.6266C31.4299 48.7396 32.3299 43.1516 32.3299 38.4766L45.1199 44.7586L46.6469 48.1246Z" fill="#857A6E"/>
<path fill-rule="evenodd" clip-rule="evenodd" d="M24.6308 48.6264C21.2888 43.1544 15.2428 42.3394 13.2718 42.0264C7.85181 41.1664 -1.28819 37.7464 4.70781 32.3064C15.4728 22.5424 11.6058 10.2744 24.2208 10.2744C37.6908 10.2744 33.0938 22.5424 43.8588 32.3064C49.8558 37.7464 40.7158 41.1664 35.2938 42.0264C33.1317 42.2435 31.0475 42.9508 29.1998 44.0945C27.3521 45.2381 25.7895 46.7881 24.6308 48.6264Z" fill="#302E33"/>
<path opacity="0.18" fill-rule="evenodd" clip-rule="evenodd" d="M33.1328 38.3838C32.0078 42.3938 29.1248 44.7808 24.5348 44.5908C20.5948 44.4278 17.2378 42.1938 16.4248 38.3868L33.1328 38.3838Z" fill="black"/>
<path fill-rule="evenodd" clip-rule="evenodd" d="M24.298 4.56348C45.579 4.56348 37.285 39.8295 24.298 39.8295C12.031 39.8295 3.01701 4.56348 24.298 4.56348Z" fill="#FFE8BE"/>
<path fill-rule="evenodd" clip-rule="evenodd" d="M11.5338 20.1768C8.46375 21.5168 11.0738 27.8638 13.0058 27.8348C12.2045 25.3517 11.7101 22.7799 11.5338 20.1768ZM37.3088 20.1768C40.3788 21.5158 37.7688 27.8638 35.8378 27.8348C36.6385 25.3516 37.1325 22.7799 37.3088 20.1768Z" fill="#F9DCA4"/>
<path fill-rule="evenodd" clip-rule="evenodd" d="M12.2818 21.8377C9.45176 16.8797 9.49876 12.4627 10.9198 10.0207C12.9678 6.50069 15.8418 6.33269 16.2348 5.50369C20.2598 -2.97531 41.0738 3.45569 40.2048 16.5937C39.7805 15.717 39.2707 14.8842 38.6828 14.1077C38.6828 14.1077 38.6078 19.0987 37.2458 21.0647C35.6058 21.5287 22.1848 21.3037 17.1928 11.1167C13.1868 13.3847 12.1328 18.1317 12.2828 21.8367L12.2818 21.8377Z" fill="#969696"/>
<path fill-rule="evenodd" clip-rule="evenodd" d="M24.319 42.6749C21.659 42.6969 8.70205 38.6529 11.7091 16.6299C11.7091 16.6299 12.3591 26.5459 14.4841 29.4179C15.8661 31.2859 17.109 31.9879 18.304 30.1639C19.552 28.2639 22.2501 26.6909 24.3421 28.4869C26.0791 26.6369 29.1901 28.2749 30.4261 30.1639C31.621 31.9869 32.866 31.2869 34.248 29.4179C36.373 26.5459 36.8341 16.9619 36.8341 16.9619C40.2901 40.5619 26.979 42.6969 24.319 42.6749Z" fill="#969696"/>
<path fill-rule="evenodd" clip-rule="evenodd" d="M19.6958 32.9339C20.9129 31.703 22.5369 30.9579 24.2638 30.8379C25.9643 30.9887 27.5579 31.7316 28.7668 32.9369C27.9788 33.4619 22.8928 34.6739 19.6958 32.9339Z" fill="#FFE8BE"/>
<path fill-rule="evenodd" clip-rule="evenodd" d="M19.7799 47.4287C17.2498 45.8536 14.4945 44.673 11.6089 43.9277C6.83092 43.1697 -1.81408 42.4097 0.337919 33.8417C5.19192 14.5117 12.0189 -0.180327 24.6259 0.00167258C37.4619 0.185673 43.7159 15.8017 48.4659 33.8667C50.3699 41.1047 41.6759 43.1797 36.9579 43.9267C34.1623 44.5041 31.5126 45.642 29.1689 47.2717C22.2059 52.0367 27.3569 51.9717 19.7799 47.4297V47.4287ZM24.6309 48.6267C25.7896 46.7883 27.3522 45.2384 29.1999 44.0947C31.0476 42.951 33.1318 42.2438 35.2939 42.0267C40.7159 41.1667 49.8559 37.7467 43.8589 32.3067C33.0939 22.5427 37.6919 10.2747 24.2209 10.2747C11.6059 10.2747 15.4729 22.5427 4.70792 32.3067C-1.28908 37.7467 7.85092 41.1667 13.2719 42.0267C15.2419 42.3397 21.2889 43.1537 24.6319 48.6267H24.6309Z" fill="#A2896E"/>
<path fill-rule="evenodd" clip-rule="evenodd" d="M17.3711 46.3448C17.3711 46.3448 23.3591 49.6008 24.9591 54.3368C26.5691 49.2158 32.5861 46.0098 32.5861 46.0098C32.5861 46.0098 26.2391 48.4618 24.8691 51.6658C23.8961 49.9438 22.1621 48.2658 17.3721 46.3448H17.3711Z" fill="#302E33"/>
</svg>

