<svg width="44" height="56" viewBox="0 0 44 56" fill="none" xmlns="http://www.w3.org/2000/svg">
<path fill-rule="evenodd" clip-rule="evenodd" d="M43.666 47.073C37.8345 52.8203 29.9601 56.0179 21.7726 55.9631C13.5851 55.9084 5.75409 52.6058 0 46.781C0.735656 44.746 2.1646 43.0353 4.036 41.949C5.29762 41.0167 6.66554 40.2375 8.111 39.628C5.914 32.075 11.889 28.361 14.174 27.293C14.174 30.78 17.44 28.466 21.492 28.51C24.828 28.546 31.424 31.905 31.424 27.475C35.094 28.561 39.094 35.554 36.341 39.851C37.4701 40.4029 38.5368 41.074 39.523 41.853C41.4499 43.0796 42.9089 44.9179 43.666 47.073Z" fill="#4C4A4F"/>
<path fill-rule="evenodd" clip-rule="evenodd" d="M14.548 32.8438L30.237 32.9338V36.3717L30.229 36.4248C30.1576 37.0543 30.0233 37.6751 29.828 38.2778C28.678 42.0658 25.542 43.8697 21.866 45.6987C18.974 44.2007 14.886 41.5018 14.561 36.7278L14.548 36.6678V36.4678C14.5453 36.3991 14.5436 36.3304 14.543 36.2617C14.543 36.2967 14.546 36.3318 14.548 36.3668V32.8438Z" fill="#302E33"/>
<path opacity="0.22" fill-rule="evenodd" clip-rule="evenodd" d="M30.2329 32.8149V36.3949C30.2209 36.6755 30.178 36.9538 30.1049 37.2249C29.969 37.8417 29.7872 38.4474 29.5609 39.0369C28.2597 39.9968 26.7354 40.6092 25.1318 40.8165C23.5283 41.0238 21.8984 40.819 20.3959 40.2216C18.8934 39.6242 17.568 38.6538 16.5446 37.4019C15.5212 36.1501 14.8337 34.6582 14.5469 33.0669L30.2329 32.8149Z" fill="black"/>
<path fill-rule="evenodd" clip-rule="evenodd" d="M22.201 2.58691C43.482 2.58691 35.188 37.8529 22.201 37.8529C9.93501 37.8529 0.920011 2.58691 22.201 2.58691ZM10.869 43.3269C10.899 43.3649 21.288 56.8099 33.499 43.1259C32.024 47.1789 25.663 50.3959 22.023 50.3859C15.074 50.3659 11.227 44.7859 10.869 43.3259V43.3269Z" fill="#302E33"/>
<path fill-rule="evenodd" clip-rule="evenodd" d="M9.43707 18.2012C6.36707 19.5402 8.97707 25.8872 10.9091 25.8592C10.1077 23.3758 9.61335 20.8037 9.43707 18.2002V18.2012ZM35.2121 18.2002C38.2821 19.5392 35.6721 25.8872 33.7411 25.8582C34.5418 23.3751 35.0358 20.8033 35.2121 18.2002Z" fill="#302E33"/>
<path fill-rule="evenodd" clip-rule="evenodd" d="M22.578 24.8009C22.452 24.9279 22.788 24.9409 22.165 24.9229L21.095 24.2879C21.256 23.6269 21.938 23.3079 22.078 22.6339L21.23 21.8769C21.943 20.8469 22.452 21.4229 21.901 19.5769C21.075 16.8109 23.234 16.2849 21.068 11.8529C20.3669 10.3231 19.8694 8.70801 19.588 7.04891C18.681 2.78891 20.283 3.23591 20.968 2.62891C19.603 2.70399 18.2574 2.98587 16.977 3.46491C15.901 3.85184 14.8984 4.41855 14.012 5.14091C13.985 5.68291 14.914 5.49391 15.274 5.20991L18.055 3.77391C17.454 5.16691 17.072 5.66391 17.835 7.27891C18.507 8.70191 17.612 9.60691 16.678 10.2019C14.398 11.6519 10.338 11.0799 14.19 14.1619C14.5189 13.5874 14.9653 13.0888 15.5 12.6985C16.0346 12.3082 16.6456 12.0351 17.293 11.8969C17.6349 11.8896 17.9745 11.954 18.29 12.0858C18.6055 12.2177 18.8899 12.4141 19.1249 12.6625C19.3599 12.9109 19.5403 13.2057 19.6545 13.528C19.7687 13.8503 19.8142 14.193 19.788 14.5339C19.5812 15.5557 19.6647 16.6151 20.029 17.5919L20.506 18.2589C20.1232 18.4952 19.7533 18.7519 19.398 19.0279C19.7 19.3219 20.15 19.4469 20.403 19.7329C20.983 20.3879 20.683 21.9029 18.963 22.8269C17.457 23.6349 15.087 24.0869 14.621 25.4929C14.948 25.7559 15.131 25.7869 15.44 26.0229C15.792 26.2929 15.853 26.4829 16.215 26.7169C16.632 26.3389 18.119 24.3239 19.621 24.3319C19.773 25.0939 18.14 25.6539 17.239 27.2159C16.979 27.6669 16.866 28.0339 16.481 28.2489C15.961 27.9889 15.437 26.5949 14.222 26.0449C13.601 26.6089 13.672 26.7039 14.13 27.3249C14.759 28.1779 16.55 30.8759 17.012 31.2669C18.067 30.0749 17.193 30.6069 19.005 29.1439C19.76 29.5339 20.305 30.7039 21.775 30.8719V31.0229C24.83 30.7059 24.394 29.8829 25.647 29.1509C27.274 30.4759 26.676 30.2239 27.64 31.2799C28.6625 30.0452 29.6118 28.7516 30.483 27.4059C30.637 27.1869 30.907 26.9269 30.908 26.7049L30.43 25.9969C30.4 26.0129 30.355 26.0089 30.34 26.0469C30.327 26.0849 30.272 26.0869 30.253 26.0979L29.193 26.9939C28.8863 27.4307 28.5445 27.8417 28.171 28.2229C27.563 27.8629 27.615 27.1569 26.653 26.2009C26.313 25.8629 26.058 25.6059 25.719 25.3239C25.401 25.0589 24.985 24.8839 25.035 24.3409C26.52 24.3379 27.998 26.4179 28.437 26.7589L30.037 25.4929C29.604 23.5229 24.85 23.5309 24.123 21.1529C23.678 19.6929 24.591 19.5389 24.993 19.2559C25.229 19.0889 25.122 19.1739 25.253 19.0279C24.978 18.7489 24.59 18.5209 24.28 18.2609C24.522 17.3209 25.026 18.1609 24.925 15.3009C24.865 13.5969 24.484 13.6259 25.712 12.6149C26.579 11.9029 27.055 11.5769 28.512 12.2849C29.485 12.7559 29.688 13.3969 30.43 14.1199C31.133 13.8479 32.925 12.2439 31.55 11.5289C30.929 11.2059 29.087 10.9519 27.908 10.1489C26.793 9.39091 26.253 8.42191 26.915 7.13891C27.171 6.59235 27.271 5.98567 27.204 5.38586C27.1369 4.78605 26.9054 4.21644 26.535 3.73991C27.0737 3.9578 27.5931 4.22038 28.088 4.52491C28.342 4.66191 30.958 6.42491 30.597 5.28491C29.7216 4.56263 28.7474 3.96928 27.704 3.52291C26.4492 3.08084 25.1459 2.79078 23.822 2.65891C24.271 2.96191 25.209 3.21291 25.291 4.55591C25.1799 7.13137 24.5721 9.6611 23.501 12.0059C21.388 16.3559 23.571 16.3759 22.674 19.7499C22.277 21.2449 22.71 21.0319 23.397 21.8769C23.119 22.2839 22.86 22.3449 22.569 22.6439C22.714 23.3559 23.382 23.6569 23.527 24.2879C23.2617 24.5407 22.9338 24.7181 22.577 24.8019L22.578 24.8009ZM13.12 25.8809C12.2689 25.1237 11.531 24.2481 10.929 23.2809C10.425 22.3609 10.257 20.0939 10.923 19.4609C11.788 20.3969 12.121 21.7709 13.155 22.5389C14.404 23.4689 14.594 24.1169 13.12 25.8809ZM31.493 25.8839C29.881 23.6259 30.339 23.4989 31.503 22.5409C32.58 21.6549 32.858 20.2959 33.503 19.7039C33.789 19.4419 33.566 19.5839 33.883 19.4789C35.303 22.3609 32.11 25.7239 31.493 25.8839ZM22.067 35.3549L21.772 36.5649C20.805 35.5099 21.69 34.9599 21.75 34.1549C21.816 33.2749 20.817 32.2509 22.122 31.8609L22.366 31.8139C23.788 32.0139 22.881 33.2439 22.88 34.0319C22.879 35.1539 23.69 34.8159 22.993 36.4649L22.591 35.2619L22.253 35.1759L22.067 35.3559V35.3549ZM21.316 31.3939C22.112 31.4139 24.486 31.2739 24.866 31.6209C25.626 32.3109 24.633 33.5259 24.612 34.2589C24.58 35.3219 25.55 35.7429 25.206 36.8389C24.751 37.8419 23.636 37.6259 22.242 37.7369C21.93 37.7569 21.574 37.7749 21.262 37.7819C18.172 37.5789 20.109 35.2529 20.044 34.2569C20.027 33.5689 19.529 33.1299 19.534 32.3949C19.542 31.3409 20.152 31.3929 21.316 31.3939ZM19.41 17.7109C19.3871 17.8885 19.3205 18.0577 19.2164 18.2034C19.1122 18.3491 18.9736 18.4667 18.813 18.5459C17.875 19.0689 16.016 17.7699 15.421 17.3809C13.258 15.9659 12.786 18.9289 12.097 19.6399C10.915 18.9609 11.494 17.5469 11.254 16.1939C11.075 15.1809 10.429 14.3059 10.249 13.0039C9.89601 10.4639 11.309 8.17591 12.446 6.72691L12.736 7.01391C12.125 7.70991 9.72401 10.3919 11.528 11.4979C13.059 12.4369 11.498 14.0059 12.633 14.9679C13.016 15.2939 12.986 15.1989 13.651 15.2639C14.619 15.3589 14.725 15.4769 16.031 14.0539C16.481 13.5639 16.604 13.0189 17.145 12.8079C17.87 13.2009 17.963 14.4579 18.035 15.3029C18.163 16.7739 17.798 16.8109 18.81 17.2159C19.385 17.4459 19.196 17.3409 19.41 17.7109ZM32.836 8.38091C32.253 7.59091 31.377 7.46091 32.128 6.84291C33.371 8.37691 34.72 10.4869 34.395 13.0869C34.22 14.4919 33.57 15.1769 33.398 16.3229C33.161 17.9029 33.825 18.7109 32.556 19.6689C31.952 19.0829 31.406 15.9889 29.165 17.4339C24.959 20.1469 25.25 17.5299 25.275 17.4949C25.611 17.2649 26.253 17.1089 26.436 16.8349C26.813 16.2769 26.255 13.4149 27.507 12.7929C28.04 12.9939 29.043 14.7759 29.905 15.1879C30.2497 15.298 30.614 15.3334 30.9734 15.2919C31.3329 15.2503 31.6795 15.1327 31.99 14.9469C33.167 13.9309 31.568 12.3959 33.11 11.4749C34.29 10.7699 33.473 9.24591 32.836 8.38191V8.38091ZM22.329 26.6049L22.498 26.5939C23.163 26.3259 23.366 25.8259 24.053 25.4509C24.5038 25.4493 24.9434 25.5904 25.3092 25.8539C25.6749 26.1174 25.9478 26.4898 26.089 26.9179C25.996 27.3569 23.945 28.4329 22.803 29.3939C22.405 29.7299 22.737 29.6399 22.193 29.6739C21.7525 29.2914 21.2904 28.9345 20.809 28.6049C19.477 27.7909 17.933 27.1599 18.864 26.2579C19.3313 25.7876 19.9416 25.4858 20.599 25.3999C21.152 25.7959 21.709 26.4949 22.329 26.6049Z" fill="#ED4B39"/>
<path fill-rule="evenodd" clip-rule="evenodd" d="M24.1192 5.898C24.1226 5.94267 24.1242 5.98833 24.1242 6.035C24.1242 6.51239 23.9346 6.97023 23.597 7.30779C23.2595 7.64536 22.8016 7.835 22.3242 7.835C21.8469 7.835 21.389 7.64536 21.0515 7.30779C20.7139 6.97023 20.5242 6.51239 20.5242 6.035C20.5242 5.98833 20.5259 5.94267 20.5292 5.898H20.5242C20.7692 3.658 21.7642 1.966 22.3842 0C22.9642 1.966 23.8442 3.52 24.1242 5.898H24.1192ZM32.1852 6.55C32.1782 6.589 32.1702 6.629 32.1612 6.668C32.1124 6.87063 32.0241 7.06165 31.9014 7.23016C31.7788 7.39867 31.6241 7.54137 31.4463 7.65011C31.2684 7.75885 31.0709 7.83149 30.865 7.8639C30.6591 7.89631 30.4489 7.88785 30.2462 7.839C30.0436 7.79015 29.8526 7.70186 29.6841 7.57919C29.5156 7.45651 29.3729 7.30185 29.2641 7.12402C29.1554 6.9462 29.0828 6.7487 29.0503 6.5428C29.0179 6.3369 29.0264 6.12663 29.0752 5.924C29.0881 5.88594 29.0975 5.84678 29.1032 5.807C30.4266 4.5169 31.3956 2.90798 31.9172 1.135C32.6302 2.85486 32.7263 4.76837 32.1892 6.551L32.1852 6.55ZM12.3982 6.559C12.4042 6.599 12.4122 6.639 12.4222 6.678C12.521 7.08723 12.7784 7.44045 13.1376 7.65996C13.3155 7.76865 13.513 7.84125 13.7189 7.8736C13.9248 7.90594 14.1351 7.89742 14.3377 7.8485C14.5404 7.79958 14.7314 7.71123 14.8999 7.5885C15.0684 7.46576 15.211 7.31104 15.3197 7.13317C15.4284 6.9553 15.501 6.75776 15.5333 6.55184C15.5657 6.34591 15.5572 6.13563 15.5082 5.933C15.495 5.89498 15.4853 5.85582 15.4792 5.816C14.1563 4.52576 13.1876 2.91685 12.6662 1.144C11.953 2.86374 11.8565 4.77725 12.3932 6.56L12.3982 6.559Z" fill="#E6E6E6"/>
</svg>
