<svg width="57" height="53" viewBox="0 0 57 53" fill="none" xmlns="http://www.w3.org/2000/svg">
<path d="M12.2706 36.1165L0 38.6757L5.59583 40.8865L1.36486 46.2115H7.64307L7.23357 52.6097L18.3367 40.8865L15.3036 35.4722L12.2706 36.1165Z" fill="#5C3B72"/>
<path d="M44.4899 36.1165L56.7605 38.6757L51.1647 40.8865L55.3956 46.2115H49.1174L49.5269 52.6097L38.4238 40.8865L41.4569 35.4722L44.4899 36.1165Z" fill="#5C3B72"/>
<path d="M21.0632 14.9932H35.692C38.2559 14.9932 40.7148 16.0543 42.5278 17.943C44.3408 19.8317 45.3593 22.3934 45.3593 25.0644V32.6844C45.3593 35.0076 44.9201 37.3081 44.0667 39.4545C43.2134 41.6009 41.9625 43.5511 40.3857 45.1939C38.8088 46.8367 36.9368 48.1398 34.8765 49.0289C32.8162 49.9179 30.6079 50.3755 28.3779 50.3755C23.8741 50.3755 19.5548 48.5117 16.3702 45.194C13.1856 41.8764 11.3965 37.3767 11.3965 32.6848V25.0644C11.3965 22.3933 12.415 19.8317 14.228 17.943C16.041 16.0542 18.4999 14.9932 21.0639 14.9932H21.0632Z" fill="#F4DCC6"/>
<path d="M28.3787 49.0885C23.875 49.0885 19.5557 47.2246 16.3711 43.907C13.1864 40.5893 11.3973 36.0896 11.3973 31.3977V32.6847C11.3973 35.0078 11.8365 37.3083 12.6899 39.4546C13.5433 41.601 14.7941 43.5512 16.371 45.194C17.9479 46.8367 19.8199 48.1398 21.8802 49.0289C23.9405 49.9179 26.1487 50.3755 28.3787 50.3755C32.8825 50.3755 37.2017 48.5117 40.3864 45.194C43.571 41.8764 45.3601 37.3767 45.3601 32.6848V31.3974C45.3602 33.7206 44.921 36.021 44.0676 38.1674C43.2142 40.3138 41.9634 42.2641 40.3865 43.9068C38.8096 45.5496 36.9376 46.8527 34.8773 47.7418C32.817 48.6309 30.6088 49.0885 28.3787 49.0885ZM35.6928 14.9932H21.064C19.7945 14.9931 18.5374 15.2536 17.3644 15.7597C16.1915 16.2659 15.1258 17.0077 14.2281 17.9429C13.3304 18.8781 12.6183 19.9883 12.1324 21.2102C11.6466 22.4321 11.3965 23.7417 11.3965 25.0643V25.3256H45.3601V25.0643C45.3601 22.3933 44.3416 19.8316 42.5286 17.9429C40.7157 16.0542 38.2567 14.9932 35.6928 14.9932Z" fill="#C99673"/>
<path d="M19.3818 35.4732C22.4241 35.4732 24.8905 32.9039 24.8905 29.7344C24.8905 26.565 22.4241 23.9956 19.3818 23.9956C16.3394 23.9956 13.873 26.565 13.873 29.7344C13.873 32.9039 16.3394 35.4732 19.3818 35.4732Z" fill="#ECF0F1"/>
<path d="M19.3818 23.9956C17.9208 23.9956 16.5196 24.6002 15.4865 25.6765C14.4534 26.7527 13.873 28.2124 13.873 29.7344H24.8903C24.8904 28.9808 24.7479 28.2345 24.4711 27.5383C24.1942 26.842 23.7885 26.2094 23.277 25.6765C22.7654 25.1436 22.1582 24.7209 21.4898 24.4324C20.8215 24.144 20.1052 23.9956 19.3818 23.9956Z" fill="#BDC3C7"/>
<path d="M19.3822 34.1416C21.4551 34.1416 23.1355 32.1682 23.1355 29.7339C23.1355 27.2996 21.4551 25.3262 19.3822 25.3262C17.3093 25.3262 15.6289 27.2996 15.6289 29.7339C15.6289 32.1682 17.3093 34.1416 19.3822 34.1416Z" fill="#414141"/>
<path d="M19.378 31.9548C20.4228 31.9548 21.2697 30.9601 21.2697 29.7332C21.2697 28.5063 20.4228 27.5117 19.378 27.5117C18.3333 27.5117 17.4863 28.5063 17.4863 29.7332C17.4863 30.9601 18.3333 31.9548 19.378 31.9548Z" fill="#ECF0F1"/>
<path d="M37.3798 35.4732C40.4222 35.4732 42.8885 32.9039 42.8885 29.7344C42.8885 26.565 40.4222 23.9956 37.3798 23.9956C34.3374 23.9956 31.8711 26.565 31.8711 29.7344C31.8711 32.9039 34.3374 35.4732 37.3798 35.4732Z" fill="#ECF0F1"/>
<path d="M37.3798 23.9956C36.6564 23.9956 35.94 24.144 35.2717 24.4324C34.6033 24.7208 33.9961 25.1435 33.4845 25.6764C32.973 26.2093 32.5672 26.842 32.2904 27.5383C32.0136 28.2345 31.8711 28.9808 31.8711 29.7344H42.8884C42.8884 28.9808 42.7459 28.2345 42.4691 27.5383C42.1923 26.842 41.7865 26.2094 41.275 25.6765C40.7635 25.1436 40.1562 24.7209 39.4879 24.4324C38.8195 24.144 38.1032 23.9956 37.3798 23.9956Z" fill="#BDC3C7"/>
<path d="M37.3802 34.1416C39.4531 34.1416 41.1335 32.1682 41.1335 29.7339C41.1335 27.2996 39.4531 25.3262 37.3802 25.3262C35.3074 25.3262 33.627 27.2996 33.627 29.7339C33.627 32.1682 35.3074 34.1416 37.3802 34.1416Z" fill="#414141"/>
<path d="M37.378 31.9548C38.4228 31.9548 39.2697 30.9601 39.2697 29.7332C39.2697 28.5063 38.4228 27.5117 37.378 27.5117C36.3333 27.5117 35.4863 28.5063 35.4863 29.7332C35.4863 30.9601 36.3333 31.9548 37.378 31.9548Z" fill="#ECF0F1"/>
<path d="M16.9334 31.0139C17.6119 31.0139 18.1618 30.441 18.1618 29.7343C18.1618 29.0275 17.6119 28.4546 16.9334 28.4546C16.255 28.4546 15.7051 29.0275 15.7051 29.7343C15.7051 30.441 16.255 31.0139 16.9334 31.0139Z" fill="#ECF0F1"/>
<path d="M34.9334 31.0139C35.6119 31.0139 36.1618 30.441 36.1618 29.7343C36.1618 29.0275 35.6119 28.4546 34.9334 28.4546C34.255 28.4546 33.7051 29.0275 33.7051 29.7343C33.7051 30.441 34.255 31.0139 34.9334 31.0139Z" fill="#ECF0F1"/>
<path d="M28.964 37.7381L30.8594 35.4941C30.9588 35.3764 31.0235 35.2314 31.0457 35.0765C31.068 34.9215 31.0469 34.7631 30.9849 34.6204C30.9229 34.4776 30.8227 34.3565 30.6963 34.2715C30.5698 34.1866 30.4226 34.1415 30.2722 34.1416H26.4814C26.331 34.1415 26.1837 34.1866 26.0573 34.2715C25.9309 34.3565 25.8307 34.4776 25.7687 34.6204C25.7067 34.7631 25.6856 34.9215 25.7078 35.0765C25.7301 35.2314 25.7948 35.3764 25.8942 35.4941L27.7896 37.7381C27.8629 37.825 27.9533 37.8947 28.0545 37.9424C28.1558 37.9902 28.2656 38.0149 28.3768 38.0149C28.4879 38.0149 28.5978 37.9902 28.6991 37.9424C28.8003 37.8947 28.8906 37.825 28.964 37.7381Z" fill="#C99673"/>
<path d="M24.8938 30.2846C24.8244 30.2846 24.7556 30.2703 24.6914 30.2426C24.6273 30.2149 24.569 30.1743 24.5198 30.1232C24.4707 30.072 24.4318 30.0113 24.4052 29.9444C24.3786 29.8776 24.3649 29.806 24.3649 29.7336C24.3682 29.0502 24.2417 28.3729 23.9929 27.7405C23.7441 27.1081 23.3778 26.5332 22.9151 26.0488C22.4523 25.5644 21.9023 25.1799 21.2965 24.9176C20.6907 24.6553 20.0412 24.5203 19.3852 24.5203C18.7291 24.5203 18.0796 24.6553 17.4738 24.9176C16.868 25.1799 16.318 25.5644 15.8552 26.0488C15.3925 26.5332 15.0262 27.1081 14.7774 27.7405C14.5286 28.3729 14.4022 29.0502 14.4054 29.7336C14.4054 29.8797 14.3496 30.0199 14.2505 30.1232C14.1513 30.2265 14.0168 30.2846 13.8765 30.2846C13.7363 30.2846 13.6017 30.2265 13.5026 30.1232C13.4034 30.0199 13.3477 29.8797 13.3477 29.7336C13.3477 28.0655 13.9838 26.4656 15.116 25.2861C16.2483 24.1065 17.784 23.4438 19.3852 23.4438C20.9865 23.4438 22.5222 24.1065 23.6544 25.2861C24.7867 26.4656 25.4228 28.0655 25.4228 29.7336C25.4227 29.8797 25.367 30.0199 25.2678 30.1232C25.1686 30.2265 25.0341 30.2846 24.8938 30.2846ZM42.8905 30.2846C42.7502 30.2846 42.6157 30.2265 42.5165 30.1232C42.4173 30.0199 42.3615 29.8797 42.3615 29.7336C42.3647 29.0502 42.2383 28.3729 41.9895 27.7405C41.7407 27.1081 41.3744 26.5332 40.9116 26.0488C40.4489 25.5644 39.8988 25.1799 39.2931 24.9176C38.6873 24.6553 38.0377 24.5203 37.3817 24.5203C36.7257 24.5203 36.0761 24.6553 35.4704 24.9176C34.8646 25.1799 34.3145 25.5644 33.8518 26.0488C33.3891 26.5332 33.0228 27.1081 32.774 27.7405C32.5251 28.3729 32.3987 29.0502 32.4019 29.7336C32.4019 29.8797 32.3462 30.0199 32.247 30.1232C32.1478 30.2265 32.0133 30.2846 31.8731 30.2846C31.7328 30.2846 31.5983 30.2265 31.4991 30.1232C31.3999 30.0199 31.3442 29.8797 31.3442 29.7336C31.3442 28.9076 31.5004 28.0897 31.8038 27.3266C32.1072 26.5635 32.5519 25.8701 33.1126 25.2861C33.6732 24.702 34.3388 24.2387 35.0713 23.9226C35.8038 23.6065 36.5889 23.4438 37.3818 23.4438C38.1746 23.4438 38.9597 23.6065 39.6922 23.9226C40.4248 24.2387 41.0903 24.702 41.651 25.2861C42.2116 25.8701 42.6563 26.5635 42.9598 27.3266C43.2632 28.0897 43.4193 28.9076 43.4193 29.7336C43.4193 29.806 43.4057 29.8776 43.3791 29.9444C43.3525 30.0113 43.3135 30.072 43.2644 30.1232C43.2153 30.1743 43.157 30.2149 43.0929 30.2426C43.0287 30.2703 42.9599 30.2846 42.8905 30.2846Z" fill="#414141"/>
<path d="M35.6653 21.7452C37.7162 21.3257 39.269 20.4027 39.1334 19.6835C38.9979 18.9644 37.2254 18.7214 35.1745 19.1409C33.1236 19.5604 31.5708 20.4834 31.7063 21.2025C31.8418 21.9217 33.6143 22.1646 35.6653 21.7452Z" fill="#5C3B72"/>
<path d="M24.9909 21.2017C25.1264 20.4826 23.5736 19.5595 21.5227 19.1401C19.4717 18.7206 17.6993 18.9636 17.5637 19.6827C17.4282 20.4019 18.981 21.3249 21.0319 21.7444C23.0829 22.1638 24.8553 21.9209 24.9909 21.2017Z" fill="#5C3B72"/>
<path d="M28.089 0.00199494C16.1384 0.163421 6.63135 10.5417 6.63135 22.9926V38.9922C6.63138 40.6645 7.04024 42.3094 7.81939 43.7716C8.59854 45.2338 9.72231 46.4651 11.0847 47.3496V40.8871L19.3791 44.1272C16.4923 40.8986 14.8873 36.6502 14.8873 32.2378V32.2371C14.8871 31.0198 15.0308 29.8071 15.3151 28.6264L17.8198 18.2332C17.8759 18.0004 17.9879 17.7863 18.1454 17.611C18.3029 17.4358 18.5006 17.3052 18.7199 17.2315C18.9392 17.1578 19.1728 17.1435 19.3989 17.1899C19.625 17.2362 19.836 17.3418 20.0121 17.4966L28.3777 24.8509L36.7438 17.4975C36.9199 17.3427 37.1309 17.2371 37.357 17.1907C37.5831 17.1443 37.8168 17.1587 38.0361 17.2323C38.2554 17.306 38.453 17.4366 38.6105 17.6119C38.768 17.7871 38.88 18.0012 38.9361 18.2341L41.3977 28.4519C41.6957 29.6574 41.8535 30.8958 41.8677 32.1406C41.8915 36.5864 40.285 40.874 37.3763 44.1272L45.6707 40.8871V47.3496C47.0331 46.4651 48.1569 45.2337 48.936 43.7715C49.7151 42.3094 50.124 40.6645 50.124 38.9922V22.6546C50.124 19.6543 49.5518 16.6838 48.4409 13.9157C47.3299 11.1475 45.7022 8.63688 43.6522 6.52944C41.6022 4.422 39.1708 2.75977 36.4992 1.63923C33.8275 0.518694 30.9688 -0.03782 28.089 0.00199494Z" fill="#81519B"/>
<path d="M45.7932 9.08838L41.5818 13.476L40.1613 11.9963L35.6621 16.6834L34.2694 15.2328L30.3768 19.2881L28.3779 17.2055L26.3789 19.2881L22.4861 15.2328L21.0938 16.6834L16.5943 11.9963L15.1739 13.476L11.0324 9.16129C9.60808 11.1554 8.50111 13.3754 7.75391 15.736L10.702 18.8072L12.1225 17.3275L16.5937 21.9856L17.0224 21.5392L17.8189 18.2324C17.8751 17.9996 17.9871 17.7854 18.1446 17.6102C18.302 17.435 18.4997 17.3043 18.719 17.2307C18.9383 17.157 19.172 17.1427 19.3981 17.189C19.6242 17.2354 19.8352 17.341 20.0113 17.4958L28.3779 24.8507L36.7439 17.4973C36.92 17.3425 37.131 17.2369 37.3571 17.1905C37.5832 17.1442 37.8169 17.1585 38.0362 17.2322C38.2555 17.3058 38.4532 17.4365 38.6106 17.6117C38.7681 17.7869 38.8802 18.0011 38.9363 18.2339L39.733 21.5409L40.1612 21.9871L44.6328 17.329L46.0529 18.8087L49.0664 15.6695C48.3306 13.303 47.2246 11.0794 45.7932 9.08838Z" fill="#9462B5"/>
<path d="M28.9535 46.2629C29.133 45.746 28.7107 45.1129 28.0102 44.8489C27.3097 44.5849 26.5963 44.7899 26.4168 45.3068C26.2373 45.8237 26.6597 46.4567 27.3601 46.7207C28.0606 46.9847 28.774 46.7798 28.9535 46.2629Z" fill="#C99673"/>
<path d="M25.9239 43.3632C26.3569 43.3116 26.7939 43.3082 27.2275 43.3531C27.2795 43.3584 27.3314 43.3644 27.3833 43.3714C27.2794 43.3576 27.445 43.3817 27.4497 43.3825C27.5528 43.3997 27.6556 43.4195 27.7579 43.4421C27.9711 43.489 28.1818 43.5473 28.3891 43.6169C28.4888 43.6502 28.5875 43.6861 28.6853 43.7246C28.7342 43.7439 28.7828 43.7638 28.8312 43.7842C28.8655 43.7989 28.8636 43.7978 28.8256 43.7812C28.8576 43.7956 28.8895 43.8102 28.9215 43.825C29.1122 43.9144 29.2982 44.0135 29.4796 44.1224C29.6606 44.2311 29.8363 44.3494 30.0058 44.4768C30.0481 44.5087 30.0897 44.5407 30.1316 44.5741C30.0607 44.517 30.1752 44.6115 30.1885 44.6229C30.2829 44.7034 30.3744 44.7873 30.4642 44.8735C30.5634 44.9768 30.6979 45.0348 30.8382 45.0348C30.9785 45.0348 31.113 44.9767 31.2122 44.8734C31.3113 44.7701 31.3671 44.6299 31.367 44.4838C31.367 44.3376 31.3113 44.1975 31.2121 44.0942C30.5054 43.4161 29.6685 42.9021 28.7569 42.5862C27.8453 42.2702 26.8797 42.1595 25.9239 42.2613C25.6499 42.2935 25.3813 42.4915 25.395 42.8122C25.407 43.0829 25.6294 43.3979 25.9239 43.3632Z" fill="#414141"/>
</svg>
