<svg width="40" height="40" viewBox="0 0 40 40" fill="none" xmlns="http://www.w3.org/2000/svg">
<path d="M37.0001 24L35.0001 22.8333C32.8334 21.5 32.8334 18.3333 35.0001 17L37.0001 15.8333C38.6667 14.8333 39.1667 12.8333 38.1667 11.3333L36.5001 8.5C35.5001 6.83333 33.5001 6.33333 32.0001 7.33333L30.0001 8.5C27.8334 9.83333 25.0001 8.16667 25.0001 5.66667V3.33333C25.0001 1.5 23.5001 0 21.6667 0H18.3334C16.5001 0 15.0001 1.5 15.0001 3.33333V5.5C15.0001 8 12.1667 9.66667 10.0001 8.33333L8.00007 7.33333C6.3334 6.33333 4.3334 7 3.50007 8.5L1.8334 11.3333C1.00007 13 1.50007 15 3.00007 16L5.00007 17.1667C7.16673 18.3333 7.16673 21.6667 5.00007 22.8333L3.00007 24C1.3334 25 0.8334 27 1.8334 28.5L3.50007 31.3333C4.50007 33 6.50007 33.5 8.00007 32.5L10.0001 31.5C12.1667 30.1667 15.0001 31.8333 15.0001 34.3333V36.6667C15.0001 38.5 16.5001 40 18.3334 40H21.6667C23.5001 40 25.0001 38.5 25.0001 36.6667V34.5C25.0001 32 27.8334 30.3333 30.0001 31.6667L32.0001 32.8333C33.6667 33.8333 35.6667 33.1667 36.5001 31.6667L38.1667 28.8333C39.0001 27 38.5001 25 37.0001 24ZM20.0001 26.6667C16.3334 26.6667 13.3334 23.6667 13.3334 20C13.3334 16.3333 16.3334 13.3333 20.0001 13.3333C23.6667 13.3333 26.6667 16.3333 26.6667 20C26.6667 23.6667 23.6667 26.6667 20.0001 26.6667Z" fill="#6CFF77"/>
</svg>
