<svg width="40" height="40" viewBox="0 0 40 40" fill="none" xmlns="http://www.w3.org/2000/svg">
<path d="M19.9978 39.6951C30.8886 39.6951 39.7174 30.8664 39.7174 19.9756C39.7174 9.08477 30.8886 0.256042 19.9978 0.256042C9.10705 0.256042 0.27832 9.08477 0.27832 19.9756C0.27832 30.8664 9.10705 39.6951 19.9978 39.6951Z" fill="url(#paint0_linear_2_3549)"/>
<path d="M26.9782 14.6395C27.8243 14.6395 28.5102 13.9537 28.5102 13.1076C28.5102 12.2615 27.8243 11.5757 26.9782 11.5757C26.1322 11.5757 25.4463 12.2615 25.4463 13.1076C25.4463 13.9537 26.1322 14.6395 26.9782 14.6395Z" fill="white"/>
<path d="M20.1677 13.5403C16.6194 13.5403 13.7324 16.4272 13.7324 19.9756C13.7324 23.524 16.6194 26.4108 20.1677 26.4108C23.7161 26.4108 26.6029 23.524 26.6029 19.9756C26.6029 16.4272 23.7161 13.5403 20.1677 13.5403ZM20.1677 24.0978C17.8947 24.0978 16.0454 22.2487 16.0454 19.9756C16.0454 17.7026 17.8947 15.8534 20.1677 15.8534C22.4408 15.8534 24.2898 17.7026 24.2898 19.9756C24.2898 22.2487 22.4408 24.0978 20.1677 24.0978Z" fill="white"/>
<path d="M25.2766 33.041H14.844C10.516 33.041 6.99512 29.52 6.99512 25.192V14.759C6.99512 10.431 10.516 6.9101 14.844 6.9101H25.2766C29.6046 6.9101 33.126 10.431 33.126 14.759V25.192C33.126 29.52 29.6046 33.041 25.2766 33.041ZM14.844 9.36843C11.8715 9.36843 9.45345 11.7864 9.45345 14.759V25.192C9.45345 28.1646 11.8715 30.5826 14.844 30.5826H25.2766C28.2492 30.5826 30.6676 28.1646 30.6676 25.192V14.759C30.6676 11.7864 28.2492 9.36843 25.2766 9.36843H14.844Z" fill="white"/>
<defs>
<linearGradient id="paint0_linear_2_3549" x1="3.18243" y1="36.791" x2="45.7983" y2="-5.82488" gradientUnits="userSpaceOnUse">
<stop offset="0.0011" stop-color="#FBE18A"/>
<stop offset="0.2094" stop-color="#FCBB45"/>
<stop offset="0.3765" stop-color="#F75274"/>
<stop offset="0.5238" stop-color="#D53692"/>
<stop offset="0.7394" stop-color="#8F39CE"/>
<stop offset="1" stop-color="#5B4FE9"/>
</linearGradient>
</defs>
</svg>
