<svg width="40" height="40" viewBox="0 0 40 40" fill="none" xmlns="http://www.w3.org/2000/svg">
<path d="M2.29169 20.9402L1.3877 28.3992L2.60928 27.2907L3.50502 31.5893L6.8169 28.322L4.60186 20.9402H2.29169Z" fill="#198C76"/>
<path d="M37.6561 20.9402L38.5602 28.3992L37.3386 27.2907L36.4427 31.5893L33.1309 28.322L35.346 20.9402H37.6561Z" fill="#198C76"/>
<path d="M13.4684 12.1302H26.5615C28.8563 12.1303 31.0571 12.9524 32.6798 14.4158C34.3024 15.8792 35.214 17.8639 35.214 19.9335V25.8375C35.214 27.6375 34.8209 29.4199 34.0571 31.0829C33.2934 32.746 32.1738 34.257 30.7625 35.5299C29.3511 36.8027 27.6756 37.8124 25.8316 38.5012C23.9876 39.1901 22.0112 39.5446 20.0152 39.5446C15.9842 39.5446 12.1184 38.1005 9.26803 35.53C6.4177 32.9594 4.81641 29.473 4.81641 25.8378V19.9335C4.81641 17.864 5.72793 15.8793 7.35046 14.416C8.973 12.9526 11.1737 12.1304 13.4684 12.1302Z" fill="#F4DCC6"/>
<path d="M20.0152 38.5473C15.9842 38.5473 12.1184 37.1032 9.26803 34.5327C6.4177 31.9622 4.81641 28.4758 4.81641 24.8405V25.8374C4.81636 27.6374 5.20946 29.4199 5.97325 31.0829C6.73705 32.7459 7.85657 34.257 9.26792 35.5298C10.6793 36.8026 12.3548 37.8123 14.1988 38.5011C16.0428 39.19 18.0192 39.5445 20.0152 39.5445C24.0462 39.5445 27.912 38.1004 30.7624 35.5299C33.6127 32.9594 35.214 29.473 35.214 25.8377V24.8402C35.214 26.6402 34.8209 28.4227 34.0572 30.0857C33.2934 31.7487 32.1738 33.2598 30.7625 34.5326C29.3511 35.8054 27.6756 36.8151 25.8316 37.5039C23.9876 38.1928 22.0112 38.5473 20.0152 38.5473Z" fill="#C99673"/>
<path d="M35.2137 19.9334C35.2137 17.8639 34.3021 15.8791 32.6794 14.4157C31.0568 12.9524 28.856 12.1302 26.5612 12.1302H13.4681C11.1733 12.1302 8.97244 12.9524 7.34975 14.4158C5.72705 15.8792 4.81543 17.864 4.81543 19.9336V20.1358H20.0429L21.9199 25.8374V21.0559C21.9199 20.8119 22.0274 20.5779 22.2187 20.4053C22.41 20.2328 22.6694 20.1359 22.94 20.1358H35.2137V19.9334Z" fill="#C99673"/>
<path d="M11.9607 27.9974C14.6837 27.9974 16.8911 26.0067 16.8911 23.5509C16.8911 21.0952 14.6837 19.1045 11.9607 19.1045C9.23771 19.1045 7.03027 21.0952 7.03027 23.5509C7.03027 26.0067 9.23771 27.9974 11.9607 27.9974Z" fill="#ECF0F1"/>
<path d="M11.9607 19.1045C10.6531 19.1045 9.399 19.573 8.47436 20.4068C7.54973 21.2407 7.03027 22.3717 7.03027 23.5509H16.8911C16.8911 22.3717 16.3717 21.2407 15.4471 20.4068C14.5224 19.573 13.2683 19.1045 11.9607 19.1045Z" fill="#BDC3C7"/>
<path d="M12.8163 26.9292C14.6716 26.9292 16.1756 25.4002 16.1756 23.5141C16.1756 21.628 14.6716 20.099 12.8163 20.099C10.961 20.099 9.45703 21.628 9.45703 23.5141C9.45703 25.4002 10.961 26.9292 12.8163 26.9292Z" fill="#414141"/>
<path d="M12.8162 25.2354C13.7512 25.2354 14.5093 24.4648 14.5093 23.5142C14.5093 22.5636 13.7512 21.793 12.8162 21.793C11.8811 21.793 11.123 22.5636 11.123 23.5142C11.123 24.4648 11.8811 25.2354 12.8162 25.2354Z" fill="#ECF0F1"/>
<path d="M28.0681 27.9974C30.7911 27.9974 32.9986 26.0067 32.9986 23.5509C32.9986 21.0952 30.7911 19.1045 28.0681 19.1045C25.3451 19.1045 23.1377 21.0952 23.1377 23.5509C23.1377 26.0067 25.3451 27.9974 28.0681 27.9974Z" fill="#ECF0F1"/>
<path d="M28.0681 19.1045C26.7605 19.1045 25.5064 19.573 24.5818 20.4068C23.6572 21.2407 23.1377 22.3717 23.1377 23.5509H32.9986C32.9986 22.3717 32.4791 21.2407 31.5545 20.4068C30.6298 19.573 29.3758 19.1045 28.0681 19.1045Z" fill="#BDC3C7"/>
<path d="M27.2128 26.9292C29.0681 26.9292 30.5721 25.4002 30.5721 23.5141C30.5721 21.628 29.0681 20.099 27.2128 20.099C25.3575 20.099 23.8535 21.628 23.8535 23.5141C23.8535 25.4002 25.3575 26.9292 27.2128 26.9292Z" fill="#414141"/>
<path d="M27.2136 25.2354C28.1487 25.2354 28.9067 24.4648 28.9067 23.5142C28.9067 22.5636 28.1487 21.793 27.2136 21.793C26.2785 21.793 25.5205 22.5636 25.5205 23.5142C25.5205 24.4648 26.2785 25.2354 27.2136 25.2354Z" fill="#ECF0F1"/>
<path d="M10.6287 24.5057C11.2359 24.5057 11.7281 24.0618 11.7281 23.5142C11.7281 22.9666 11.2359 22.5227 10.6287 22.5227C10.0215 22.5227 9.5293 22.9666 9.5293 23.5142C9.5293 24.0618 10.0215 24.5057 10.6287 24.5057Z" fill="#ECF0F1"/>
<path d="M25.0262 24.5057C25.6334 24.5057 26.1256 24.0618 26.1256 23.5142C26.1256 22.9666 25.6334 22.5227 25.0262 22.5227C24.419 22.5227 23.9268 22.9666 23.9268 23.5142C23.9268 24.0618 24.419 24.5057 25.0262 24.5057Z" fill="#ECF0F1"/>
<path d="M20.5401 29.7527L22.2365 28.0141C22.3254 27.9229 22.3833 27.8106 22.4032 27.6905C22.4231 27.5705 22.4042 27.4478 22.3487 27.3372C22.2932 27.2266 22.2036 27.1327 22.0904 27.0669C21.9773 27.0011 21.8456 26.9662 21.711 26.9662H18.3181C18.1835 26.9662 18.0517 27.0011 17.9386 27.0669C17.8255 27.1327 17.7358 27.2266 17.6804 27.3372C17.6249 27.4478 17.606 27.5705 17.6258 27.6905C17.6457 27.8106 17.7036 27.9229 17.7925 28.0141L19.4889 29.7527C19.5546 29.8201 19.6355 29.8741 19.7261 29.9111C19.8167 29.948 19.9151 29.9672 20.0145 29.9672C20.114 29.9672 20.2123 29.948 20.303 29.9111C20.3936 29.8741 20.4744 29.8201 20.5401 29.7527Z" fill="#C99673"/>
<path d="M26.5364 16.4162C28.3721 16.0912 29.7618 15.376 29.6405 14.8188C29.5192 14.2616 27.9328 14.0734 26.0972 14.3984C24.2615 14.7234 22.8718 15.4385 22.9931 15.9957C23.1144 16.5529 24.7008 16.7412 26.5364 16.4162Z" fill="#198C76"/>
<path d="M16.9774 15.9954C17.0987 15.4382 15.709 14.723 13.8733 14.3981C12.0377 14.0731 10.4513 14.2613 10.33 14.8185C10.2087 15.3757 11.5984 16.0909 13.4341 16.4159C15.2697 16.7408 16.8561 16.5526 16.9774 15.9954Z" fill="#198C76"/>
<path d="M19.7567 0.514488C9.06072 0.639658 0.551758 8.68075 0.551758 18.3277V25.8373L2.88435 21.9742L3.74919 25.8373L4.16311 25.1623C4.48171 25.6234 4.85707 26.0506 5.28205 26.4357C6.45987 27.4846 7.88783 27.8352 8.75632 27.9648C7.7002 27.0725 6.8851 25.9736 6.37374 24.7527C6.08425 24.0152 5.89628 23.2486 5.81406 22.4698L8.51412 18.0661L11.6792 13.5227C13.7076 18.4309 17.2635 22.7069 21.9201 25.8376C21.9201 25.8376 20.8403 20.5632 20.5358 17.7147C20.4986 17.367 20.4677 17.0254 20.4392 16.6864C22.0474 17.8248 23.901 18.6484 25.8818 19.1047C25.0485 17.7527 24.3638 16.3305 23.8377 14.8582C23.7134 14.51 23.6038 14.1714 23.5029 13.838C27.703 16.0076 31.3527 18.9465 34.2169 22.4655C34.135 23.2456 33.9469 24.0138 33.6568 24.7525C33.1455 25.9734 32.3304 27.0723 31.2742 27.9646C32.1431 27.835 33.5707 27.4844 34.7485 26.4355C35.2489 25.9839 35.6789 25.473 36.0265 24.9168C36.228 25.2202 36.4239 25.527 36.6143 25.8372C36.8331 24.6413 37.052 23.4454 37.271 22.2495L39.4788 25.8372V18.0658C39.4788 15.7411 38.9667 13.4396 37.9724 11.2948C36.978 9.15003 35.5211 7.20476 33.6863 5.5719C31.8515 3.93905 29.6753 2.65115 27.2841 1.78297C24.8929 0.914783 22.3342 0.483613 19.7567 0.514488Z" fill="#6CFF77"/>
<path d="M38.0877 11.5522C37.58 10.4056 36.9391 9.31058 36.1759 8.28552C32.3694 11.0857 26.5449 12.8777 20.0139 12.8777C13.5222 12.8777 7.72928 11.1066 3.92154 8.33534C3.15648 9.36415 2.51155 10.4616 1.99707 11.6102C3.85375 13.5313 6.55392 15.1265 9.80005 16.2183L11.6782 13.5222C12.2037 14.7897 12.8326 16.0204 13.5597 17.2042C15.6813 17.6129 17.8449 17.8177 20.0143 17.8152C20.1927 17.8152 20.3683 17.8098 20.5457 17.8072C20.5423 17.7765 20.5384 17.7446 20.535 17.7144C20.4979 17.3668 20.4669 17.0251 20.4385 16.6862C20.9931 17.077 21.5779 17.4318 22.1884 17.7477C23.1331 17.6897 24.0577 17.5912 24.9603 17.4601C24.5293 16.6135 24.1542 15.7446 23.8369 14.858C23.7126 14.5098 23.6031 14.1712 23.5021 13.8378C25.1779 14.7042 26.7703 15.6956 28.2627 16.8015C32.4198 15.7312 35.8689 13.8766 38.0877 11.5522Z" fill="#8CFFE9"/>
<path d="M17.3965 32.5498H22.6899V34.0554C22.6899 34.3689 22.6214 34.6793 22.4884 34.9688C22.3554 35.2584 22.1605 35.5215 21.9147 35.7432C21.6689 35.9648 21.3772 36.1406 21.0561 36.2606C20.735 36.3805 20.3908 36.4423 20.0432 36.4423C19.6957 36.4423 19.3515 36.3805 19.0304 36.2606C18.7093 36.1406 18.4175 35.9648 18.1718 35.7432C17.926 35.5215 17.7311 35.2584 17.5981 34.9688C17.465 34.6793 17.3966 34.3689 17.3966 34.0554V32.5498H17.3965Z" fill="#FF6D55"/>
<path d="M20.2801 33.4037C20.2801 33.2973 20.1844 33.2109 20.0663 33.2109C19.9482 33.2109 19.8525 33.2973 19.8525 33.4037V35.8549C19.8525 35.9614 19.9482 36.0477 20.0663 36.0477C20.1844 36.0477 20.2801 35.9614 20.2801 35.8549V33.4037Z" fill="#D85B4A"/>
<path d="M24.1811 32.1229H15.8483C15.7228 32.1229 15.6024 32.1679 15.5136 32.248C15.4249 32.328 15.375 32.4366 15.375 32.5498C15.375 32.663 15.4249 32.7716 15.5136 32.8516C15.6024 32.9317 15.7228 32.9767 15.8483 32.9767H16.8483V34.0338C16.8532 34.7922 17.1907 35.5181 17.7871 36.0528C18.3835 36.5875 19.1903 36.8877 20.0313 36.8877C20.8723 36.8877 21.6792 36.5875 22.2756 36.0528C22.872 35.5181 23.2095 34.7922 23.2143 34.0338V32.9767H24.1811C24.3066 32.9767 24.427 32.9317 24.5158 32.8516C24.6046 32.7716 24.6544 32.663 24.6544 32.5498C24.6544 32.4366 24.6046 32.328 24.5158 32.248C24.427 32.1679 24.3066 32.1229 24.1811 32.1229ZM22.1417 34.0338C22.1378 34.5362 21.9137 35.0168 21.5183 35.3708C21.123 35.7248 20.5885 35.9235 20.0313 35.9235C19.4742 35.9235 18.9397 35.7248 18.5443 35.3708C18.149 35.0168 17.9249 34.5362 17.9209 34.0338V33.0118H22.1417V34.0338Z" fill="black"/>
<path d="M34.0493 5.20039C32.1679 3.51719 29.9323 2.19023 27.474 1.29754C25.0157 0.404852 22.3843 -0.0355472 19.7345 0.00224126C14.4358 0.0643428 9.4662 2.01174 5.74234 5.48575C2.04914 8.91835 -0.0113599 13.5161 4.71107e-05 18.299V25.8087C5.82656e-05 25.9162 0.0397782 26.0207 0.112934 26.1055C0.18609 26.1904 0.288513 26.2509 0.404025 26.2774C0.519537 26.3039 0.641555 26.295 0.750807 26.252C0.860059 26.209 0.950318 26.1344 1.00733 26.04L1.14301 25.8151L0.839788 28.3186C0.827725 28.4183 0.850313 28.5189 0.904424 28.6065C0.958536 28.6941 1.0415 28.7643 1.14183 28.8075C1.24216 28.8508 1.3549 28.8648 1.46445 28.8477C1.574 28.8305 1.67495 28.7831 1.75333 28.712L2.25584 28.256L2.96322 31.6505C2.98169 31.7388 3.02702 31.8206 3.09415 31.8869C3.16127 31.9532 3.24753 32.0014 3.34328 32.026C3.43902 32.0506 3.54047 32.0506 3.63626 32.0262C3.73206 32.0017 3.81841 31.9537 3.88566 31.8875L5.18845 30.6024C7.37302 36.0757 13.1872 40 19.9993 40C26.7877 40 32.5855 36.1033 34.7876 30.6599L36.0318 31.8875C36.099 31.9539 36.1854 32.002 36.2813 32.0265C36.3772 32.0511 36.4787 32.051 36.5746 32.0264C36.6704 32.0018 36.7568 31.9536 36.8239 31.8872C36.8911 31.8208 36.9364 31.7389 36.9548 31.6505L37.6622 28.256L38.1647 28.712C38.243 28.7833 38.344 28.8309 38.4537 28.8481C38.5633 28.8653 38.6762 28.8514 38.7767 28.8081C38.8771 28.7649 38.9602 28.6946 39.0143 28.6068C39.0684 28.5191 39.091 28.4184 39.0788 28.3186L38.7561 25.6562L38.9947 26.0438C39.0523 26.1375 39.1429 26.2113 39.2521 26.2536C39.3613 26.2958 39.483 26.3042 39.598 26.2773C39.7131 26.2505 39.8149 26.1899 39.8877 26.1052C39.9604 26.0204 39.9999 25.9163 39.9999 25.8091V18.0372C40.0078 15.6477 39.4854 13.281 38.4635 11.0763C37.4415 8.87172 35.9407 6.87384 34.0493 5.20039ZM3.81905 30.5196L3.12186 27.1727C3.10379 27.0861 3.05981 27.0056 2.99469 26.9399C2.92957 26.8742 2.84577 26.8258 2.75236 26.7999C2.65895 26.774 2.55946 26.7716 2.46466 26.793C2.36985 26.8144 2.28333 26.8587 2.21444 26.9212L2.07285 27.0497L2.49342 23.5794L2.63533 23.3444L3.20853 25.9045C3.2302 26.0012 3.28415 26.0896 3.36313 26.1579C3.44212 26.2261 3.54237 26.271 3.65043 26.2864C3.75848 26.3018 3.86918 26.2871 3.96767 26.2441C4.06616 26.2012 4.14773 26.1321 4.20144 26.0461C4.22364 26.0717 4.24649 26.0967 4.26901 26.122C4.29616 27.2759 4.47987 28.4225 4.81604 29.5361L3.81905 30.5196ZM19.9997 39.032C12.4235 39.032 6.17299 33.8226 5.41595 27.1675C6.36315 27.8195 7.47601 28.2477 8.65339 28.4131C8.68242 28.4175 8.7118 28.4197 8.74123 28.4196C8.84823 28.4196 8.95276 28.3906 9.04139 28.3366C9.13002 28.2825 9.19869 28.2058 9.23859 28.1163C9.27848 28.0268 9.28777 27.9285 9.26525 27.8342C9.24274 27.7398 9.18945 27.6537 9.11225 27.5869C8.11428 26.7463 7.34432 25.7098 6.86203 24.5576C6.60437 23.9055 6.43271 23.2283 6.35061 22.54L8.9609 18.2827L10.5904 15.9436C10.6762 15.9964 10.7679 16.0495 10.8711 16.1025C11.44 16.3811 12.046 16.5931 12.6744 16.7334C13.1455 17.5535 13.6603 18.3506 14.2189 19.1249C13.3958 18.7826 12.4905 18.6327 11.5863 18.689C10.6821 18.7452 9.80812 19.0057 9.04491 19.4466C8.28171 19.8875 7.65381 20.4945 7.21908 21.2117C6.78435 21.9289 6.55677 22.7333 6.5573 23.5506C6.5573 23.6067 6.56955 23.6622 6.59333 23.714C6.61712 23.7658 6.65199 23.8128 6.69594 23.8525C6.73989 23.8921 6.79208 23.9236 6.8495 23.945C6.90693 23.9665 6.96848 23.9775 7.03064 23.9775C7.0928 23.9775 7.15436 23.9665 7.21178 23.945C7.26921 23.9236 7.32139 23.8921 7.36535 23.8525C7.4093 23.8128 7.44417 23.7658 7.46795 23.714C7.49174 23.6622 7.50398 23.6067 7.50398 23.5506C7.50334 22.9626 7.6459 22.3816 7.92159 21.8488C8.19729 21.3159 8.59939 20.8442 9.09948 20.4668C9.59956 20.0895 10.1854 19.8159 10.8157 19.6652C11.4459 19.5145 12.1052 19.4905 12.7469 19.5949C10.6255 19.6261 8.9091 21.3619 8.9091 23.4922C8.9091 25.642 10.6567 27.391 12.8047 27.391C14.8053 27.391 16.4578 25.8734 16.6753 23.928C16.7419 23.9599 16.8161 23.9769 16.8915 23.9773C17.0171 23.9773 17.1375 23.9323 17.2262 23.8522C17.315 23.7722 17.3649 23.6636 17.3649 23.5503C17.3644 23.2584 17.3349 22.967 17.2767 22.6798C18.5869 23.9711 20.029 25.1483 21.5838 26.1958C21.6702 26.2541 21.7741 26.2875 21.8818 26.2916C21.9896 26.2958 22.0962 26.2706 22.1878 26.2193C22.2795 26.168 22.3518 26.0929 22.3954 26.004C22.439 25.915 22.4519 25.8163 22.4323 25.7206C22.4215 25.6683 21.3597 20.4681 21.0574 17.6668C21.4636 17.9108 21.8822 18.137 22.3098 18.3433C23.2351 18.7892 24.2088 19.1482 25.2155 19.4146C24.4356 19.8518 23.792 20.461 23.3456 21.1847C22.8993 21.9084 22.6647 22.7228 22.6642 23.5509C22.6642 23.6641 22.714 23.7727 22.8028 23.8528C22.8916 23.9329 23.012 23.9779 23.1375 23.9779C23.2047 23.9777 23.271 23.9645 23.3321 23.9392C23.5544 25.8792 25.2046 27.3913 27.2013 27.3913C29.3493 27.3913 31.0969 25.6423 31.0969 23.4925C31.0969 21.3689 29.3914 19.6375 27.2789 19.5958C27.9208 19.4909 28.5803 19.5145 29.211 19.6649C29.8416 19.8153 30.4279 20.0888 30.9283 20.4661C31.4288 20.8434 31.8312 21.3153 32.1071 21.8484C32.383 22.3814 32.5256 22.9627 32.5249 23.5509C32.5245 23.6446 32.5584 23.7358 32.6212 23.8103C32.6841 23.8849 32.7725 23.9386 32.8727 23.9633C32.9729 23.9879 33.0793 23.9821 33.1755 23.9466C33.2716 23.9112 33.3521 23.8481 33.4045 23.7672C33.3311 24.0348 33.2421 24.2988 33.1377 24.5579C32.6554 25.71 31.8854 26.7466 30.8875 27.5872C30.8049 27.6587 30.7498 27.7522 30.7303 27.854C30.7108 27.9558 30.728 28.0605 30.7793 28.1529C30.8305 28.2452 30.9133 28.3203 31.0153 28.3672C31.1174 28.4141 31.2334 28.4303 31.3464 28.4134C32.5239 28.248 33.637 27.8197 34.5842 27.1675C33.8273 33.8226 27.576 39.0323 19.9997 39.0323V39.032ZM11.1605 15.1255L11.4237 14.7478C11.4881 14.7387 11.5566 14.7306 11.6302 14.7238C11.7563 14.9941 11.8873 15.2623 12.0231 15.5285C11.72 15.4232 11.4307 15.2881 11.1605 15.1255ZM15.6275 23.4928C15.6275 25.1092 14.361 26.4242 12.8045 26.4242C11.2479 26.4242 9.98148 25.1087 9.98148 23.4928C9.98148 21.8769 11.2478 20.5608 12.8045 20.5608C14.3611 20.5608 15.6279 21.8763 15.6279 23.4925L15.6275 23.4928ZM26.3749 18.9245C26.3648 18.8957 26.3517 18.8678 26.3357 18.8413C25.971 18.2489 25.6353 17.6407 25.3287 17.0215C25.7654 16.9965 26.1997 16.9457 26.6289 16.8692C26.8679 16.8269 27.1009 16.7768 27.327 16.7216C28.3878 17.471 29.3979 18.2771 30.3517 19.1356C29.1048 18.6096 27.6819 18.534 26.3752 18.9245H26.3749ZM27.2013 20.5608C28.7578 20.5608 30.0243 21.8763 30.0243 23.4922C30.0243 25.1081 28.7583 26.4239 27.2013 26.4239C25.6443 26.4239 24.3783 25.1084 24.3783 23.4925C24.3783 21.8766 25.6451 20.5608 27.2013 20.5608ZM24.8852 16.0695C24.772 15.8109 24.664 15.5507 24.5611 15.2889C24.67 15.2468 24.7876 15.2052 24.9137 15.164C25.3489 15.4196 25.7765 15.6837 26.1968 15.9562C25.7639 16.026 25.3254 16.064 24.8856 16.0698L24.8852 16.0695ZM33.2113 22.0581C33.3574 22.2278 33.5019 22.3989 33.6447 22.5714C33.6009 22.9011 33.5424 23.2127 33.4704 23.5108C33.4666 23.0176 33.3794 22.5278 33.2117 22.0584L33.2113 22.0581ZM37.7041 26.9209C37.6352 26.8584 37.5487 26.814 37.4539 26.7926C37.3591 26.7712 37.2595 26.7736 37.1661 26.7995C37.0727 26.8254 36.9889 26.8738 36.9237 26.9396C36.8586 27.0053 36.8146 27.0858 36.7966 27.1724L36.0994 30.5194L35.1646 29.5973C35.5126 28.465 35.7027 27.298 35.7306 26.1233C35.8172 26.0255 35.9042 25.9234 35.9897 25.8168C36.0371 25.8925 36.0836 25.9678 36.1291 26.0424C36.183 26.1304 36.2659 26.201 36.3663 26.2445C36.4667 26.288 36.5796 26.3022 36.6894 26.2852C36.7991 26.2682 36.9003 26.2208 36.9788 26.1495C37.0574 26.0783 37.1094 25.9868 37.1276 25.8877L37.4747 23.9909L37.8455 27.0498L37.7041 26.9209ZM38.9269 23.9404L37.7242 21.9864C37.6701 21.8986 37.5872 21.8281 37.4867 21.7848C37.3863 21.7415 37.2734 21.7274 37.1637 21.7445C37.054 21.7617 36.9529 21.8092 36.8745 21.8805C36.7961 21.9517 36.7442 22.0433 36.7261 22.1423L36.2982 24.4801C36.2363 24.4446 36.1669 24.421 36.0944 24.4107C36.0219 24.4004 35.9478 24.4036 35.8767 24.4202C35.8057 24.4367 35.7391 24.4662 35.6812 24.5069C35.6233 24.5476 35.5753 24.5986 35.5401 24.6567C35.2177 25.1716 34.8193 25.6447 34.356 26.063C33.932 26.438 33.4413 26.7462 32.9043 26.9748C33.4235 26.3355 33.841 25.6338 34.1449 24.8903C34.4513 24.1145 34.6495 23.3073 34.7348 22.4874C34.7487 22.3678 34.7127 22.2478 34.6338 22.1509C31.73 18.5737 28.0228 15.5885 23.7539 13.39C23.6618 13.3424 23.5561 13.3205 23.4503 13.3272C23.3444 13.3338 23.2431 13.3686 23.1591 13.4272C23.0752 13.4858 23.0124 13.5655 22.9788 13.6563C22.9451 13.7471 22.9421 13.8448 22.9701 13.9372C23.0839 14.3125 23.1953 14.653 23.3118 14.9782C23.7165 16.1095 24.2128 17.2123 24.7969 18.2779C23.3374 17.8147 21.9719 17.1387 20.7549 16.2769C20.6731 16.219 20.5743 16.1838 20.4707 16.1756C20.3671 16.1674 20.263 16.1866 20.1712 16.2308C20.0795 16.275 20.004 16.3423 19.9539 16.4246C19.9038 16.5068 19.8813 16.6004 19.8891 16.6939C19.9223 17.0898 19.9535 17.4194 19.9866 17.7322C20.1989 19.718 20.7901 22.8988 21.1295 24.6463C17.0858 21.6525 13.9932 17.7464 12.1663 13.3253C12.1313 13.2408 12.0708 13.1668 11.9917 13.1116C11.9125 13.0565 11.8179 13.0224 11.7184 13.0132C11.6189 13.004 11.5185 13.0201 11.4286 13.0597C11.3388 13.0992 11.2629 13.1607 11.2097 13.237L8.04458 17.7799C8.03921 17.7876 8.03385 17.7953 8.02934 17.8032L5.32928 22.2068C5.27604 22.2935 5.25358 22.3929 5.26492 22.4914C5.35046 23.31 5.54844 24.1158 5.85432 24.8904C6.15809 25.6339 6.57562 26.3356 7.09479 26.9749C6.5578 26.7463 6.06711 26.4381 5.64312 26.0631C5.24846 25.7053 4.8998 25.3084 4.60377 24.88C4.55574 24.8098 4.48859 24.7518 4.40871 24.7116C4.32882 24.6714 4.23886 24.6503 4.14738 24.6503H4.13451C4.09728 24.6511 4.06025 24.6554 4.02403 24.6631L3.39419 21.85C3.37238 21.7527 3.3179 21.6638 3.23816 21.5954C3.15842 21.527 3.05727 21.4824 2.94844 21.4676C2.83961 21.4528 2.72837 21.4686 2.62981 21.5128C2.53126 21.5569 2.45016 21.6274 2.39753 21.7146L1.07265 23.9092V18.2988C1.07265 8.86381 9.45044 1.09028 19.7482 0.969362C22.2547 0.939294 24.7429 1.35855 27.0683 2.2028C29.3937 3.04705 31.51 4.29947 33.2943 5.88735C35.0786 7.47523 36.4954 9.36694 37.4624 11.4527C38.4293 13.5384 38.9273 15.7765 38.9273 18.0372L38.9269 23.9404Z" fill="black"/>
</svg>
