<svg width="40" height="40" viewBox="0 0 40 40" fill="none" xmlns="http://www.w3.org/2000/svg">
<path d="M20 40C31.0457 40 40 31.0457 40 20C40 8.9543 31.0457 0 20 0C8.9543 0 0 8.9543 0 20C0 31.0457 8.9543 40 20 40Z" fill="#38A8E0"/>
<path d="M30.9375 13.8405C30.1182 14.2034 29.2492 14.4414 28.3594 14.5468C29.2964 13.9854 29.9973 13.1024 30.3312 12.0624C29.4502 12.5847 28.4863 12.9525 27.4812 13.1499C26.8049 12.4296 25.9099 11.9526 24.9349 11.7926C23.9599 11.6326 22.9593 11.7986 22.0882 12.2649C21.2172 12.7312 20.5242 13.4718 20.1167 14.3719C19.7092 15.2721 19.61 16.2814 19.8344 17.2437C18.0501 17.1545 16.3045 16.6911 14.7109 15.8836C13.1173 15.076 11.7114 13.9423 10.5844 12.5562C10.011 13.544 9.8353 14.7132 10.093 15.826C10.3508 16.9387 11.0226 17.9116 11.9719 18.5468C11.2596 18.5239 10.5632 18.3311 9.94062 17.9843C9.94062 18.003 9.94062 18.0218 9.94062 18.0405C9.94023 19.0772 10.2985 20.0821 10.9547 20.8847C11.6109 21.6872 12.5245 22.2381 13.5406 22.4437C12.8794 22.6239 12.1857 22.6506 11.5125 22.5218C11.8017 23.4111 12.3612 24.188 13.113 24.7442C13.8647 25.3005 14.7712 25.6083 15.7062 25.6249C14.1164 26.8732 12.1526 27.5502 10.1312 27.5468C9.77439 27.5521 9.41752 27.5365 9.0625 27.4999C11.1133 28.8175 13.4999 29.5172 15.9375 29.5155C24.1937 29.5155 28.7062 22.678 28.7062 16.7468C28.7062 16.553 28.7062 16.3593 28.7062 16.1655C29.5821 15.5291 30.3377 14.7418 30.9375 13.8405Z" fill="white"/>
</svg>
