<svg width="40" height="40" viewBox="0 0 40 40" fill="none" xmlns="http://www.w3.org/2000/svg">
<path d="M35.212 21.8315H5.18457V37.4227H35.212V21.8315Z" fill="#EF644F"/>
<path d="M13.4672 12.134H26.5603C28.8551 12.134 31.0559 12.9561 32.6785 14.4195C34.3012 15.8829 35.2128 17.8678 35.2128 19.9374V25.8415C35.2129 27.6416 34.8198 29.424 34.056 31.0871C33.2922 32.7501 32.1727 34.2612 30.7613 35.5341C29.35 36.8069 27.6745 37.8166 25.8305 38.5055C23.9865 39.1944 22.0101 39.5489 20.0141 39.5489C15.9832 39.5489 12.1173 38.1048 9.26702 35.5342C6.41671 32.9636 4.81543 29.4771 4.81543 25.8418V19.9374C4.81543 17.8679 5.72693 15.8832 7.34943 14.4198C8.97193 12.9564 11.1725 12.1341 13.4672 12.134Z" fill="#F4DCC6"/>
<path d="M20.0149 38.5478C15.9839 38.5478 12.1181 37.1037 9.26777 34.5331C6.41747 31.9625 4.81618 28.4761 4.81618 24.8407V25.8377C4.81614 27.6377 5.20923 29.4202 5.97302 31.0832C6.73681 32.7463 7.85633 34.2574 9.26766 35.5302C10.679 36.8031 12.3545 37.8128 14.1985 38.5017C16.0425 39.1905 18.0189 39.5451 20.0149 39.5451C24.0458 39.5451 27.9117 38.1009 30.762 35.5303C33.6123 32.9598 35.2136 29.4733 35.2136 25.8379V24.8404C35.2136 26.6405 34.8205 28.423 34.0567 30.086C33.2929 31.7491 32.1734 33.2602 30.7621 34.533C29.3507 35.8059 27.6752 36.8156 25.8312 37.5044C23.9872 38.1933 22.0108 38.5478 20.0149 38.5478ZM26.5611 13.824H13.4681C12.3318 13.824 11.2066 14.0258 10.1569 14.418C9.10707 14.8101 8.15322 15.3849 7.34974 16.1095C6.54627 16.8341 5.90891 17.6943 5.47408 18.6411C5.03924 19.5879 4.81543 20.6026 4.81543 21.6273V21.8298H35.2136V21.6273C35.2136 19.5578 34.302 17.573 32.6793 16.1096C31.0567 14.6462 28.8559 13.824 26.5611 13.824Z" fill="#C99673"/>
<path d="M11.9568 27.9992C14.6798 27.9992 16.8872 26.0085 16.8872 23.5527C16.8872 21.0969 14.6798 19.1062 11.9568 19.1062C9.23378 19.1062 7.02637 21.0969 7.02637 23.5527C7.02637 26.0085 9.23378 27.9992 11.9568 27.9992Z" fill="#ECF0F1"/>
<path d="M11.9586 19.1062C11.3111 19.1062 10.67 19.2212 10.0718 19.4446C9.47367 19.6681 8.93015 19.9956 8.47233 20.4085C8.01451 20.8214 7.65135 21.3116 7.40358 21.8511C7.15582 22.3906 7.02831 22.9688 7.02832 23.5527H16.889C16.889 22.3734 16.3696 21.2424 15.4449 20.4085C14.5203 19.5746 13.2662 19.1062 11.9586 19.1062Z" fill="#BDC3C7"/>
<path d="M11.9569 26.9708C13.8122 26.9708 15.3162 25.4418 15.3162 23.5556C15.3162 21.6695 13.8122 20.1404 11.9569 20.1404C10.1016 20.1404 8.59766 21.6695 8.59766 23.5556C8.59766 25.4418 10.1016 26.9708 11.9569 26.9708Z" fill="#A36841"/>
<path d="M11.9607 25.2741C12.8957 25.2741 13.6538 24.5034 13.6538 23.5528C13.6538 22.6021 12.8957 21.8315 11.9607 21.8315C11.0256 21.8315 10.2676 22.6021 10.2676 23.5528C10.2676 24.5034 11.0256 25.2741 11.9607 25.2741Z" fill="#63433B"/>
<path d="M9.78008 24.5426C10.3873 24.5426 10.8795 24.0986 10.8795 23.551C10.8795 23.0034 10.3873 22.5595 9.78008 22.5595C9.17289 22.5595 8.68066 23.0034 8.68066 23.551C8.68066 24.0986 9.17289 24.5426 9.78008 24.5426Z" fill="#ECF0F1"/>
<path d="M20.5509 29.7558L22.2473 28.0171C22.3363 27.9259 22.3941 27.8136 22.414 27.6935C22.4339 27.5735 22.415 27.4508 22.3595 27.3402C22.304 27.2296 22.2144 27.1357 22.1013 27.0699C21.9881 27.0041 21.8564 26.9691 21.7218 26.9692H18.3288C18.1942 26.9691 18.0625 27.0041 17.9494 27.0699C17.8362 27.1357 17.7466 27.2296 17.6911 27.3402C17.6356 27.4508 17.6167 27.5735 17.6366 27.6935C17.6565 27.8136 17.7144 27.9259 17.8033 28.0171L19.4998 29.7558C19.5655 29.8232 19.6463 29.8771 19.7369 29.9141C19.8276 29.9511 19.9259 29.9702 20.0254 29.9702C20.1248 29.9702 20.2232 29.9511 20.3138 29.9141C20.4044 29.8771 20.4853 29.8232 20.5509 29.7558Z" fill="#C99673"/>
<path d="M20.0225 37.4264C20.721 37.4264 21.2872 37.0647 21.2872 36.6185C21.2872 36.1723 20.721 35.8106 20.0225 35.8106C19.324 35.8106 18.7578 36.1723 18.7578 36.6185C18.7578 37.0647 19.324 37.4264 20.0225 37.4264Z" fill="#C99673"/>
<path d="M20.0142 0.512323C14.8522 0.512323 9.90159 2.36169 6.25149 5.65358C2.60139 8.94547 0.550781 13.4102 0.550781 18.0657V37.6411L3.17006 38.7979V36.4844L4.81478 38.7979H6.22385V21.7994L7.24388 20.1356H11.5605L12.5759 15.6078L13.4615 20.1356H19.9335L20.949 15.6078L21.8345 20.1356H28.3067L29.3219 15.6078L30.2076 20.1356H33.1175L33.8046 21.2563V38.7979H35.2136L36.8583 36.4844V38.7979L39.4776 37.6411V18.0657C39.4776 15.7605 38.9742 13.478 37.9961 11.3483C37.0179 9.21863 35.5843 7.28356 33.7769 5.65358C31.9696 4.0236 29.8239 2.73063 27.4625 1.84849C25.1011 0.966354 22.5702 0.512323 20.0142 0.512323Z" fill="#FD805D"/>
<path d="M20.0145 34.507C22.4914 34.507 24.4993 33.6213 24.4993 32.5286H15.5293C15.5293 33.6213 17.5368 34.507 20.0145 34.507Z" fill="#AB2E3C"/>
<path d="M34.8596 6.7199C31.8473 10.0969 26.3292 12.3605 20.0149 12.3605C13.7006 12.3605 8.18396 10.0969 5.17168 6.7199C4.41633 7.52314 3.74246 8.38592 3.1582 9.29785C4.29355 12.7102 7.69013 15.5519 12.2461 17.0872L12.5774 15.6095L12.9078 17.2984C15.2006 17.9823 17.6008 18.3277 20.0158 18.3211C20.126 18.3211 20.2346 18.3169 20.3442 18.3154L20.951 15.6097L21.4727 18.2771C24.1089 18.1434 26.6954 17.5733 29.1029 16.5952L29.3239 15.6097L29.4847 16.4319C33.179 14.8112 35.8844 12.2708 36.8733 9.29737C36.289 8.38559 35.615 7.52298 34.8596 6.7199Z" fill="#FFA48F"/>
<path d="M24.4843 32.0153H15.5148C15.3726 32.0153 15.2362 32.0663 15.1356 32.157C15.035 32.2477 14.9785 32.3707 14.9785 32.499C14.9785 33.9025 17.1371 34.9611 19.9996 34.9611C22.862 34.9611 25.0206 33.9025 25.0206 32.499C25.0206 32.3707 24.9641 32.2477 24.8635 32.157C24.7629 32.0663 24.6265 32.0153 24.4843 32.0153ZM19.9996 33.9937C18.2532 33.9937 16.8479 33.5225 16.2991 32.9827H23.6992C23.1512 33.5225 21.7459 33.9937 19.9996 33.9937Z" fill="black"/>
<path d="M19.9998 0C8.97194 0 0 8.09156 0 18.0369V37.6125C-2.23452e-07 37.703 0.0281437 37.7916 0.0812336 37.8684C0.134323 37.9452 0.21023 38.007 0.300326 38.0468L2.91961 39.2035C3.00137 39.2397 3.09198 39.2564 3.18292 39.2522C3.27385 39.2481 3.3621 39.2231 3.43936 39.1796C3.51662 39.1362 3.58034 39.0757 3.62452 39.0039C3.66869 38.9321 3.69188 38.8513 3.69187 38.7692V38.1061L4.34884 39.0302C4.39738 39.0984 4.46417 39.1546 4.54306 39.1934C4.62194 39.2323 4.7104 39.2527 4.8003 39.2527H6.20936C6.3516 39.2527 6.48801 39.2017 6.58859 39.111C6.68916 39.0203 6.74566 38.8973 6.74566 38.769V37.8758H11.7308C14.2143 39.2643 17.0784 40 20.0005 40C22.9226 40 25.7866 39.2643 28.2702 37.8758H33.2542V38.7693C33.2542 38.8976 33.3107 39.0206 33.4113 39.1113C33.5119 39.202 33.6483 39.253 33.7905 39.253H35.1997C35.2896 39.253 35.3781 39.2326 35.4569 39.1937C35.5358 39.1549 35.6026 39.0987 35.6512 39.0305L36.3081 38.1064V38.7695C36.3081 38.8516 36.3313 38.9324 36.3755 39.0042C36.4197 39.076 36.4834 39.1365 36.5606 39.1799C36.6379 39.2234 36.7261 39.2484 36.8171 39.2525C36.908 39.2567 36.9986 39.24 37.0804 39.2038L39.6997 38.0471C39.7898 38.0073 39.8657 37.9455 39.9188 37.8687C39.9719 37.7919 40 37.7032 40 37.6128V18.0369C39.9996 8.09156 31.0277 0 19.9998 0ZM6.74577 36.9084V33.4474C7.68207 34.764 8.85141 35.9332 10.2073 36.9084H6.74577ZM33.2538 36.9084H29.7915C31.1476 35.9333 32.3172 34.7642 33.2538 33.4477V36.9084ZM33.2538 31.4551C32.0659 33.7198 30.1899 35.634 27.8437 36.9753C25.4975 38.3166 22.7774 39.03 19.9995 39.0325C17.2221 39.03 14.5024 38.317 12.1564 36.9762C9.81032 35.6354 7.93419 33.7218 6.74588 31.4578V23.8899C6.8158 23.9382 6.89936 23.9679 6.98706 23.9756C7.07476 23.9833 7.16309 23.9686 7.24202 23.9333C7.32095 23.898 7.38732 23.8434 7.43359 23.7758C7.47986 23.7082 7.50417 23.6302 7.50377 23.5507C7.50363 22.9938 7.63221 22.4429 7.8813 21.9332C8.13039 21.4236 8.49453 20.9663 8.95049 20.5907H9.38189C8.95461 20.9746 8.61672 21.4316 8.38806 21.935C8.1594 22.4383 8.04459 22.9778 8.05037 23.5217C8.05037 25.6714 9.79784 27.4201 11.9459 27.4201C14.094 27.4201 15.8415 25.671 15.8415 23.5217C15.8473 22.9778 15.7325 22.4383 15.5038 21.935C15.2751 21.4316 14.9372 20.9746 14.51 20.5907H14.9705C15.4267 20.9662 15.791 21.4234 16.0401 21.9331C16.2893 22.4428 16.418 22.9937 16.4178 23.5507C16.4178 23.6639 16.4677 23.7725 16.5564 23.8526C16.6452 23.9326 16.7656 23.9776 16.8911 23.9776C17.0167 23.9776 17.1371 23.9326 17.2258 23.8526C17.3146 23.7725 17.3645 23.6639 17.3645 23.5507C17.3654 22.4799 16.9727 21.4389 16.248 20.5907H19.9192C20.0429 20.5907 20.1629 20.552 20.2587 20.4814C20.3545 20.4107 20.4202 20.3123 20.4448 20.2029L20.8985 18.1796L21.2919 20.191C21.3138 20.3029 21.3787 20.4044 21.4753 20.4775C21.5718 20.5506 21.6939 20.5907 21.8199 20.5907H28.2922C28.416 20.5907 28.5359 20.552 28.6317 20.4814C28.7275 20.4107 28.7932 20.3123 28.8178 20.2029L29.2714 18.1796L29.627 19.9977L23.9622 23.1886C23.8898 23.2295 23.831 23.2873 23.792 23.3558C23.753 23.4244 23.7353 23.5012 23.7408 23.5781C23.7463 23.655 23.7748 23.7291 23.8232 23.7925C23.8716 23.856 23.9382 23.9065 24.0159 23.9386L31.4673 27.027C31.5814 27.0743 31.7116 27.0788 31.8293 27.0394C31.947 27.0001 32.0426 26.9202 32.095 26.8174C32.1474 26.7145 32.1524 26.597 32.1088 26.4909C32.0652 26.3847 31.9766 26.2985 31.8625 26.2512L25.2088 23.4934L30.3619 20.5907H32.7871L33.2541 21.3526L33.2538 31.4551ZM6.74577 22.2765V21.8954L7.54571 20.5906H7.67442C7.246 21.0926 6.93054 21.6653 6.74577 22.2765ZM12.8042 19.6043L12.8279 19.7254C12.6221 19.6774 12.4118 19.6463 12.1997 19.6325L12.2212 19.5385C12.4169 19.5488 12.6117 19.5708 12.8042 19.6043ZM12.4096 18.6963L12.5256 18.1795L12.6304 18.7157C12.5574 18.7074 12.4832 18.702 12.4096 18.6963ZM14.7693 23.5222C14.7693 25.1386 13.5029 26.4532 11.9464 26.4532C10.3898 26.4532 9.12339 25.1382 9.12339 23.5222C9.12339 21.9062 10.3898 20.5912 11.9464 20.5912C13.5029 20.5912 14.7693 21.9058 14.7693 23.5222ZM38.927 37.3108L37.38 37.9938V36.4557C37.38 36.3512 37.3425 36.2494 37.273 36.1657C37.2035 36.0821 37.1058 36.0209 36.9946 35.9915C36.8833 35.9621 36.7645 35.966 36.6559 36.0026C36.5473 36.0392 36.4548 36.1065 36.3922 36.1946L34.9057 38.2854H34.3265V21.228C34.3266 21.1461 34.3035 21.0656 34.2596 20.994L33.5723 19.873C33.5259 19.7974 33.4579 19.7343 33.3754 19.6904C33.2928 19.6465 33.1987 19.6233 33.1029 19.6233H32.0287C32.1005 19.5454 32.1391 19.4469 32.1375 19.3456C32.136 19.2443 32.0945 19.1468 32.0204 19.0707C31.9463 18.9945 31.8445 18.9447 31.7333 18.9302C31.6222 18.9156 31.5089 18.9373 31.4139 18.9914L30.6082 19.4451L29.836 15.4951C29.8143 15.3841 29.7503 15.2834 29.6551 15.2105C29.5599 15.1375 29.4394 15.0968 29.3145 15.0954C29.1896 15.094 29.068 15.132 28.9708 15.2028C28.8736 15.2736 28.8069 15.3728 28.7821 15.4832L27.8538 19.6234H22.2701L21.4626 15.4951C21.4409 15.3842 21.3769 15.2836 21.2817 15.2107C21.1866 15.1378 21.0661 15.0971 20.9412 15.0957C20.8164 15.0943 20.6949 15.1322 20.5977 15.203C20.5005 15.2737 20.4337 15.3729 20.4089 15.4832L19.4805 19.6234H13.8971L13.0895 15.4951C13.0678 15.3842 13.0038 15.2836 12.9086 15.2107C12.8134 15.1378 12.693 15.0972 12.5681 15.0958C12.4432 15.0944 12.3217 15.1323 12.2245 15.2031C12.1274 15.2738 12.0606 15.373 12.0358 15.4833L11.1074 19.6235H7.2293C7.13346 19.6235 7.03938 19.6467 6.95683 19.6906C6.87429 19.7345 6.80629 19.7976 6.75993 19.8732L5.73989 21.537C5.69599 21.6087 5.67296 21.6892 5.67296 21.771V38.2855H5.09376L3.60714 36.1946C3.54456 36.1066 3.45205 36.0393 3.34346 36.0027C3.23486 35.9661 3.11604 35.9622 3.0048 35.9916C2.89355 36.021 2.79587 36.0821 2.72639 36.1658C2.6569 36.2495 2.61936 36.3513 2.61939 36.4558V37.9939L1.0726 37.3108V18.0369C1.0726 8.62475 9.56326 0.967334 19.9997 0.967334C30.4362 0.967334 38.9269 8.62475 38.9269 18.0369L38.927 37.3108Z" fill="black"/>
</svg>
