<svg width="30" height="30" viewBox="0 0 30 30" fill="none" xmlns="http://www.w3.org/2000/svg">
<path d="M29.2101 26.0527C29.2101 27.7966 27.7962 29.2106 26.0522 29.2106H3.94696C2.20301 29.2106 0.789062 27.7966 0.789062 26.0527V3.94741C0.789062 2.20347 2.20301 0.78952 3.94696 0.78952H26.0522C27.7962 0.78952 29.2101 2.20347 29.2101 3.94741V26.0527Z" fill="#3B88C3"/>
<path d="M19.8349 8.40948C19.8349 9.36395 19.1986 10.2205 18.1959 10.2205C17.1917 10.2205 16.4086 9.48632 14.9393 9.48632C13.887 9.48632 12.9325 10.0492 12.9325 11.0779C12.9325 13.5987 21.1083 11.9834 21.1083 18.2984C21.1083 21.799 18.2196 23.9779 14.8414 23.9779C12.957 23.9779 8.89355 23.5374 8.89355 21.2361C8.89355 20.2816 9.52987 19.4984 10.5333 19.4984C11.6836 19.4984 13.0549 20.4529 14.6457 20.4529C16.2617 20.4529 17.1428 19.5466 17.1428 18.3474C17.1428 15.4595 8.96698 17.1971 8.96698 11.5184C8.96698 8.09132 11.7814 5.96132 15.0372 5.96132C16.4086 5.96132 19.8349 6.47606 19.8349 8.40948Z" fill="white"/>
</svg>
