<svg width="30" height="30" viewBox="0 0 30 30" fill="none" xmlns="http://www.w3.org/2000/svg">
<path d="M6.77307 26.1805C6.65025 26.1805 6.52732 26.1491 6.41687 26.0861C6.1924 25.9581 6.05371 25.7196 6.05371 25.4611V4.53918C6.05371 4.14191 6.37574 3.81982 6.77301 3.81982H23.2247C23.622 3.81982 23.944 4.14186 23.944 4.53918V25.4611C23.944 25.7196 23.8053 25.9582 23.5807 26.0862C23.3561 26.2141 23.0801 26.2117 22.8578 26.0798L15.0037 21.4216L7.13957 26.08C7.02672 26.147 6.89992 26.1805 6.77307 26.1805ZM7.49236 5.25848V24.199L14.6374 19.9666C14.8635 19.8326 15.1448 19.8327 15.3709 19.9667L22.5054 24.1982V5.25848H7.49236Z" fill="#F079C5"/>
</svg>
