<svg width="40" height="40" viewBox="0 0 40 40" fill="none" xmlns="http://www.w3.org/2000/svg">
<path d="M19.9999 28.3334C24.6023 28.3334 28.3332 24.6024 28.3332 20C28.3332 15.3976 24.6023 11.6666 19.9999 11.6666C15.3974 11.6666 11.6665 15.3976 11.6665 20C11.6665 24.6024 15.3974 28.3334 19.9999 28.3334Z" fill="#6CFF77"/>
<path d="M21.6797 25.8202C20.0594 25.8201 18.4828 25.2953 17.1856 24.3244C15.8885 23.3535 14.9406 21.9886 14.4839 20.4341C14.0271 18.8795 14.086 17.2188 14.6518 15.7005C15.2176 14.1823 16.2598 12.888 17.6225 12.0115C16.239 12.4234 14.9863 13.1876 13.9869 14.2292C12.9875 15.2708 12.2758 16.5541 11.9215 17.9535C11.5671 19.3528 11.5824 20.8202 11.9656 22.2119C12.3489 23.6037 13.087 24.8719 14.1078 25.8926C15.1285 26.9133 16.3968 27.6514 17.7885 28.0345C19.1803 28.4177 20.6477 28.4329 22.047 28.0784C23.4463 27.7241 24.7296 27.0123 25.7711 26.0129C26.8127 25.0134 27.5768 23.7606 27.9887 22.3771C27.3099 23.4337 26.3763 24.3027 25.2739 24.9044C24.1715 25.506 22.9356 25.8209 21.6797 25.8202Z" fill="#6CFF77"/>
<path d="M35.7075 18.0183C35.2307 14.2378 33.4064 10.756 30.5695 8.21199C27.7325 5.668 24.0733 4.23248 20.2633 4.16887L21.3492 3.09176C21.4278 3.01491 21.4904 2.92327 21.5335 2.82211C21.5765 2.72096 21.5991 2.6123 21.5999 2.50238C21.6007 2.39246 21.5799 2.28346 21.5384 2.18167C21.4969 2.07986 21.4357 1.98727 21.3583 1.90923C21.2809 1.83118 21.1888 1.76922 21.0874 1.72691C20.9859 1.6846 20.8771 1.66278 20.7672 1.66272C20.6573 1.66265 20.5484 1.68433 20.4469 1.72651C20.3454 1.76868 20.2532 1.83053 20.1757 1.90848L17.5361 4.52668C17.4584 4.60373 17.3967 4.69532 17.3543 4.79624C17.3121 4.89717 17.29 5.00543 17.2896 5.11486C17.2892 5.22429 17.3103 5.33273 17.3517 5.43399C17.3932 5.53526 17.4542 5.62737 17.5313 5.70504L20.1708 8.36637C20.2477 8.44496 20.3393 8.50754 20.4405 8.55059C20.5416 8.59363 20.6503 8.61621 20.7602 8.61699C20.8701 8.61785 20.9791 8.59691 21.0809 8.55551C21.1827 8.51402 21.2753 8.45285 21.3534 8.37543C21.4314 8.29801 21.4934 8.20598 21.5356 8.10449C21.578 8.00301 21.5998 7.89418 21.5999 7.7843C21.5999 7.67438 21.5782 7.56552 21.536 7.46402C21.4938 7.36252 21.4321 7.27035 21.3541 7.19285L20.0081 5.83551C22.9426 5.83756 25.804 6.75077 28.197 8.44895C30.5902 10.1472 32.3969 12.5466 33.3677 15.3158C34.3384 18.085 34.4254 21.0874 33.6165 23.9081C32.8076 26.7288 31.1427 29.2288 28.8519 31.0626C28.6795 31.2009 28.569 31.4019 28.5448 31.6217C28.5328 31.7304 28.5424 31.8405 28.5729 31.9456C28.6035 32.0507 28.6545 32.1487 28.7229 32.2341C28.7913 32.3195 28.8759 32.3906 28.9719 32.4432C29.0678 32.496 29.1731 32.5293 29.282 32.5412C29.5016 32.5654 29.722 32.5014 29.8944 32.3631C34.2288 28.8872 36.4021 23.5247 35.7075 18.0183Z" fill="#6CFF77"/>
<path d="M19.8298 31.6337C19.7529 31.5552 19.6613 31.4926 19.5601 31.4495C19.459 31.4065 19.3503 31.3839 19.2404 31.3831C19.1305 31.3823 19.0215 31.4032 18.9197 31.4446C18.8179 31.4861 18.7252 31.5473 18.6472 31.6247C18.5691 31.7021 18.5072 31.7941 18.4649 31.8956C18.4226 31.9971 18.4008 32.1059 18.4007 32.2159C18.4006 32.3258 18.4224 32.4346 18.4645 32.5361C18.5067 32.6376 18.5685 32.7298 18.6465 32.8073L19.9924 34.1641C17.0583 34.1623 14.1971 33.2494 11.8041 31.5515C9.4111 29.8537 7.60434 27.4547 6.6333 24.6859C5.66227 21.9172 5.5749 18.9152 6.38328 16.0946C7.19165 13.274 8.85587 10.7741 11.1461 8.93992C11.3185 8.80156 11.4289 8.60039 11.453 8.3807C11.477 8.16094 11.4128 7.94063 11.2745 7.76824C11.1362 7.59584 10.935 7.48546 10.7152 7.46138C10.4955 7.4373 10.2752 7.5015 10.1028 7.63984C5.77047 11.116 3.59843 16.4775 4.29304 21.9817C4.76973 25.7624 6.59406 29.2443 9.4311 31.7882C12.2682 34.3322 15.9277 35.7675 19.7377 35.8307L18.6513 36.9084C18.5727 36.9853 18.5102 37.077 18.4671 37.178C18.4241 37.2792 18.4015 37.3879 18.4006 37.4978C18.3999 37.6077 18.4207 37.7167 18.4622 37.8185C18.5037 37.9203 18.5649 38.0129 18.6423 38.0909C18.7197 38.169 18.8117 38.231 18.9132 38.2733C19.0147 38.3156 19.1234 38.3374 19.2334 38.3375C19.3433 38.3376 19.4522 38.3159 19.5537 38.2737C19.6552 38.2315 19.7474 38.1697 19.8249 38.0917L22.4644 35.4733C22.5421 35.3962 22.6038 35.3047 22.6462 35.2037C22.6885 35.1028 22.7105 34.9945 22.7109 34.8852C22.7114 34.7757 22.6903 34.6673 22.6488 34.566C22.6074 34.4647 22.5463 34.3726 22.4693 34.2949L19.8298 31.6337Z" fill="#6CFF77"/>
<path d="M20.6617 19.341C20.5433 19.2956 20.4322 19.2537 20.3366 19.2116C20.2316 19.1652 20.1059 19.117 19.9672 19.0644C19.1781 18.7647 18.7501 18.5279 18.7501 18.1359C18.7501 17.9627 18.9349 17.694 19.2876 17.5153C19.5376 17.389 20.44 17.0429 21.5899 17.888C21.678 17.9537 21.7783 18.0012 21.8848 18.028C21.9914 18.0548 22.1022 18.0602 22.2108 18.0439C22.3195 18.0277 22.4239 17.9901 22.5179 17.9334C22.612 17.8766 22.694 17.8019 22.759 17.7134C22.8241 17.6248 22.8711 17.5243 22.8972 17.4176C22.9233 17.3109 22.9279 17.2 22.911 17.0915C22.8941 16.9829 22.8559 16.8787 22.7986 16.785C22.7412 16.6913 22.6659 16.6098 22.577 16.5453C22.0594 16.1594 21.4647 15.8896 20.8334 15.7544V15C20.8313 14.7804 20.7426 14.5705 20.5865 14.4159C20.4304 14.2614 20.2197 14.1747 20.0001 14.1747C19.7804 14.1747 19.5697 14.2614 19.4136 14.4159C19.2576 14.5705 19.1689 14.7804 19.1668 15V15.7937C18.9489 15.8503 18.7373 15.9288 18.5353 16.028C17.6397 16.4812 17.0835 17.2888 17.0835 18.1358C17.0835 19.752 18.6314 20.34 19.3756 20.6226C19.4834 20.6633 19.5819 20.7003 19.6637 20.7365C19.7829 20.789 19.9201 20.8419 20.0669 20.898C20.8852 21.2105 21.2502 21.4169 21.2502 21.8121C21.2502 21.9851 21.0654 22.254 20.7127 22.4323C20.4627 22.5584 19.5608 22.9051 18.4104 22.0595C18.2324 21.9286 18.0096 21.8738 17.7912 21.9072C17.5726 21.9405 17.3764 22.0593 17.2454 22.2373C17.1146 22.4155 17.0598 22.6382 17.0931 22.8567C17.1265 23.0752 17.2453 23.2714 17.4233 23.4023C17.9406 23.7899 18.5353 24.0616 19.1669 24.1987V25C19.169 25.2196 19.2578 25.4295 19.4138 25.5841C19.5699 25.7386 19.7806 25.8253 20.0002 25.8253C20.2199 25.8253 20.4306 25.7386 20.5867 25.5841C20.7427 25.4295 20.8315 25.2196 20.8336 25V24.1574C21.0515 24.0997 21.2631 24.02 21.4651 23.9196C22.3607 23.4665 22.9168 22.6591 22.9168 21.8123C22.9167 20.2026 21.4498 19.6421 20.6617 19.341Z" fill="#0C110F"/>
<path d="M20.0001 10.8334C18.1872 10.8334 16.4149 11.371 14.9074 12.3782C13.4 13.3855 12.2251 14.8171 11.5312 16.4921C10.8375 18.1671 10.6559 20.0102 11.0097 21.7884C11.3633 23.5665 12.2364 25.1999 13.5183 26.4818C14.8003 27.7638 16.4337 28.6368 18.2119 28.9905C19.99 29.3443 21.8331 29.1627 23.508 28.4689C25.183 27.7751 26.6147 26.6002 27.6219 25.0928C28.6292 23.5853 29.1668 21.813 29.1668 20C29.1641 17.5697 28.1974 15.2397 26.4789 13.5213C24.7605 11.8027 22.4305 10.8361 20.0001 10.8334ZM20.0001 27.5C18.5168 27.5 17.0667 27.0602 15.8333 26.236C14.6 25.4119 13.6387 24.2406 13.0711 22.8702C12.5034 21.4997 12.3548 19.9917 12.6443 18.5368C12.9337 17.082 13.6479 15.7456 14.6969 14.6967C15.7458 13.6478 17.0821 12.9335 18.5369 12.6442C19.9919 12.3547 21.4998 12.5033 22.8703 13.071C24.2407 13.6386 25.4121 14.5999 26.2362 15.8332C27.0603 17.0666 27.5002 18.5167 27.5002 20C27.4978 21.9885 26.7069 23.8947 25.3009 25.3008C23.8948 26.7068 21.9886 27.4977 20.0001 27.5Z" fill="#6CFF77"/>
</svg>
