<svg width="50" height="50" viewBox="0 0 50 50" fill="none" xmlns="http://www.w3.org/2000/svg">
<path d="M25 50C38.8071 50 50 38.8071 50 25C50 11.1929 38.8071 0 25 0C11.1929 0 0 11.1929 0 25C0 38.8071 11.1929 50 25 50Z" fill="#38A8E0"/>
<path d="M38.6719 17.3006C37.6478 17.7541 36.5615 18.0517 35.4492 18.1834C36.6205 17.4817 37.4966 16.3779 37.9141 15.0779C36.8127 15.7308 35.6079 16.1905 34.3516 16.4373C33.5061 15.537 32.3873 14.9406 31.1686 14.7406C29.9498 14.5406 28.6991 14.7481 27.6103 15.331C26.5215 15.914 25.6552 16.8397 25.1459 17.9648C24.6366 19.09 24.5125 20.3517 24.793 21.5545C22.5626 21.4431 20.3806 20.8638 18.3886 19.8544C16.3966 18.8449 14.6392 17.4278 13.2305 15.6951C12.5137 16.93 12.2941 18.3914 12.6163 19.7823C12.9385 21.1733 13.7782 22.3894 14.9648 23.1834C14.0745 23.1548 13.204 22.9137 12.4258 22.4803C12.4258 22.5037 12.4258 22.5271 12.4258 22.5506C12.4253 23.8464 12.8732 25.1025 13.6934 26.1057C14.5136 27.109 15.6557 27.7975 16.9258 28.0545C16.0992 28.2798 15.2321 28.3132 14.3906 28.1521C14.7522 29.2638 15.4515 30.2349 16.3912 30.9302C17.3309 31.6255 18.4641 32.0103 19.6328 32.031C17.6455 33.5914 15.1908 34.4376 12.6641 34.4334C12.218 34.4401 11.7719 34.4205 11.3281 34.3748C13.8916 36.0218 16.8749 36.8964 19.9219 36.8943C30.2422 36.8943 35.8828 28.3475 35.8828 20.9334C35.8828 20.6912 35.8828 20.449 35.8828 20.2068C36.9777 19.4113 37.9221 18.4272 38.6719 17.3006Z" fill="white"/>
</svg>
