<svg width="137" height="137" viewBox="0 0 137 137" fill="none" xmlns="http://www.w3.org/2000/svg">
<path d="M7.8491 71.7201L4.75293 97.2674L8.93687 93.4706L12.0048 108.193L23.3479 97.003L15.7614 71.7201H7.8491Z" fill="#198C76"/>
<path d="M128.972 71.7201L132.069 97.2674L127.885 93.4706L124.817 108.193L113.474 97.003L121.06 71.7201H128.972Z" fill="#198C76"/>
<path d="M46.129 41.5461H90.9731C98.8328 41.5462 106.37 44.362 111.928 49.3741C117.486 54.3862 120.608 61.1841 120.608 68.2722V88.4934C120.608 94.6585 119.262 100.763 116.646 106.459C114.03 112.155 110.195 117.33 105.361 121.69C100.528 126.049 94.7889 129.507 88.4731 131.867C82.1574 134.226 75.3881 135.44 68.552 135.44C54.7459 135.44 41.5053 130.494 31.7429 121.69C21.9805 112.886 16.4961 100.945 16.4961 88.4944V68.2722C16.4961 61.1843 19.6181 54.3868 25.1752 49.3747C30.7324 44.3627 38.2697 41.5467 46.129 41.5461Z" fill="#F4DCC6"/>
<path d="M68.552 132.025C54.7459 132.025 41.5053 127.079 31.7429 118.275C21.9805 109.47 16.4961 97.5296 16.4961 85.0788V88.4932C16.4959 94.6583 17.8423 100.763 20.4583 106.459C23.0743 112.155 26.9087 117.33 31.7425 121.69C36.5764 126.049 42.315 129.507 48.6308 131.866C54.9466 134.226 61.7158 135.44 68.552 135.44C82.358 135.44 95.5987 130.494 105.361 121.69C115.123 112.886 120.608 100.945 120.608 88.4942V85.0778C120.608 91.2429 119.262 97.3476 116.646 103.043C114.03 108.739 110.195 113.915 105.361 118.274C100.528 122.634 94.7889 126.092 88.4731 128.451C82.1574 130.81 75.3881 132.025 68.552 132.025Z" fill="#C99673"/>
<path d="M120.607 68.2719C120.607 61.1838 117.485 54.386 111.927 49.3739C106.37 44.3619 98.832 41.5461 90.9724 41.5461H46.1287C38.2688 41.5461 30.7309 44.362 25.1732 49.3741C19.6155 54.3863 16.4932 61.1842 16.4932 68.2725V68.9653H68.6471L75.076 88.4931V72.1163C75.076 71.2807 75.4441 70.4792 76.0993 69.8883C76.7545 69.2974 77.6431 68.9654 78.5697 68.9653H120.607V68.2719Z" fill="#C99673"/>
<path d="M40.9659 95.8911C50.2921 95.8911 57.8526 89.0728 57.8526 80.662C57.8526 72.2512 50.2921 65.4329 40.9659 65.4329C31.6396 65.4329 24.0791 72.2512 24.0791 80.662C24.0791 89.0728 31.6396 95.8911 40.9659 95.8911Z" fill="#ECF0F1"/>
<path d="M40.9659 65.4329C36.4872 65.4329 32.192 67.0374 29.0251 69.8934C25.8582 72.7494 24.0791 76.623 24.0791 80.662H57.8526C57.8526 76.623 56.0735 72.7494 52.9066 69.8934C49.7397 67.0374 45.4445 65.4329 40.9659 65.4329Z" fill="#BDC3C7"/>
<path d="M43.8962 92.2326C50.2505 92.2326 55.4017 86.9958 55.4017 80.5358C55.4017 74.0759 50.2505 68.8391 43.8962 68.8391C37.5418 68.8391 32.3906 74.0759 32.3906 80.5358C32.3906 86.9958 37.5418 92.2326 43.8962 92.2326Z" fill="#414141"/>
<path d="M43.8956 86.4314C47.0982 86.4314 49.6945 83.792 49.6945 80.5361C49.6945 77.2803 47.0982 74.6409 43.8956 74.6409C40.6929 74.6409 38.0967 77.2803 38.0967 80.5361C38.0967 83.792 40.6929 86.4314 43.8956 86.4314Z" fill="#ECF0F1"/>
<path d="M96.1338 95.8911C105.46 95.8911 113.021 89.0728 113.021 80.662C113.021 72.2512 105.46 65.4329 96.1338 65.4329C86.8075 65.4329 79.2471 72.2512 79.2471 80.662C79.2471 89.0728 86.8075 95.8911 96.1338 95.8911Z" fill="#ECF0F1"/>
<path d="M96.1338 65.4329C91.6552 65.4329 87.36 67.0374 84.1931 69.8934C81.0262 72.7494 79.2471 76.623 79.2471 80.662H113.021C113.021 76.623 111.241 72.7494 108.075 69.8934C104.908 67.0374 100.612 65.4329 96.1338 65.4329Z" fill="#BDC3C7"/>
<path d="M93.2038 92.2326C99.5582 92.2326 104.709 86.9958 104.709 80.5358C104.709 74.0759 99.5582 68.8391 93.2038 68.8391C86.8495 68.8391 81.6982 74.0759 81.6982 80.5358C81.6982 86.9958 86.8495 92.2326 93.2038 92.2326Z" fill="#414141"/>
<path d="M93.2071 86.4314C96.4097 86.4314 99.006 83.792 99.006 80.5361C99.006 77.2803 96.4097 74.6409 93.2071 74.6409C90.0045 74.6409 87.4082 77.2803 87.4082 80.5361C87.4082 83.792 90.0045 86.4314 93.2071 86.4314Z" fill="#ECF0F1"/>
<path d="M36.4032 83.932C38.4828 83.932 40.1687 82.4116 40.1687 80.5361C40.1687 78.6606 38.4828 77.1403 36.4032 77.1403C34.3236 77.1403 32.6377 78.6606 32.6377 80.5361C32.6377 82.4116 34.3236 83.932 36.4032 83.932Z" fill="#ECF0F1"/>
<path d="M85.7147 83.932C87.7944 83.932 89.4802 82.4116 89.4802 80.5361C89.4802 78.6606 87.7944 77.1403 85.7147 77.1403C83.6351 77.1403 81.9492 78.6606 81.9492 80.5361C81.9492 82.4116 83.6351 83.932 85.7147 83.932Z" fill="#ECF0F1"/>
<path d="M70.3494 101.903L76.1597 95.9482C76.4642 95.636 76.6624 95.2512 76.7305 94.84C76.7987 94.4288 76.7339 94.0086 76.5439 93.6298C76.3539 93.251 76.0467 92.9296 75.6593 92.7042C75.2719 92.4789 74.8206 92.359 74.3596 92.3591H62.7391C62.278 92.359 61.8268 92.4789 61.4393 92.7042C61.0519 92.9296 60.7448 93.251 60.5548 93.6298C60.3648 94.0086 60.3 94.4288 60.3681 94.84C60.4363 95.2512 60.6345 95.636 60.939 95.9482L66.7492 101.903C66.9742 102.134 67.2511 102.319 67.5615 102.445C67.8719 102.572 68.2086 102.637 68.5493 102.637C68.89 102.637 69.2268 102.572 69.5372 102.445C69.8476 102.319 70.1245 102.134 70.3494 101.903Z" fill="#C99673"/>
<path d="M90.8872 56.2253C97.1743 55.1122 101.934 52.6628 101.519 50.7544C101.103 48.846 95.6699 48.2012 89.3828 49.3144C83.0957 50.4275 78.3358 52.8769 78.7512 54.7853C79.1667 56.6937 84.6002 57.3384 90.8872 56.2253Z" fill="#198C76"/>
<path d="M58.1477 54.7843C58.5631 52.8759 53.8032 50.4265 47.5161 49.3134C41.2291 48.2003 35.7956 48.845 35.3801 50.7534C34.9647 52.6618 39.7246 55.1112 46.0117 56.2243C52.2988 57.3374 57.7323 56.6927 58.1477 54.7843Z" fill="#198C76"/>
<path d="M67.6667 1.76214C31.0329 2.19085 1.88965 29.7316 1.88965 62.7723V88.4928L9.87878 75.2615L12.8409 88.4928L14.2585 86.181C15.3497 87.7603 16.6353 89.2233 18.0909 90.5423C22.1249 94.1346 27.0157 95.3356 29.9903 95.7795C26.373 92.7234 23.5813 88.9596 21.8299 84.7779C20.8384 82.2522 20.1946 79.6263 19.913 76.9591L29.1608 61.8764L40.001 46.3154C46.9485 63.1259 59.1273 77.7712 75.0761 88.4938C75.0761 88.4938 71.3778 70.4291 70.3349 60.6728C70.2077 59.4821 70.1016 58.3119 70.0042 57.151C75.5123 61.0499 81.8609 63.8708 88.6452 65.4337C85.7908 60.8032 83.4459 55.9319 81.6439 50.8894C81.2181 49.6967 80.843 48.5371 80.4973 47.3951C94.8827 54.8262 107.383 64.8919 117.193 76.9442C116.912 79.6163 116.268 82.2471 115.274 84.7772C113.523 88.959 110.731 92.7227 107.114 95.7789C110.09 95.3349 114.979 94.1339 119.014 90.5416C120.727 88.9949 122.2 87.245 123.391 85.3401C124.081 86.3793 124.752 87.4301 125.404 88.4925C126.153 84.3965 126.903 80.3004 127.653 76.2044L135.215 88.4925V61.8755C135.215 53.9134 133.461 46.0306 130.055 38.6847C126.65 31.3389 121.66 24.6763 115.376 19.0838C109.091 13.4913 101.638 9.0802 93.4479 6.10668C85.258 3.13315 76.4947 1.65639 67.6667 1.76214Z" fill="#6CFF77"/>
<path d="M130.45 39.5664C128.711 35.6391 126.516 31.8888 123.902 28.3779C110.865 37.9685 90.9161 44.1063 68.5475 44.1063C46.3134 44.1063 26.4727 38.0401 13.4311 28.5486C10.8108 32.0722 8.60194 35.831 6.83984 39.7649C13.199 46.3446 22.4471 51.8082 33.565 55.5476L39.9976 46.3135C41.7975 50.6548 43.9515 54.87 46.442 58.9243C53.7083 60.3242 61.1187 61.0257 68.549 61.0171C69.1599 61.0171 69.7613 60.9986 70.369 60.9896C70.3572 60.8846 70.344 60.7753 70.3322 60.6719C70.2051 59.4812 70.0989 58.311 70.0016 57.1501C71.9012 58.4888 73.9042 59.7038 75.9952 60.7859C79.2306 60.5871 82.3976 60.2498 85.489 59.8009C84.0128 56.9012 82.7279 53.9253 81.6412 50.8888C81.2155 49.6961 80.8404 48.5365 80.4947 47.3945C86.234 50.362 91.688 53.7574 96.7995 57.545C111.038 53.8795 122.851 47.5274 130.45 39.5664Z" fill="#8CFFE9"/>
<path d="M59.583 111.483H77.7129V116.64C77.7129 117.713 77.4785 118.777 77.0229 119.768C76.5674 120.76 75.8997 121.661 75.0579 122.42C74.2162 123.18 73.2169 123.782 72.1171 124.193C71.0173 124.603 69.8385 124.815 68.6481 124.815C67.4577 124.815 66.279 124.603 65.1792 124.193C64.0794 123.782 63.0801 123.18 62.2384 122.42C61.3966 121.661 60.7289 120.76 60.2734 119.768C59.8178 118.777 59.5834 117.713 59.5834 116.64V111.483H59.583Z" fill="#FF6D55"/>
<path d="M69.4594 114.408C69.4594 114.043 69.1316 113.747 68.7273 113.747C68.3229 113.747 67.9951 114.043 67.9951 114.408V122.803C67.9951 123.168 68.3229 123.463 68.7273 123.463C69.1316 123.463 69.4594 123.168 69.4594 122.803V114.408Z" fill="#D85B4A"/>
<path d="M82.82 110.021H54.2804C53.8504 110.021 53.438 110.175 53.134 110.449C52.83 110.723 52.6592 111.095 52.6592 111.483C52.6592 111.871 52.83 112.243 53.134 112.517C53.438 112.791 53.8504 112.945 54.2804 112.945H57.7053V116.566C57.7221 119.163 58.878 121.649 60.9207 123.481C62.9633 125.312 65.7267 126.34 68.6071 126.34C71.4875 126.34 74.2509 125.312 76.2936 123.481C78.3363 121.649 79.4922 119.163 79.5089 116.566V112.945H82.82C83.25 112.945 83.6623 112.791 83.9664 112.517C84.2704 112.243 84.4412 111.871 84.4412 111.483C84.4412 111.095 84.2704 110.723 83.9664 110.449C83.6623 110.175 83.25 110.021 82.82 110.021ZM75.8353 116.566C75.8217 118.286 75.0541 119.933 73.7001 121.145C72.346 122.357 70.5153 123.038 68.6071 123.038C66.699 123.038 64.8683 122.357 63.5142 121.145C62.1601 119.933 61.3926 118.286 61.379 116.566V113.065H75.8353V116.566Z" fill="black"/>
<path d="M116.619 17.8113C110.175 12.0464 102.518 7.50155 94.0984 4.44408C85.6787 1.38662 76.6661 -0.121749 67.5905 0.0076763C49.4426 0.220374 32.4218 6.89021 19.6675 18.7887C7.01829 30.5454 -0.0389076 46.2927 0.000161354 62.674V88.3949C0.00019956 88.7631 0.13624 89.1207 0.3868 89.4114C0.63736 89.7021 0.988157 89.9092 1.38378 90.0001C1.77941 90.0909 2.19733 90.0603 2.57151 89.9131C2.9457 89.7658 3.25484 89.5104 3.4501 89.187L3.91482 88.4168L2.87627 96.9913C2.83496 97.3327 2.91232 97.6772 3.09765 97.9772C3.28298 98.2772 3.56713 98.5179 3.91076 98.6658C4.2544 98.8138 4.64053 98.8618 5.01575 98.8032C5.39097 98.7446 5.73671 98.5823 6.00514 98.3387L7.72625 96.7769L10.149 108.403C10.2123 108.705 10.3676 108.986 10.5975 109.213C10.8273 109.44 11.1228 109.605 11.4507 109.689C11.7787 109.773 12.1261 109.773 12.4542 109.69C12.7823 109.606 13.0781 109.442 13.3084 109.215L17.7704 104.813C25.2526 123.559 45.1661 137 68.4975 137C91.7478 137 111.605 123.654 119.148 105.01L123.409 109.215C123.639 109.442 123.935 109.607 124.263 109.691C124.592 109.775 124.94 109.775 125.268 109.69C125.596 109.606 125.892 109.441 126.122 109.214C126.352 108.986 126.507 108.706 126.57 108.403L128.993 96.7769L130.714 98.3387C130.982 98.5829 131.328 98.7459 131.704 98.8048C132.079 98.8638 132.466 98.816 132.81 98.6679C133.154 98.5198 133.439 98.2788 133.624 97.9784C133.809 97.678 133.887 97.333 133.845 96.9913L132.74 87.8724L133.557 89.2C133.754 89.5209 134.064 89.7737 134.438 89.9184C134.812 90.0632 135.229 90.0919 135.623 89.9999C136.017 89.9079 136.366 89.7005 136.615 89.4102C136.865 89.12 137 88.7633 137 88.3962V61.7775C137.027 53.5935 135.238 45.4873 131.737 37.9365C128.237 30.3856 123.097 23.5429 116.619 17.8113ZM13.0803 104.53L10.6924 93.0666C10.6305 92.77 10.4799 92.4942 10.2568 92.2692C10.0338 92.0441 9.74678 91.8782 9.42683 91.7896C9.10689 91.7009 8.76616 91.6927 8.44145 91.766C8.11674 91.8393 7.82041 91.9911 7.58445 92.2052L7.09952 92.6452L8.53997 80.7593L9.026 79.9546L10.9892 88.7229C11.0634 89.0541 11.2482 89.3569 11.5187 89.5907C11.7893 89.8245 12.1326 89.9782 12.5027 90.0309C12.8728 90.0837 13.252 90.0332 13.5893 89.8861C13.9266 89.7389 14.206 89.5023 14.3899 89.2079C14.466 89.2957 14.5442 89.3812 14.6214 89.468C14.7143 93.42 15.3436 97.347 16.4949 101.161L13.0803 104.53ZM68.499 133.685C42.5504 133.685 21.1425 115.843 18.5496 93.0487C21.7938 95.2818 25.6053 96.7483 29.6378 97.315C29.7373 97.3299 29.8379 97.3373 29.9387 97.3372C30.3052 97.337 30.6632 97.238 30.9668 97.0528C31.2703 96.8677 31.5055 96.6049 31.6422 96.2983C31.7788 95.9916 31.8106 95.6551 31.7335 95.332C31.6564 95.009 31.4739 94.7141 31.2094 94.4853C27.7914 91.6062 25.1543 88.056 23.5025 84.1098C22.62 81.8763 22.032 79.5569 21.7508 77.1994L30.6911 62.6184L36.2721 54.6068C36.566 54.7876 36.8801 54.9695 37.2335 55.1511C39.1821 56.1051 41.2575 56.8312 43.4097 57.3119C45.0232 60.1207 46.7865 62.851 48.6998 65.5027C45.8807 64.3306 42.7799 63.8171 39.683 64.0097C36.5862 64.2022 33.5928 65.0946 30.9788 66.6046C28.3648 68.1146 26.2143 70.1936 24.7254 72.65C23.2364 75.1065 22.4569 77.8614 22.4588 80.6609C22.4588 80.8529 22.5007 81.043 22.5822 81.2204C22.6636 81.3978 22.7831 81.559 22.9336 81.6947C23.0841 81.8305 23.2629 81.9382 23.4596 82.0117C23.6562 82.0851 23.8671 82.123 24.08 82.123C24.2929 82.123 24.5037 82.0851 24.7004 82.0117C24.8971 81.9382 25.0758 81.8305 25.2263 81.6947C25.3769 81.559 25.4963 81.3978 25.5777 81.2204C25.6592 81.043 25.7011 80.8529 25.7011 80.6609C25.6989 78.647 26.1872 76.6571 27.1315 74.8321C28.0757 73.007 29.4529 71.3912 31.1657 70.0989C32.8785 68.8066 34.8851 67.8693 37.0437 67.3533C39.2024 66.8373 41.4603 66.7551 43.658 67.1125C36.3923 67.2195 30.5137 73.1645 30.5137 80.4608C30.5137 87.8237 36.4992 93.8141 43.856 93.8141C50.7082 93.8141 56.3678 88.6165 57.1128 81.9533C57.3409 82.0628 57.5951 82.1208 57.8535 82.1223C58.2835 82.1222 58.6958 81.9681 58.9998 81.6939C59.3039 81.4196 59.4746 81.0477 59.4746 80.6599C59.4732 79.6599 59.3721 78.6619 59.1727 77.6782C63.6601 82.101 68.5992 86.1329 73.9246 89.7208C74.2205 89.9202 74.5762 90.0345 74.9453 90.0489C75.3143 90.0632 75.6796 89.9768 75.9934 89.801C76.3072 89.6253 76.5549 89.3683 76.7042 89.0636C76.8536 88.7589 76.8976 88.4207 76.8305 88.0931C76.7938 87.9138 73.1569 70.1032 72.1216 60.5086C73.5128 61.3445 74.9467 62.1191 76.411 62.8258C79.5801 64.3531 82.915 65.5827 86.363 66.495C83.6918 67.9923 81.4877 70.0788 79.9588 72.5576C78.43 75.0363 77.6267 77.8255 77.6248 80.6619C77.6248 81.0497 77.7956 81.4216 78.0996 81.6959C78.4036 81.9701 78.816 82.1242 79.246 82.1243C79.4761 82.1238 79.7033 82.0786 79.9124 81.9918C80.6739 88.6364 86.3258 93.815 93.1644 93.815C100.521 93.815 106.507 87.8247 106.507 80.4618C106.507 73.1883 100.666 67.2583 93.4304 67.1155C95.6287 66.7563 97.8877 66.8371 100.048 67.3523C102.207 67.8674 104.215 68.8042 105.929 70.0965C107.644 71.3888 109.022 73.005 109.967 74.8307C110.912 76.6564 111.4 78.6471 111.398 80.6619C111.396 80.9827 111.512 81.295 111.728 81.5504C111.943 81.8057 112.246 81.9899 112.589 82.0743C112.932 82.1587 113.297 82.1386 113.626 82.0172C113.955 81.8958 114.231 81.6798 114.41 81.4027C114.159 82.3193 113.854 83.2233 113.497 84.1108C111.845 88.0569 109.208 91.6071 105.79 94.4863C105.507 94.7312 105.318 95.0513 105.251 95.3999C105.185 95.7485 105.243 96.1072 105.419 96.4235C105.595 96.7398 105.878 96.9971 106.227 97.1577C106.577 97.3183 106.974 97.3737 107.361 97.316C111.394 96.7494 115.207 95.2825 118.451 93.0487C115.858 115.843 94.448 133.685 68.499 133.685ZM38.2247 51.8049L39.1262 50.5112C39.3466 50.48 39.5814 50.4522 39.8334 50.429C40.2654 51.3547 40.714 52.2734 41.179 53.1851C40.1409 52.8246 39.1501 52.3617 38.2247 51.8049ZM53.524 80.4628C53.524 85.9989 49.1865 90.503 43.8553 90.503C38.5241 90.503 34.1866 85.9973 34.1866 80.4628C34.1866 74.9283 38.5237 70.4206 43.8553 70.4206C49.1869 70.4206 53.5255 74.9264 53.5255 80.4618L53.524 80.4628ZM90.3342 64.8163C90.2995 64.7177 90.2544 64.6223 90.1997 64.5313C88.9507 62.5024 87.8008 60.4195 86.7509 58.2985C88.2464 58.2131 89.734 58.0389 91.2041 57.777C92.0226 57.6322 92.8205 57.4606 93.5949 57.2714C97.2283 59.8382 100.688 62.5992 103.955 65.5395C99.684 63.7379 94.8098 63.4791 90.3342 64.8163ZM93.1644 70.4206C98.4956 70.4206 102.833 74.9264 102.833 80.4608C102.833 85.9953 98.4971 90.502 93.1644 90.502C87.8317 90.502 83.4957 85.9963 83.4957 80.4618C83.4957 74.9274 87.8346 70.4206 93.1644 70.4206ZM85.2318 55.0381C84.8441 54.1522 84.4741 53.261 84.1217 52.3645C84.4949 52.2203 84.8975 52.0777 85.3296 51.9368C86.8198 52.8123 88.2847 53.7167 89.724 54.6498C88.2412 54.8889 86.7394 55.0191 85.2333 55.0391L85.2318 55.0381ZM113.749 75.5489C114.249 76.1302 114.744 76.7163 115.233 77.3071C115.083 78.4362 114.883 79.5033 114.636 80.5244C114.623 78.8352 114.324 77.1578 113.75 75.5499L113.749 75.5489ZM129.137 92.2042C128.901 91.9901 128.604 91.8381 128.28 91.7648C127.955 91.6915 127.614 91.6996 127.294 91.7883C126.974 91.877 126.687 92.0428 126.464 92.268C126.241 92.4931 126.09 92.7689 126.028 93.0656L123.64 104.529L120.439 101.371C121.631 97.4927 122.282 93.4957 122.377 89.4723C122.674 89.1373 122.972 88.7875 123.265 88.4224C123.427 88.6819 123.586 88.9396 123.742 89.1953C123.927 89.4965 124.211 89.7383 124.554 89.8873C124.898 90.0363 125.285 90.0851 125.661 90.0268C126.037 89.9685 126.384 89.8061 126.653 89.5621C126.922 89.3181 127.1 89.0046 127.162 88.6652L128.351 82.1687L129.621 92.6455L129.137 92.2042ZM133.325 81.9958L129.205 75.3034C129.02 75.0027 128.736 74.7614 128.392 74.613C128.048 74.4646 127.661 74.4164 127.286 74.4751C126.91 74.5338 126.564 74.6965 126.295 74.9406C126.027 75.1847 125.849 75.4982 125.787 75.8374L124.322 83.8444C124.109 83.7229 123.872 83.642 123.623 83.6067C123.375 83.5714 123.121 83.5824 122.878 83.6391C122.634 83.6957 122.407 83.7969 122.208 83.9362C122.01 84.0755 121.845 84.2501 121.725 84.4491C120.621 86.2126 119.256 87.8329 117.669 89.2659C116.217 90.55 114.536 91.6056 112.697 92.3888C114.475 90.199 115.906 87.7959 116.946 85.2492C117.996 82.5921 118.675 79.8275 118.967 77.0192C119.014 76.6097 118.891 76.1988 118.621 75.8669C108.675 63.6148 95.9782 53.3905 81.3572 45.8606C81.0418 45.6977 80.6798 45.6229 80.3171 45.6456C79.9545 45.6683 79.6074 45.7875 79.32 45.9882C79.0325 46.1889 78.8175 46.462 78.7023 46.7729C78.587 47.0838 78.5767 47.4186 78.6725 47.7348C79.0623 49.0203 79.444 50.1865 79.8429 51.3003C81.2289 55.1749 82.929 58.9522 84.9295 62.6018C79.9305 61.0153 75.2538 58.7001 71.0856 55.7484C70.8053 55.5501 70.4671 55.4296 70.1121 55.4015C69.7572 55.3735 69.4008 55.4392 69.0865 55.5905C68.7722 55.7419 68.5135 55.9725 68.342 56.2541C68.1704 56.5357 68.0934 56.8563 68.1203 57.1767C68.2338 58.5327 68.3407 59.6615 68.4542 60.7329C69.1812 67.5343 71.2061 78.4283 72.3685 84.4136C58.5188 74.1599 47.9269 60.7816 41.6695 45.639C41.5497 45.3496 41.3426 45.0961 41.0715 44.9073C40.8004 44.7184 40.4762 44.6017 40.1354 44.5703C39.7947 44.5388 39.451 44.594 39.1431 44.7294C38.8353 44.8649 38.5755 45.0753 38.3933 45.3368L27.5527 60.8963C27.5343 60.9224 27.5159 60.9489 27.5005 60.9761L18.2528 76.0584C18.0705 76.3553 17.9935 76.6955 18.0324 77.0331C18.3253 79.8367 19.0034 82.5967 20.051 85.2495C21.0914 87.7963 22.5215 90.1994 24.2996 92.3891C22.4605 91.606 20.7799 90.5504 19.3277 89.2662C17.976 88.0405 16.7818 86.6812 15.7679 85.214C15.6034 84.9735 15.3734 84.775 15.0998 84.6373C14.8262 84.4995 14.5181 84.4272 14.2048 84.4272H14.1607C14.0332 84.4299 13.9064 84.4447 13.7823 84.4713L11.6251 74.8362C11.5504 74.503 11.3638 74.1986 11.0907 73.9643C10.8176 73.73 10.4711 73.5772 10.0984 73.5266C9.72565 73.4759 9.34465 73.5299 9.00711 73.6812C8.66956 73.8325 8.39181 74.0739 8.21154 74.3724L3.67383 81.8891V62.6734C3.67383 30.3585 32.3677 3.7342 67.6375 3.32006C76.2224 3.21708 84.7445 4.65305 92.709 7.5446C100.673 10.4362 107.922 14.7257 114.033 20.1642C120.144 25.6027 124.997 32.0818 128.309 39.2254C131.621 46.3689 133.326 54.0347 133.326 61.7775L133.325 81.9958Z" fill="black"/>
</svg>


